<?xml version="1.0" encoding="UTF-8" standalone="no"?>
<svg
   xmlns:osb="http://www.openswatchbook.org/uri/2009/osb"
   xmlns:dc="http://purl.org/dc/elements/1.1/"
   xmlns:cc="http://creativecommons.org/ns#"
   xmlns:rdf="http://www.w3.org/1999/02/22-rdf-syntax-ns#"
   xmlns:svg="http://www.w3.org/2000/svg"
   xmlns="http://www.w3.org/2000/svg"
   xmlns:sodipodi="http://sodipodi.sourceforge.net/DTD/sodipodi-0.dtd"
   xmlns:inkscape="http://www.inkscape.org/namespaces/inkscape"
   height="450"
   version="1.1"
   width="330"
   id="svg72"
   sodipodi:docname="Martini.svg"
   inkscape:version="0.92.5 (2060ec1f9f, 2020-04-08)">
  <metadata
     id="metadata78">
    <rdf:RDF>
      <cc:Work
         rdf:about="">
        <dc:format>image/svg+xml</dc:format>
        <dc:type
           rdf:resource="http://purl.org/dc/dcmitype/StillImage" />
        <dc:title />
      </cc:Work>
    </rdf:RDF>
  </metadata>
  <defs
     id="defs76">
    <linearGradient
       id="linearGradient891"
       osb:paint="gradient">
      <stop
         style="stop-color:#000000;stop-opacity:1;"
         offset="0"
         id="stop887" />
      <stop
         style="stop-color:#000000;stop-opacity:0;"
         offset="1"
         id="stop889" />
    </linearGradient>
  </defs>
  <sodipodi:namedview
     pagecolor="#ffffff"
     bordercolor="#666666"
     borderopacity="1"
     objecttolerance="10"
     gridtolerance="10"
     guidetolerance="10"
     inkscape:pageopacity="0"
     inkscape:pageshadow="2"
     inkscape:window-width="1920"
     inkscape:window-height="986"
     id="namedview74"
     showgrid="false"
     inkscape:zoom="0.7510561"
     inkscape:cx="217.6771"
     inkscape:cy="330.89619"
     inkscape:window-x="2389"
     inkscape:window-y="-11"
     inkscape:window-maximized="1"
     inkscape:current-layer="svg72" />
  <rect
     style="opacity:1;fill:#000080;fill-opacity:1;stroke:#000080;stroke-width:0.21103664;stroke-opacity:1"
     id="Liquid-32"
     width="228.65865"
     height="2.7591665"
     x="49.451664"
     y="112.77564"
     inkscape:label="#rect2491" />
  <rect
     style="opacity:1;fill:#0000ff;fill-opacity:1;stroke:#0000ff;stroke-width:0.21103664;stroke-opacity:1"
     id="Liquid-31"
     width="228.65865"
     height="2.7591665"
     x="48.914848"
     y="115.35087"
     inkscape:label="#rect2491-4" />
  <rect
     style="opacity:1;fill:#000080;fill-opacity:1;stroke:#000080;stroke-width:0.21103664;stroke-opacity:1"
     id="Liquid-30"
     width="228.65865"
     height="2.7591665"
     x="49.183319"
     y="117.8801"
     inkscape:label="#rect2491-3" />
  <rect
     style="opacity:1;fill:#000080;fill-opacity:1;stroke:#000080;stroke-width:0.21103664;stroke-opacity:1"
     id="Liquid-28"
     width="228.65865"
     height="2.7591665"
     x="49.317558"
     y="123.09953"
     inkscape:label="#rect2491-6" />
  <rect
     style="opacity:1;fill:#0000ff;fill-opacity:1;stroke:#0000ff;stroke-width:0.21103664;stroke-opacity:1"
     id="Liquid-29"
     width="228.65865"
     height="2.7591665"
     x="48.646507"
     y="120.45532"
     inkscape:label="#rect2491-4-6" />
  <path
     id="Half-wedge"
     style="opacity:1;fill:#ffff00;fill-opacity:1;stroke:#ffff00;stroke-width:0.3225055;stroke-opacity:1"
     d="m 258.9697,103.33094 c -4.76892,-1.67371 -9.50845,-3.742258 -13.111,-5.722248 -2.93763,-1.614541 -4.38978,-3.167352 -4.88754,-5.226345 -0.64867,-2.683209 1.12153,-6.598577 4.11961,-9.111806 1.87006,-1.567629 5.38234,-3.17158 7.66681,-3.501195 2.3044,-0.332495 2.22135,-0.347453 4.28875,0.772089 2.94328,1.593872 6.05874,6.485027 9.13719,14.345093 1.8092,4.619314 3.00189,8.923052 2.68137,9.675502 -0.33298,0.78172 -2.53534,1.08548 -4.33788,0.5983 -0.82495,-0.22298 -3.32574,-1.04619 -5.55731,-1.82939 z m 13.44234,13.57111 c -23.26854,-6.57033 -43.49212,-12.33473 -44.94133,-12.80982 l -2.63493,-0.86378 0.90992,-2.96617 c 0.5004,-1.631388 2.15707,-6.104146 3.68139,-9.939468 2.38031,-5.98906 3.39082,-7.748584 7.15951,-12.466152 17.17214,-21.495761 47.35384,-25.208469 68.79616,-8.462744 4.64041,3.624002 9.9737,9.748985 12.84011,14.746146 2.42117,4.22093 5.06788,12.479241 5.76352,17.983438 0.62962,4.9819 0.5527,7.43329 -0.43451,13.84628 -0.65979,4.28593 -1.70004,9.19851 -2.31169,10.91685 l -1.1121,3.12422 -2.70485,-0.58134 c -1.48765,-0.31977 -21.74271,-5.95711 -45.01121,-12.52742 z m 47.72626,9.23188 c 0.293,-1.1835 1.0648,-5.51627 1.71513,-9.62837 0.96066,-6.07442 1.04588,-8.64752 0.4544,-13.72049 -4.25453,-36.489806 -46.09392,-54.505242 -75.57036,-32.539484 -7.89861,5.886024 -11.8476,11.24778 -16.45642,22.34376 -2.01235,4.844825 -3.55294,8.985934 -3.42354,9.202484 0.40549,0.6786 65.239,19.33239 85.75999,24.67472 l 6.98809,1.81921 z m -19.65862,-3.97415 c -2.76633,-0.78045 -18.48279,-5.18859 -34.92544,-9.79583 -33.20304,-9.30353 -37.85335,-10.76038 -37.597,-11.77852 0.91596,-3.637903 6.84763,-16.51665 8.98277,-19.503353 5.42648,-7.590696 15.10051,-14.821565 23.68041,-17.69995 20.02815,-6.719035 42.56073,1.149015 53.95421,18.840042 3.93617,6.111819 6.5985,13.140953 7.35872,19.428691 0.7636,6.31574 0.53788,10.17204 -1.10047,18.80062 l -1.30222,6.85833 -7.01062,-1.86551 c -3.85585,-1.02607 -9.27402,-2.50405 -12.04036,-3.28452 z m 15.70801,0.24412 c 1.38114,-1.02709 2.94946,-12.79154 2.44902,-18.37088 -0.61484,-6.854693 -2.27748,-11.697384 -6.36647,-18.543285 -3.01697,-5.051104 -4.55051,-6.888357 -8.54434,-10.236597 -6.83118,-5.726934 -11.04881,-7.75852 -19.95733,-9.61321 -6.23157,-1.297366 -7.98582,-1.415344 -12.76521,-0.858487 -17.31077,2.01694 -32.27847,14.343801 -36.79344,30.30179 l -1.16399,4.114051 8.53029,2.621848 c 4.69167,1.44202 22.63508,6.6358 39.87425,11.54173 17.23917,4.90593 31.90611,9.0973 32.5932,9.31414 0.6871,0.21688 1.65191,0.0948 2.14402,-0.2711 z M 288.5652,110.6822 c -3.6758,-1.13495 -6.8203,-2.29537 -6.98779,-2.57873 -0.90083,-1.52395 6.90362,-8.625098 15.72493,-14.307899 5.85047,-3.768949 6.25544,-3.910994 9.12494,-3.200607 2.65109,0.656315 3.25504,1.169609 5.15674,4.382689 2.31717,3.915029 3.14765,9.092727 2.12255,13.233457 -0.98647,3.98469 -4.69173,5.68806 -11.17818,5.1388 -2.85881,-0.24208 -5.6663,-0.47705 -6.23888,-0.52216 -0.57258,-0.0451 -4.04854,-1.01051 -7.72431,-2.14555 z m -14.59617,-7.76041 c -1.41591,-2.59235 -3.50538,-14.535254 -3.68824,-21.081015 -0.16787,-6.009583 -0.0997,-6.355347 1.69196,-8.585511 3.58063,-4.456882 12.809,-3.987723 19.0637,0.969183 2.76303,2.189721 3.20577,2.944422 3.29464,5.616123 0.0923,2.775148 -0.26464,3.619067 -3.53919,8.366797 -3.87378,5.616559 -11.70684,13.994243 -14.3855,15.385733 -1.50727,0.78297 -1.66711,0.73895 -2.43738,-0.6713 z"
     inkscape:connector-curvature="0"
     inkscape:label="#path2441" />
  <rect
     style="opacity:1;fill:#0000ff;fill-opacity:1;stroke:#0000ff;stroke-width:0.16756664;stroke-opacity:1"
     id="Liquid-1"
     width="39.426105"
     height="10.088835"
     x="143.27283"
     y="236.36644"
     inkscape:label="#rect2491-4-6-5-1-0" />
  <rect
     style="opacity:1;fill:#000080;fill-opacity:1;stroke:#000080;stroke-width:0.15744701;stroke-opacity:1"
     id="Liquid-2"
     width="47.224854"
     height="7.4361501"
     x="142.91048"
     y="229.51598"
     inkscape:label="#rect2491-3-2-2-9" />
  <rect
     style="opacity:1;fill:#0000ff;fill-opacity:1;stroke:#0000ff;stroke-width:0.18369702;stroke-opacity:1"
     id="Liquid-3"
     width="64.423431"
     height="7.4201097"
     x="131.87852"
     y="222.80087"
     inkscape:label="#rect2491-4-8-6-5" />
  <rect
     style="opacity:1;fill:#0000ff;fill-opacity:1;stroke:#0000ff;stroke-width:0.20398094;stroke-opacity:1"
     id="Liquid-5"
     width="79.541496"
     height="7.4102917"
     x="122.09054"
     y="208.93176"
     inkscape:label="#rect2491-4-6-0-5" />
  <rect
     style="opacity:1;fill:#000080;fill-opacity:1;stroke:#000080;stroke-width:0.19486187;stroke-opacity:1"
     id="Liquid-4"
     width="72.523575"
     height="7.4169316"
     x="125.28873"
     y="215.95718"
     inkscape:label="#rect2491-6-2-0" />
  <rect
     style="opacity:1;fill:#000080;fill-opacity:1;stroke:#000080;stroke-width:0.22051355;stroke-opacity:1"
     id="Liquid-6"
     width="93.094345"
     height="7.399415"
     x="115.88029"
     y="202.0919"
     inkscape:label="#rect2491-3-25-1" />
  <rect
     style="opacity:1;fill:#0000ff;fill-opacity:1;stroke:#0000ff;stroke-width:0.22751418;stroke-opacity:1"
     id="Liquid-7"
     width="99.153984"
     height="7.3953142"
     x="114.49692"
     y="195.37088"
     inkscape:label="#rect2491-4-3-2" />
  <rect
     style="opacity:1;fill:#000080;fill-opacity:1;stroke:#000080;stroke-width:0.24552462;stroke-opacity:1"
     id="Liquid-8"
     width="115.6063"
     height="7.3868351"
     x="104.0214"
     y="188.52977"
     inkscape:label="#rect2491-0-5" />
  <rect
     style="opacity:1;fill:#0000ff;fill-opacity:1;stroke:#0000ff;stroke-width:0.19670984;stroke-opacity:1"
     id="Liquid-9"
     width="122.40737"
     height="4.4781079"
     x="99.053078"
     y="184.4127"
     inkscape:label="#rect2491-4-6-5-8" />
  <rect
     style="opacity:1;fill:#000080;fill-opacity:1;stroke:#000080;stroke-width:0.19381975;stroke-opacity:1"
     id="Liquid-22"
     width="192.3492"
     height="2.7666581"
     x="69.686279"
     y="138.424"
     inkscape:label="#rect2491-3-25" />
  <rect
     style="opacity:1;fill:#0000ff;fill-opacity:1;stroke:#0000ff;stroke-width:0.19185086;stroke-opacity:1"
     id="Liquid-21"
     width="188.21725"
     height="2.7702429"
     x="65.793808"
     y="140.99742"
     inkscape:label="#rect2491-4-6-0" />
  <rect
     style="opacity:1;fill:#000080;fill-opacity:1;stroke:#000080;stroke-width:0.1898905;stroke-opacity:1"
     id="Liquid-20"
     width="184.42204"
     height="2.7697685"
     x="71.508011"
     y="143.64186"
     inkscape:label="#rect2491-6-2" />
  <rect
     style="opacity:1;fill:#0000ff;fill-opacity:1;stroke:#0000ff;stroke-width:0.19109662;stroke-opacity:1"
     id="Liquid-19"
     width="186.77667"
     height="2.7697029"
     x="68.6166"
     y="146.21712"
     inkscape:label="#rect2491-4-8-6" />
  <rect
     style="opacity:1;fill:#000080;fill-opacity:1;stroke:#000080;stroke-width:0.19052505;stroke-opacity:1"
     id="Liquid-18"
     width="185.67729"
     height="2.7694607"
     x="70.566788"
     y="148.74648"
     inkscape:label="#rect2491-3-2-2" />
  <rect
     style="opacity:1;fill:#0000ff;fill-opacity:1;stroke:#0000ff;stroke-width:0.23051547;stroke-opacity:1"
     id="Liquid-17"
     width="168.8298"
     height="4.4586248"
     x="80.972748"
     y="151.20601"
     inkscape:label="#rect2491-4-6-5-1" />
  <rect
     style="opacity:1;fill:#000080;fill-opacity:1;stroke:#000080;stroke-width:0.23077476;stroke-opacity:1"
     id="Liquid-16"
     width="169.14847"
     height="4.4602423"
     x="78.972397"
     y="155.44292"
     inkscape:label="#rect2491-8" />
  <rect
     style="opacity:1;fill:#0000ff;fill-opacity:1;stroke:#0000ff;stroke-width:0.22376919;stroke-opacity:1"
     id="Liquid-15"
     width="158.97307"
     height="4.4619722"
     x="83.781937"
     y="159.58713"
     inkscape:label="#rect2491-4-4" />
  <rect
     style="opacity:1;fill:#000080;fill-opacity:1;stroke:#000080;stroke-width:0.21847348;stroke-opacity:1"
     id="Liquid-14"
     width="151.40495"
     height="4.4658813"
     x="87.056389"
     y="163.65627"
     inkscape:label="#rect2491-3-7" />
  <rect
     style="opacity:1;fill:#0000ff;fill-opacity:1;stroke:#0000ff;stroke-width:0.21266434;stroke-opacity:1"
     id="Liquid-13"
     width="143.36676"
     height="4.4687982"
     x="90.516815"
     y="167.79994"
     inkscape:label="#rect2491-4-6-2" />
  <rect
     style="opacity:1;fill:#000080;fill-opacity:1;stroke:#000080;stroke-width:0.21045806;stroke-opacity:1"
     id="Liquid-12"
     width="140.35645"
     height="4.4704227"
     x="91.654488"
     y="172.05524"
     inkscape:label="#rect2491-6-28" />
  <rect
     style="opacity:1;fill:#0000ff;fill-opacity:1;stroke:#0000ff;stroke-width:0.20769088;stroke-opacity:1"
     id="Liquid-11"
     width="136.62361"
     height="4.472589"
     x="92.867249"
     y="176.19925"
     inkscape:label="#rect2491-4-8-5" />
  <rect
     style="opacity:1;fill:#000080;fill-opacity:1;stroke:#000080;stroke-width:0.20051906;stroke-opacity:1"
     id="Liquid-10"
     width="127.28225"
     height="4.4750032"
     x="98.458061"
     y="180.26912"
     inkscape:label="#rect2491-3-2-0" />
  <rect
     style="opacity:1;fill:#0000ff;fill-opacity:1;stroke:#0000ff;stroke-width:0.21103664;stroke-opacity:1"
     id="Liquid-27"
     width="228.65865"
     height="2.7591665"
     x="48.780743"
     y="125.67474"
     inkscape:label="#rect2491-4-8" />
  <rect
     style="opacity:1;fill:#0000ff;fill-opacity:1;stroke:#0000ff;stroke-width:0.20001127;stroke-opacity:1"
     id="Liquid-25"
     width="205.00923"
     height="2.7643013"
     x="61.096649"
     y="130.77664"
     inkscape:label="#rect2491-4-6-5" />
  <rect
     style="opacity:1;fill:#000080;fill-opacity:1;stroke:#000080;stroke-width:0.20918611;stroke-opacity:1"
     id="Liquid-26"
     width="224.66611"
     height="2.7591665"
     x="53.041752"
     y="128.20398"
     inkscape:label="#rect2491-3-2" />
  <rect
     style="opacity:1;fill:#0000ff;fill-opacity:1;stroke:#0000ff;stroke-width:0.19651595;stroke-opacity:1"
     id="Liquid-23"
     width="197.74796"
     height="2.7665172"
     x="64.102264"
     y="135.89482"
     inkscape:label="#rect2491-4-3" />
  <rect
     style="opacity:1;fill:#000080;fill-opacity:1;stroke:#000080;stroke-width:0.19912508;stroke-opacity:1"
     id="Liquid-24"
     width="203.10786"
     height="2.7655087"
     x="61.275787"
     y="133.32011"
     inkscape:label="#rect2491-0" />
  <path
     style="opacity:1;fill:#00ffff;stroke:#00ffff;stroke-width:0.57203388;stroke-opacity:1"
     d=""
     id="path2361"
     inkscape:connector-curvature="0" />
  <path
     style="opacity:1;fill:#00ffff;stroke:#00ffff;stroke-width:0.57203388;stroke-opacity:1"
     d=""
     id="path2363"
     inkscape:connector-curvature="0" />
  <path
     id="Leaf-1"
     style="opacity:1;fill:#008000;stroke:#008000;stroke-width:0.14452855;stroke-opacity:1"
     d="m 221.64697,154.55613 c -0.9002,-0.0779 -1.55158,-0.27072 -3.08072,-0.91169 -1.06653,-0.44705 -2.02613,-0.89642 -2.13245,-0.99861 -0.10631,-0.10218 -0.53979,-0.78219 -0.96328,-1.51114 l -0.76999,-1.32535 -1.33683,-0.50618 c -0.73525,-0.2784 -1.43179,-0.59336 -1.54788,-0.6999 -0.11608,-0.10655 -0.79156,-1.1309 -1.50105,-2.27634 -1.25403,-2.02456 -1.30647,-2.1438 -1.88099,-4.27717 -0.52913,-1.96483 -0.59931,-2.4062 -0.67043,-4.21648 -0.0736,-1.87359 -0.0501,-2.16956 0.32125,-4.03428 0.40069,-2.01226 0.40082,-2.01258 2.6921,-6.84347 1.26026,-2.65711 2.38989,-4.9186 2.51027,-5.02553 0.30086,-0.26723 0.74345,-0.2435 1.20721,0.0648 l 0.3899,0.25915 3.01211,-2.9463 c 4.32722,-4.23268 3.98964,-4.01443 4.78491,-3.09344 0.25853,0.2994 0.52316,0.54437 0.58807,0.54437 0.0649,0 1.87162,-0.98852 4.0149,-2.1967 4.43721,-2.5013 4.25315,-2.46284 5.10709,-1.06712 0.29544,0.48287 0.56985,0.76836 0.73866,0.76846 0.14774,1e-4 1.22487,-0.16948 2.39364,-0.37685 2.3304,-0.41347 2.64937,-0.37324 2.8938,0.36496 0.0742,0.22415 0.25963,1.5239 0.41201,2.88833 0.15238,1.36442 0.32238,2.52519 0.37776,2.57947 0.0554,0.0543 0.40289,0.22482 0.77222,0.37898 0.91979,0.38393 1.14279,0.64155 1.13544,1.31169 -0.003,0.30752 -0.327,2.62384 -0.71917,5.14737 -0.61653,3.96717 -0.68623,4.60929 -0.51489,4.74377 0.10899,0.0855 0.38729,0.29775 0.61845,0.47156 0.72476,0.54497 0.66694,0.81023 -1.24975,5.73328 l -1.74926,4.49302 0.4002,0.52786 c 0.22011,0.29033 0.4002,0.67981 0.4002,0.86552 0,0.23373 -1.05469,1.56239 -3.4266,4.31672 l -3.42659,3.97905 -1.65329,1.04135 c -1.45338,0.91543 -1.86902,1.09808 -3.43723,1.51038 -1.82503,0.47983 -2.38749,0.51762 -4.70979,0.31652 z m 4.32873,-2.43155 c 1.15365,-0.30994 1.8327,-0.60433 2.85645,-1.2384 1.26947,-0.78625 1.50013,-1.01414 4.21165,-4.16113 l 2.86863,-3.32932 -0.23263,-0.41116 c -0.14753,-0.26077 -0.20526,-0.56964 -0.15781,-0.8444 0.0412,-0.23828 0.77942,-2.24967 1.64061,-4.46976 0.86118,-2.2201 1.59404,-4.14403 1.62857,-4.27542 0.0414,-0.15742 -0.0991,-0.32827 -0.41188,-0.50102 -0.30978,-0.17107 -0.50641,-0.40857 -0.56603,-0.68367 -0.0561,-0.25898 0.18059,-2.23753 0.61385,-5.13073 0.38786,-2.59006 0.68145,-4.79172 0.65243,-4.89258 -0.029,-0.10085 -0.32102,-0.30483 -0.64886,-0.45327 -0.90987,-0.41199 -1.02632,-0.70647 -1.35228,-3.41988 -0.15929,-1.32592 -0.297,-2.42066 -0.30601,-2.43274 -0.009,-0.0121 -0.90999,0.13123 -2.00216,0.31848 -1.09216,0.18723 -2.01381,0.30794 -2.04811,0.26823 -0.0343,-0.0397 -0.0624,-0.27052 -0.0624,-0.5129 0,-0.48656 -0.26408,-0.5885 -0.53721,-0.20737 -0.25549,0.35652 -0.43997,0.28233 -0.79374,-0.31922 -0.17802,-0.3027 -0.38955,-0.51764 -0.47006,-0.47763 -0.0805,0.04 -1.83859,1.02188 -3.90684,2.18191 -2.06826,1.16004 -3.8918,2.11034 -4.05232,2.1118 -0.16052,0.002 -0.47607,-0.2107 -0.70123,-0.47145 l -0.40937,-0.47409 -3.03915,2.96926 c -3.73071,3.64493 -3.58923,3.53222 -4.13374,3.29358 -0.35596,-0.156 -0.44772,-0.14628 -0.57951,0.0614 -0.0861,0.13574 -0.97704,1.97912 -1.9798,4.09639 -1.72891,3.65051 -1.84094,3.94059 -2.16616,5.60903 -0.47388,2.43114 -0.38651,4.41205 0.31153,7.06243 0.44505,1.68985 0.58117,2.00059 1.60104,3.65504 l 1.11464,1.80817 1.44348,0.55669 1.44348,0.5567 0.9043,1.48457 0.9043,1.48458 1.7146,0.71076 c 0.94303,0.39093 2.01678,0.73705 2.38611,0.76918 1.89681,0.165 2.78733,0.10396 4.26159,-0.2921 z m -9.2402,-4.61714 c -0.80893,-0.64558 -1.18761,-1.21681 -1.07618,-1.6234 0.0464,-0.1692 0.59468,-1.09641 1.21845,-2.06048 0.94165,-1.45534 1.11113,-1.8026 0.99864,-2.04602 -0.0745,-0.16125 -0.71704,-1.31927 -1.42783,-2.57339 l -1.29234,-2.28022 -0.70467,-3.90026 c -0.64459,-3.56778 -0.78303,-4.50234 -0.74268,-5.01392 0.022,-0.27969 1.05277,-1.73053 1.36838,-1.92614 0.21074,-0.13061 0.38021,-0.12751 0.67169,0.0123 0.46524,0.22318 0.4414,0.13312 1.33886,5.05782 l 0.66514,3.64986 1.14981,2.04366 c 0.96462,1.71453 1.17803,2.0086 1.32508,1.82591 0.19301,-0.23982 4.53237,-6.94938 4.68655,-7.24641 0.0553,-0.10662 -0.29144,-0.86619 -0.81739,-1.79035 -0.87261,-1.53328 -0.94281,-1.72824 -1.56759,-4.35349 -0.58284,-2.44898 -0.63587,-2.79922 -0.4869,-3.21573 0.2495,-0.69756 1.12735,-1.73141 1.47016,-1.73141 0.60032,0 0.88403,0.60319 1.50123,3.19181 0.49615,2.08098 0.69384,2.66197 1.22837,3.61024 0.35039,0.62158 0.66568,1.13014 0.70067,1.13014 0.035,0 1.42217,-2.0822 3.08265,-4.62711 3.39848,-5.20867 3.79519,-5.72471 4.29036,-5.58078 0.39694,0.11537 1.68373,1.26382 1.79613,1.60303 0.14791,0.44636 -0.46068,1.52082 -3.50377,6.18584 -1.67109,2.56176 -2.99283,4.70741 -2.9372,4.7681 0.0556,0.0607 0.51545,0.25689 1.02184,0.43597 0.78666,0.27822 1.26787,0.32562 3.30587,0.32562 2.20967,0 2.41122,0.0238 2.73905,0.32236 0.49564,0.4515 0.4592,1.02849 -0.12049,1.9077 -0.2609,0.39571 -0.58932,0.79071 -0.72984,0.8778 -0.14788,0.0917 -1.31968,0.15714 -2.78247,0.15547 -2.51424,-0.003 -2.53443,-0.005 -3.99768,-0.5465 -1.17372,-0.43388 -1.50177,-0.50396 -1.62465,-0.34709 -0.73696,0.94077 -4.76354,7.32854 -4.6748,7.41611 0.0632,0.0624 0.96475,0.4134 2.00348,0.7801 l 1.88859,0.66674 2.9463,-0.25128 c 3.88925,-0.3317 4.52288,-0.32711 4.80571,0.0348 0.35297,0.45167 0.26286,0.9991 -0.3195,1.94091 -0.41886,0.67741 -0.65499,0.91 -1.04084,1.02524 -0.73346,0.21906 -6.55185,0.6882 -7.35088,0.59269 -0.5234,-0.0625 -4.01048,-1.19418 -4.97527,-1.61457 -0.0785,-0.0342 -0.70021,0.78015 -1.38153,1.80968 -1.42609,2.15495 -1.56282,2.22509 -2.64851,1.35862 z m 11.22368,-16.27516 c 0,-0.21673 -0.24689,-0.35414 -0.41725,-0.23222 -0.10361,0.0741 -0.0934,0.1469 0.0336,0.24011 0.23973,0.17592 0.38366,0.17296 0.38366,-0.008 z m -6.44652,21.0016 c -0.33239,-0.0551 -1.34068,-0.40268 -2.24063,-0.77237 l -1.63628,-0.67218 -0.82545,-1.44971 -0.82544,-1.44971 -1.49609,-0.59562 -1.49609,-0.59562 -1.09806,-1.78119 c -0.99539,-1.61465 -1.14217,-1.94911 -1.5699,-3.57726 -0.68526,-2.60848 -0.77252,-4.5864 -0.30757,-6.9717 0.3253,-1.66882 0.43171,-1.9419 2.24224,-5.75377 1.04541,-2.201 1.91216,-4.01809 1.92612,-4.03799 0.0139,-0.0199 0.20526,0.0425 0.4251,0.13855 0.31237,0.13654 0.47642,0.12745 0.75068,-0.0416 0.19303,-0.11897 1.63616,-1.47614 3.20696,-3.01592 1.57079,-1.53978 2.93801,-2.85667 3.03826,-2.92641 0.11768,-0.0819 0.32738,0.0146 0.59173,0.27218 0.2252,0.21945 0.55629,0.399 0.73576,0.399 0.17947,0 1.99752,-0.94486 4.04011,-2.0997 2.04259,-1.15483 3.78768,-2.0997 3.87798,-2.0997 0.0903,0 0.32645,0.24639 0.52478,0.54753 l 0.36062,0.54753 0.3572,-0.32539 c 0.19646,-0.17897 0.36847,-0.26788 0.38224,-0.19759 0.0137,0.0703 0.0594,0.30976 0.10143,0.53212 l 0.0764,0.40431 1.98348,-0.34743 c 1.09091,-0.19109 1.99846,-0.33233 2.01679,-0.31387 0.0183,0.0185 0.15828,1.1127 0.31101,2.43166 0.15272,1.31895 0.36098,2.54714 0.4628,2.7293 0.10182,0.18216 0.49068,0.45844 0.86414,0.61397 0.47,0.19573 0.67902,0.36798 0.67902,0.55958 0,0.15224 -0.30218,2.2536 -0.67151,4.66968 -0.36933,2.41608 -0.67151,4.61017 -0.67151,4.87573 0,0.4706 0.30807,0.93539 0.83289,1.25658 0.20194,0.12359 0.0339,0.64131 -1.44375,4.44876 -0.91976,2.3699 -1.67228,4.47064 -1.67228,4.66831 0,0.19766 0.0987,0.52254 0.21927,0.72195 0.21736,0.35936 0.19497,0.39071 -2.5526,3.57533 -2.59939,3.01287 -2.85852,3.26789 -4.16433,4.09826 -2.19529,1.396 -4.83705,1.94858 -7.3355,1.53438 z m -3.15598,-4.3133 c 0.15991,-0.18519 2.11577,-3.13286 2.27756,-3.43249 0.01,-0.0182 1.07271,0.34752 2.36196,0.81274 2.71682,0.98037 2.58371,0.97003 7.2134,0.5602 3.50404,-0.31018 3.37017,-0.25563 4.20365,-1.71288 0.59032,-1.03211 0.49733,-1.8651 -0.23974,-2.14767 -0.2428,-0.0931 -1.6094,-0.0387 -3.93118,0.1566 l -3.55902,0.29927 -1.91306,-0.68875 -1.91306,-0.68876 2.23004,-3.41142 c 1.22653,-1.87628 2.30461,-3.53388 2.39574,-3.68355 0.15537,-0.25519 0.25687,-0.23842 1.6304,0.26932 l 1.46471,0.54146 2.63759,0.003 c 2.95551,0.003 2.81878,0.0498 3.59433,-1.22586 0.47714,-0.78484 0.52684,-1.37782 0.15957,-1.90361 -0.25061,-0.35877 -0.32055,-0.36925 -3.05538,-0.45786 -2.29549,-0.0744 -2.92246,-0.14432 -3.48591,-0.38884 l -0.68701,-0.29814 3.27233,-5.03848 c 3.15181,-4.8529 3.40869,-5.33414 3.19367,-5.98304 -0.0991,-0.29904 -1.36852,-1.41751 -1.78085,-1.56906 -0.64702,-0.23782 -0.98229,0.16808 -4.07793,4.93696 -1.67747,2.58417 -3.13001,4.82552 -3.22786,4.9808 -0.16211,0.25724 -0.23291,0.18128 -0.79727,-0.85544 -0.50329,-0.92449 -0.72589,-1.58959 -1.18767,-3.54851 -0.31256,-1.32591 -0.6492,-2.56215 -0.74809,-2.7472 -0.21869,-0.40923 -0.87811,-0.6022 -1.25649,-0.36768 -0.42102,0.26094 -1.34984,1.69721 -1.34984,2.08731 0,0.18936 0.29713,1.57567 0.66027,3.0807 0.62548,2.59221 0.70666,2.81674 1.54033,4.26049 l 0.88005,1.52406 -0.3088,0.47498 c -0.16985,0.26123 -1.24265,1.91815 -2.38401,3.68203 l -2.0752,3.20706 -1.02813,-1.80726 c -0.56546,-0.99399 -1.08941,-1.98223 -1.16432,-2.19608 -0.0749,-0.21386 -0.44742,-2.13859 -0.8278,-4.27717 -0.38039,-2.13859 -0.75857,-3.98312 -0.84041,-4.09896 -0.22481,-0.31822 -0.74287,-0.5014 -1.11343,-0.39369 -0.3372,0.098 -1.4263,1.59237 -1.57396,2.15964 -0.0446,0.17109 0.27057,2.24972 0.70024,4.61918 l 0.7812,4.3081 1.19457,2.13299 c 0.65701,1.17314 1.29657,2.31405 1.42124,2.53536 0.2259,0.401 0.22301,0.40795 -0.84501,2.03548 -0.58942,0.8982 -1.12967,1.79543 -1.20058,1.99384 -0.21959,0.61453 -0.003,1.08249 0.83938,1.81609 0.87613,0.76272 1.51707,0.91124 1.91978,0.44487 z"
     inkscape:label="#path2385"
     inkscape:connector-curvature="0" />
  <path
     id="Leaf-2"
     style="opacity:1;fill:#008000;stroke:#008000;stroke-width:0.12122393;stroke-opacity:1"
     d="m 169.86124,221.35244 c -1.16611,-0.19086 -1.69471,-0.35448 -2.94423,-0.91134 -1.30986,-0.58374 -1.69949,-0.82869 -2.78476,-1.75062 -1.23648,-1.0504 -1.30886,-1.14148 -3.60518,-4.53674 -1.28885,-1.90566 -2.39065,-3.5627 -2.44844,-3.68231 -0.16649,-0.34459 0.015,-0.8126 0.4062,-1.04778 0.19791,-0.11897 0.35954,-0.30073 0.35919,-0.40393 -3.5e-4,-0.10319 -0.3786,-1.78344 -0.84057,-3.73388 -0.46196,-1.95044 -0.84022,-3.68905 -0.84057,-3.86358 -5.9e-4,-0.38963 0.28584,-0.66622 0.84057,-0.81113 0.33075,-0.0864 0.43682,-0.18659 0.49652,-0.46899 0.0418,-0.19751 0.0823,-1.98877 0.0901,-3.98057 0.0169,-4.30681 -0.0289,-4.15387 1.31442,-4.38444 l 0.81909,-0.14059 0.51234,-1.67412 c 0.69548,-2.2726 0.88409,-2.68603 1.27043,-2.7847 0.22133,-0.0565 0.91664,0.12659 2.34941,0.61874 l 2.03505,0.69903 0.63154,-0.56217 c 0.41518,-0.36957 0.74233,-0.56216 0.95494,-0.56216 0.23192,0 1.21345,0.67138 3.46943,2.37314 l 3.14602,2.37312 0.5178,-0.37139 c 0.37418,-0.26838 0.59878,-0.35071 0.80975,-0.29683 0.19459,0.0497 1.10892,1.09719 2.74185,3.14118 2.04188,2.5559 2.49036,3.0548 2.69289,2.99556 0.69057,-0.20194 0.8624,-0.1994 1.1134,0.0164 0.18719,0.16099 0.63208,1.37896 1.57989,4.32527 l 1.31934,4.1012 0.0849,1.66485 c 0.0823,1.61529 0.0731,1.71345 -0.3108,3.29702 -0.33843,1.39608 -0.51639,1.85787 -1.23031,3.19246 -0.79383,1.48399 -0.90509,1.6275 -2.27517,2.93482 -0.79228,0.75599 -1.5057,1.41207 -1.58536,1.45795 -0.0797,0.0459 -0.73753,0.16618 -1.46195,0.26736 l -1.31711,0.18396 -0.78124,0.8332 c -0.42968,0.45825 -0.86522,0.89976 -0.96786,0.98112 -0.20553,0.16291 -3.74055,0.77685 -4.35491,0.75633 -0.21192,-0.007 -1.02489,-0.11755 -1.80659,-0.2455 z m 3.69728,-1.70779 1.56952,-0.25417 0.97843,-0.98339 0.97843,-0.98338 1.38783,-0.19928 1.38782,-0.19928 1.21865,-1.21887 c 1.60924,-1.60954 2.44513,-3.08784 2.94089,-5.20106 0.29247,-1.24673 0.32284,-1.56708 0.26765,-2.82371 -0.0609,-1.38608 -0.0869,-1.49359 -1.17685,-4.86081 l -1.1146,-3.44337 h -0.43435 c -0.6023,0 -0.83806,-0.23767 -3.30745,-3.33421 l -2.12257,-2.66164 -0.34023,0.24652 c -0.688,0.49851 -0.73771,0.47138 -4.90537,-2.67706 l -2.31894,-1.75184 -0.58675,0.50344 c -0.32272,0.2769 -0.68723,0.50345 -0.81004,0.50345 -0.12281,0 -1.02989,-0.27497 -2.01574,-0.61104 -0.98585,-0.33607 -1.8293,-0.56993 -1.87434,-0.51971 -0.045,0.0502 -0.31726,0.82309 -0.60494,1.71745 l -0.52305,1.62613 -0.4462,-0.0767 -0.4462,-0.0767 0.0682,0.42767 c 0.0674,0.42265 0.062,0.42891 -0.45666,0.53311 l -0.52486,0.10544 -0.0839,3.72599 c -0.0461,2.04929 -0.11615,3.90469 -0.1556,4.12311 -0.0722,0.39975 -0.53239,0.76458 -0.96439,0.76458 -0.12781,0 -0.17379,0.0732 -0.13434,0.214 0.21274,0.75887 1.53507,6.60087 1.59527,7.0478 0.0651,0.48342 0.0371,0.58201 -0.23974,0.84307 l -0.3135,0.29563 2.07085,3.05934 c 1.9056,2.81522 2.15347,3.12845 3.10639,3.92557 1.37478,1.15001 3.01931,1.91314 4.79282,2.22406 1.64314,0.28808 1.69746,0.28792 3.53781,-0.0101 z m 1.88318,-3.15088 c -0.13392,-0.19137 -0.48796,-0.86547 -0.78677,-1.49798 -0.29881,-0.63252 -0.59262,-1.23599 -0.65291,-1.34105 -0.0988,-0.17219 -0.3389,-0.16505 -2.43603,0.0724 l -2.3264,0.26341 -3.12449,-0.83578 c -1.71847,-0.45968 -3.2354,-0.88504 -3.37095,-0.94525 -0.31906,-0.14171 -1.01535,-1.47123 -1.01535,-1.93876 0,-0.42866 0.32369,-0.76611 0.73488,-0.76611 0.16244,0 1.64532,0.36281 3.29528,0.80624 l 2.99994,0.80624 1.86267,-0.20747 c 1.02447,-0.1141 1.87933,-0.22331 1.89968,-0.24266 0.0204,-0.0194 -0.69636,-1.52694 -1.59271,-3.35018 -1.21076,-2.46277 -1.68368,-3.31379 -1.8396,-3.31038 -0.11543,0.002 -0.77699,0.0757 -1.47014,0.16258 -1.24032,0.15549 -1.29169,0.15172 -3.24466,-0.23763 -1.09142,-0.21759 -2.13537,-0.45535 -2.3199,-0.52835 -0.54926,-0.21731 -1.12894,-1.72014 -0.83434,-2.16304 0.28642,-0.4306 0.84007,-0.40465 3.5733,0.16748 0.8963,0.18762 1.26167,0.20672 2.13306,0.11152 0.57833,-0.0632 1.05151,-0.15837 1.05151,-0.21153 0,-0.0532 -0.94829,-2.04123 -2.10732,-4.41794 -2.47957,-5.08459 -2.44852,-4.9533 -1.31759,-5.57126 0.39657,-0.21669 0.89798,-0.39553 1.11424,-0.39742 0.52451,-0.005 0.61578,0.15108 2.96369,5.05529 1.05316,2.19977 1.97248,3.98374 2.04294,3.96438 0.0705,-0.0194 0.43287,-0.36537 0.80538,-0.76891 0.49953,-0.54117 0.88971,-1.16693 1.48679,-2.38455 0.44525,-0.90796 0.91476,-1.80216 1.04337,-1.98712 0.29323,-0.42168 0.79556,-0.44852 1.14434,-0.0611 0.30515,0.33891 0.75555,1.23482 0.75555,1.50289 0,0.10895 -0.42758,1.09342 -0.95018,2.18773 -0.88359,1.85021 -1.02377,2.06834 -2.00018,3.1124 l -1.05,1.12276 1.53281,3.20604 c 0.84303,1.76332 1.58408,3.26107 1.64676,3.32833 0.0741,0.0795 0.56498,-0.34797 1.40408,-1.22285 l 1.29011,-1.34513 1.1819,-2.90792 c 0.65004,-1.59935 1.28697,-3.04384 1.41538,-3.20997 0.27747,-0.35894 0.82049,-0.40322 1.12647,-0.0919 0.25699,0.26151 0.76924,1.36466 0.77082,1.66 0.002,0.28289 -0.6368,2.01307 -1.69178,4.58564 -0.81684,1.99184 -0.86103,2.06742 -1.76629,3.02123 -0.51067,0.53805 -1.24103,1.31201 -1.62302,1.7199 l -0.69453,0.74163 0.78944,1.65466 c 0.94758,1.9861 0.94055,2.09496 -0.17214,2.66652 -0.9275,0.47643 -1.35569,0.48229 -1.67711,0.023 z m -4.99545,-14.70117 c 0.1106,-0.1821 -0.0176,-0.28111 -0.24771,-0.19127 -0.10619,0.0415 -0.1594,0.13081 -0.11827,0.19854 0.0974,0.16038 0.26619,0.15702 0.36598,-0.007 z m -0.27546,17.78119 c -1.66895,-0.26192 -3.40102,-1.05316 -4.79553,-2.19071 -1.0438,-0.85147 -1.20289,-1.04931 -3.09445,-3.84838 -1.09674,-1.62291 -1.99408,-2.99247 -1.99408,-3.04345 0,-0.051 0.10815,-0.1923 0.24034,-0.31403 0.14178,-0.13056 0.24031,-0.37655 0.24027,-0.5998 -7e-5,-0.29987 -1.3707,-6.34423 -1.62931,-7.18506 -0.0455,-0.14805 0.0326,-0.22448 0.28766,-0.28149 0.19259,-0.043 0.46141,-0.19921 0.59738,-0.34705 0.2351,-0.25561 0.25145,-0.46469 0.33342,-4.26246 l 0.0862,-3.99367 0.53496,-0.0816 c 0.52803,-0.0806 0.53433,-0.0871 0.48609,-0.50759 -0.0463,-0.40322 -0.0326,-0.42181 0.25607,-0.34809 0.16772,0.0429 0.35075,0.0874 0.40673,0.099 0.056,0.0116 0.3466,-0.74925 0.64581,-1.69085 0.29921,-0.94159 0.55749,-1.72689 0.57395,-1.74512 0.0165,-0.0182 0.81597,0.24315 1.7767,0.58085 0.96073,0.3377 1.88913,0.61399 2.06312,0.61399 0.20261,0 0.50589,-0.17779 0.84359,-0.49454 l 0.52726,-0.49455 3.07579,2.32882 c 3.31141,2.5072 3.52609,2.61487 4.17619,2.09451 l 0.29271,-0.23429 2.33577,2.92952 c 2.32385,2.91457 2.48917,3.07382 3.21289,3.09501 0.24937,0.007 0.36863,0.29717 1.36165,3.30969 1.08008,3.27663 1.08883,3.31297 1.15461,4.7909 0.0602,1.35238 0.0354,1.61645 -0.27049,2.87368 -0.26294,1.08094 -0.49382,1.67372 -1.05307,2.7038 -0.6263,1.15357 -0.86797,1.46328 -1.9235,2.46514 l -1.20721,1.14581 -1.21058,0.14876 c -0.66582,0.0818 -1.35324,0.22261 -1.5276,0.31289 -0.17437,0.0903 -0.66106,0.54838 -1.08156,1.01802 l -0.76453,0.85388 -1.53481,0.25062 c -1.74531,0.28498 -1.89781,0.28711 -3.42244,0.0478 z m 7.06622,-2.98973 c 0.52111,-0.28263 0.73439,-0.47839 0.83269,-0.76428 0.12139,-0.35306 0.068,-0.51726 -0.6561,-2.018 l -0.78824,-1.63366 1.56073,-1.63578 c 0.8584,-0.89968 1.63722,-1.78785 1.73072,-1.97372 0.52409,-1.04196 2.48167,-6.08943 2.48167,-6.39882 0,-0.46221 -0.64388,-1.77586 -0.95292,-1.94416 -0.32654,-0.17783 -0.75268,-0.1579 -1.04263,0.0487 -0.15356,0.10944 -0.71027,1.3193 -1.47706,3.20997 l -1.23062,3.03432 -1.24273,1.33721 -1.24274,1.33721 -1.60157,-3.2622 -1.60158,-3.26221 1.04149,-1.07098 c 0.9797,-1.00745 1.09901,-1.1896 2.01134,-3.0709 0.53344,-1.09996 0.96836,-2.11797 0.9665,-2.26226 -0.006,-0.47991 -0.74956,-1.71643 -1.10822,-1.8434 -0.71396,-0.25275 -0.9027,-0.048 -1.96598,2.13276 -0.81134,1.66403 -1.09784,2.13013 -1.64002,2.66796 l -0.65693,0.65169 -2.12417,-4.38137 c -1.1683,-2.40975 -2.2136,-4.45014 -2.32288,-4.53422 -0.30913,-0.23782 -0.94737,-0.18101 -1.56877,0.13965 -0.7257,0.37447 -1.02652,0.718 -1.01422,1.15821 0.005,0.19299 0.69677,1.74769 1.5364,3.4549 0.83963,1.70721 1.78367,3.66238 2.09787,4.34482 l 0.57128,1.2408 -0.9177,0.11798 c -0.82645,0.10626 -1.12417,0.0777 -2.99451,-0.28775 -1.14225,-0.22316 -2.16972,-0.37227 -2.28328,-0.33135 -0.41066,0.14797 -0.62706,0.44307 -0.62706,0.85509 0,0.5103 0.5091,1.56167 0.87218,1.80115 0.1482,0.0978 1.21582,0.36186 2.37247,0.58689 l 2.10303,0.40916 1.42069,-0.16826 c 0.78138,-0.0925 1.43781,-0.1493 1.45874,-0.12612 0.0209,0.0232 0.74406,1.48008 1.60696,3.23756 l 1.56891,3.19543 -0.44394,0.0679 c -0.24417,0.0374 -1.06584,0.13273 -1.82593,0.21196 l -1.38198,0.14405 -2.98285,-0.80885 c -1.64057,-0.44486 -3.14123,-0.80884 -3.33479,-0.80884 -0.45317,0 -0.83263,0.38906 -0.83263,0.85368 0,0.55585 0.70891,1.92464 1.07489,2.07546 0.1689,0.0696 1.71311,0.50352 3.43158,0.96426 l 3.12449,0.83773 2.28328,-0.27078 c 1.2558,-0.14894 2.29065,-0.2642 2.29967,-0.25616 0.009,0.008 0.3718,0.7384 0.80618,1.62302 0.43437,0.8846 0.85961,1.6369 0.94498,1.67175 0.40309,0.16459 1.01259,0.0557 1.66331,-0.29726 z"
     inkscape:label="#path2387"
     inkscape:connector-curvature="0" />
  <path
     style="opacity:1;fill:#008000;stroke:#008000;stroke-width:0.29543051;stroke-opacity:1"
     d="m 124.48232,124.54105 c -0.6426,-0.29116 -1.74153,-0.63418 -2.44207,-0.76226 -0.70054,-0.12813 -1.07979,-0.29844 -0.84276,-0.37858 0.92546,-0.31287 1.72381,-1.39734 1.72381,-2.34166 0,-1.0893 -0.33463,-1.60804 -1.65198,-2.56089 -0.51357,-0.37145 -0.93374,-0.76973 -0.93374,-0.88505 0,-0.11536 1.12995,-0.51855 2.511,-0.89605 2.89673,-0.79181 3.64921,-1.40644 3.60791,-2.94695 l -0.0287,-1.07035 h 3.06207 c 2.35172,0 3.64848,0.17057 5.58975,0.73533 l 2.52766,0.73533 0.27152,-0.75511 c 0.14933,-0.41532 0.27151,-0.89055 0.27151,-1.05606 0,-0.16553 0.30674,0.0761 0.68166,0.53698 l 0.68164,0.83795 3.83988,-3.68537 c 2.11193,-2.02694 3.8707,-3.65276 3.90837,-3.61294 0.0376,0.0398 -0.18702,0.78345 -0.4993,1.65246 -0.31229,0.86904 -0.56779,1.85821 -0.56779,2.19817 0,0.87608 1.26797,2.10946 2.16861,2.10946 0.41704,0 2.50995,-1.03593 4.65094,-2.30207 3.84855,-2.27596 4.3643,-2.41283 4.38083,-1.16263 0.0114,0.86026 1.13247,1.41762 2.55973,1.27261 l 1.42206,-0.1445 -0.45905,0.78854 c -0.25247,0.43371 -1.04555,1.4379 -1.76241,2.23154 l -1.30337,1.443 h -2.8166 c -2.7518,0 -2.90409,0.038 -6.61874,1.65055 -2.09119,0.9078 -4.52683,1.99096 -5.41254,2.40702 -0.88569,0.41606 -4.31178,1.39664 -7.6135,2.17905 -3.30172,0.78242 -6.26171,1.56478 -6.57773,1.73856 -0.31603,0.17379 -1.1564,0.82388 -1.86746,1.44463 l -1.29286,1.12864 z"
     id="Strawberry-Leaf"
     inkscape:connector-curvature="0"
     inkscape:label="#path2389" />
  <path
     id="Full-wedge"
     style="opacity:1;fill:#ffcc00;fill-opacity:1;stroke:#ffcc00;stroke-width:0.38283119;stroke-opacity:1"
     d="m 17.283786,113.86743 c -2.85592,-0.88594 -5.062614,-4.84221 -5.573211,-9.99188 -0.42653,-4.301834 0.118964,-6.215686 2.240553,-7.860827 1.510241,-1.171096 1.658608,-1.208786 4.303235,-1.093146 5.557309,0.242987 16.387901,3.066223 18.261664,4.760307 l 0.835173,0.755066 -1.269334,1.53274 c -3.413688,4.12209 -13.693911,11.74994 -16.310191,12.10205 -0.701801,0.0937 -1.82125,0.002 -2.487889,-0.20431 z m 16.188956,14.59071 c -1.921133,-0.19707 -6.534156,-3.1194 -7.800988,-4.9419 -0.85364,-1.22806 -1.13235,-3.4843 -0.579689,-4.6927 1.904608,-4.16438 11.868852,-15.43156 13.899827,-15.71739 0.783304,-0.11023 1.541641,2.44572 2.28187,7.69097 0.721426,5.11259 0.997034,10.14593 0.702232,12.82807 -0.08586,0.78121 -0.627198,2.07171 -1.202975,2.86776 -1.010879,1.39764 -1.134113,1.45835 -3.58573,1.76658 -1.396383,0.17551 -3.067921,0.26494 -3.71455,0.19861 z M 52.6434,124.4063 c -0.794296,-0.4706 -1.897652,-1.49545 -2.451899,-2.27742 -2.277669,-3.21355 -5.883104,-13.2966 -6.620422,-18.5148 l -0.406256,-2.87811 1.12463,0.0994 c 4.30579,0.38054 18.681824,6.92315 20.832192,9.48085 1.661219,1.97588 1.928191,3.83395 0.905006,6.29857 -1.6449,3.96209 -5.534222,7.21913 -9.740534,8.15701 -1.938821,0.43229 -2.368463,0.38916 -3.642298,-0.36555 z m 9.291202,-23.77729 c -6.186138,-0.686987 -14.057238,-2.604594 -16.066525,-3.914241 -0.406426,-0.264897 -0.778031,-0.759356 -0.825801,-1.098796 -0.204092,-1.450209 4.330503,-5.504121 11.502242,-10.282948 4.116517,-2.74301 5.095742,-3.241833 6.875552,-3.502462 3.022069,-0.442562 4.828304,0.446953 6.704559,3.301755 1.857958,2.826953 2.589053,5.887061 2.207191,9.238502 -0.351903,3.088532 -1.099275,4.511844 -2.909475,5.540894 -1.893503,1.076386 -3.160919,1.197796 -7.487743,0.717296 z M 40.778717,136.50287 C 26.357982,135.68009 13.417384,126.67885 7.648756,113.45826 5.7986079,109.21809 4.9778966,105.94139 4.3911012,100.45205 3.9604532,96.423439 3.9448625,94.98022 4.3044137,92.426032 6.4191093,77.403704 15.668647,65.495246 29.012141,60.615707 c 4.49201,-1.642673 11.337467,-2.405609 16.146546,-1.799561 7.251215,0.913822 12.826908,3.270777 18.767715,7.933471 12.319303,9.668934 17.441825,24.34798 13.997619,40.111453 -2.725831,12.47561 -11.673574,22.87329 -23.417176,27.21182 -3.737586,1.38081 -10.655338,2.6053 -13.728128,2.42998 z m 8.579576,-3.11395 c 6.338279,-1.49156 11.031039,-3.91932 15.63729,-8.08983 4.845322,-4.38698 8.090132,-9.51633 10.152651,-16.04919 2.066881,-6.54668 2.422742,-13.758841 0.971841,-19.69654 C 72.252442,73.725268 60.275832,62.700858 44.816348,60.738432 c -2.573186,-0.326636 -3.681827,-0.272281 -8.395039,0.411579 -4.783781,0.694118 -5.783936,0.941918 -8.40014,2.08137 -12.361864,5.384046 -20.1321721,16.134493 -21.7143337,30.042415 -0.3402789,2.991242 -0.2951812,3.929553 0.4399288,9.153004 0.7410039,5.26533 0.9452382,6.12487 2.1426388,9.01748 3.2162141,7.76959 9.8676261,15.2669 16.7217001,18.84831 4.216539,2.20325 12.155647,4.21565 16.315238,4.13558 3.165443,-0.0609 3.434617,-0.0986 7.432007,-1.03886 z M 33.844135,95.02533 c -6.388298,-1.939364 -16.209551,-7.094775 -17.772064,-9.328992 -2.245631,-3.21099 -1.055532,-7.283773 3.219303,-11.01754 5.146587,-4.495133 9.738368,-3.774323 12.334862,1.936299 0.785072,1.726663 2.063786,5.019046 2.841593,7.316391 1.478872,4.368074 2.764406,11.666795 2.068425,11.743698 -0.222407,0.02443 -1.43384,-0.267862 -2.692119,-0.649856 z m 2.422729,39.38159 C 29.57694,132.99793 24.793254,130.67353 19.654372,126.33486 14.766944,122.20848 11.258322,117.27227 8.853913,111.13992 7.5389024,107.78603 7.1908497,106.18404 6.6572308,101.02926 5.8974793,93.689972 6.6143414,88.386159 9.2092684,82.147683 15.601783,66.779398 31.853677,57.771997 47.594658,60.873073 c 12.687244,2.499477 23.108511,11.864826 27.59025,24.79473 1.448959,4.180285 1.672991,5.352994 1.896068,9.924995 0.658228,13.490342 -4.785672,25.465892 -14.892638,32.760992 -4.996272,3.60624 -7.921909,4.79465 -14.880744,6.04467 -5.915309,1.06255 -6.035489,1.06264 -11.04073,0.008 z m 18.009063,-3.31491 C 71.304735,124.49171 80.210758,103.5671 73.649889,85.573119 67.983614,70.032694 53.919717,60.624418 38.272969,61.907141 23.092676,63.151619 10.601804,75.396925 8.0812961,91.505236 c -0.6495072,4.150918 -0.6561144,5.643019 -0.044958,10.154774 1.3420486,9.90752 5.3549663,17.5922 12.2633613,23.4842 5.801712,4.94813 12.338407,7.61698 20.7672,8.47897 2.571606,0.263 9.352471,-1.03639 13.209028,-2.53117 z M 40.299501,92.224193 c -1.253272,-3.207165 -2.438277,-10.571906 -2.524606,-15.690196 -0.08592,-5.094326 0.02472,-5.719532 1.378101,-7.787041 1.309127,-1.999887 1.73872,-2.285593 3.892466,-2.588696 6.295187,-0.885938 12.851644,3.091138 13.195719,8.004389 0.131131,1.872496 -0.263034,2.801877 -2.702111,6.371167 -3.518086,5.148283 -10.814827,12.559164 -12.615193,12.812534 -0.0969,0.01364 -0.377871,-0.491331 -0.624376,-1.122157 z"
     inkscape:label="#path2486"
     inkscape:connector-curvature="0" />
  <path
     style="opacity:1;fill:#aa0000;stroke:none;stroke-width:0.20224452;stroke-opacity:1"
     d="m 146.8024,162.21133 c -2.01051,-1.14017 -8.90206,-6.0393 -12.98932,-9.23396 -2.0326,-1.58871 -2.17245,-1.75252 -5.27838,-6.18246 -1.75475,-2.50277 -3.6986,-5.5061 -4.31966,-6.67406 -1.09103,-2.05177 -1.14542,-2.22957 -1.60861,-5.25837 l -0.4794,-3.13479 0.48452,-1.61796 c 0.71641,-2.39229 2.62873,-5.19166 5.04276,-7.38192 1.46033,-1.32497 2.59964,-2.11467 4.96958,-3.44463 2.81604,-1.5803 3.28368,-1.77334 5.55535,-2.29325 1.36426,-0.31223 3.4939,-0.97504 4.73255,-1.47293 2.10275,-0.84522 2.47413,-0.92666 5.60121,-1.22832 3.09692,-0.29876 3.54399,-0.29775 5.93634,0.0135 3.36298,0.43749 6.17509,1.5188 8.23703,3.1673 l 1.39131,1.11234 1.32924,3.13479 c 1.7672,4.16766 1.9555,5.50834 1.8179,12.94365 -0.0967,5.22589 -0.11474,5.41495 -0.72373,7.58418 -0.92613,3.29893 -4.45548,12.79677 -5.77095,15.53025 l -1.14747,2.38436 -2.43613,1.5336 -2.43613,1.53361 -2.93287,0.0716 -2.93288,0.0716 z"
     id="Strawberry-body"
     inkscape:connector-curvature="0"
     inkscape:label="#path2391" />
  <path
     style="opacity:1;fill:#784421;stroke:#808000;stroke-width:0.5485462;stroke-opacity:1"
     d="m 147.62157,222.00206 c -0.32387,-0.4231 6.63859,-10.71907 47.63022,-70.43497 21.52738,-31.3607 24.21427,-35.05009 25.17376,-34.56626 1.20341,0.60682 4.7753,-4.76308 -44.95147,67.57927 -14.30244,20.80716 -26.34978,37.8312 -26.77188,37.8312 -0.42207,0 -0.90836,-0.18424 -1.08063,-0.40924 z"
     id="Olive-pick"
     inkscape:connector-curvature="0"
     inkscape:label="#path2409" />
  <path
     style="opacity:1;fill:#808000;stroke:none;stroke-width:0.19344778;stroke-opacity:1"
     d="m 176.15693,183.22801 -2.64552,-0.85755 -2.26297,-2.23147 -2.26296,-2.23146 -1.23134,-3.21796 -1.23135,-3.21797 -0.10714,-3.64606 -0.10715,-3.64605 1.18679,-3.66808 c 0.65274,-2.01745 1.25735,-3.79322 1.34359,-3.94617 0.0862,-0.15295 1.1065,-1.56744 2.26726,-3.14332 l 2.11047,-2.86523 2.96673,-1.94324 2.96674,-1.94323 3.15679,-0.52025 3.15679,-0.52024 1.20271,0.40898 1.20272,0.40898 -1.94284,-0.10284 c -1.74653,-0.0924 -2.10364,-0.0478 -3.53397,0.44217 -1.44154,0.49376 -1.6969,0.66247 -2.71644,1.79471 -0.95889,1.06488 -1.16826,1.43349 -1.41568,2.49237 -0.37892,1.62169 -0.36864,1.78905 0.12597,2.04978 l 0.41632,0.21946 -0.41632,0.0137 c -0.50046,0.0164 -0.50646,0.12021 -0.11322,1.95819 0.65139,3.04462 3.5975,6.34167 6.93292,7.75879 1.13675,0.48297 2.05926,0.71155 3.44143,0.85274 1.78397,0.18223 1.97718,0.16328 3.49501,-0.34275 1.36791,-0.45604 1.75672,-0.69077 2.61656,-1.57962 1.20624,-1.24692 1.39211,-1.61413 1.78732,-3.5309 0.29115,-1.41212 0.28806,-1.53592 -0.0785,-3.13479 -0.29127,-1.27066 -0.60289,-2.01482 -1.31671,-3.14442 -0.51432,-0.8139 -0.90602,-1.51075 -0.87043,-1.54856 0.0356,-0.0378 0.37249,0.21857 0.74869,0.56972 0.55296,0.51615 0.93399,1.27599 1.98911,3.96662 l 1.30513,3.32816 v 3.71569 3.7157 l -1.14023,3.57398 -1.14023,3.57398 -2.25232,3.09503 -2.25233,3.09503 -2.94139,1.92996 -2.9414,1.92996 -2.84056,0.48617 c -1.56232,0.2674 -3.10427,0.48025 -3.42658,0.47301 -0.3223,-0.007 -1.77649,-0.39906 -3.23152,-0.87071 z"
     id="Olive-body"
     inkscape:connector-curvature="0"
     inkscape:label="#path2397" />
  <path
     style="opacity:1;fill:#aa0000;stroke:#aa0000;stroke-width:0.40941864;stroke-opacity:1"
     d="m 186.63482,163.52924 c -3.90936,-1.59042 -6.42961,-3.66792 -8.50541,-7.01124 -1.33162,-2.14468 -1.48642,-2.67149 -1.49174,-5.07622 -0.005,-2.26272 0.14496,-2.86818 0.95721,-3.86323 1.38418,-1.69588 3.08709,-2.37317 5.9667,-2.37317 4.62974,0 9.98878,3.36729 12.55938,7.89153 1.13458,1.99686 1.31442,2.68298 1.31442,5.01418 0,2.36507 -0.13409,2.85878 -1.07856,3.97224 -1.9621,2.31296 -6.08391,2.92599 -9.722,1.44591 z"
     id="Olive-eye"
     inkscape:connector-curvature="0"
     inkscape:label="#path2401" />
  <path
     id="Cherry"
     style="opacity:1;fill:#ff0000;stroke:#ff0000;stroke-width:0.20224452;stroke-opacity:1"
     d="m 130.02933,197.15139 c -4.07054,-0.7358 -4.57638,-0.87823 -8.19091,-2.30631 l -3.85244,-1.52208 -2.7303,-3.87462 c -1.50166,-2.13104 -2.88687,-4.1154 -3.07824,-4.40968 -0.19136,-0.29429 -0.93668,-2.83593 -1.65627,-5.6481 l -1.30833,-5.11303 0.39482,-4.48385 c 0.21715,-2.46612 0.46191,-4.6324 0.54392,-4.81395 0.14303,-0.31662 6.77333,-6.18544 7.65513,-6.77595 0.28314,-0.18961 1.81947,-0.39814 4.5505,-0.61767 2.26767,-0.18228 4.15501,-0.35601 4.19407,-0.38607 0.0391,-0.0301 -1.30508,-3.05065 -2.98698,-6.71244 l -3.05801,-6.6578 -2.42617,-8.57434 -2.42618,-8.57434 -0.80586,-8.89248 c -0.927,-10.22918 -0.93587,-10.44378 -0.44979,-10.88367 0.19584,-0.17723 1.59552,-0.64831 3.1104,-1.04683 2.98993,-0.78658 3.6312,-0.7643 4.01354,0.13941 0.10683,0.25251 0.56006,4.60007 1.00718,9.66124 l 0.81294,9.20213 2.05367,8.49427 2.05367,8.49427 2.92113,6.77519 c 1.60663,3.72635 2.94145,6.79614 2.96629,6.82174 0.0248,0.0256 1.99609,-0.99696 4.38056,-2.27238 2.38448,-1.27542 4.44023,-2.32023 4.56835,-2.32181 0.72273,-0.009 8.65565,2.42722 8.96927,2.75436 0.61012,0.63643 5.89325,8.21193 6.09256,8.73615 0.10293,0.27074 0.73029,2.65923 1.39412,5.30776 l 1.20698,4.8155 -0.60954,5.19509 c -0.33524,2.8573 -0.67054,5.29711 -0.74511,5.42181 -0.0746,0.12469 -1.36958,1.57687 -2.8778,3.22706 -2.15293,2.35558 -3.58971,3.67997 -6.68598,6.16297 l -3.94377,3.16264 -4.5505,1.16601 c -2.50278,0.64131 -4.91454,1.15882 -5.35948,1.15002 -0.44494,-0.009 -2.76129,-0.3689 -5.14744,-0.80022 z m 9.77463,-3.06153 4.05539,-1.05108 3.45922,-2.7631 c 2.4978,-1.99515 4.20009,-3.56343 6.12486,-5.64267 1.46611,-1.58377 2.66633,-3.02999 2.66717,-3.21383 8e-4,-0.18383 0.22629,-2.24546 0.50102,-4.58138 l 0.49951,-4.24714 -1.20036,-4.6822 -1.20036,-4.6822 -2.6459,-3.75048 c -1.45525,-2.06277 -2.80148,-3.79606 -2.99163,-3.85177 -3.3535,-0.98253 -6.14886,-1.74096 -6.41666,-1.74096 -0.18615,0 -2.2953,1.04661 -4.68701,2.32581 -2.3917,1.27919 -4.40797,2.32523 -4.4806,2.32453 -0.0726,-6.1e-4 -0.28948,-0.27791 -0.4819,-0.61603 -0.2956,-0.51941 -0.41116,-0.58194 -0.74512,-0.40321 -0.8865,0.47444 -0.78084,0.66229 -4.68314,-8.32568 l -2.78461,-6.41366 -2.12872,-8.8558 -2.12873,-8.85581 -0.74352,-8.29202 c -0.40893,-4.56062 -0.75819,-8.31014 -0.77612,-8.33226 -0.0624,-0.077 -1.84082,0.40043 -1.99324,0.53515 -0.0844,0.0746 0.20967,4.04373 0.65353,8.82025 l 0.80702,8.68459 2.32924,8.18611 2.32925,8.18611 2.9694,6.47662 c 3.77081,8.22455 4.13272,9.13764 3.8595,9.73729 -0.11492,0.25223 -0.33428,0.5067 -0.48746,0.56548 -0.43505,0.16694 -3.29649,0.47406 -6.9475,0.74567 l -3.33704,0.24826 -2.92021,2.54495 c -1.60611,1.39972 -3.06014,2.64982 -3.23117,2.77799 -0.23765,0.17809 -0.39173,1.1557 -0.65343,4.14601 l -0.34246,3.91298 1.20829,4.72542 1.2083,4.72542 2.66589,3.78172 2.66589,3.78173 3.23873,1.29449 c 2.88228,1.15203 3.6839,1.37613 7.28362,2.03617 2.22469,0.40792 4.35557,0.75245 4.73528,0.76563 0.37972,0.0132 2.51532,-0.44901 4.74578,-1.0271 z m -9.48106,0.053 c -3.511,-0.65681 -4.46165,-0.92174 -7.20237,-2.00708 l -3.15747,-1.2504 -2.5231,-3.58565 c -1.38771,-1.9721 -2.59533,-3.71005 -2.6836,-3.86209 -0.0883,-0.15205 -0.68681,-2.31126 -1.33008,-4.79826 l -1.16957,-4.52181 0.32793,-3.87406 0.32792,-3.87405 3.22517,-2.80507 c 2.62648,-2.28436 3.3414,-2.8065 3.8513,-2.8128 0.34437,-0.004 2.60946,-0.17567 5.03354,-0.38091 4.71316,-0.39906 5.02058,-0.49005 5.29058,-1.56584 0.0984,-0.39214 -0.68911,-2.29115 -3.43011,-8.2711 l -3.55786,-7.7621 -2.3405,-8.2475 -2.3405,-8.2475 -0.66905,-7.2808 c -0.36799,-4.00445 -0.72477,-7.8789 -0.79285,-8.6099 l -0.12378,-1.32908 0.91879,-0.21025 c 0.50534,-0.11564 0.91837,-0.15462 0.91785,-0.0866 -5.3e-4,0.068 0.32372,3.76403 0.72054,8.21341 l 0.7215,8.08978 2.13827,8.89372 2.13826,8.89373 3.27726,7.5892 c 2.22295,5.14774 3.369,7.57711 3.56245,7.5516 0.15685,-0.0207 0.48555,-0.0984 0.73043,-0.17271 0.35303,-0.10712 0.52247,-0.008 0.81815,0.47811 l 0.37291,0.61321 4.49214,-2.41238 c 2.47068,-1.32682 4.63243,-2.41239 4.8039,-2.41239 0.30519,0 6.57832,1.75699 6.66235,1.866 0.71278,0.92467 5.04425,7.21341 5.1762,7.51518 0.10286,0.23523 0.68488,2.38377 1.29337,4.77455 l 1.10636,4.34686 -0.5263,4.55189 -0.5263,4.5519 -1.74454,1.89914 c -0.9595,1.04452 -2.04814,2.25126 -2.41921,2.68162 -0.51569,0.59811 -4.50855,3.89339 -7.82707,6.45964 -0.3766,0.29123 -8.08734,2.20714 -8.80201,2.18706 -0.38281,-0.0108 -2.51621,-0.36006 -4.7409,-0.77624 z"
     inkscape:connector-curvature="0"
     inkscape:label="#path2405" />
  <path
     style="opacity:1;fill:#808000;stroke:#808000;stroke-width:0.20224452;stroke-opacity:1"
     d=""
     id="path2411"
     inkscape:connector-curvature="0" />
  <path
     style="opacity:1;fill:#ffcc00;fill-opacity:1;stroke:#ffcc00;stroke-width:0.52641654;stroke-opacity:1"
     d=""
     id="path2478"
     inkscape:connector-curvature="0" />
  <g
     inkscape:label="RenderLayer_LineSet"
     id="RenderLayer_LineSet"
     transform="translate(-564.68427,329.76063)">
    <g
       inkscape:label="strokes"
       inkscape:groupmode="layer"
       id="strokes">
      <path
         style="opacity:1;fill:#000000;fill-opacity:1;stroke:#000000;stroke-width:0.59575516;stroke-opacity:1"
         d="m 645.36509,43.356634 c -1.82606,-2.67836 -1.53289,-4.33995 1.27323,-7.21626 2.10015,-2.15269 3.38859,-2.82312 8.43432,-4.38865 l 5.95549,-1.84783 23.77367,-3e-4 23.77366,-3e-4 2.62329,-3.16905 c 1.4428,-1.74299 3.08866,-3.78081 3.65749,-4.52851 0.5922,-0.77843 1.5265,-4.15789 2.18606,-7.90723 1.03022,-5.8564398 1.15011,-9.2192498 1.13547,-31.84948 -0.015,-23.12215 -0.13498,-26.21953 -1.39317,-35.956434 -2.16658,-16.766704 -1.39936,-15.448563 -30.36123,-52.16307 -69.47952,-88.07808 -87.15102,-110.66844 -87.15102,-111.40952 0,-0.64263 1.77439,-0.81465 8.4032,-0.81465 h 8.40322 l 52.03402,64.59539 c 51.40312,63.812169 52.07905,64.618569 55.7465,66.507389 l 3.71246,1.91201 3.89887,-2.1224 c 3.85798,-2.10013 4.44129,-2.79603 55.61925,-66.355169 l 51.72037,-64.2328 8.28855,-0.16956 c 4.5587,-0.0933 8.51011,0.0618 8.78091,0.34469 0.27082,0.28283 -24.66832,32.45119 -55.42031,71.48523 -64.51376,81.88846 -59.90019,75.135037 -61.88476,90.588027 -0.98806,7.693637 -1.13532,12.546997 -1.13897,37.536617 -0.005,35.91203 0.0957,36.71498 5.43472,43.23459 l 3.59684,4.39217 23.90094,0.0481 23.90095,0.0481 5.82011,1.83258 c 4.88674,1.53868 6.21893,2.24137 8.30704,4.38171 2.83527,2.9062 3.17523,4.87054 1.27871,7.38865 l -1.20821,1.60426 h -80.94804 -80.94803 z"
         id="path891"
         inkscape:connector-curvature="0" />
    </g>
  </g>
</svg>
