<?xml version="1.0" encoding="UTF-8" standalone="no"?>
<svg
   xmlns:osb="http://www.openswatchbook.org/uri/2009/osb"
   xmlns:dc="http://purl.org/dc/elements/1.1/"
   xmlns:cc="http://creativecommons.org/ns#"
   xmlns:rdf="http://www.w3.org/1999/02/22-rdf-syntax-ns#"
   xmlns:svg="http://www.w3.org/2000/svg"
   xmlns="http://www.w3.org/2000/svg"
   xmlns:sodipodi="http://sodipodi.sourceforge.net/DTD/sodipodi-0.dtd"
   xmlns:inkscape="http://www.inkscape.org/namespaces/inkscape"
   height="450"
   version="1.1"
   width="330"
   id="svg72"
   sodipodi:docname="Rocks.svg"
   inkscape:version="0.92.5 (2060ec1f9f, 2020-04-08)">
  <metadata
     id="metadata78">
    <rdf:RDF>
      <cc:Work
         rdf:about="">
        <dc:format>image/svg+xml</dc:format>
        <dc:type
           rdf:resource="http://purl.org/dc/dcmitype/StillImage" />
        <dc:title />
      </cc:Work>
    </rdf:RDF>
  </metadata>
  <defs
     id="defs76">
    <linearGradient
       id="linearGradient891"
       osb:paint="gradient">
      <stop
         style="stop-color:#000000;stop-opacity:1;"
         offset="0"
         id="stop887" />
      <stop
         style="stop-color:#000000;stop-opacity:0;"
         offset="1"
         id="stop889" />
    </linearGradient>
  </defs>
  <sodipodi:namedview
     pagecolor="#ffffff"
     bordercolor="#666666"
     borderopacity="1"
     objecttolerance="10"
     gridtolerance="10"
     guidetolerance="10"
     inkscape:pageopacity="0"
     inkscape:pageshadow="2"
     inkscape:window-width="1920"
     inkscape:window-height="986"
     id="namedview74"
     showgrid="false"
     inkscape:zoom="1.5021122"
     inkscape:cx="-50.451276"
     inkscape:cy="255.67551"
     inkscape:window-x="2389"
     inkscape:window-y="-11"
     inkscape:window-maximized="1"
     inkscape:current-layer="svg72" />
  <rect
     style="opacity:1;fill:#000080;fill-opacity:1;stroke:#000080;stroke-width:0.3172062;stroke-opacity:1"
     id="Liquid-32"
     width="212.6134"
     height="6.7041316"
     x="60.78949"
     y="131.84607"
     inkscape:label="#rect2491" />
  <rect
     style="opacity:1;fill:#0000ff;fill-opacity:1;stroke:#0000ff;stroke-width:0.3172062;stroke-opacity:1"
     id="Liquid-31"
     width="212.6134"
     height="6.7041316"
     x="60.290375"
     y="138.10324"
     inkscape:label="#rect2491-4" />
  <rect
     style="opacity:1;fill:#000080;fill-opacity:1;stroke:#000080;stroke-width:0.3172062;stroke-opacity:1"
     id="Liquid-30"
     width="212.6134"
     height="6.7041316"
     x="60.540009"
     y="144.24872"
     inkscape:label="#rect2491-3" />
  <rect
     style="opacity:1;fill:#000080;fill-opacity:1;stroke:#000080;stroke-width:0.3172062;stroke-opacity:1"
     id="Liquid-28"
     width="212.6134"
     height="6.7041316"
     x="60.664795"
     y="156.93069"
     inkscape:label="#rect2491-6" />
  <rect
     style="opacity:1;fill:#0000ff;fill-opacity:1;stroke:#0000ff;stroke-width:0.3172062;stroke-opacity:1"
     id="Liquid-29"
     width="212.6134"
     height="6.7041316"
     x="60.040863"
     y="150.50591"
     inkscape:label="#rect2491-4-6" />
  <path
     id="Half-wedge"
     style="opacity:1;fill:#ffff00;fill-opacity:1;stroke:#ffff00;stroke-width:0.42282498;stroke-opacity:1"
     d="m 233.25761,131.81506 c -6.62363,-0.62497 -13.3346,-1.75958 -18.56463,-3.1387 -4.26472,-1.12457 -6.61166,-2.637 -7.89912,-5.09043 -1.67778,-3.19724 -0.65432,-8.7151 2.3818,-12.84113 1.89378,-2.57362 5.87464,-5.70855 8.68966,-6.84311 2.83957,-1.14446 2.72871,-1.13736 5.72478,-0.36711 4.26542,1.0966 9.79398,6.31823 16.21449,15.31434 3.77331,5.28696 6.65895,10.3674 6.48741,11.42165 -0.17821,1.09524 -2.89647,2.17126 -5.35405,2.11938 -1.12473,-0.0238 -4.58087,-0.28244 -7.68034,-0.57489 z m 21.4711,12.98255 c -31.81308,-1.02644 -59.48012,-1.98685 -61.48234,-2.13427 l -3.6404,-0.26802 0.22439,-4.04489 c 0.12342,-2.22469 0.8254,-8.41337 1.55995,-13.75263 1.14707,-8.33755 1.88176,-10.88468 5.20526,-18.04634 15.14364,-32.63233 52.53785,-46.80799 85.23632,-32.31199 7.0764,3.13713 15.82942,9.22666 21.07327,14.660791 4.4293,4.59002 10.42407,14.226349 13.05432,20.984229 2.38066,6.11663 3.05788,9.24772 3.82514,17.68545 0.51277,5.63911 0.73758,12.19183 0.49957,14.5616 l -0.43275,4.30867 -3.6404,0.11182 c -2.00222,0.0615 -29.66927,-0.72799 -61.48233,-1.75442 z m 63.90927,-3.2743 c 0,-1.59194 -0.38443,-7.32557 -0.85429,-12.7414 -0.69407,-8.00028 -1.3992,-11.28823 -3.75992,-17.53225 -16.98066,-44.91312 -76.14594,-54.61841 -106.86438,-17.529689 -8.23142,9.938429 -11.58154,17.973119 -13.96077,33.482539 -1.03885,6.77185 -1.69747,12.50379 -1.46361,12.73765 0.73286,0.73285 89.48391,4.03236 117.39747,4.3645 l 9.5055,0.11311 z m -26.37871,1.13132 c -3.78197,-0.12119 -25.26034,-0.77682 -47.72971,-1.45695 -45.37291,-1.37342 -51.77637,-1.76076 -51.77087,-3.1316 0.0196,-4.89817 3.52529,-23.08218 5.30889,-27.53754 4.53303,-11.323291 14.60778,-23.523279 24.66131,-29.86352 23.46804,-14.80008 54.75122,-11.89795 74.90749,6.949161 6.9635,6.51122 12.58937,14.584759 15.55003,22.315459 2.97384,7.76513 3.90537,12.72352 4.54147,24.17365 l 0.50561,9.10101 -9.54895,-0.16467 c -5.25193,-0.0906 -12.6433,-0.26381 -16.42527,-0.385 z m 20.15025,-4.61928 c 1.44002,-1.73511 -0.27764,-17.13775 -2.68222,-24.05213 -2.95423,-8.49488 -6.61092,-14.110941 -14.00195,-21.504599 -5.4533,-5.45526 -7.99421,-7.302661 -14.15711,-10.293161 -10.54124,-5.11504 -16.5736,-6.36656 -28.54441,-5.92202 -8.37366,0.31096 -10.65271,0.71186 -16.58405,2.91726 -21.48311,7.987901 -36.71039,28.30766 -37.43156,49.94986 l -0.18592,5.57947 11.73018,0.64646 c 6.4516,0.35555 31.02431,1.30818 54.60602,2.11696 23.58172,0.80878 43.65036,1.51899 44.59699,1.57823 0.94663,0.0593 2.14094,-0.3981 2.65403,-1.01633 z m -39.00663,-6.18928 c -5.0563,-0.28512 -9.44172,-0.76922 -9.74539,-1.07579 -1.63327,-1.64884 6.0934,-13.09781 15.56822,-23.06818 6.28388,-6.61255 6.75646,-6.91965 10.64809,-6.91965 3.59541,0 4.52958,0.46106 7.97622,3.9367 4.19964,4.23494 6.89889,10.53671 6.89889,16.10641 0,5.35982 -4.19602,8.68131 -12.65872,10.02041 -3.72981,0.59018 -7.3918,1.17329 -8.13776,1.29578 -0.74596,0.12248 -5.49326,-0.0101 -10.54955,-0.29568 z m -21.1073,-5.25591 c -2.62948,-2.84134 -9.07783,-17.32245 -11.3823,-25.56133 -2.11571,-7.564019 -2.13802,-8.023629 -0.55398,-11.412369 3.16566,-6.772251 15.10687,-9.073201 24.66783,-4.753231 4.22357,1.90835 5.02809,2.725961 5.98689,6.084251 0.99593,3.48832 0.80673,4.66993 -1.87578,11.714769 -3.1734,8.33403 -10.53279,21.40989 -13.5156,24.01397 -1.67841,1.4653 -1.89661,1.45966 -3.32706,-0.0861 z"
     inkscape:connector-curvature="0"
     inkscape:label="#path2441" />
  <path
     id="Full-wedge"
     style="opacity:1;fill:#ffcc00;fill-opacity:1;stroke:#ffcc00;stroke-width:0.60536224;stroke-opacity:1"
     d="m 27.365979,123.80308 c -4.41095,-1.95522 -7.07557,-8.43305 -6.72975,-16.36032 0.28889,-6.62214 1.60485,-9.411179 5.40513,-11.455519 2.70521,-1.45527 2.95339,-1.48079 7.19818,-0.74018 8.91983,1.55627 25.76957,8.156529 28.41066,11.128809 l 1.17719,1.32479 -2.39834,2.05578 c -6.44999,5.52874 -24.78624,14.9128 -29.09156,14.88838 -1.15471,-0.007 -2.94189,-0.38533 -3.97151,-0.84174 z m 22.82895,25.61038 c -3.05784,-0.70965 -9.84368,-6.13191 -11.47539,-9.16948 -1.09951,-2.04682 -1.03682,-5.53178 0.13038,-7.24827 4.02244,-5.91539 22.67554,-20.89215 26.02053,-20.89215 1.29009,0 1.93388,4.04243 1.93719,12.16389 0.003,7.91601 -0.69579,15.61646 -1.7815,19.62547 -0.31622,1.16768 -1.48379,3.01124 -2.5946,4.09678 -1.95023,1.9059 -2.16305,1.97173 -6.19247,1.91588 -2.29505,-0.0318 -5.01491,-0.25326 -6.04414,-0.49212 z m 31.88154,-2.05548 c -1.17583,-0.88417 -2.72482,-2.67582 -3.4422,-3.98142 -2.94805,-5.36543 -6.47912,-21.44375 -6.48388,-29.52351 l -0.002,-4.4563 1.79369,0.39119 c 6.86736,1.4977 28.597641,14.50218 31.489171,18.84469 2.23378,3.3547 2.24263,6.23264 0.03,9.75579 -3.55703,5.66377 -10.578561,9.77758 -17.584921,10.30274 -3.22945,0.24205 -3.91352,0.0848 -5.79923,-1.33318 z m 20.409471,-34.11329 c -9.834471,-2.36469 -22.110461,-6.95772 -25.057801,-9.37531 -0.59617,-0.489 -1.08393,-1.31908 -1.08393,-1.84462 0,-2.245299 8.24476,-7.431049 20.91327,-13.153907 7.271621,-3.28488 8.966441,-3.83297 11.900071,-3.84838 4.98123,-0.0262 7.69613,1.71017 10.07744,6.44518 2.35808,4.688818 2.84329,9.490847 1.46485,14.497377 -1.2703,4.6138 -2.8008,6.61497 -5.95815,7.79048 -3.30266,1.22959 -5.37713,1.14313 -12.25575,-0.51082 z m -42.320291,49.94319 c -23.10249,-4.33026 -41.95573,-20.76072 -48.26725,-42.0646 -2.0242697,-6.83269 -2.6049797,-11.98268 -2.3050197,-20.44192 0.22014,-6.208209 0.5229797,-8.402617 1.6841797,-12.203537 6.82956,-22.354918 24.47416,-38.457968 47.13295,-43.015078 7.62795,-1.53413 18.85677,-1.22982 26.48569,0.71778 11.50302,2.93664 19.972071,7.70624 28.506721,16.0544 17.6981,17.3114 22.63467,40.691445 13.4895,63.887505 -7.23771,18.35793 -24.05154,32.23182 -44.003541,36.30941 -6.35004,1.29776 -17.80052,1.67873 -22.72323,0.75604 z m 14.56377,-2.89447 c 10.57533,-0.91024 18.70593,-3.5934 27.092911,-8.94086 8.82229,-5.62502 15.22848,-12.71905 20.04425,-22.19649 4.82597,-9.49751 7.03989,-20.37091 6.04623,-29.695449 -2.64877,-24.856396 -19.48534,-44.152446 -44.006391,-50.434836 -4.08146,-1.04568 -5.88427,-1.20003 -13.65154,-1.16882 -7.88357,0.0317 -9.55514,0.19422 -14.03929,1.36515 -21.18812,5.53278 -36.18057,20.1938 -41.8968,40.970618 -1.22941,4.468568 -1.36984,5.902738 -1.36984,13.989987 0,8.15208 0.13448,9.50067 1.41084,14.14805 3.42829,12.48288 12.46631,25.28635 22.72165,32.18804 6.30895,4.24584 18.67323,8.9973 25.40917,9.76447 5.12604,0.58383 5.56931,0.5842 12.23881,0.0102 z M 58.393449,98.735471 c -9.87632,-4.30924 -24.56591,-14.234528 -26.58157,-17.960336 -2.89689,-5.35469 -0.0492,-11.28367 7.70328,-16.03888 9.33341,-5.72485 16.58531,-3.64945 19.48072,5.57512 0.87545,2.78914 2.19227,8.06081 2.92628,11.7148 1.39559,6.947538 1.81285,18.303045 0.67136,18.271095 -0.36474,-0.0104 -2.25477,-0.713019 -4.20007,-1.561799 z m -5.03807,60.306359 c -10.48399,-3.56847 -17.68135,-8.11944 -24.99454,-15.80433 -6.95534,-7.30887 -11.49985,-15.55261 -13.98919,-25.37642 -1.36146,-5.3728 -1.55946,-7.87928 -1.24966,-15.81922 0.4411,-11.304767 2.8043,-19.203797 8.41301,-28.120555 13.81687,-21.96615 42.11092,-32.16873 66.82779,-24.09751 19.921821,6.50542 34.623581,22.95039 38.922841,43.537998 1.38996,6.656047 1.48524,8.484307 0.80637,15.473147 -2.00309,20.62152 -13.51684,37.63953 -31.497651,46.55543 -8.88862,4.40747 -13.88363,5.58662 -25.40626,5.99755 -9.79473,0.34931 -9.98884,0.32377 -17.83271,-2.34609 z m 29.83807,-1.18487 C 112.19512,151.47481 131.33417,121.61013 124.82809,92.890073 119.20913,68.086115 98.634279,50.797695 73.073229,49.402045 c -24.79903,-1.35405 -47.75495,14.56786 -55.48672,38.484798 -1.99239,6.163108 -2.34219,8.426988 -2.38062,15.407267 -0.0844,15.32823 4.64986,27.85243 14.46777,38.27364 8.24514,8.75179 18.19532,14.20023 31.61191,17.30979 4.09337,0.94872 15.3398,0.4248 21.90788,-1.02058 z M 69.455519,95.862061 c -1.2951,-5.136858 -1.535,-16.571116 -0.51112,-24.360096 1.01909,-7.75251 1.33988,-8.67805 3.9955,-11.52776 2.56878,-2.7565 3.32751,-3.09847 6.8747,-3.09847 10.36809,0 20.05285,7.4388 19.49183,14.97156 -0.21381,2.87082 -1.06162,4.19758 -5.81197,9.09531 -6.85183,7.064398 -20.32044,16.756506 -23.28562,16.756506 -0.1596,0 -0.49859,-0.82667 -0.75332,-1.83705 z"
     inkscape:label="#path2486"
     inkscape:connector-curvature="0" />
  <rect
     style="opacity:1;fill:#0000ff;fill-opacity:1;stroke:#0000ff;stroke-width:0.30102488;stroke-opacity:1"
     id="Liquid-1"
     width="191.34885"
     height="6.7085509"
     x="72.882874"
     y="325.5817"
     inkscape:label="#rect2491-4-6-5-1-0" />
  <rect
     style="opacity:1;fill:#000080;fill-opacity:1;stroke:#000080;stroke-width:0.29988229;stroke-opacity:1"
     id="Liquid-2"
     width="189.87378"
     height="6.7094445"
     x="73.22052"
     y="319.32404"
     inkscape:label="#rect2491-3-2-2-9" />
  <rect
     style="opacity:1;fill:#0000ff;fill-opacity:1;stroke:#0000ff;stroke-width:0.29986802;stroke-opacity:1"
     id="Liquid-3"
     width="189.84822"
     height="6.7097087"
     x="72.177979"
     y="313.17844"
     inkscape:label="#rect2491-4-8-6-5" />
  <rect
     style="opacity:1;fill:#0000ff;fill-opacity:1;stroke:#0000ff;stroke-width:0.30559117;stroke-opacity:1"
     id="Liquid-5"
     width="197.20001"
     height="6.7084856"
     x="67.156372"
     y="300.49707"
     inkscape:label="#rect2491-4-6-0-5" />
  <rect
     style="opacity:1;fill:#000080;fill-opacity:1;stroke:#000080;stroke-width:0.30305287;stroke-opacity:1"
     id="Liquid-4"
     width="193.93987"
     height="6.7084079"
     x="71.040314"
     y="306.92194"
     inkscape:label="#rect2491-6-2-0" />
  <rect
     style="opacity:1;fill:#000080;fill-opacity:1;stroke:#000080;stroke-width:0.30373472;stroke-opacity:1"
     id="Liquid-6"
     width="194.78552"
     height="6.7093782"
     x="68.433411"
     y="294.23947"
     inkscape:label="#rect2491-3-25-1" />
  <rect
     style="opacity:1;fill:#0000ff;fill-opacity:1;stroke:#0000ff;stroke-width:0.30873406;stroke-opacity:1"
     id="Liquid-7"
     width="201.32993"
     height="6.706727"
     x="66.549225"
     y="288.09537"
     inkscape:label="#rect2491-4-3-2" />
  <rect
     style="opacity:1;fill:#000080;fill-opacity:1;stroke:#000080;stroke-width:0.30811638;stroke-opacity:1"
     id="Liquid-8"
     width="200.51207"
     height="6.7071629"
     x="67.047852"
     y="281.83792"
     inkscape:label="#rect2491-0-5" />
  <rect
     style="opacity:1;fill:#0000ff;fill-opacity:1;stroke:#0000ff;stroke-width:0.30432343;stroke-opacity:1"
     id="Liquid-9"
     width="195.57941"
     height="6.7080708"
     x="69.547119"
     y="275.65598"
     inkscape:label="#rect2491-4-6-5-8" />
  <rect
     style="opacity:1;fill:#000080;fill-opacity:1;stroke:#000080;stroke-width:0.3172062;stroke-opacity:1"
     id="Liquid-22"
     width="212.6134"
     height="6.7041316"
     x="60.463409"
     y="194.17467"
     inkscape:label="#rect2491-3-25" />
  <rect
     style="opacity:1;fill:#0000ff;fill-opacity:1;stroke:#0000ff;stroke-width:0.3172062;stroke-opacity:1"
     id="Liquid-21"
     width="212.6134"
     height="6.7041316"
     x="59.964325"
     y="200.43187"
     inkscape:label="#rect2491-4-6-0" />
  <rect
     style="opacity:1;fill:#000080;fill-opacity:1;stroke:#000080;stroke-width:0.3172062;stroke-opacity:1"
     id="Liquid-20"
     width="212.6134"
     height="6.7041316"
     x="60.588226"
     y="206.85664"
     inkscape:label="#rect2491-6-2" />
  <rect
     style="opacity:1;fill:#0000ff;fill-opacity:1;stroke:#0000ff;stroke-width:0.3172062;stroke-opacity:1"
     id="Liquid-19"
     width="212.6134"
     height="6.7041316"
     x="60.089111"
     y="213.11383"
     inkscape:label="#rect2491-4-8-6" />
  <rect
     style="opacity:1;fill:#000080;fill-opacity:1;stroke:#000080;stroke-width:0.3172062;stroke-opacity:1"
     id="Liquid-18"
     width="212.6134"
     height="6.7041316"
     x="60.338715"
     y="219.25929"
     inkscape:label="#rect2491-3-2-2" />
  <rect
     style="opacity:1;fill:#0000ff;fill-opacity:1;stroke:#0000ff;stroke-width:0.3172062;stroke-opacity:1"
     id="Liquid-17"
     width="212.6134"
     height="6.7041316"
     x="59.8396"
     y="225.51649"
     inkscape:label="#rect2491-4-6-5-1" />
  <rect
     style="opacity:1;fill:#000080;fill-opacity:1;stroke:#000080;stroke-width:0.3172062;stroke-opacity:1"
     id="Liquid-16"
     width="212.6134"
     height="6.7041316"
     x="60.751251"
     y="231.91348"
     inkscape:label="#rect2491-8" />
  <rect
     style="opacity:1;fill:#0000ff;fill-opacity:1;stroke:#0000ff;stroke-width:0.30986801;stroke-opacity:1"
     id="Liquid-15"
     width="202.79889"
     height="6.7071462"
     x="64.338501"
     y="238.16914"
     inkscape:label="#rect2491-4-4" />
  <rect
     style="opacity:1;fill:#000080;fill-opacity:1;stroke:#000080;stroke-width:0.3087236;stroke-opacity:1"
     id="Liquid-14"
     width="201.32916"
     height="6.7062969"
     x="67.694397"
     y="244.31502"
     inkscape:label="#rect2491-3-7" />
  <rect
     style="opacity:1;fill:#0000ff;fill-opacity:1;stroke:#0000ff;stroke-width:0.30860618;stroke-opacity:1"
     id="Liquid-13"
     width="201.16316"
     height="6.7067285"
     x="66.542999"
     y="250.57204"
     inkscape:label="#rect2491-4-6-2" />
  <rect
     style="opacity:1;fill:#000080;fill-opacity:1;stroke:#000080;stroke-width:0.30672863;stroke-opacity:1"
     id="Liquid-12"
     width="198.70956"
     height="6.7071772"
     x="68.802246"
     y="256.99658"
     inkscape:label="#rect2491-6-28" />
  <rect
     style="opacity:1;fill:#0000ff;fill-opacity:1;stroke:#0000ff;stroke-width:0.31047228;stroke-opacity:1"
     id="Liquid-11"
     width="203.61676"
     height="6.7062845"
     x="65.032501"
     y="263.25418"
     inkscape:label="#rect2491-4-8-5" />
  <rect
     style="opacity:1;fill:#000080;fill-opacity:1;stroke:#000080;stroke-width:0.306115;stroke-opacity:1"
     id="Liquid-10"
     width="197.89171"
     height="6.7079768"
     x="67.733856"
     y="269.3988"
     inkscape:label="#rect2491-3-2-0" />
  <rect
     style="opacity:1;fill:#0000ff;fill-opacity:1;stroke:#0000ff;stroke-width:0.3172062;stroke-opacity:1"
     id="Liquid-27"
     width="212.6134"
     height="6.7041316"
     x="60.165649"
     y="163.18788"
     inkscape:label="#rect2491-4-8" />
  <rect
     style="opacity:1;fill:#0000ff;fill-opacity:1;stroke:#0000ff;stroke-width:0.3172062;stroke-opacity:1"
     id="Liquid-25"
     width="212.6134"
     height="6.7041316"
     x="59.916168"
     y="175.59053"
     inkscape:label="#rect2491-4-6-5" />
  <rect
     style="opacity:1;fill:#000080;fill-opacity:1;stroke:#000080;stroke-width:0.3172062;stroke-opacity:1"
     id="Liquid-26"
     width="212.6134"
     height="6.7041316"
     x="60.415283"
     y="169.33331"
     inkscape:label="#rect2491-3-2" />
  <rect
     style="opacity:1;fill:#0000ff;fill-opacity:1;stroke:#0000ff;stroke-width:0.3172062;stroke-opacity:1"
     id="Liquid-23"
     width="212.6134"
     height="6.7041316"
     x="60.213806"
     y="188.02922"
     inkscape:label="#rect2491-4-3" />
  <rect
     style="opacity:1;fill:#000080;fill-opacity:1;stroke:#000080;stroke-width:0.3172062;stroke-opacity:1"
     id="Liquid-24"
     width="212.6134"
     height="6.7041316"
     x="60.712921"
     y="181.77203"
     inkscape:label="#rect2491-0" />
  <path
     style="opacity:1;fill:#000000;stroke:#000000;stroke-width:0.57203388;stroke-opacity:1"
     d="m 442.17178,325.76627 -4.1057,-3.72173 -1.48438,-6.42554 -1.48437,-6.42554 -5.42206,-159.88347 c -2.98213,-87.935906 -5.42184,-160.441656 -5.42157,-161.123896 0.001,-3.09777 7.25922,-4.87517 9.53413,-2.33479 1.12086,1.25167 1.29738,5.57352 6.41578,157.076466 l 5.26321,155.7894 1.48862,3.80806 c 0.81874,2.09444 1.77339,4.10381 2.12143,4.46526 0.34805,0.36146 5.86772,1.8416 12.26594,3.2892 l 11.63312,2.63199 44.71222,2.8e-4 44.71221,2.7e-4 11.44068,-2.62524 c 6.29238,-1.44388 11.74035,-2.87297 12.10662,-3.17575 0.36626,-0.30278 1.3635,-2.27488 2.21608,-4.38244 l 1.55014,-3.83195 5.32498,-156.07779 c 4.85623,-142.33835601 5.41171,-156.173616 6.31009,-157.166316 1.41905,-1.56804 5.4761,-1.46558 7.8623,0.19856 l 1.84552,1.28708 -4.95217,145.582626 c -6.32994,186.08556 -5.94837,176.85996 -7.59761,183.69024 l -1.32845,5.50169 -3.94629,3.77484 -3.94629,3.77484 -71.50424,0.0127 -71.50424,0.0127 -4.1057,-3.72173 z"
     id="Glass"
     inkscape:connector-curvature="0"
     inkscape:label="#path885" />
  <path
     style="opacity:1;fill:#00ffff;stroke:#00ffff;stroke-width:0.57203388;stroke-opacity:1"
     d=""
     id="path2361"
     inkscape:connector-curvature="0" />
  <path
     style="opacity:1;fill:#00ffff;stroke:#00ffff;stroke-width:0.57203388;stroke-opacity:1"
     d=""
     id="path2363"
     inkscape:connector-curvature="0" />
  <path
     id="Ice-cube-2"
     style="opacity:1;fill:#00ffff;stroke:#00ffff;stroke-width:0.62113434;stroke-opacity:1"
     d="m 180.36455,244.73226 c -0.34249,-0.92645 -0.33398,-1.03142 2.10511,-25.97706 1.25087,-12.79319 2.18412,-19.81552 2.68741,-20.22166 0.42408,-0.34221 0.67418,-0.91012 0.55577,-1.26201 -0.11841,-0.35191 1.17375,-2.01269 2.87148,-3.69066 l 3.08676,-3.05084 27.45732,2.65799 c 30.43709,2.94643 31.79778,3.13632 31.79778,4.43745 0,1.09765 0.0589,1.08977 -30.12023,4.03162 -12.76298,1.24413 -23.38264,2.45025 -23.59923,2.68028 -0.21659,0.23003 -2.67944,6.71804 -5.47299,14.41783 -9.25074,25.49764 -10.49523,28.34114 -11.36918,25.97706 z m 9.48516,-28.46587 c 2.77325,-7.69979 5.23314,-14.19497 5.46644,-14.43375 0.2333,-0.23876 8.51604,-1.19087 18.40609,-2.11578 9.89004,-0.92492 18.19754,-1.86992 18.4611,-2.10001 0.26356,-0.23008 -8.58828,-1.30497 -19.67077,-2.38865 l -20.14996,-1.97032 -2.48136,2.63783 c -2.8773,3.05874 -2.75294,2.51531 -4.37657,19.12626 -0.68571,7.01536 -1.38898,13.58644 -1.56281,14.60237 -0.69586,4.06674 1.0701,0.0739 5.90784,-13.35795 z m 48.88123,42.68997 c -21.95665,-2.17088 -60.76168,-6.25855 -61.3064,-6.45792 -0.36894,-0.13505 -1.2192,-1.99881 -1.88947,-4.14169 l -1.21866,-3.89616 2.80916,-26.71359 2.80917,-26.71359 1.97421,-3.31819 1.9742,-3.31819 2.54042,0.18758 c 3.73971,0.27612 55.4163,5.68938 61.65641,6.45866 l 5.34481,0.65891 1.0603,2.47359 c 0.58317,1.36048 1.20327,3.32063 1.378,4.3559 0.17474,1.03527 -0.93294,13.77182 -2.4615,28.30344 l -2.77921,26.42113 -1.82548,2.84477 c -1.75816,2.73984 -2.82697,3.60544 -4.2494,3.44142 -0.36753,-0.0424 -2.98499,-0.30611 -5.81656,-0.58607 z m -55.43932,-17.50771 c 0.341,-0.23114 3.6541,-8.78626 7.36244,-19.01137 3.70834,-10.2251 6.79003,-18.64829 6.8482,-18.71819 0.0582,-0.0699 11.03161,-1.16713 24.38544,-2.43827 13.35382,-1.27115 24.61951,-2.43553 25.03485,-2.58751 0.41533,-0.15198 0.67275,-0.84619 0.57203,-1.54267 -0.13567,-0.93816 -0.70199,-1.36469 -2.18525,-1.64582 -1.10116,-0.20871 -13.65005,-1.49758 -27.88641,-2.86416 l -25.8843,-2.48468 -3.11546,3.07676 c -1.7135,1.69222 -3.08853,3.22802 -3.05561,3.4129 0.0329,0.18487 -0.0882,0.72226 -0.26911,1.19419 -0.18093,0.47192 -1.28549,10.34619 -2.45458,21.9428 -1.78654,17.72144 -1.99948,21.16464 -1.33494,21.58553 0.96174,0.60911 1.18923,0.61834 1.9827,0.0805 z"
     inkscape:label="#path2365"
     inkscape:connector-curvature="0" />
  <path
     id="Leaf-1"
     style="opacity:1;fill:#008000;stroke:#008000;stroke-width:0.20224452;stroke-opacity:1"
     d="m 137.39232,262.76355 c -1.3556,-0.10137 -2.33651,-0.35203 -4.63922,-1.1855 -1.60608,-0.58132 -3.05113,-1.16565 -3.21123,-1.29852 -0.16009,-0.13287 -0.81286,-1.01711 -1.4506,-1.96498 l -1.15952,-1.7234 -2.01311,-0.6582 c -1.1072,-0.36201 -2.15612,-0.77156 -2.33093,-0.9101 -0.17481,-0.13855 -1.192,-1.47054 -2.26042,-2.95999 -1.88843,-2.63259 -1.9674,-2.78765 -2.83256,-5.56173 -0.79681,-2.55492 -0.9025,-3.12885 -1.0096,-5.48281 -0.11086,-2.43629 -0.0754,-2.82115 0.48378,-5.2459 0.60339,-2.61659 0.60358,-2.61701 4.05399,-8.89876 1.89782,-3.45512 3.59891,-6.3958 3.7802,-6.53484 0.45306,-0.34749 1.11955,-0.31663 1.81791,0.0842 l 0.58716,0.33698 4.5359,-3.83115 c 6.51631,-5.50388 6.00795,-5.22008 7.20553,-4.0225 0.38932,0.38932 0.78783,0.70786 0.88558,0.70786 0.0977,0 2.81844,-1.2854 6.04598,-2.85643 6.68195,-3.25251 6.40477,-3.2025 7.69072,-1.3876 0.44489,0.62789 0.85812,0.99911 1.11234,0.99925 0.22247,1.2e-4 1.84451,-0.22039 3.60454,-0.49003 3.50933,-0.53765 3.98966,-0.48534 4.35775,0.47457 0.11177,0.29146 0.39097,1.98156 0.62044,3.75577 0.22947,1.7742 0.48546,3.28358 0.56887,3.35416 0.0834,0.0706 0.6067,0.29235 1.16287,0.49281 1.3851,0.49923 1.72092,0.83422 1.70985,1.70562 -0.005,0.39988 -0.49243,3.41186 -1.083,6.69328 -0.92842,5.15863 -1.03338,5.99359 -0.77536,6.16846 0.16413,0.11123 0.58322,0.38717 0.93132,0.61319 1.0914,0.70864 1.00433,1.05356 -1.88199,7.45515 l -2.63419,5.84241 0.60266,0.68639 c 0.33146,0.37752 0.60266,0.88397 0.60266,1.12546 0,0.30392 -1.58825,2.03162 -5.16008,5.61315 l -5.16007,5.17408 -2.48967,1.3541 c -2.18862,1.19036 -2.81453,1.42786 -5.17608,1.96399 -2.74829,0.62393 -3.59529,0.67308 -7.09242,0.41158 z m 6.51859,-3.16182 c 1.73726,-0.40302 2.75983,-0.78583 4.30149,-1.61033 1.91168,-1.02239 2.25903,-1.31872 6.34228,-5.41084 l 4.31984,-4.32921 -0.35032,-0.53465 c -0.22217,-0.33908 -0.3091,-0.74071 -0.23764,-1.09799 0.062,-0.30984 1.17372,-2.92532 2.47057,-5.81217 1.29684,-2.88685 2.40045,-5.3886 2.45245,-5.55945 0.0623,-0.20469 -0.14921,-0.42686 -0.62025,-0.65149 -0.46649,-0.22245 -0.7626,-0.53128 -0.85238,-0.88899 -0.0845,-0.33676 0.27195,-2.90953 0.92439,-6.67164 0.58408,-3.36794 1.02619,-6.23082 0.98248,-6.36197 -0.0437,-0.13114 -0.48341,-0.39638 -0.9771,-0.5894 -1.37017,-0.53572 -1.54552,-0.91864 -2.03639,-4.44697 -0.23987,-1.72413 -0.44724,-3.14765 -0.46081,-3.16336 -0.0136,-0.0157 -1.37034,0.17064 -3.01503,0.41412 -1.64468,0.24347 -3.03258,0.40043 -3.08423,0.34879 -0.0516,-0.0516 -0.0939,-0.35176 -0.0939,-0.66693 0,-0.63269 -0.39768,-0.76525 -0.80898,-0.26965 -0.38475,0.46359 -0.66255,0.36712 -1.19529,-0.41509 -0.26808,-0.39362 -0.58662,-0.67311 -0.70785,-0.62108 -0.12124,0.052 -2.76871,1.32878 -5.88327,2.8372 -3.11457,1.50843 -5.86062,2.74414 -6.10234,2.74603 -0.24173,0.002 -0.71691,-0.27398 -1.05597,-0.61303 l -0.61647,-0.61648 -4.57662,3.86102 c -5.61804,4.73961 -5.40499,4.59304 -6.22495,4.28273 -0.53604,-0.20285 -0.67422,-0.1902 -0.87269,0.0799 -0.1297,0.17651 -1.4713,2.5735 -2.98135,5.32666 -2.60355,4.74686 -2.77225,5.12406 -3.26199,7.29358 -0.71362,3.16128 -0.58204,5.73712 0.46912,9.18349 0.6702,2.19736 0.87518,2.60142 2.41099,4.75275 l 1.67852,2.35122 2.17372,0.72388 2.17373,0.72389 1.36177,1.93043 1.36177,1.93044 2.582,0.92423 c 1.4201,0.50833 3.03705,0.95841 3.59322,1.00019 2.85638,0.21455 4.19741,0.13518 6.41747,-0.37983 z m -13.91472,-6.0038 c -1.21816,-0.83947 -1.7884,-1.58226 -1.6206,-2.11096 0.0698,-0.22002 0.89552,-1.4257 1.83485,-2.6793 1.41801,-1.89243 1.67324,-2.34397 1.50384,-2.6605 -0.11222,-0.20968 -1.07979,-1.71549 -2.15016,-3.34626 l -1.94612,-2.96503 -1.06115,-5.07163 c -0.97068,-4.63928 -1.17915,-5.85452 -1.11839,-6.51974 0.0332,-0.36369 1.58535,-2.25026 2.06063,-2.50462 0.31734,-0.16984 0.57255,-0.1658 1.01148,0.016 0.7006,0.2902 0.6647,0.1731 2.01618,6.57683 l 1.00163,4.74601 1.73148,2.65744 c 1.45261,2.22945 1.77399,2.61184 1.99542,2.37428 0.29066,-0.31184 6.82525,-9.03648 7.05743,-9.42272 0.0833,-0.13864 -0.43888,-1.12633 -1.2309,-2.32804 -1.31405,-1.99377 -1.41977,-2.24729 -2.36062,-5.66097 -0.87769,-3.18448 -0.95754,-3.63991 -0.73321,-4.18151 0.37572,-0.90706 1.69766,-2.25141 2.21389,-2.25141 0.90402,0 1.33125,0.78435 2.26068,4.15041 0.74716,2.70596 1.04485,3.46144 1.8498,4.6945 0.52764,0.80826 1.00244,1.46956 1.05513,1.46956 0.0527,0 2.14163,-2.70755 4.64212,-6.01677 5.11773,-6.77299 5.71514,-7.44401 6.46081,-7.25686 0.59775,0.15003 2.53551,1.64339 2.70477,2.08447 0.22273,0.58042 -0.69374,1.97757 -5.27629,8.04363 -2.51647,3.33113 -4.50686,6.12118 -4.42309,6.2001 0.0838,0.0789 0.77621,0.33404 1.53877,0.56691 1.18463,0.36178 1.90928,0.42341 4.97827,0.42341 3.32752,0 3.63104,0.0309 4.12471,0.41917 0.74638,0.5871 0.6915,1.33738 -0.18145,2.48064 -0.39288,0.51455 -0.88745,1.02819 -1.09905,1.14143 -0.22269,0.11919 -1.98729,0.20433 -4.19009,0.20217 -3.78617,-0.004 -3.81657,-0.007 -6.02006,-0.71064 -1.76749,-0.56418 -2.2615,-0.65531 -2.44655,-0.45133 -1.10978,1.22331 -7.17335,9.52952 -7.03972,9.64339 0.0952,0.0811 1.45281,0.53756 3.01702,1.01439 l 2.844,0.86697 4.4368,-0.32674 c 5.85678,-0.43132 6.81096,-0.42535 7.23687,0.0453 0.53153,0.58732 0.39583,1.29916 -0.48114,2.52382 -0.63076,0.88086 -0.98634,1.1833 -1.56739,1.33315 -1.10451,0.28486 -9.86636,0.89489 -11.06961,0.7707 -0.78817,-0.0813 -6.03933,-1.55283 -7.4922,-2.09947 -0.11825,-0.0445 -1.05444,1.01444 -2.08043,2.35317 -2.14753,2.80215 -2.35342,2.89335 -3.98836,1.76666 z m 16.90162,-21.16307 c 0,-0.28183 -0.37179,-0.4605 -0.62833,-0.30196 -0.15603,0.0964 -0.14072,0.19101 0.0506,0.31221 0.36102,0.22876 0.57776,0.22491 0.57776,-0.0102 z m -9.70774,27.30899 c -0.50055,-0.0716 -2.01892,-0.52361 -3.37415,-1.00433 l -2.46405,-0.87406 -1.24303,-1.8851 -1.24303,-1.8851 -2.25294,-0.7745 -2.25295,-0.7745 -1.65355,-2.31613 c -1.49894,-2.09958 -1.71998,-2.53449 -2.36409,-4.65162 -1.03193,-3.39189 -1.16333,-5.96383 -0.46317,-9.06551 0.48986,-2.17002 0.65011,-2.52511 3.37656,-7.4818 1.57427,-2.86202 2.8795,-5.22484 2.90053,-5.25071 0.021,-0.0259 0.30909,0.0552 0.64015,0.18016 0.47039,0.17755 0.71744,0.16573 1.13044,-0.0541 0.29068,-0.1547 2.46387,-1.91946 4.82932,-3.92168 2.36544,-2.00222 4.42432,-3.71461 4.57529,-3.8053 0.17721,-0.10646 0.49299,0.019 0.89107,0.35392 0.33913,0.28536 0.83771,0.51883 1.10797,0.51883 0.27026,0 3.00804,-1.22863 6.08396,-2.7303 3.07592,-1.50166 5.70383,-2.7303 5.83981,-2.7303 0.13597,0 0.49159,0.32039 0.79026,0.71197 l 0.54305,0.71197 0.5379,-0.42312 c 0.29585,-0.23271 0.55487,-0.34832 0.57561,-0.25692 0.0207,0.0914 0.0895,0.40278 0.15274,0.69193 l 0.11502,0.52573 2.9869,-0.45177 c 1.64279,-0.24848 3.00947,-0.43214 3.03707,-0.40814 0.0276,0.024 0.23835,1.44688 0.46834,3.16196 0.22998,1.71507 0.5436,3.31212 0.69692,3.54899 0.15333,0.23687 0.73891,0.59613 1.30131,0.79837 0.70777,0.25451 1.02253,0.47849 1.02253,0.72763 0,0.19796 -0.45505,2.93042 -1.01122,6.07212 -0.55617,3.14171 -1.01122,5.99474 -1.01122,6.34006 0,0.61193 0.46392,1.21631 1.25424,1.63397 0.3041,0.1607 0.0511,0.83391 -2.17413,5.78485 -1.38505,3.08165 -2.51827,5.8133 -2.51827,6.07034 0,0.25703 0.14859,0.67948 0.3302,0.93877 0.32731,0.46729 0.2936,0.50806 -3.84393,4.64911 -3.91439,3.91773 -4.30461,4.24933 -6.27102,5.32909 -3.30586,1.81526 -7.28406,2.5338 -11.04644,1.9952 z m -4.75256,-5.60871 c 0.24081,-0.24081 3.18612,-4.07375 3.42975,-4.46336 0.0148,-0.0237 1.61539,0.45189 3.55685,1.05683 4.09123,1.2748 3.89078,1.26135 10.86257,0.72844 5.2767,-0.40333 5.0751,-0.3324 6.33023,-2.22731 0.88896,-1.34208 0.74893,-2.42524 -0.36102,-2.79268 -0.36562,-0.12104 -2.42357,-0.0503 -5.91992,0.20363 l -5.35948,0.38916 -2.88086,-0.89561 -2.88086,-0.89561 3.3582,-4.43597 c 1.84702,-2.43978 3.47049,-4.59521 3.60771,-4.78983 0.23398,-0.33183 0.38682,-0.31003 2.4552,0.35021 l 2.2057,0.70407 3.97192,0.004 c 4.45066,0.004 4.24476,0.0648 5.41266,-1.59402 0.71851,-1.02054 0.79336,-1.79161 0.24029,-2.47531 -0.37739,-0.46652 -0.48271,-0.48015 -4.60106,-0.59538 -3.45676,-0.0967 -4.40091,-0.18766 -5.24939,-0.50561 l -1.03456,-0.38768 4.92776,-6.55169 c 4.74627,-6.31037 5.1331,-6.93614 4.80931,-7.77992 -0.14921,-0.38885 -2.06084,-1.84323 -2.68176,-2.0403 -0.97434,-0.30924 -1.47922,0.21856 -6.14091,6.41968 -2.52609,3.36027 -4.71344,6.27477 -4.86079,6.47668 -0.24412,0.3345 -0.35074,0.23572 -1.20061,-1.11235 -0.75789,-1.20215 -1.0931,-2.06699 -1.78849,-4.61423 -0.47068,-1.72413 -0.97763,-3.33165 -1.12654,-3.57227 -0.32933,-0.53214 -1.32234,-0.78306 -1.89214,-0.47811 -0.63401,0.33931 -2.03271,2.20694 -2.03271,2.71419 0,0.24623 0.44744,2.0489 0.9943,4.00593 0.9419,3.37072 1.06415,3.66269 2.31956,5.54004 l 1.32526,1.98178 -0.46502,0.61763 c -0.25577,0.33969 -1.87129,2.49423 -3.59006,4.78785 l -3.12502,4.17023 -1.54824,-2.35003 c -0.85153,-1.29251 -1.64053,-2.57755 -1.75334,-2.85563 -0.1128,-0.27809 -0.67376,-2.78087 -1.24658,-5.56173 -0.57282,-2.78086 -1.14232,-5.17936 -1.26556,-5.32999 -0.33854,-0.41379 -1.11868,-0.65199 -1.6767,-0.51193 -0.50779,0.12744 -2.14785,2.07061 -2.37021,2.80825 -0.0671,0.22247 0.40745,2.92537 1.05448,6.00645 l 1.1764,5.60195 1.79889,2.77359 c 0.98939,1.52547 1.9525,3.00903 2.14023,3.2968 0.34018,0.52143 0.33584,0.53047 -1.27248,2.64679 -0.8876,1.16796 -1.70117,2.33465 -1.80794,2.59265 -0.33069,0.7991 -0.005,1.4076 1.26401,2.36152 1.31935,0.99178 2.28454,1.18491 2.89097,0.57848 z"
     inkscape:label="#path2385"
     inkscape:connector-curvature="0" />
  <path
     id="Leaf-2"
     style="opacity:1;fill:#008000;stroke:#008000;stroke-width:0.20224452;stroke-opacity:1"
     d="m 228.94345,205.61659 c -1.96251,-0.31567 -2.85211,-0.58628 -4.95499,-1.50725 -2.20443,-0.96545 -2.86017,-1.37056 -4.68661,-2.89534 -2.08094,-1.73724 -2.20275,-1.88787 -6.06734,-7.50325 -2.16907,-3.15174 -4.02335,-5.89229 -4.12061,-6.09012 -0.28019,-0.56991 0.0252,-1.34395 0.68361,-1.73291 0.33307,-0.19675 0.60509,-0.49737 0.6045,-0.66804 -5.9e-4,-0.17068 -0.63717,-2.94962 -1.41463,-6.17542 -0.77746,-3.2258 -1.41405,-6.10126 -1.41464,-6.38991 -0.001,-0.6444 0.48106,-1.10185 1.41464,-1.34152 0.55664,-0.14291 0.73514,-0.3086 0.83561,-0.77565 0.0703,-0.32666 0.13852,-3.2892 0.15168,-6.58342 0.0285,-7.12297 -0.0487,-6.87002 2.2121,-7.25136 l 1.37849,-0.23251 0.86223,-2.76881 c 1.17046,-3.75862 1.48789,-4.44239 2.13808,-4.60558 0.37248,-0.0935 1.54266,0.20937 3.95394,1.02333 l 3.42488,1.15612 1.06285,-0.92976 c 0.69874,-0.61123 1.24931,-0.92975 1.60713,-0.92975 0.39031,0 2.04217,1.11038 5.83888,3.92489 l 5.2946,3.92488 0.87143,-0.61424 c 0.62973,-0.44387 1.00771,-0.58004 1.36277,-0.49093 0.32748,0.0822 1.86625,1.81463 4.61439,5.19516 3.43639,4.22717 4.19116,5.05228 4.53201,4.95432 1.1622,-0.33399 1.45138,-0.32979 1.8738,0.0272 0.31502,0.26625 1.06376,2.28064 2.65888,7.1535 l 2.22038,6.7829 0.14281,2.75348 c 0.13857,2.67151 0.123,2.83385 -0.52307,5.4529 -0.56956,2.30895 -0.86906,3.07269 -2.07055,5.27996 -1.33598,2.45435 -1.52321,2.6917 -3.82899,4.85387 -1.33338,1.25032 -2.53402,2.3354 -2.66808,2.41127 -0.13407,0.0759 -1.24124,0.27485 -2.46039,0.44219 l -2.21664,0.30425 -1.31478,1.37801 c -0.72313,0.7579 -1.45612,1.4881 -1.62886,1.62266 -0.3459,0.26944 -6.29517,1.28483 -7.32911,1.25089 -0.35665,-0.0117 -1.72483,-0.19442 -3.0404,-0.40603 z m 6.22234,-2.82449 2.64143,-0.42038 1.64665,-1.62641 1.64665,-1.6264 2.33564,-0.32958 2.33565,-0.32959 2.05092,-2.01587 c 2.70828,-2.662 4.11504,-5.10693 4.94937,-8.60197 0.49222,-2.06194 0.54333,-2.59177 0.45044,-4.67009 -0.10245,-2.29242 -0.14626,-2.47022 -1.98058,-8.03921 l -1.87581,-5.69495 h -0.73099 c -1.01365,0 -1.41042,-0.39308 -5.56628,-5.5144 l -3.57218,-4.40205 -0.57259,0.40772 c -1.15787,0.82448 -1.24153,0.77961 -8.25549,-4.42755 l -3.90268,-2.89735 -0.98747,0.83264 c -0.54311,0.45796 -1.15657,0.83265 -1.36325,0.83265 -0.20668,0 -1.73326,-0.45477 -3.3924,-1.01059 -1.65913,-0.55582 -3.07862,-0.94261 -3.15442,-0.85954 -0.0758,0.0831 -0.53393,1.36129 -1.01808,2.84047 l -0.88026,2.68942 -0.75093,-0.12687 -0.75094,-0.12687 0.11479,0.70732 c 0.11343,0.69902 0.10441,0.70937 -0.76853,0.88171 l -0.88331,0.17439 -0.14114,6.16235 c -0.0776,3.3893 -0.19547,6.45792 -0.26187,6.81915 -0.12154,0.66114 -0.89598,1.26453 -1.62302,1.26453 -0.21509,0 -0.29248,0.12115 -0.22608,0.35393 0.35802,1.25509 2.58344,10.91709 2.68476,11.65626 0.10959,0.79952 0.0624,0.96257 -0.40348,1.39434 l -0.52759,0.48894 3.48513,5.05979 c 3.20703,4.65606 3.62418,5.17411 5.2279,6.49245 2.31369,1.90198 5.08135,3.16411 8.06608,3.67835 2.76533,0.47644 2.85675,0.47618 5.95396,-0.0168 z m 3.16931,-5.2112 c -0.22538,-0.3165 -0.82122,-1.43138 -1.32411,-2.47749 -0.50288,-1.04612 -0.99734,-2.04419 -1.09881,-2.21795 -0.16629,-0.28477 -0.57035,-0.27297 -4.09971,0.11975 l -3.91523,0.43565 -5.25836,-1.38228 c -2.8921,-0.76026 -5.44501,-1.46376 -5.67314,-1.56334 -0.53697,-0.23437 -1.70878,-2.43324 -1.70878,-3.20648 0,-0.70896 0.54475,-1.26706 1.23676,-1.26706 0.27338,0 2.76899,0.60004 5.5458,1.33343 l 5.04874,1.33343 3.13479,-0.34313 c 1.72414,-0.18872 3.16282,-0.36933 3.19707,-0.40134 0.0343,-0.032 -1.17195,-2.52538 -2.68046,-5.54081 -2.03765,-4.07314 -2.83354,-5.48063 -3.09595,-5.47499 -0.19426,0.004 -1.30764,0.12518 -2.47418,0.26889 -2.0874,0.25716 -2.17384,0.25093 -5.4606,-0.39301 -1.8368,-0.35987 -3.59372,-0.7531 -3.90428,-0.87384 -0.92438,-0.3594 -1.89994,-2.8449 -1.40414,-3.57742 0.48202,-0.71216 1.41378,-0.66924 6.01368,0.277 1.50842,0.3103 2.12332,0.34189 3.58984,0.18444 0.9733,-0.1045 1.76964,-0.26193 1.76964,-0.34985 0,-0.0879 -1.59594,-3.37596 -3.54653,-7.30676 -4.17298,-8.40933 -4.12073,-8.1922 -2.21744,-9.21423 0.66741,-0.35838 1.51126,-0.65416 1.87522,-0.65729 0.88272,-0.008 1.03632,0.24988 4.98775,8.36087 1.77241,3.63817 3.31958,6.58866 3.43816,6.55664 0.11857,-0.032 0.72851,-0.60429 1.35541,-1.27169 0.8407,-0.89503 1.49734,-1.92997 2.50221,-3.94377 0.74932,-1.50167 1.53949,-2.98058 1.75594,-3.28647 0.49348,-0.69742 1.33888,-0.74181 1.92587,-0.10113 0.51355,0.56051 1.27155,2.04225 1.27155,2.48561 0,0.18018 -0.7196,1.80839 -1.59911,3.61825 -1.48704,3.06003 -1.72296,3.42079 -3.36621,5.14756 l -1.76709,1.85691 2.57963,5.30242 c 1.41879,2.91633 2.66594,5.39343 2.77143,5.50467 0.12475,0.13154 0.95083,-0.57549 2.363,-2.02245 l 2.17119,-2.22469 1.98908,-4.80936 c 1.09399,-2.64515 2.1659,-5.03416 2.38202,-5.30892 0.46697,-0.59365 1.38083,-0.66689 1.89579,-0.15193 0.4325,0.4325 1.29459,2.25698 1.29725,2.74544 0.003,0.46787 -1.07171,3.32939 -2.84719,7.58412 -1.3747,3.29428 -1.44906,3.41928 -2.97257,4.99677 -0.85943,0.88987 -2.08859,2.16991 -2.73147,2.84452 l -1.16886,1.22658 1.32859,2.73661 c 1.59473,3.2848 1.5829,3.46484 -0.2897,4.41013 -1.56094,0.78796 -2.28157,0.79766 -2.82249,0.038 z m -8.4071,-24.31406 c 0.18613,-0.30117 -0.0297,-0.46492 -0.4169,-0.31633 -0.1787,0.0686 -0.26826,0.21634 -0.19903,0.32836 0.16393,0.26525 0.44799,0.2597 0.61593,-0.012 z m -0.4636,29.40806 c -2.80876,-0.43318 -5.72374,-1.74181 -8.07064,-3.62319 -1.75665,-1.40822 -2.02439,-1.73543 -5.2078,-6.36477 -1.84576,-2.68412 -3.35594,-4.94921 -3.35594,-5.03353 0,-0.0843 0.18202,-0.31803 0.40449,-0.51937 0.2386,-0.21593 0.40443,-0.62276 0.40435,-0.992 -1.1e-4,-0.49595 -2.30682,-10.49263 -2.74204,-11.88326 -0.0766,-0.24485 0.0548,-0.37126 0.48412,-0.46555 0.32412,-0.0712 0.77653,-0.32948 1.00536,-0.57399 0.39565,-0.42275 0.42317,-0.76853 0.56113,-7.04962 l 0.14507,-6.60506 0.90031,-0.13501 c 0.88864,-0.13326 0.89924,-0.14414 0.81806,-0.83951 -0.0779,-0.66688 -0.0548,-0.69762 0.43095,-0.5757 0.28227,0.0709 0.5903,0.14454 0.68452,0.16377 0.0942,0.0192 0.58331,-1.23917 1.08686,-2.79646 0.50356,-1.55728 0.93822,-2.85609 0.96592,-2.88624 0.0277,-0.0301 1.37324,0.40215 2.9901,0.96066 1.61686,0.55852 3.17931,1.01548 3.47213,1.01548 0.34098,0 0.8514,-0.29405 1.41972,-0.81792 l 0.88735,-0.81792 5.17642,3.85159 c 5.57294,4.14663 5.93423,4.3247 7.02831,3.46409 l 0.49263,-0.3875 3.93098,4.84509 c 3.91093,4.82038 4.18915,5.08376 5.40714,5.1188 0.41968,0.0121 0.62039,0.49149 2.29158,5.47384 1.81773,5.41918 1.83246,5.47928 1.94316,7.92361 0.10129,2.23668 0.0595,2.67341 -0.45523,4.75274 -0.44251,1.78774 -0.83106,2.76813 -1.77226,4.47176 -1.05403,1.90788 -1.46074,2.4201 -3.23715,4.07707 l -2.03167,1.89505 -2.03736,0.24602 c -1.12054,0.13531 -2.27744,0.36817 -2.57088,0.51748 -0.29344,0.1493 -1.11253,0.90696 -1.8202,1.68369 l -1.28667,1.41223 -2.58301,0.41449 c -2.93728,0.47133 -3.19393,0.47485 -5.75981,0.0791 z m 11.89212,-4.94467 c 0.87699,-0.46744 1.23594,-0.79121 1.40137,-1.26403 0.20429,-0.58392 0.11444,-0.8555 -1.10418,-3.33754 l -1.32658,-2.70189 2.62664,-2.70539 c 1.44464,-1.48797 2.75536,-2.95691 2.91271,-3.26432 0.88203,-1.72327 4.17653,-10.07121 4.17653,-10.58291 0,-0.76444 -1.08362,-2.93707 -1.60372,-3.21542 -0.54955,-0.29411 -1.26671,-0.26115 -1.75469,0.0806 -0.25843,0.18101 -1.19535,2.18197 -2.48582,5.30892 l -2.07107,5.01842 -2.09146,2.21159 -2.09146,2.2116 -2.69537,-5.39531 -2.69538,-5.39532 1.75277,-1.77127 c 1.64879,-1.66621 1.84958,-1.96747 3.385,-5.07892 0.89774,-1.81921 1.62969,-3.50289 1.62656,-3.74152 -0.0104,-0.79371 -1.26147,-2.83878 -1.86508,-3.04877 -1.20155,-0.41802 -1.5192,-0.0794 -3.30864,3.52734 -1.36545,2.75212 -1.84762,3.52298 -2.76007,4.4125 l -1.10559,1.07781 -3.57488,-7.24627 c -1.96619,-3.98545 -3.72537,-7.36003 -3.90928,-7.49908 -0.52026,-0.39334 -1.59439,-0.29938 -2.64017,0.23095 -1.22131,0.61934 -1.72758,1.1875 -1.70688,1.91556 0.009,0.31918 1.17263,2.89048 2.58569,5.71401 1.41305,2.82353 3.00183,6.05715 3.53061,7.18583 l 0.96143,2.05214 -1.54444,0.19513 c -1.39088,0.17574 -1.89193,0.12842 -5.03961,-0.47591 -1.92235,-0.36908 -3.65154,-0.61569 -3.84265,-0.54802 -0.69112,0.24473 -1.05532,0.73279 -1.05532,1.41422 0,0.84399 0.8568,2.58283 1.46784,2.9789 0.24941,0.16168 2.04616,0.59847 3.99276,0.97065 l 3.53928,0.67671 2.39096,-0.27829 c 1.31502,-0.15305 2.41977,-0.24692 2.45498,-0.20859 0.0352,0.0383 1.25222,2.44788 2.70444,5.35456 l 2.64041,5.28487 -0.74714,0.11231 c -0.41092,0.0618 -1.79375,0.21952 -3.07295,0.35055 l -2.32581,0.23825 -5.01999,-1.33774 c -2.76099,-0.73575 -5.28652,-1.33773 -5.61228,-1.33773 -0.76266,0 -1.40128,0.64346 -1.40128,1.41189 0,0.9193 1.19306,3.18313 1.80899,3.43256 0.28425,0.11511 2.88308,0.83277 5.77518,1.59479 l 5.25836,1.3855 3.84265,-0.44784 c 2.11345,-0.24632 3.85506,-0.43696 3.87024,-0.42366 0.0152,0.0133 0.62572,1.22124 1.35675,2.68429 0.73103,1.46304 1.44669,2.70725 1.59036,2.76489 0.67839,0.27221 1.70415,0.0921 2.79928,-0.49164 z"
     inkscape:label="#path2387"
     inkscape:connector-curvature="0" />
  <path
     style="opacity:1;fill:#008000;stroke:#008000;stroke-width:0.29543051;stroke-opacity:1"
     d="m 145.19495,294.94953 c -0.6426,-0.29116 -1.74153,-0.63418 -2.44207,-0.76226 -0.70054,-0.12813 -1.07979,-0.29844 -0.84276,-0.37858 0.92546,-0.31287 1.72381,-1.39734 1.72381,-2.34166 0,-1.0893 -0.33463,-1.60804 -1.65198,-2.56089 -0.51357,-0.37145 -0.93374,-0.76973 -0.93374,-0.88505 0,-0.11536 1.12995,-0.51855 2.511,-0.89605 2.89673,-0.79181 3.64921,-1.40644 3.60791,-2.94695 l -0.0287,-1.07035 h 3.06207 c 2.35172,0 3.64848,0.17057 5.58975,0.73533 l 2.52766,0.73533 0.27152,-0.75511 c 0.14933,-0.41532 0.27151,-0.89055 0.27151,-1.05606 0,-0.16553 0.30674,0.0761 0.68166,0.53698 l 0.68164,0.83795 3.83988,-3.68537 c 2.11193,-2.02694 3.8707,-3.65276 3.90837,-3.61294 0.0376,0.0398 -0.18702,0.78345 -0.4993,1.65246 -0.31229,0.86904 -0.56779,1.85821 -0.56779,2.19817 0,0.87608 1.26797,2.10946 2.16861,2.10946 0.41704,0 2.50995,-1.03593 4.65094,-2.30207 3.84855,-2.27596 4.3643,-2.41283 4.38083,-1.16263 0.0114,0.86026 1.13247,1.41762 2.55973,1.27261 l 1.42206,-0.1445 -0.45905,0.78854 c -0.25247,0.43371 -1.04555,1.4379 -1.76241,2.23154 l -1.30337,1.443 h -2.8166 c -2.7518,0 -2.90409,0.038 -6.61874,1.65055 -2.09119,0.9078 -4.52683,1.99096 -5.41254,2.40702 -0.88569,0.41606 -4.31178,1.39664 -7.6135,2.17905 -3.30172,0.78242 -6.26171,1.56478 -6.57773,1.73856 -0.31603,0.17379 -1.1564,0.82388 -1.86746,1.44463 l -1.29286,1.12864 z"
     id="Strawberry-Leaf"
     inkscape:connector-curvature="0"
     inkscape:label="#path2389" />
  <path
     style="opacity:1;fill:#aa0000;stroke:none;stroke-width:0.20224452;stroke-opacity:1"
     d="m 167.04429,332.6198 c -2.01051,-1.14017 -8.90206,-6.0393 -12.98932,-9.23396 -2.0326,-1.58871 -2.17245,-1.75252 -5.27838,-6.18246 -1.75475,-2.50277 -3.6986,-5.5061 -4.31966,-6.67406 -1.09103,-2.05177 -1.14542,-2.22957 -1.60861,-5.25836 l -0.4794,-3.13479 0.48452,-1.61796 c 0.71641,-2.39229 2.62873,-5.19166 5.04276,-7.38192 1.46033,-1.32497 2.59964,-2.11467 4.96958,-3.44463 2.81604,-1.5803 3.28368,-1.77334 5.55535,-2.29325 1.36426,-0.31223 3.4939,-0.97504 4.73255,-1.47293 2.10275,-0.84522 2.47413,-0.92666 5.60121,-1.22832 3.09692,-0.29876 3.54399,-0.29775 5.93634,0.0135 3.36298,0.43749 6.17509,1.5188 8.23703,3.1673 l 1.39131,1.11234 1.32924,3.13479 c 1.7672,4.16766 1.9555,5.50834 1.8179,12.94365 -0.0967,5.22588 -0.11474,5.41494 -0.72373,7.58417 -0.92613,3.29893 -4.45548,12.79677 -5.77095,15.53025 l -1.14747,2.38436 -2.43613,1.5336 -2.43613,1.53361 -2.93287,0.0716 -2.93288,0.0716 z"
     id="Strawberry-body"
     inkscape:connector-curvature="0"
     inkscape:label="#path2391" />
  <path
     style="opacity:1;fill:#784421;stroke:#808000;stroke-width:0.5485462;stroke-opacity:1"
     d="m 190.9298,326.97744 c -0.32387,-0.4231 6.63859,-10.71907 47.63022,-70.43497 21.52738,-31.3607 24.21427,-35.05009 25.17376,-34.56626 1.20341,0.60682 4.7753,-4.76308 -44.95147,67.57927 -14.30244,20.80716 -26.34978,37.8312 -26.77188,37.8312 -0.42207,0 -0.90836,-0.18424 -1.08063,-0.40924 z"
     id="Olive-pick"
     inkscape:connector-curvature="0"
     inkscape:label="#path2409" />
  <path
     style="opacity:1;fill:#808000;stroke:none;stroke-width:0.19344778;stroke-opacity:1"
     d="m 226.05554,287.73266 -2.64552,-0.85755 -2.26297,-2.23147 -2.26296,-2.23146 -1.23134,-3.21796 -1.23135,-3.21797 -0.10714,-3.64606 -0.10715,-3.64605 1.18679,-3.66808 c 0.65274,-2.01745 1.25735,-3.79322 1.34359,-3.94617 0.0862,-0.15295 1.1065,-1.56744 2.26726,-3.14332 l 2.11047,-2.86523 2.96673,-1.94324 2.96674,-1.94323 3.15679,-0.52025 3.15679,-0.52024 1.20272,0.40898 1.20272,0.40898 -1.94285,-0.10284 c -1.74653,-0.0924 -2.10364,-0.0478 -3.53397,0.44217 -1.44154,0.49376 -1.6969,0.66247 -2.71644,1.79471 -0.95889,1.06488 -1.16826,1.43349 -1.41568,2.49237 -0.37892,1.62169 -0.36864,1.78905 0.12597,2.04978 l 0.41632,0.21946 -0.41632,0.0137 c -0.50046,0.0164 -0.50646,0.12021 -0.11322,1.95819 0.65139,3.04462 3.5975,6.34167 6.93292,7.75879 1.13676,0.48297 2.05927,0.71155 3.44144,0.85274 1.78397,0.18223 1.97718,0.16328 3.49501,-0.34275 1.36791,-0.45604 1.75672,-0.69077 2.61656,-1.57962 1.20624,-1.24692 1.39211,-1.61413 1.78732,-3.5309 0.29115,-1.41212 0.28806,-1.53592 -0.0785,-3.13479 -0.29127,-1.27066 -0.60289,-2.01482 -1.31671,-3.14442 -0.51432,-0.8139 -0.90602,-1.51075 -0.87043,-1.54856 0.0356,-0.0378 0.37249,0.21857 0.74869,0.56972 0.55296,0.51615 0.93399,1.27599 1.98911,3.96662 l 1.30513,3.32816 v 3.71569 3.7157 l -1.14023,3.57398 -1.14023,3.57398 -2.25232,3.09503 -2.25233,3.09503 -2.94139,1.92996 -2.94141,1.92996 -2.84056,0.48617 c -1.56232,0.2674 -3.10427,0.48025 -3.42658,0.47301 -0.3223,-0.007 -1.77649,-0.39906 -3.23152,-0.87071 z"
     id="Olive-body"
     inkscape:connector-curvature="0"
     inkscape:label="#path2397" />
  <path
     style="opacity:1;fill:#aa0000;stroke:#aa0000;stroke-width:0.40941864;stroke-opacity:1"
     d="m 237.00418,268.50462 c -3.90936,-1.59042 -6.42961,-3.66792 -8.50541,-7.01124 -1.33162,-2.14468 -1.48642,-2.67149 -1.49174,-5.07622 -0.005,-2.26272 0.14496,-2.86818 0.95721,-3.86323 1.38418,-1.69588 3.08709,-2.37317 5.9667,-2.37317 4.62974,0 9.98878,3.36729 12.55938,7.89153 1.13458,1.99686 1.31442,2.68298 1.31442,5.01418 0,2.36507 -0.13409,2.85878 -1.07856,3.97224 -1.9621,2.31296 -6.08391,2.92599 -9.722,1.44591 z"
     id="Olive-eye"
     inkscape:connector-curvature="0"
     inkscape:label="#path2401" />
  <path
     id="Cherry"
     style="opacity:1;fill:#ff0000;stroke:#ff0000;stroke-width:0.20224452;stroke-opacity:1"
     d="m 101.35861,329.30683 c -4.070541,-0.7358 -4.576381,-0.87823 -8.190911,-2.30631 l -3.85244,-1.52208 -2.7303,-3.87462 c -1.50166,-2.13104 -2.88687,-4.1154 -3.07824,-4.40968 -0.19136,-0.29429 -0.93668,-2.83593 -1.65627,-5.6481 l -1.30833,-5.11303 0.39482,-4.48385 c 0.21715,-2.46612 0.46191,-4.6324 0.54392,-4.81395 0.14303,-0.31662 6.77333,-6.18544 7.65513,-6.77595 0.28314,-0.18961 1.81947,-0.39814 4.5505,-0.61767 2.26767,-0.18228 4.15501,-0.35601 4.19407,-0.38607 0.0391,-0.0301 -1.30508,-3.05065 -2.98698,-6.71244 l -3.05801,-6.6578 -2.42617,-8.57434 -2.42618,-8.57434 -0.80586,-8.89248 c -0.927,-10.22918 -0.93587,-10.44378 -0.44979,-10.88367 0.19584,-0.17723 1.59552,-0.64831 3.1104,-1.04683 2.98993,-0.78658 3.6312,-0.7643 4.01354,0.13941 0.10683,0.25251 0.56006,4.60007 1.00718,9.66124 l 0.81294,9.20213 2.05367,8.49427 2.05367,8.49427 2.921131,6.77519 c 1.60663,3.72635 2.94145,6.79614 2.96629,6.82174 0.0248,0.0256 1.99609,-0.99696 4.38056,-2.27238 2.38448,-1.27542 4.44023,-2.32023 4.56835,-2.32181 0.72273,-0.009 8.65565,2.42722 8.96927,2.75436 0.61012,0.63643 5.89325,8.21193 6.09256,8.73615 0.10293,0.27074 0.73029,2.65923 1.39412,5.30776 l 1.20698,4.8155 -0.60954,5.19509 c -0.33524,2.8573 -0.67054,5.29711 -0.74511,5.42181 -0.0746,0.12469 -1.36958,1.57687 -2.8778,3.22706 -2.15293,2.35558 -3.58971,3.67997 -6.68598,6.16297 l -3.94377,3.16264 -4.5505,1.16601 c -2.50278,0.64131 -4.91454,1.15882 -5.35948,1.15002 -0.44494,-0.009 -2.76129,-0.3689 -5.14744,-0.80022 z m 9.77463,-3.06153 4.05539,-1.05108 3.45922,-2.7631 c 2.4978,-1.99515 4.20009,-3.56343 6.12486,-5.64267 1.46611,-1.58377 2.66633,-3.02999 2.66717,-3.21383 8e-4,-0.18383 0.22629,-2.24546 0.50102,-4.58138 l 0.49951,-4.24714 -1.20036,-4.6822 -1.20036,-4.6822 -2.6459,-3.75048 c -1.45525,-2.06277 -2.80148,-3.79606 -2.99163,-3.85177 -3.3535,-0.98253 -6.14886,-1.74096 -6.41666,-1.74096 -0.18615,0 -2.2953,1.04661 -4.68701,2.32581 -2.3917,1.27919 -4.40797,2.32523 -4.4806,2.32453 -0.0726,-6.1e-4 -0.28948,-0.27791 -0.4819,-0.61603 -0.2956,-0.51941 -0.41116,-0.58194 -0.74512,-0.40321 -0.8865,0.47444 -0.78084,0.66229 -4.683141,-8.32568 l -2.78461,-6.41366 -2.12872,-8.8558 -2.12873,-8.85581 -0.74352,-8.29202 c -0.40893,-4.56062 -0.75819,-8.31014 -0.77612,-8.33226 -0.0624,-0.077 -1.84082,0.40043 -1.99324,0.53515 -0.0844,0.0746 0.20967,4.04373 0.65353,8.82025 l 0.80702,8.68459 2.32924,8.18611 2.32925,8.18611 2.9694,6.47662 c 3.770811,8.22455 4.132721,9.13764 3.859501,9.73729 -0.11492,0.25223 -0.33428,0.5067 -0.48746,0.56548 -0.43505,0.16694 -3.296491,0.47406 -6.947501,0.74567 l -3.33704,0.24826 -2.92021,2.54495 c -1.60611,1.39972 -3.06014,2.64982 -3.23117,2.77799 -0.23765,0.17809 -0.39173,1.1557 -0.65343,4.14601 l -0.34246,3.91298 1.20829,4.72542 1.2083,4.72542 2.66589,3.78172 2.66589,3.78173 3.23873,1.29449 c 2.88228,1.15203 3.6839,1.37613 7.283621,2.03617 2.22469,0.40792 4.35557,0.75245 4.73528,0.76563 0.37972,0.0132 2.51532,-0.44901 4.74578,-1.0271 z m -9.48106,0.053 c -3.511001,-0.65681 -4.461651,-0.92174 -7.202371,-2.00708 l -3.15747,-1.2504 -2.5231,-3.58565 c -1.38771,-1.9721 -2.59533,-3.71005 -2.6836,-3.86209 -0.0883,-0.15205 -0.68681,-2.31126 -1.33008,-4.79826 l -1.16957,-4.52181 0.32793,-3.87406 0.32792,-3.87405 3.22517,-2.80507 c 2.62648,-2.28436 3.3414,-2.8065 3.8513,-2.8128 0.34437,-0.004 2.60946,-0.17567 5.03354,-0.38091 4.713161,-0.39906 5.020581,-0.49005 5.290581,-1.56584 0.0984,-0.39214 -0.68911,-2.29115 -3.430111,-8.2711 l -3.55786,-7.7621 -2.3405,-8.2475 -2.3405,-8.2475 -0.66905,-7.2808 c -0.36799,-4.00445 -0.72477,-7.8789 -0.79285,-8.6099 l -0.12378,-1.32908 0.91879,-0.21025 c 0.50534,-0.11564 0.91837,-0.15462 0.91785,-0.0866 -5.3e-4,0.068 0.32372,3.76403 0.72054,8.21341 l 0.7215,8.08978 2.13827,8.89372 2.13826,8.89373 3.27726,7.5892 c 2.222951,5.14774 3.369001,7.57711 3.562451,7.5516 0.15685,-0.0207 0.48555,-0.0984 0.73043,-0.17271 0.35303,-0.10712 0.52247,-0.008 0.81815,0.47811 l 0.37291,0.61321 4.49214,-2.41238 c 2.47068,-1.32682 4.63243,-2.41239 4.8039,-2.41239 0.30519,0 6.57832,1.75699 6.66235,1.866 0.71278,0.92467 5.04425,7.21341 5.1762,7.51518 0.10286,0.23523 0.68488,2.38377 1.29337,4.77455 l 1.10636,4.34686 -0.5263,4.55189 -0.5263,4.5519 -1.74454,1.89914 c -0.9595,1.04452 -2.04814,2.25126 -2.41921,2.68162 -0.51569,0.59811 -4.50855,3.89339 -7.82707,6.45964 -0.3766,0.29123 -8.08734,2.20714 -8.80201,2.18706 -0.38281,-0.0108 -2.51621,-0.36006 -4.7409,-0.77624 z"
     inkscape:connector-curvature="0"
     inkscape:label="#path2405" />
  <path
     style="opacity:1;fill:#808000;stroke:#808000;stroke-width:0.20224452;stroke-opacity:1"
     d=""
     id="path2411"
     inkscape:connector-curvature="0" />
  <path
     style="opacity:1;fill:#ffcc00;fill-opacity:1;stroke:#ffcc00;stroke-width:0.52641654;stroke-opacity:1"
     d=""
     id="path2478"
     inkscape:connector-curvature="0" />
  <path
     id="Ice-cube-1"
     style="opacity:1;fill:#00ffff;stroke:#00ffff;stroke-width:0.56699526;stroke-opacity:1"
     d="m 90.759779,225.13671 c -0.54547,-0.71963 -0.56624,-0.814 -5.14192,-23.35415 -2.3466,-11.55955 -3.42081,-17.97163 -3.09331,-18.46436 0.27594,-0.41517 0.34049,-0.98111 0.14343,-1.25761 -0.19706,-0.27652 0.47797,-2.08363 1.50008,-4.01584 l 1.85836,-3.5131 24.522011,-5.11737 c 27.18323,-5.67273 28.41405,-5.87531 28.76303,-4.73416 0.2944,0.96269 0.34336,0.9398 -25.03688,11.70685 -10.73349,4.55347 -19.618641,8.49216 -19.744761,8.75266 -0.12611,0.26051 -0.52157,6.6189 -0.87878,14.1298 -1.18288,24.87212 -1.49935,27.7036 -2.89126,25.86728 z m 0.59004,-27.53899 c 0.3396,-7.50539 0.73058,-13.86927 0.86883,-14.14199 0.13827,-0.27268 7.06512,-3.35465 15.393031,-6.84878 8.32789,-3.49415 15.27813,-6.57659 15.44496,-6.84988 0.16683,-0.27329 -7.79718,1.18528 -17.69781,3.24127 l -18.001131,3.73816 -1.44416,2.98664 c -1.67462,3.4632 -1.71254,2.95285 1.3348,17.96188 1.28699,6.3388 2.43959,12.29273 2.56134,13.2309 0.48735,3.75549 0.94774,-0.22548 1.54014,-13.3182 z m 53.836351,24.18071 c -19.62155,4.05238 -54.366971,10.99422 -54.892791,10.96714 -0.35614,-0.0184 -1.59331,-1.42231 -2.74927,-3.11988 l -2.10172,-3.08653 -4.72896,-24.1911 -4.72895,-24.19112 0.82193,-3.44577 0.82191,-3.44576 2.25319,-0.52464 c 3.31689,-0.77232 49.579181,-10.04333 55.196511,-11.06144 l 4.81138,-0.87203 1.58286,1.88182 c 0.87058,1.03501 1.93402,2.58593 2.36321,3.44651 0.42919,0.86057 2.88477,12.3316 5.45683,25.49117 l 4.67649,23.92648 -0.81993,2.99021 c -0.78971,2.87992 -1.48434,3.92903 -2.76177,4.17106 -0.33006,0.0625 -2.67047,0.54128 -5.20092,1.06388 z m -52.768931,-0.31564 c 0.2337,-0.29523 0.81201,-8.69723 1.28515,-18.67112 0.47314,-9.97387 0.88618,-18.19739 0.91788,-18.27447 0.0318,-0.0771 9.252821,-4.01626 20.491421,-8.7537 11.23857,-4.73743 20.69511,-8.81478 21.01451,-9.06074 0.31938,-0.24596 0.3564,-0.92465 0.0822,-1.50818 -0.36927,-0.786 -0.97474,-1.00646 -2.33633,-0.85065 -1.01082,0.11568 -12.23805,2.3895 -24.94939,5.05295 l -23.111501,4.84265 -1.8763,3.5436 c -1.03196,1.949 -1.81237,3.66898 -1.73424,3.8222 0.0781,0.15321 0.11724,0.65738 0.087,1.12036 -0.0303,0.46298 1.66026,9.42281 3.75685,19.91072 3.20391,16.02717 3.94276,19.10478 4.63189,19.29364 0.99732,0.27332 1.19706,0.21971 1.74085,-0.46725 z"
     inkscape:label="#path2365"
     inkscape:connector-curvature="0" />
  <path
     style="opacity:1;fill:#000000;fill-opacity:1;stroke:#000000;stroke-width:0.69989794;stroke-opacity:1"
     d="m 61.561949,388.04195 -3.44293,-3.11228 -1.19433,-27.26022 c -0.65688,-14.99311 -3.00737,-71.5104 -5.22332,-125.59397 l -4.02898,-98.33374 2.89044,-2.71999 c 2.85435,-2.68602 2.95972,-2.71999 8.43774,-2.71999 h 5.5473 l 2.49319,2.93846 c 2.14485,2.52792 2.49427,3.43644 2.5009,6.50259 0.004,1.96027 1.71078,44.77988 3.79232,95.1547 3.6878,89.24737 3.82315,91.65348 5.29068,94.04898 0.89185,1.45579 2.88812,3.16491 4.89485,4.19079 l 3.38879,1.73239 h 82.233291 82.23329 l 3.71822,-1.83969 c 7.0026,-3.46473 6.10118,5.20857 10.1835,-97.98383 1.96548,-49.68329 3.75141,-92.41384 3.96875,-94.95677 0.3405,-3.98427 0.71933,-4.98054 2.73989,-7.20558 2.31884,-2.55351 2.40514,-2.58204 7.80981,-2.58204 h 5.46505 l 2.86496,2.98768 2.86495,2.98767 -3.72997,90.33325 c -5.75517,139.37955 -6.66959,159.20753 -7.35405,159.46135 -0.34971,0.12968 -0.47579,0.49705 -0.28016,0.81637 0.19563,0.31933 -1.10086,1.87402 -2.88107,3.45487 l -3.23676,2.87428 -104.25171,-0.0315 -104.251711,-0.0315 z"
     id="path893"
     inkscape:connector-curvature="0" />
</svg>
