<svg style="height:75px;width:75px;" viewBox="0 0 500 500" xmlns="http://www.w3.org/2000/svg" height="500" width="500" version="1.1"  id="Magnifying-Glass-1">
  <path id="path858" style="opacity: 1; fill: rgb(134, 134, 134); fill-opacity: 1; stroke: yellow; stroke-width: 0px; stroke-opacity: 1;" d="m 294.29958,58.361226 c 82.98114,-0.834734 153.47796,70.336344 145.10636,159.165764 -6.34432,67.31828 -60.7624,122.53164 -127.7103,129.57847 -14.93911,1.57247 -20.10923,1.50036 -35.7962,-0.50426 -55.39353,-7.0787 -102.49469,-47.3436 -119.08891,-101.80611 -23.02071,-75.55442 20.48715,-157.098481 96.04152,-180.002812 13.95649,-4.230918 27.86879,-6.294459 41.44753,-6.431052 z m 0.87525,-50.0777907 c -5.26765,0.00887 -10.53736,0.5577104 -20.48163,1.652747 C 246.85096,13.002099 226.93866,19.138475 203.46955,31.888395 145.2797,63.50082 107.1711,121.21152 101.77447,185.8871 c -4.276258,51.24852 10.28369,99.51309 41.82297,138.63082 6.23457,7.73268 13.61446,16.13698 16.40085,18.6756 34.50356,31.43552 71.32941,48.58134 114.69491,53.40105 10.60265,1.17839 20.63321,1.95876 22.28987,1.73494 1.65667,-0.22381 10.06097,-1.00379 18.67562,-1.73272 12.39936,-1.04916 19.55507,-2.46586 34.33893,-6.7998 76.59057,-22.45281 131.03047,-88.15807 139.09293,-167.87379 1.7122,-16.92898 1.71391,-20.38418 0,-37.35119 C 481.16653,106.023 428.2348,40.963736 353.05431,17.364658 339.00111,12.953372 332.67305,11.684504 315.65646,9.8673177 305.7122,8.8053798 300.44468,8.2748186 295.17705,8.2834353 Z" class="" original-fill="rgb(0, 0, 0)"></path>
  <path style="opacity: 1; fill: rgb(96, 32, 0); fill-opacity: 1; stroke: yellow; stroke-width: 0px; stroke-opacity: 1;" d="m 139.73214,327.29471 c -1.21049,0.17877 -4.96814,3.25588 -9.90982,8.16378 -5.17102,5.13565 -10.19664,9.3389 -11.16716,9.3389 -0.97052,0 -5.45812,-2.54795 -9.97202,-5.66021 l -8.20598,-5.658 -45.030716,45.01959 c -40.03468,40.02397 -45.177433,45.5931 -46.3369071,50.19775 -1.6989309,6.74706 -0.07586,11.48241 7.9971661,23.33172 9.943055,14.59411 28.678266,31.13123 41.669678,36.78029 10.586946,4.60351 10.991146,4.29907 61.182769,-45.90594 l 44.96628,-44.97738 -5.66021,-8.20597 c -3.11228,-4.5139 -5.658,-8.73 -5.658,-9.37001 0,-0.64001 4.32595,-5.51433 9.61215,-10.8295 l 9.60993,-9.66323 -9.08122,-7.22855 c -7.34508,-5.84658 -18.79351,-18.05426 -23.6583,-25.22883 -0.065,-0.0959 -0.18472,-0.12994 -0.35764,-0.10441 z" id="path823-0" class="" original-fill="rgb(0, 0, 0)"></path>
</svg>