<?xml version="1.0" encoding="UTF-8" standalone="no"?>
<svg
   xmlns:dc="http://purl.org/dc/elements/1.1/"
   xmlns:cc="http://creativecommons.org/ns#"
   xmlns:rdf="http://www.w3.org/1999/02/22-rdf-syntax-ns#"
   xmlns:svg="http://www.w3.org/2000/svg"
   xmlns="http://www.w3.org/2000/svg"
   xmlns:sodipodi="http://sodipodi.sourceforge.net/DTD/sodipodi-0.dtd"
   xmlns:inkscape="http://www.inkscape.org/namespaces/inkscape"
   height="500"
   version="1.1"
   width="440"
   id="svg20"
   sodipodi:docname="KnifeboltLabsLogo.svg"
   inkscape:version="0.92.5 (2060ec1f9f, 2020-04-08)">
  <metadata
     id="metadata26">
    <rdf:RDF>
      <cc:Work
         rdf:about="">
        <dc:format>image/svg+xml</dc:format>
        <dc:type
           rdf:resource="http://purl.org/dc/dcmitype/StillImage" />
        <dc:title></dc:title>
      </cc:Work>
    </rdf:RDF>
  </metadata>
  <defs
     id="defs24" />
  <sodipodi:namedview
     pagecolor="#ffffff"
     bordercolor="#666666"
     borderopacity="1"
     objecttolerance="10"
     gridtolerance="10"
     guidetolerance="10"
     inkscape:pageopacity="0"
     inkscape:pageshadow="2"
     inkscape:window-width="1920"
     inkscape:window-height="986"
     id="namedview22"
     showgrid="false"
     inkscape:zoom="1.888"
     inkscape:cx="230.06356"
     inkscape:cy="250"
     inkscape:window-x="2389"
     inkscape:window-y="-11"
     inkscape:window-maximized="1"
     inkscape:current-layer="svg20" />
  <g
     id="RenderLayer_LineSet"
     inkscape:groupmode="lineset"
     inkscape:label="RenderLayer_LineSet">
    <g
       id="strokes"
       inkscape:groupmode="layer"
       inkscape:label="strokes">
      <path
         d=" M 248.259, 273.413 250.921, 268.757 253.115, 263.750 254.353, 259.510 255.199, 255.053 261.811, 262.555 262.351, 263.169 268.672, 270.918 268.892, 271.189 273.558, 279.922 276.429, 289.398 277.397, 299.252 276.424, 309.105 273.548, 318.580 268.878, 327.311 262.598, 335.000 255.526, 342.070 248.453, 349.140 241.381, 356.210 234.309, 363.280 227.237, 370.350 220.165, 377.420 213.093, 384.490 208.160, 389.421 202.718, 394.861 202.933, 393.420 202.685, 390.302 201.812, 387.073 200.347, 383.858 198.616, 380.511 196.256, 377.510 192.392, 373.775 190.672, 374.747 189.316, 377.479 186.582, 378.832 185.227, 381.565 182.493, 382.918 181.137, 385.649 178.404, 387.003 177.049, 389.735 174.315, 391.088 167.240, 398.156 166.926, 398.470 169.510, 408.131 169.645, 408.636 162.571, 415.703 155.496, 422.771 154.757, 423.510 145.099, 420.918 135.440, 418.325 134.431, 418.054 131.847, 408.393 129.263, 398.733 128.993, 397.723 136.067, 390.655 143.142, 383.587 143.881, 382.848 153.539, 385.441 154.044, 385.576 161.119, 378.509 161.433, 378.195 162.788, 375.462 165.522, 374.109 166.878, 371.377 169.611, 370.024 170.967, 367.291 173.701, 365.938 175.056, 363.206 177.790, 361.853 178.725, 359.967 172.119, 353.361 179.191, 346.291 186.264, 339.221 193.336, 332.152 200.408, 325.082 207.481, 318.012 214.553, 310.942 221.625, 303.873 228.698, 296.803 232.575, 292.927 239.226, 285.460 242.744, 281.511 245.502, 277.462 248.259, 273.413 "
         fill="none"
         stroke="rgb(0, 0, 0)"
         stroke-linecap="butt"
         stroke-linejoin="round"
         stroke-opacity="1.0"
         stroke-width="3.0"
         id="path2" />
      <path
         d=" M 273.979, 239.418 263.985, 239.766 253.992, 240.114 243.998, 240.462 234.004, 240.811 224.010, 241.159 214.016, 241.507 204.022, 241.855 194.028, 242.204 184.034, 242.552 174.040, 242.900 165.008, 243.215 160.096, 251.925 155.183, 260.635 150.271, 269.346 145.359, 278.056 140.446, 286.766 135.534, 295.477 130.622, 304.187 125.709, 312.897 120.797, 321.607 115.884, 330.318 110.972, 339.028 106.060, 347.738 101.147, 356.448 96.235, 365.159 91.323, 373.869 86.410, 382.579 81.498, 391.289 76.434, 400.268 81.328, 408.989 86.221, 417.710 91.114, 426.431 96.008, 435.152 100.901, 443.873 101.405, 444.772 111.405, 444.721 121.405, 444.670 131.405, 444.619 141.405, 444.568 151.405, 444.517 161.405, 444.466 171.404, 444.415 181.404, 444.364 191.404, 444.313 201.404, 444.262 211.404, 444.211 221.404, 444.160 231.404, 444.109 241.403, 444.058 251.403, 444.007 261.403, 443.956 271.403, 443.905 281.403, 443.854 291.403, 443.803 301.403, 443.752 311.403, 443.701 321.402, 443.650 331.402, 443.599 341.402, 443.548 345.197, 443.528 349.520, 434.511 353.843, 425.494 358.166, 416.476 362.489, 407.459 364.808, 402.621 359.945, 393.883 355.082, 385.145 350.219, 376.407 345.356, 367.669 340.493, 358.931 335.630, 350.193 330.767, 341.455 325.904, 332.717 321.041, 323.979 316.178, 315.241 311.315, 306.504 306.452, 297.766 301.589, 289.028 296.726, 280.290 291.863, 271.552 287.000, 262.814 282.137, 254.076 277.274, 245.338 273.979, 239.418 "
         fill="none"
         stroke="rgb(0, 0, 0)"
         stroke-linecap="butt"
         stroke-linejoin="round"
         stroke-opacity="1.0"
         stroke-width="3.0"
         id="path4" />
      <path
         d=" M 155.545, 396.959 147.045, 394.677 140.819, 400.897 143.093, 409.400 151.593, 411.681 157.819, 405.461 155.545, 396.959 "
         fill="none"
         stroke="rgb(0, 0, 0)"
         stroke-linecap="butt"
         stroke-linejoin="round"
         stroke-opacity="1.0"
         stroke-width="3.0"
         id="path6" />
      <path
         d=" M 275.787, 139.007 282.172, 131.311 288.556, 123.614 294.941, 115.918 301.326, 108.221 307.711, 100.525 314.096, 92.829 320.480, 85.132 322.597, 82.581 312.602, 82.263 302.607, 81.945 292.612, 81.627 282.617, 81.309 272.622, 80.991 262.627, 80.673 252.632, 80.355 242.637, 80.037 232.642, 79.719 222.647, 79.401 212.652, 79.083 202.658, 78.765 192.663, 78.447 182.668, 78.129 172.673, 77.811 162.678, 77.493 152.683, 77.175 142.688, 76.857 132.693, 76.539 122.102, 76.202 127.925, 84.331 133.748, 92.461 139.571, 100.590 145.394, 108.720 151.218, 116.850 157.041, 124.979 162.864, 133.109 167.089, 139.007 167.089, 149.007 167.089, 159.007 167.089, 169.007 167.089, 179.007 167.089, 188.489 161.996, 197.095 156.904, 205.702 151.812, 214.308 146.720, 222.914 141.627, 231.520 136.535, 240.127 131.443, 248.733 126.350, 257.339 121.258, 265.946 116.166, 274.552 111.073, 283.158 105.981, 291.765 100.889, 300.371 95.797, 308.977 90.704, 317.583 85.612, 326.190 80.520, 334.796 75.427, 343.402 70.335, 352.009 65.243, 360.615 60.150, 369.221 55.058, 377.828 49.966, 386.434 44.874, 395.040 40.260, 402.837 45.108, 411.583 49.956, 420.330 54.804, 429.076 59.652, 437.822 64.500, 446.568 69.348, 455.314 74.196, 464.061 77.779, 470.524 87.779, 470.409 97.778, 470.293 107.777, 470.178 117.777, 470.062 127.776, 469.946 137.775, 469.831 147.775, 469.715 157.774, 469.600 167.773, 469.484 177.773, 469.368 187.772, 469.253 197.771, 469.137 207.771, 469.022 217.770, 468.906 227.769, 468.791 237.769, 468.675 247.768, 468.559 257.767, 468.444 267.767, 468.328 277.766, 468.213 287.765, 468.097 297.765, 467.982 307.764, 467.866 317.763, 467.750 327.763, 467.635 337.762, 467.519 347.761, 467.404 357.761, 467.288 365.401, 467.200 370.249, 458.454 375.097, 449.707 379.945, 440.961 384.793, 432.215 389.641, 423.469 394.489, 414.722 399.337, 405.976 399.888, 404.982 394.915, 396.307 389.941, 387.631 384.968, 378.955 379.995, 370.280 375.022, 361.604 370.049, 352.928 365.076, 344.252 360.102, 335.577 355.129, 326.901 350.156, 318.225 345.183, 309.550 340.210, 300.874 335.236, 292.198 330.263, 283.523 325.290, 274.847 320.317, 266.171 315.344, 257.496 310.371, 248.820 305.397, 240.144 300.424, 231.469 295.451, 222.793 290.478, 214.117 285.505, 205.442 280.532, 196.766 275.787, 188.489 275.787, 178.489 275.787, 168.489 275.787, 158.489 275.787, 148.489 275.787, 139.007 "
         fill="none"
         stroke="rgb(0, 0, 0)"
         stroke-linecap="butt"
         stroke-linejoin="round"
         stroke-opacity="1.0"
         stroke-width="3.0"
         id="path8" />
      <path
         d=" M 297.536, 96.474 291.133, 104.155 284.729, 111.836 278.325, 119.516 271.922, 127.197 265.518, 134.878 262.076, 139.007 262.076, 149.007 262.076, 159.007 262.076, 169.007 262.076, 179.007 262.076, 188.489 266.912, 197.242 271.748, 205.994 276.584, 214.747 281.421, 223.500 286.257, 232.253 291.093, 241.005 295.929, 249.758 300.766, 258.511 305.602, 267.264 310.438, 276.017 315.274, 284.769 320.111, 293.522 324.947, 302.275 329.783, 311.028 334.619, 319.780 339.455, 328.533 344.292, 337.286 349.128, 346.039 353.964, 354.791 358.800, 363.544 363.637, 372.297 368.473, 381.050 373.309, 389.802 378.145, 398.555 381.697, 404.982 377.002, 413.812 372.307, 422.641 367.612, 431.470 362.917, 440.300 358.222, 449.129 356.169, 452.989 346.170, 453.066 336.170, 453.144 326.170, 453.221 316.171, 453.298 306.171, 453.376 296.171, 453.453 286.171, 453.530 276.172, 453.608 266.172, 453.685 256.172, 453.762 246.173, 453.840 236.173, 453.917 226.173, 453.994 216.174, 454.072 206.174, 454.149 196.174, 454.226 186.174, 454.304 176.175, 454.381 166.175, 454.458 156.175, 454.536 146.176, 454.613 136.176, 454.690 126.176, 454.768 116.176, 454.845 106.177, 454.922 96.177, 455.000 87.822, 455.064 83.127, 446.235 78.432, 437.405 73.737, 428.576 69.042, 419.747 64.347, 410.917 60.051, 402.837 64.959, 394.124 69.867, 385.412 74.775, 376.699 79.683, 367.986 84.591, 359.274 89.499, 350.561 94.408, 341.848 99.316, 333.136 104.224, 324.423 109.132, 315.711 114.040, 306.998 118.948, 298.285 123.856, 289.573 128.764, 280.860 133.673, 272.147 138.581, 263.435 143.489, 254.722 148.397, 246.009 153.305, 237.297 158.213, 228.584 163.121, 219.871 168.029, 211.159 172.938, 202.446 177.846, 193.733 180.800, 188.489 180.800, 178.489 180.800, 168.489 180.800, 158.489 180.800, 148.489 180.800, 139.007 175.134, 130.767 169.467, 122.528 163.801, 114.288 158.134, 106.049 152.468, 97.809 147.162, 90.095 157.153, 90.518 167.144, 90.942 177.135, 91.366 187.126, 91.790 197.117, 92.214 207.108, 92.638 217.099, 93.062 227.090, 93.485 237.081, 93.909 247.072, 94.333 257.063, 94.757 267.054, 95.181 277.045, 95.605 287.036, 96.029 297.536, 96.474 "
         fill="none"
         stroke="rgb(0, 0, 0)"
         stroke-linecap="butt"
         stroke-linejoin="round"
         stroke-opacity="1.0"
         stroke-width="3.0"
         id="path10" />
      <path
         d=" M 207.091, 100.890 197.962, 104.971 190.504, 108.305 189.474, 118.252 188.633, 126.377 196.732, 132.243 203.348, 137.034 212.477, 132.953 219.935, 129.619 220.965, 119.672 221.806, 111.547 213.707, 105.681 207.091, 100.890 "
         fill="none"
         stroke="rgb(0, 0, 0)"
         stroke-linecap="butt"
         stroke-linejoin="round"
         stroke-opacity="1.0"
         stroke-width="3.0"
         id="path12" />
      <path
         d=" M 221.071, 153.211 216.209, 161.949 212.238, 169.088 217.376, 177.668 221.573, 184.676 231.571, 184.517 239.739, 184.386 244.600, 175.647 248.572, 168.509 243.434, 159.929 239.237, 152.921 229.238, 153.080 221.071, 153.211 "
         fill="none"
         stroke="rgb(0, 0, 0)"
         stroke-linecap="butt"
         stroke-linejoin="round"
         stroke-opacity="1.0"
         stroke-width="3.0"
         id="path14" />
      <path
         d=" M 236.554, 30.772 233.499, 40.294 231.003, 48.072 237.722, 55.479 243.210, 61.529 252.984, 59.414 260.968, 57.686 264.023, 48.164 266.519, 40.386 259.800, 32.979 254.311, 26.929 244.538, 29.044 236.554, 30.772 "
         fill="none"
         stroke="rgb(0, 0, 0)"
         stroke-linecap="butt"
         stroke-linejoin="round"
         stroke-opacity="1.0"
         stroke-width="3.0"
         id="path16" />
    </g>
  </g>
  <path
     style="opacity:1;fill:#000000;fill-opacity:1;stroke:#000000;stroke-width:0.529661;stroke-opacity:1"
     d="m 197.38347,130.55759 c -3.20444,-2.33834 -6.04464,-4.46583 -6.31154,-4.72775 -0.6452,-0.63318 0.74096,-15.74218 1.49924,-16.34146 0.65794,-0.51999 13.75589,-6.41635 14.25303,-6.41635 0.49399,0 12.781,9.02896 12.96413,9.52653 0.21475,0.58348 -1.44504,15.50589 -1.75968,15.82053 -0.36055,0.36055 -14.08818,6.43662 -14.48506,6.41132 -0.18361,-0.0117 -2.95567,-1.93447 -6.16012,-4.27282 z"
     id="path833"
     inkscape:connector-curvature="0" />
  <path
     style="opacity:1;fill:#000000;fill-opacity:1;stroke:#000000;stroke-width:0.529661;stroke-opacity:1"
     d="m 218.62288,176.29577 c -2.18485,-3.70286 -3.97246,-6.97505 -3.97246,-7.27153 0,-0.29649 1.66844,-3.5762 3.70763,-7.28825 l 3.70763,-6.74919 6.42214,-0.004 c 3.53217,-0.002 7.12251,-0.14407 7.97851,-0.31527 1.51578,-0.30316 1.66754,-0.12568 5.81942,6.80577 l 4.26305,7.11704 -3.82292,6.833 -3.82291,6.83301 -4.71102,0.34116 c -2.59106,0.18764 -6.26028,0.36131 -8.15381,0.38593 l -3.4428,0.0448 z"
     id="path835"
     inkscape:connector-curvature="0" />
  <path
     style="opacity:1;fill:#000000;fill-opacity:1;stroke:#000000;stroke-width:0.529661;stroke-opacity:1"
     d="m 78.070536,467.3464 c -0.410441,-0.65546 -8.628457,-15.43131 -18.262258,-32.83523 l -17.516,-31.64349 56.029311,-94.68066 C 129.13771,256.11265 157.60977,207.9929 161.59282,201.25423 l 7.24193,-12.25213 -0.0137,-25.35381 -0.0137,-25.3538 -21.4318,-29.88746 C 135.58802,91.968923 126.04146,78.421821 126.16092,78.302358 c 0.22238,-0.222385 192.16831,5.752583 192.46958,5.991269 0.0916,0.07256 -9.79983,12.131139 -21.98093,26.796843 l -22.14745,26.66493 -0.14686,25.7579 -0.14684,25.75791 61.71994,107.67246 c 33.94597,59.21985 61.71995,107.84281 61.71995,108.05103 0,0.28765 -32.52926,59.43615 -33.14995,60.2771 -0.15284,0.20709 -253.97655,3.23317 -272.849497,3.25291 -12.739949,0.0133 -12.837427,0.005 -13.578327,-1.17831 z M 249.59885,455.50562 c 67.92359,-0.51648 107.21091,-1.00318 107.6084,-1.33308 1.21763,-1.01054 26.24006,-48.75466 26.01086,-49.63009 -0.12783,-0.48829 -22.95067,-42.00273 -50.71742,-92.25431 -27.76674,-50.25159 -54.6186,-98.85159 -59.67081,-108 l -9.18581,-16.63347 0.009,-23.8856 0.009,-23.8856 14.59052,-17.47881 c 21.61628,-25.895296 20.51965,-24.498026 20.05515,-25.553292 -0.2251,-0.511367 -0.42985,-1.168105 -0.45501,-1.459419 -0.0252,-0.291314 -0.99914,-0.597718 -2.16439,-0.680899 -7.98029,-0.569668 -148.86383,-6.323493 -149.43792,-6.103194 -0.39654,0.152166 -0.72098,0.72027 -0.72098,1.262452 0,0.542183 7.50719,11.897772 16.68264,25.234642 l 16.68265,24.24886 0.002,24.46028 0.002,24.46028 -60.4247,107.2696 -60.424698,107.26959 14.155767,26.63878 c 7.785672,14.65131 14.41932,26.82686 14.741439,27.05677 0.322119,0.22989 12.979739,0.2812 28.128042,0.11399 15.14831,-0.16719 75.68443,-0.67006 134.5247,-1.11748 z"
     id="path837"
     inkscape:connector-curvature="0" />
  <path
     style="opacity:1;fill:#000000;fill-opacity:1;stroke:#000000;stroke-width:0.529661;stroke-opacity:1"
     d="m 90.974576,422.7607 c -6.263241,-11.23984 -11.59475,-20.9802 -11.847797,-21.64523 -0.389555,-1.0238 6.220368,-13.06066 43.118091,-78.5193 23.968,-42.52059 43.638,-77.38751 43.71109,-77.48206 0.12842,-0.1661 99.69024,-3.77432 104.62961,-3.79188 l 2.43937,-0.009 44.11323,79.31674 c 24.26228,43.6242 44.4633,79.92959 44.89115,80.67864 0.747,1.30777 0.4267,2.09723 -8.05846,19.86228 -4.86,10.17522 -9.15827,19.00049 -9.5517,19.61172 l -0.71533,1.11132 -91.27458,0.34723 c -50.20102,0.19098 -104.50287,0.48405 -120.67078,0.65126 l -29.39618,0.30402 z m 72.718874,-5.50701 c 4.28428,-4.31874 7.78664,-8.07271 7.78302,-8.34216 -0.004,-0.26946 -0.59847,-2.62967 -1.32188,-5.2449 l -1.31531,-4.75499 3.26633,-3.29563 c 1.79649,-1.81259 3.95184,-3.57957 4.78967,-3.92661 0.83782,-0.34704 1.86699,-1.29556 2.28702,-2.10783 0.42004,-0.81226 1.24563,-1.62979 1.83465,-1.81674 0.58901,-0.18695 1.42988,-1.03402 1.86858,-1.88238 0.43871,-0.84837 1.46226,-1.88617 2.27455,-2.30622 0.8123,-0.42005 1.75132,-1.36601 2.08672,-2.10213 0.3354,-0.73612 1.3183,-1.70477 2.18423,-2.15256 0.86592,-0.44779 1.72653,-1.29347 1.91247,-1.87929 0.47254,-1.48884 0.80981,-1.36779 3.30415,1.18593 3.09001,3.16357 6.0798,9.69325 6.46043,14.10955 0.24739,2.87037 0.47913,3.52438 1.30473,3.68208 0.73727,0.14083 8.94123,-7.73558 30.88859,-29.65534 16.43658,-16.41591 31.44324,-31.7001 33.34812,-33.96488 11.21134,-13.32954 15.06581,-31.68078 10.13456,-48.25091 -2.73245,-9.18169 -6.60549,-15.31897 -17.02269,-26.97441 -4.90181,-5.48447 -5.52676,-5.4183 -7.02164,0.74345 -2.23662,9.21911 -7.47958,17.78598 -18.14653,29.65105 -3.77525,4.19927 -19.7578,20.50498 -35.51678,36.2349 -15.75899,15.72992 -28.65271,28.91631 -28.65271,29.30309 0,0.38678 1.3705,2.15006 3.04555,3.9184 2.1652,2.28578 2.82459,3.29221 2.28115,3.48172 -0.42041,0.14661 -1.29309,0.84834 -1.93928,1.55941 -0.64619,0.71107 -1.41511,1.52933 -1.70871,1.81836 -0.69062,0.67984 -3.55745,3.54666 -4.23729,4.23728 -0.28902,0.29361 -1.1154,1.13565 -1.83641,1.87122 -0.721,0.73557 -1.63592,1.6636 -2.03317,2.06231 -2.12938,2.13716 -3.42068,3.49262 -6.82279,7.16178 l -3.74097,4.03461 -4.34832,-1.24098 c -2.39158,-0.68253 -4.70296,-1.24678 -5.1364,-1.25388 -0.43344,-0.007 -4.30659,3.49972 -8.60699,7.79296 -5.98529,5.97531 -7.81506,8.11795 -7.80249,9.13665 0.009,0.73192 1.26036,5.84732 2.78072,11.36755 l 2.7643,10.03679 10.06356,2.76143 c 5.53495,1.51879 10.66973,2.78216 11.41061,2.8075 1.05916,0.0362 3.01181,-1.63209 9.13665,-7.80618 z"
     id="path839"
     inkscape:connector-curvature="0" />
  <path
     style="opacity:1;fill:#000000;fill-opacity:1;stroke:#000000;stroke-width:0.529661;stroke-opacity:1"
     d="m 238.39613,53.626972 -5.38564,-5.980255 2.43134,-7.701326 2.43135,-7.701326 7.9708,-1.710766 7.9708,-1.710765 1.0746,1.316784 c 0.59103,0.724231 3.00278,3.427455 5.35945,6.007165 l 4.28485,4.690381 -2.44368,7.666682 -2.44368,7.666682 -7.66744,1.704282 c -4.21709,0.937356 -7.78661,1.71068 -7.93227,1.718499 -0.14566,0.0078 -2.68837,-2.676898 -5.65048,-5.966037 z"
     id="path841"
     inkscape:connector-curvature="0" />
  <path
     style="opacity:1;fill:#000000;fill-opacity:1;stroke:#000000;stroke-width:0.529661;stroke-opacity:1"
     d="m 147.57362,408.8557 -2.98782,-0.78492 -0.89849,-3.20221 -0.8985,-3.20221 2.47555,-2.51334 2.47555,-2.51335 3.14615,0.84297 c 3.11504,0.83464 3.15387,0.86897 3.92666,3.47122 0.42927,1.44553 0.7805,2.99306 0.7805,3.43896 0,0.77516 -4.14866,5.40958 -4.74481,5.30037 -0.15783,-0.0289 -1.63149,-0.40578 -3.27479,-0.83749 z"
     id="path843"
     inkscape:connector-curvature="0" />
</svg>
