<?xml version="1.0" encoding="UTF-8" standalone="no"?>
<!-- Created with Inkscape (http://www.inkscape.org/) -->

<svg
   xmlns:dc="http://purl.org/dc/elements/1.1/"
   xmlns:cc="http://creativecommons.org/ns#"
   xmlns:rdf="http://www.w3.org/1999/02/22-rdf-syntax-ns#"
   xmlns:svg="http://www.w3.org/2000/svg"
   xmlns="http://www.w3.org/2000/svg"
   xmlns:sodipodi="http://sodipodi.sourceforge.net/DTD/sodipodi-0.dtd"
   xmlns:inkscape="http://www.inkscape.org/namespaces/inkscape"
   width="210mm"
   height="210mm"
   viewBox="0 0 210 210"
   version="1.1"
   id="svg8"
   inkscape:version="0.92.3 (2405546, 2018-03-11)"
   sodipodi:docname="MagnifyingGlass.svg"
   inkscape:export-filename="C:\Users\Knives\Desktop\Inkscape Icons\MagnifyingGlass.png"
   inkscape:export-xdpi="4.1599998"
   inkscape:export-ydpi="4.1599998">
  <defs
     id="defs2">
    <inkscape:perspective
       sodipodi:type="inkscape:persp3d"
       inkscape:vp_x="0 : 105 : 1"
       inkscape:vp_y="0 : 1000 : 0"
       inkscape:vp_z="210 : 105 : 1"
       inkscape:persp3d-origin="105 : 70 : 1"
       id="perspective819" />
  </defs>
  <sodipodi:namedview
     id="base"
     pagecolor="#ffffff"
     bordercolor="#666666"
     borderopacity="1.0"
     inkscape:pageopacity="0.0"
     inkscape:pageshadow="2"
     inkscape:zoom="1.52"
     inkscape:cx="400.3639"
     inkscape:cy="382.38102"
     inkscape:document-units="mm"
     inkscape:current-layer="layer1"
     showgrid="false"
     showborder="true"
     inkscape:window-width="3200"
     inkscape:window-height="1644"
     inkscape:window-x="-16"
     inkscape:window-y="-16"
     inkscape:window-maximized="1" />
  <metadata
     id="metadata5">
    <rdf:RDF>
      <cc:Work
         rdf:about="">
        <dc:format>image/svg+xml</dc:format>
        <dc:type
           rdf:resource="http://purl.org/dc/dcmitype/StillImage" />
        <dc:title />
      </cc:Work>
    </rdf:RDF>
  </metadata>
  <g
     inkscape:label="Layer 1"
     inkscape:groupmode="layer"
     id="layer1"
     transform="translate(0,-87)">
    <rect
       style="fill:#000000;fill-opacity:1;stroke:#000000;stroke-width:0.09466653;stroke-opacity:1"
       id="rect857"
       width="41.981655"
       height="66.016556"
       x="189.80931"
       y="124.65708"
       ry="6.6893187"
       rx="0"
       transform="rotate(45)" />
    <rect
       style="fill:#000000;fill-opacity:1;stroke:#000000;stroke-width:0.0731617;stroke-opacity:1"
       id="rect815-3"
       width="22.920753"
       height="54.979095"
       x="199.25876"
       y="105.83237"
       transform="matrix(0.70639436,0.70781849,-0.70504799,0.70915959,0,0)" />
    <path
       style="fill:#000000;fill-opacity:1;stroke:#000000;stroke-width:0.33337501;stroke-opacity:1"
       d="m 182.57742,114.88019 a 83.59171,82.5061 45 0 0 -117.449185,-0.76752 83.59171,82.5061 45 0 0 0.76797,117.44874 83.59171,82.5061 45 0 0 117.448725,0.76797 83.59171,82.5061 45 0 0 -0.76751,-117.44919 z m -11.77782,11.55868 a 66.873371,66.004882 45 0 1 0.61418,93.95936 66.873371,66.004882 45 0 1 -93.959352,-0.61421 66.873371,66.004882 45 0 1 -0.614195,-93.95934 66.873371,66.004882 45 0 1 93.959367,0.61419 z"
       id="path820"
       inkscape:connector-curvature="0" />
    <path
       style="fill:#000000;fill-opacity:1;stroke:none;stroke-width:0.33337501px;stroke-linecap:butt;stroke-linejoin:miter;stroke-opacity:1"
       d="m 92.604223,129.63518 9.869667,-7.67639 9.86964,-4.60585 13.37887,-1.53528 12.50156,3.28988 10.96629,6.14113 6.57977,6.57977 -13.37887,-4.60585 -15.35279,-2.19325 -16.23011,0.8773 -8.99235,2.41257 z"
       id="path960"
       inkscape:connector-curvature="0" />
  </g>
</svg>
