<?xml version="1.0" encoding="UTF-8" standalone="no"?>
<svg
   xmlns:dc="http://purl.org/dc/elements/1.1/"
   xmlns:cc="http://creativecommons.org/ns#"
   xmlns:rdf="http://www.w3.org/1999/02/22-rdf-syntax-ns#"
   xmlns:svg="http://www.w3.org/2000/svg"
   xmlns="http://www.w3.org/2000/svg"
   xmlns:sodipodi="http://sodipodi.sourceforge.net/DTD/sodipodi-0.dtd"
   xmlns:inkscape="http://www.inkscape.org/namespaces/inkscape"
   height="540"
   version="1.1"
   width="540"
   id="svg12"
   sodipodi:docname="Microphone.svg"
   inkscape:version="0.92.5 (2060ec1f9f, 2020-04-08)">
  <metadata
     id="metadata18">
    <rdf:RDF>
      <cc:Work
         rdf:about="">
        <dc:format>image/svg+xml</dc:format>
        <dc:type
           rdf:resource="http://purl.org/dc/dcmitype/StillImage" />
      </cc:Work>
    </rdf:RDF>
  </metadata>
  <defs
     id="defs16" />
  <sodipodi:namedview
     pagecolor="#ffffff"
     bordercolor="#666666"
     borderopacity="1"
     objecttolerance="10"
     gridtolerance="10"
     guidetolerance="10"
     inkscape:pageopacity="0"
     inkscape:pageshadow="2"
     inkscape:window-width="1607"
     inkscape:window-height="881"
     id="namedview14"
     showgrid="false"
     inkscape:zoom="0.43703704"
     inkscape:cx="270"
     inkscape:cy="270"
     inkscape:window-x="0"
     inkscape:window-y="0"
     inkscape:window-maximized="0"
     inkscape:current-layer="svg12" />
  <g
     id="RenderLayer_LineSet"
     inkscape:groupmode="lineset"
     inkscape:label="RenderLayer_LineSet">
    <g
       id="strokes"
       inkscape:groupmode="layer"
       inkscape:label="strokes">
      <path
         d=" M 444.975, 411.426 452.046, 404.355 459.117, 397.284 466.188, 390.213 473.259, 383.142 480.331, 376.071 487.402, 369.000 494.473, 361.929 498.067, 358.334 490.996, 351.263 483.925, 344.192 476.854, 337.121 469.783, 330.050 462.712, 322.979 457.537, 317.804 450.466, 324.875 443.395, 331.946 436.324, 339.017 429.253, 346.088 422.182, 353.159 415.111, 360.230 408.039, 367.301 404.445, 370.896 397.374, 363.825 390.303, 356.754 383.232, 349.683 376.161, 342.611 369.090, 335.540 362.019, 328.469 354.947, 321.398 351.840, 318.291 344.769, 325.362 337.698, 332.433 330.627, 339.504 323.556, 346.575 316.485, 353.646 312.285, 357.847 319.356, 364.918 326.427, 371.989 333.498, 379.060 340.569, 386.131 347.640, 393.202 354.711, 400.273 361.782, 407.344 364.889, 410.451 357.818, 417.522 350.747, 424.593 343.676, 431.665 336.605, 438.736 329.534, 445.807 322.463, 452.878 315.392, 459.949 311.797, 463.543 318.868, 470.614 325.940, 477.685 333.011, 484.757 340.082, 491.828 347.153, 498.899 352.328, 504.074 359.399, 497.002 366.470, 489.931 373.541, 482.860 380.612, 475.789 387.683, 468.718 394.754, 461.647 401.825, 454.576 405.420, 450.982 412.491, 458.053 419.562, 465.124 426.633, 472.195 433.704, 479.266 440.775, 486.337 447.846, 493.408 454.917, 500.479 458.024, 503.586 465.095, 496.515 472.166, 489.444 479.238, 482.373 486.309, 475.302 493.380, 468.231 497.580, 464.031 490.509, 456.960 483.438, 449.889 476.367, 442.817 469.296, 435.746 462.224, 428.675 455.153, 421.604 448.082, 414.533 444.975, 411.426 "
         fill="none"
         stroke="rgb(0, 0, 0)"
         stroke-linecap="butt"
         stroke-linejoin="round"
         stroke-opacity="1.0"
         stroke-width="3.0"
         id="path2" />
      <path
         d=" M 125.935, 490.985 132.974, 483.883 140.014, 476.780 147.053, 469.677 154.093, 462.575 161.132, 455.472 168.171, 448.370 175.211, 441.267 182.250, 434.164 189.289, 427.062 196.329, 419.959 203.368, 412.857 210.408, 405.754 217.447, 398.651 224.486, 391.549 231.526, 384.446 238.565, 377.343 245.604, 370.241 252.644, 363.138 259.683, 356.036 266.723, 348.933 273.762, 341.830 280.801, 334.728 287.841, 327.625 294.880, 320.522 301.919, 313.420 309.029, 306.246 301.047, 300.222 293.066, 294.198 285.084, 288.174 277.102, 282.149 269.120, 276.125 261.138, 270.101 253.156, 264.077 245.175, 258.053 237.193, 252.029 229.211, 246.005 221.229, 239.981 213.247, 233.956 205.265, 227.932 197.283, 221.908 189.302, 215.884 186.663, 213.892 181.763, 222.610 176.862, 231.327 171.962, 240.044 167.062, 248.761 162.162, 257.478 157.261, 266.195 152.361, 274.912 147.461, 283.629 142.561, 292.346 137.661, 301.063 132.760, 309.780 127.860, 318.498 122.960, 327.215 118.060, 335.932 113.159, 344.649 108.259, 353.366 103.359, 362.083 98.459, 370.800 93.558, 379.517 88.658, 388.234 83.758, 396.951 78.858, 405.669 73.958, 414.386 69.057, 423.103 64.157, 431.820 59.208, 440.624 62.219, 450.160 65.231, 459.696 67.854, 468.002 75.836, 474.026 83.818, 480.050 91.800, 486.075 93.864, 487.633 103.810, 488.673 113.756, 489.712 123.702, 490.752 125.935, 490.985 "
         fill="none"
         stroke="rgb(0, 0, 0)"
         stroke-linecap="butt"
         stroke-linejoin="round"
         stroke-opacity="1.0"
         stroke-width="3.0"
         id="path4" />
      <path
         d=" M 191.433, 196.400 199.415, 202.424 207.397, 208.448 215.378, 214.473 223.360, 220.497 231.342, 226.521 239.324, 232.545 247.306, 238.569 255.288, 244.593 263.270, 250.617 271.251, 256.641 279.233, 262.666 287.215, 268.690 295.197, 274.714 303.179, 280.738 311.161, 286.762 319.044, 292.712 328.739, 290.262 338.435, 287.812 348.130, 285.361 356.425, 283.265 364.723, 277.685 373.022, 272.106 381.321, 266.526 387.155, 262.603 379.174, 256.579 371.192, 250.555 363.210, 244.531 355.228, 238.507 347.246, 232.482 339.264, 226.458 331.283, 220.434 323.301, 214.410 315.319, 208.386 307.337, 202.362 299.355, 196.338 291.373, 190.314 283.391, 184.289 275.410, 178.265 267.428, 172.241 259.446, 166.217 251.464, 160.193 243.482, 154.169 235.500, 148.145 227.519, 142.120 219.537, 136.096 211.555, 130.072 203.573, 124.048 200.672, 121.858 197.581, 131.369 194.491, 140.879 191.401, 150.390 189.228, 157.077 189.788, 167.061 190.348, 177.045 190.907, 187.030 191.433, 196.400 "
         fill="none"
         stroke="rgb(0, 0, 0)"
         stroke-linecap="butt"
         stroke-linejoin="round"
         stroke-opacity="1.0"
         stroke-width="3.0"
         id="path6" />
      <path
         d=" M 209.801, 107.729 217.783, 113.753 225.765, 119.778 233.747, 125.802 241.729, 131.826 249.710, 137.850 257.692, 143.874 265.674, 149.898 273.656, 155.922 281.638, 161.946 289.620, 167.971 297.602, 173.995 305.583, 180.019 313.565, 186.043 321.547, 192.067 329.529, 198.091 337.511, 204.115 345.493, 210.139 353.474, 216.164 361.456, 222.188 369.438, 228.212 377.420, 234.236 385.402, 240.260 393.384, 246.284 398.240, 249.949 403.956, 241.744 409.672, 233.539 415.388, 225.334 416.639, 223.538 419.242, 213.883 421.845, 204.228 424.448, 194.573 425.051, 192.336 425.103, 182.336 425.154, 172.336 425.205, 162.337 425.216, 160.214 422.678, 150.542 420.140, 140.869 417.602, 131.196 417.121, 129.362 412.136, 120.693 407.151, 112.024 402.166, 103.355 401.319, 101.881 394.217, 94.841 387.114, 87.801 380.012, 80.761 378.885, 79.645 370.168, 74.745 361.451, 69.845 352.733, 64.946 351.350, 64.168 341.647, 61.752 331.943, 59.335 322.240, 56.918 320.590, 56.507 310.592, 56.718 300.594, 56.930 290.597, 57.142 288.700, 57.182 279.098, 59.973 269.495, 62.764 259.892, 65.555 257.855, 66.148 249.283, 71.299 240.712, 76.450 232.140, 81.600 230.155, 82.793 223.832, 90.540 217.508, 98.287 211.185, 106.034 209.801, 107.729 "
         fill="none"
         stroke="rgb(0, 0, 0)"
         stroke-linecap="butt"
         stroke-linejoin="round"
         stroke-opacity="1.0"
         stroke-width="3.0"
         id="path8" />
    </g>
  </g>
  <path
     style="opacity:1;fill:#000000;fill-opacity:1;stroke:#000000;stroke-width:1;stroke-opacity:1"
     d="M 107.08475,486.67134 C 88.612808,484.61403 72.411771,471.69474 66.301405,454.14922 L 61.823069,441.28998 123.46908,331.73397 c 33.90531,-60.2558 62.45894,-110.37004 63.45252,-111.36498 1.53051,-1.53259 100.75583,71.25822 113.10299,82.97137 3.99472,3.78958 0.42715,7.74067 -85.48938,94.68001 -49.31193,49.89897 -90.82978,90.57401 -92.26189,90.38899 -1.43211,-0.18502 -8.26696,-0.96713 -15.18857,-1.73802 z"
     id="path828"
     inkscape:connector-curvature="0" />
  <path
     style="opacity:1;fill:#000000;fill-opacity:1;stroke:#000000;stroke-width:1;stroke-opacity:1"
     d="m 256.95763,242.69867 -61.77966,-46.75064 -2.02219,-17.51137 c -1.7808,-15.42107 -1.38939,-19.5291 3.27903,-34.4149 2.91567,-9.29694 6.03348,-16.62315 6.92848,-16.28045 2.93905,1.12539 178.05038,133.30669 178.15531,134.47903 0.32564,3.63844 -29.527,19.33619 -43.84339,23.05466 -9.15738,2.3785 -17.16462,4.29074 -17.79385,4.24943 -0.62924,-0.0413 -28.94492,-21.11291 -62.92373,-46.82576 z"
     id="path830"
     inkscape:connector-curvature="0" />
  <path
     style="opacity:1;fill:#000000;fill-opacity:1;stroke:#000000;stroke-width:1;stroke-opacity:1"
     d="m 306.90778,177.94608 c -49.29436,-37.34594 -90.36885,-68.64444 -91.27663,-69.55222 -2.86213,-2.86213 14.87398,-22.128215 28.37056,-30.817911 15.73741,-10.132438 44.79435,-19.013683 62.03332,-18.960464 63.25181,0.195265 116.81243,53.936875 116.81243,117.207175 0,21.00844 -6.77599,44.18079 -17.13596,58.60111 -4.65455,6.47879 -8.62364,11.69961 -8.82021,11.60181 -0.19657,-0.0978 -40.68914,-30.73357 -89.98351,-68.0795 z"
     id="path832"
     inkscape:connector-curvature="0" />
  <path
     style="opacity:1;fill:#000000;fill-opacity:1;stroke:#000000;stroke-width:1;stroke-opacity:1"
     d="m 334.75569,481.88281 -18.21551,-18.32297 26.23072,-26.30534 26.23072,-26.30535 -26.24833,-26.32301 -26.24833,-26.323 17.6957,-17.6957 17.6957,-17.6957 26.23275,26.15833 26.23274,26.15833 27.06046,-26.72716 27.06047,-26.72715 18.17496,18.28218 18.17496,18.28219 -25.69601,25.76912 c -14.13281,14.17301 -25.69601,26.76655 -25.69601,27.98564 0,1.21909 11.3303,13.57906 25.17844,27.46661 l 25.17845,25.25007 -17.78595,17.68163 -17.78595,17.68163 -26.23377,-26.3084 -26.23376,-26.3084 -26.39347,26.32472 -26.39348,26.3247 z"
     id="path834"
     inkscape:connector-curvature="0" />
</svg>
