<?xml version="1.0" encoding="UTF-8" standalone="no"?>
<svg
   xmlns:dc="http://purl.org/dc/elements/1.1/"
   xmlns:cc="http://creativecommons.org/ns#"
   xmlns:rdf="http://www.w3.org/1999/02/22-rdf-syntax-ns#"
   xmlns:svg="http://www.w3.org/2000/svg"
   xmlns="http://www.w3.org/2000/svg"
   xmlns:sodipodi="http://sodipodi.sourceforge.net/DTD/sodipodi-0.dtd"
   xmlns:inkscape="http://www.inkscape.org/namespaces/inkscape"
   height="540"
   version="1.1"
   width="540"
   id="svg10"
   sodipodi:docname="Microphone.svg"
   inkscape:version="0.92.5 (2060ec1f9f, 2020-04-08)">
  <metadata
     id="metadata16">
    <rdf:RDF>
      <cc:Work
         rdf:about="">
        <dc:format>image/svg+xml</dc:format>
        <dc:type
           rdf:resource="http://purl.org/dc/dcmitype/StillImage" />
      </cc:Work>
    </rdf:RDF>
  </metadata>
  <defs
     id="defs14" />
  <sodipodi:namedview
     pagecolor="#ffffff"
     bordercolor="#666666"
     borderopacity="1"
     objecttolerance="10"
     gridtolerance="10"
     guidetolerance="10"
     inkscape:pageopacity="0"
     inkscape:pageshadow="2"
     inkscape:window-width="1731"
     inkscape:window-height="776"
     id="namedview12"
     showgrid="false"
     inkscape:zoom="0.43703704"
     inkscape:cx="270"
     inkscape:cy="270"
     inkscape:window-x="0"
     inkscape:window-y="0"
     inkscape:window-maximized="0"
     inkscape:current-layer="svg10" />
  <g
     id="RenderLayer_LineSet"
     inkscape:groupmode="lineset"
     inkscape:label="RenderLayer_LineSet">
    <g
       id="strokes"
       inkscape:groupmode="layer"
       inkscape:label="strokes">
      <path
         d=" M 125.935, 490.985 132.974, 483.883 140.014, 476.780 147.053, 469.677 154.093, 462.575 161.132, 455.472 168.171, 448.370 175.211, 441.267 182.250, 434.164 189.289, 427.062 196.329, 419.959 203.368, 412.857 210.408, 405.754 217.447, 398.651 224.486, 391.549 231.526, 384.446 238.565, 377.343 245.604, 370.241 252.644, 363.138 259.683, 356.036 266.723, 348.933 273.762, 341.830 280.801, 334.728 287.841, 327.625 294.880, 320.522 301.919, 313.420 309.029, 306.246 301.047, 300.222 293.066, 294.198 285.084, 288.174 277.102, 282.149 269.120, 276.125 261.138, 270.101 253.156, 264.077 245.175, 258.053 237.193, 252.029 229.211, 246.005 221.229, 239.981 213.247, 233.956 205.265, 227.932 197.283, 221.908 189.302, 215.884 186.663, 213.892 181.763, 222.610 176.862, 231.327 171.962, 240.044 167.062, 248.761 162.162, 257.478 157.261, 266.195 152.361, 274.912 147.461, 283.629 142.561, 292.346 137.661, 301.063 132.760, 309.780 127.860, 318.498 122.960, 327.215 118.060, 335.932 113.159, 344.649 108.259, 353.366 103.359, 362.083 98.459, 370.800 93.558, 379.517 88.658, 388.234 83.758, 396.951 78.858, 405.669 73.958, 414.386 69.057, 423.103 64.157, 431.820 59.208, 440.624 62.219, 450.160 65.231, 459.696 67.854, 468.002 75.836, 474.026 83.818, 480.050 91.800, 486.075 93.864, 487.633 103.810, 488.673 113.756, 489.712 123.702, 490.752 125.935, 490.985 "
         fill="none"
         stroke="rgb(0, 0, 0)"
         stroke-linecap="butt"
         stroke-linejoin="round"
         stroke-opacity="1.0"
         stroke-width="3.0"
         id="path2" />
      <path
         d=" M 191.433, 196.400 199.415, 202.424 207.397, 208.448 215.378, 214.473 223.360, 220.497 231.342, 226.521 239.324, 232.545 247.306, 238.569 255.288, 244.593 263.270, 250.617 271.251, 256.641 279.233, 262.666 287.215, 268.690 295.197, 274.714 303.179, 280.738 311.161, 286.762 319.044, 292.712 328.739, 290.262 338.435, 287.812 348.130, 285.361 356.425, 283.265 364.723, 277.685 373.022, 272.106 381.321, 266.526 387.155, 262.603 379.174, 256.579 371.192, 250.555 363.210, 244.531 355.228, 238.507 347.246, 232.482 339.264, 226.458 331.283, 220.434 323.301, 214.410 315.319, 208.386 307.337, 202.362 299.355, 196.338 291.373, 190.314 283.391, 184.289 275.410, 178.265 267.428, 172.241 259.446, 166.217 251.464, 160.193 243.482, 154.169 235.500, 148.145 227.519, 142.120 219.537, 136.096 211.555, 130.072 203.573, 124.048 200.672, 121.858 197.581, 131.369 194.491, 140.879 191.401, 150.390 189.228, 157.077 189.788, 167.061 190.348, 177.045 190.907, 187.030 191.433, 196.400 "
         fill="none"
         stroke="rgb(0, 0, 0)"
         stroke-linecap="butt"
         stroke-linejoin="round"
         stroke-opacity="1.0"
         stroke-width="3.0"
         id="path4" />
      <path
         d=" M 209.801, 107.729 217.783, 113.753 225.765, 119.778 233.747, 125.802 241.729, 131.826 249.710, 137.850 257.692, 143.874 265.674, 149.898 273.656, 155.922 281.638, 161.946 289.620, 167.971 297.602, 173.995 305.583, 180.019 313.565, 186.043 321.547, 192.067 329.529, 198.091 337.511, 204.115 345.493, 210.139 353.474, 216.164 361.456, 222.188 369.438, 228.212 377.420, 234.236 385.402, 240.260 393.384, 246.284 398.240, 249.949 403.956, 241.744 409.672, 233.539 415.388, 225.334 416.639, 223.538 419.242, 213.883 421.845, 204.228 424.448, 194.573 425.051, 192.336 425.103, 182.336 425.154, 172.336 425.205, 162.337 425.216, 160.214 422.678, 150.542 420.140, 140.869 417.602, 131.196 417.121, 129.362 412.136, 120.693 407.151, 112.024 402.166, 103.355 401.319, 101.881 394.217, 94.841 387.114, 87.801 380.012, 80.761 378.885, 79.645 370.168, 74.745 361.451, 69.845 352.733, 64.946 351.350, 64.168 341.647, 61.752 331.943, 59.335 322.240, 56.918 320.590, 56.507 310.592, 56.718 300.594, 56.930 290.597, 57.142 288.700, 57.182 279.098, 59.973 269.495, 62.764 259.892, 65.555 257.855, 66.148 249.283, 71.299 240.712, 76.450 232.140, 81.600 230.155, 82.793 223.832, 90.540 217.508, 98.287 211.185, 106.034 209.801, 107.729 "
         fill="none"
         stroke="rgb(0, 0, 0)"
         stroke-linecap="butt"
         stroke-linejoin="round"
         stroke-opacity="1.0"
         stroke-width="3.0"
         id="path6" />
    </g>
  </g>
  <path
     style="opacity:1;fill:#000000;fill-opacity:1;stroke:#000000;stroke-width:1;stroke-opacity:1"
     d="M 107.39561,486.65669 C 98.578167,485.65442 92.348205,482.99076 82.847665,476.16102 71.973649,468.34392 69.60797,465.2878 66.634263,455.21563 c -1.914946,-6.48606 -3.481721,-12.77815 -3.481721,-13.98244 0,-2.25708 120.359388,-217.58311 123.489368,-220.92565 0.96332,-1.02873 28.12472,18.02 60.35868,42.33051 l 58.60719,44.20093 -90.89909,90.95339 c -49.99451,50.02437 -91.93359,90.78556 -93.19796,90.58043 -1.26438,-0.20502 -7.61618,-0.97736 -14.11512,-1.71611 z"
     id="path823"
     inkscape:connector-curvature="0" />
  <path
     style="opacity:1;fill:#000000;fill-opacity:1;stroke:#000000;stroke-width:1;stroke-opacity:1"
     d="m 256.5,242.37891 -61.77966,-46.98268 -1.63609,-18.64303 c -1.38789,-15.81484 -0.88389,-20.99162 3.32234,-34.12457 2.72714,-8.51484 5.7608,-15.20764 6.74147,-14.87288 3.30555,1.12838 177.96866,133.30658 178.01221,134.71267 0.1328,4.28731 -26.81171,18.38988 -43.06425,22.53952 -10.05988,2.56851 -18.63396,4.59884 -19.05352,4.51184 -0.41956,-0.087 -28.56369,-21.3004 -62.5425,-47.14087 z"
     id="path825"
     inkscape:connector-curvature="0" />
  <path
     style="opacity:1;fill:#000000;fill-opacity:1;stroke:#000000;stroke-width:1;stroke-opacity:1"
     d="m 306.60088,177.41094 c -50.20803,-37.88605 -91.67513,-69.27003 -92.14911,-69.74218 -2.39823,-2.38892 19.70928,-24.392772 31.6606,-31.512134 16.2803,-9.698124 42.7397,-17.580355 59.01448,-17.580355 28.18351,0 62.72248,13.725788 82.54363,32.802842 37.5223,36.113707 45.97212,101.897787 18.34969,142.857207 l -8.13198,12.05835 z"
     id="path827"
     inkscape:connector-curvature="0" />
</svg>
