<?xml version="1.0" encoding="UTF-8" standalone="no"?>
<svg
   xmlns:dc="http://purl.org/dc/elements/1.1/"
   xmlns:cc="http://creativecommons.org/ns#"
   xmlns:rdf="http://www.w3.org/1999/02/22-rdf-syntax-ns#"
   xmlns:svg="http://www.w3.org/2000/svg"
   xmlns="http://www.w3.org/2000/svg"
   xmlns:sodipodi="http://sodipodi.sourceforge.net/DTD/sodipodi-0.dtd"
   xmlns:inkscape="http://www.inkscape.org/namespaces/inkscape"
   height="540"
   version="1.1"
   width="540"
   id="svg10"
   sodipodi:docname="Speaker-Sound-Waves.svg"
   inkscape:version="0.92.5 (2060ec1f9f, 2020-04-08)">
  <metadata
     id="metadata16">
    <rdf:RDF>
      <cc:Work
         rdf:about="">
        <dc:format>image/svg+xml</dc:format>
        <dc:type
           rdf:resource="http://purl.org/dc/dcmitype/StillImage" />
      </cc:Work>
    </rdf:RDF>
  </metadata>
  <defs
     id="defs14" />
  <sodipodi:namedview
     pagecolor="#ffffff"
     bordercolor="#666666"
     borderopacity="1"
     objecttolerance="10"
     gridtolerance="10"
     guidetolerance="10"
     inkscape:pageopacity="0"
     inkscape:pageshadow="2"
     inkscape:window-width="2400"
     inkscape:window-height="1256"
     id="namedview12"
     showgrid="false"
     inkscape:zoom="0.43703704"
     inkscape:cx="270"
     inkscape:cy="270"
     inkscape:window-x="-11"
     inkscape:window-y="-11"
     inkscape:window-maximized="1"
     inkscape:current-layer="svg10" />
  <g
     id="RenderLayer_LineSet"
     inkscape:groupmode="lineset"
     inkscape:label="RenderLayer_LineSet">
    <g
       id="strokes"
       inkscape:groupmode="layer"
       inkscape:label="strokes">
      <path
         d=" M 276.901, 465.281 284.750, 459.084 292.599, 452.888 300.448, 446.692 304.311, 443.643 304.311, 433.643 304.311, 423.643 304.311, 413.643 304.311, 403.643 304.311, 393.643 304.311, 383.643 304.311, 373.643 304.311, 363.643 304.311, 353.643 304.311, 343.643 304.311, 333.643 304.311, 323.643 304.311, 313.643 304.311, 303.643 304.311, 293.643 304.311, 283.643 304.311, 273.643 304.311, 263.643 304.311, 253.643 304.311, 243.643 304.311, 233.643 304.311, 223.643 304.311, 213.643 304.311, 203.643 304.311, 193.643 304.311, 183.643 304.311, 173.643 304.311, 163.643 304.311, 153.643 304.311, 143.643 304.311, 133.643 304.311, 123.643 304.311, 113.643 304.311, 103.643 304.311, 96.357 296.462, 90.161 288.613, 83.965 280.764, 77.769 276.901, 74.720 269.152, 81.040 261.403, 87.362 253.654, 93.683 245.905, 100.004 238.156, 106.325 230.408, 112.646 222.659, 118.967 214.910, 125.288 207.161, 131.609 199.412, 137.930 191.663, 144.251 183.914, 150.572 176.165, 156.893 168.417, 163.214 160.668, 169.535 152.919, 175.856 145.170, 182.177 137.421, 188.498 135.639, 189.951 125.639, 189.951 115.639, 189.951 105.639, 189.951 95.639, 189.951 85.639, 189.951 75.639, 189.951 65.659, 189.951 58.720, 197.152 51.780, 204.352 49.302, 206.922 49.302, 216.922 49.302, 226.922 49.302, 236.922 49.302, 246.922 49.302, 256.922 49.302, 266.922 49.302, 276.922 49.302, 286.922 49.302, 296.922 49.302, 306.922 49.302, 316.922 49.302, 326.922 49.302, 333.078 56.242, 340.278 63.182, 347.478 65.659, 350.049 75.659, 350.049 85.659, 350.049 95.659, 350.049 105.659, 350.049 115.659, 350.049 125.659, 350.049 135.639, 350.049 143.388, 356.370 151.137, 362.691 158.885, 369.012 166.634, 375.333 174.383, 381.654 182.132, 387.975 189.881, 394.296 197.630, 400.617 205.379, 406.938 213.127, 413.259 220.876, 419.580 228.625, 425.901 236.374, 432.222 244.123, 438.543 251.872, 444.864 259.621, 451.185 267.370, 457.506 275.118, 463.827 276.901, 465.281 "
         fill="none"
         stroke="rgb(0, 0, 0)"
         stroke-linecap="butt"
         stroke-linejoin="round"
         stroke-opacity="1.0"
         stroke-width="3.0"
         id="path2" />
      <path
         d=" M 368.078, 370.516 377.202, 366.423 386.325, 362.329 393.262, 359.217 400.953, 352.825 408.643, 346.433 414.888, 341.242 420.669, 333.082 426.450, 324.922 431.483, 317.817 435.055, 308.477 438.627, 299.137 441.915, 290.539 443.121, 280.612 444.328, 270.685 445.473, 261.265 444.266, 251.338 443.060, 241.411 441.915, 231.991 438.343, 222.651 434.771, 213.310 431.483, 204.712 425.702, 196.552 419.922, 188.392 414.889, 181.288 407.198, 174.896 399.508, 168.504 393.262, 163.313 384.139, 159.220 375.015, 155.126 368.078, 152.014 359.502, 151.322 354.179, 159.787 349.987, 166.455 352.556, 174.948 361.680, 179.042 370.804, 183.135 372.454, 183.875 380.144, 190.267 387.835, 196.659 389.540, 198.077 395.321, 206.237 401.102, 214.397 402.651, 216.584 406.223, 225.924 409.795, 235.265 410.893, 238.136 412.100, 248.063 413.306, 257.990 413.704, 261.265 412.498, 271.192 411.291, 281.119 410.893, 284.393 407.321, 293.734 403.749, 303.074 402.651, 305.946 396.871, 314.106 391.090, 322.266 389.540, 324.453 381.850, 330.845 374.159, 337.237 372.454, 338.654 363.330, 342.748 354.206, 346.841 352.556, 347.582 350.927, 357.052 355.626, 365.879 358.254, 370.813 368.078, 370.516 "
         fill="none"
         stroke="rgb(0, 0, 0)"
         stroke-linecap="butt"
         stroke-linejoin="round"
         stroke-opacity="1.0"
         stroke-width="3.0"
         id="path4" />
      <path
         d=" M 496.674, 165.663 490.998, 157.430 485.322, 149.197 479.646, 140.964 473.970, 132.730 469.368, 126.055 461.764, 119.560 454.159, 113.066 446.555, 106.572 438.951, 100.077 433.782, 95.662 424.700, 91.476 415.619, 87.289 406.537, 83.102 397.456, 78.915 392.340, 76.557 382.893, 79.835 379.168, 81.127 373.945, 89.655 370.069, 95.984 374.362, 105.016 377.123, 110.825 386.204, 115.012 395.286, 119.198 404.367, 123.385 410.877, 126.386 418.481, 132.881 426.085, 139.375 433.689, 145.869 439.861, 151.141 445.537, 159.374 451.213, 167.607 456.889, 175.840 462.102, 183.401 465.590, 192.773 469.078, 202.145 472.566, 211.517 476.083, 220.969 477.258, 230.900 478.433, 240.831 479.607, 250.762 480.782, 260.692 480.852, 261.285 479.677, 271.216 478.503, 281.147 477.328, 291.077 476.153, 301.008 476.083, 301.601 472.595, 310.973 469.108, 320.345 465.620, 329.717 462.102, 339.169 456.426, 347.402 450.750, 355.635 445.074, 363.868 439.861, 371.429 432.257, 377.924 424.653, 384.418 417.049, 390.912 410.876, 396.184 401.795, 400.370 392.714, 404.557 383.632, 408.744 377.123, 411.745 372.978, 420.845 369.467, 428.552 375.415, 436.591 379.820, 442.543 389.456, 445.214 392.340, 446.013 401.422, 441.826 410.503, 437.639 419.584, 433.453 428.666, 429.266 433.781, 426.908 441.386, 420.413 448.990, 413.919 456.594, 407.425 464.198, 400.930 469.368, 396.515 475.044, 388.282 480.720, 380.049 486.396, 371.816 492.072, 363.583 496.674, 356.907 500.162, 347.535 503.650, 338.163 507.138, 328.791 510.625, 319.419 513.839, 310.783 515.014, 300.852 516.189, 290.921 517.363, 280.990 518.538, 271.060 519.694, 261.285 518.520, 251.354 517.345, 241.423 516.170, 231.493 514.996, 221.562 513.839, 211.787 510.352, 202.415 506.864, 193.043 503.376, 183.671 499.888, 174.299 496.674, 165.663 "
         fill="none"
         stroke="rgb(0, 0, 0)"
         stroke-linecap="butt"
         stroke-linejoin="round"
         stroke-opacity="1.0"
         stroke-width="3.0"
         id="path6" />
    </g>
  </g>
  <path
     style="opacity:1;fill:#000000;fill-opacity:1;stroke:#000000;stroke-width:1;stroke-opacity:1"
     d="m 206.11237,404.08475 -70.0359,-57.20339 H 100.97862 65.880763 L 58.5675,339.33598 51.254237,331.79062 V 269.99671 208.2028 l 7.545373,-7.31327 7.545372,-7.31326 h 34.585818 34.58581 l 70.05044,-57.20339 c 38.52774,-31.46186 70.63229,-57.203388 71.34344,-57.203388 0.71115,0 6.30207,3.861228 12.4243,8.580508 l 11.1313,8.580508 0.0975,173.113202 0.0975,173.1132 -11.18619,9.36561 c -6.15243,5.1511 -11.6678,9.36562 -12.2564,9.36562 -0.5886,0 -32.58633,-25.74153 -71.10608,-57.20339 z"
     id="path823"
     inkscape:connector-curvature="0" />
  <path
     style="opacity:1;fill:#000000;fill-opacity:1;stroke:#000000;stroke-width:1;stroke-opacity:1"
     d="m 355.63348,360.74827 c -3.41181,-8.23682 -1.83424,-11.0698 8.58967,-15.42519 29.85255,-12.47319 50.84465,-47.22239 50.84465,-84.16552 0,-37.45096 -18.76361,-68.18759 -51.26577,-83.97836 -11.39609,-5.53665 -12.48097,-8.21943 -6.81853,-16.8614 4.61364,-7.0413 8.09028,-7.03237 23.3248,0.0599 25.42718,11.83742 44.52732,33.49996 55.4988,62.94429 8.03686,21.56867 7.67928,56.33273 -0.80524,78.28485 -10.6323,27.50911 -30.31372,49.26396 -54.85524,60.63421 -15.47702,7.17061 -21.06561,6.83027 -24.51314,-1.49282 z"
     id="path825"
     inkscape:connector-curvature="0" />
  <path
     style="opacity:1;fill:#000000;fill-opacity:1;stroke:#000000;stroke-width:1;stroke-opacity:1"
     d="m 385.32203,441.3595 c -1.88771,-0.69426 -5.62517,-3.92655 -8.30547,-7.18289 -4.5761,-5.55957 -4.65923,-6.36948 -1.36314,-13.28144 2.72456,-5.71347 7.14376,-8.98312 19.74615,-14.60972 57.17851,-25.52852 94.48005,-97.0706 85.88857,-164.72905 -7.12376,-56.1 -39.008,-102.84005 -85.07826,-124.71871 -20.42002,-9.69743 -25.70001,-17.308973 -19.04866,-27.460217 7.11151,-10.853539 12.82007,-11.01243 34.671,-0.965028 26.97728,12.404585 50.15779,32.162465 68.34881,58.257045 67.69184,97.10233 35.06171,237.53763 -66.52204,286.30107 -21.34726,10.24737 -22.42013,10.56498 -28.33696,8.38894 z"
     id="path827"
     inkscape:connector-curvature="0" />
</svg>
