<?xml version="1.0" encoding="UTF-8" standalone="no"?>
<svg
   xmlns:dc="http://purl.org/dc/elements/1.1/"
   xmlns:cc="http://creativecommons.org/ns#"
   xmlns:rdf="http://www.w3.org/1999/02/22-rdf-syntax-ns#"
   xmlns:svg="http://www.w3.org/2000/svg"
   xmlns="http://www.w3.org/2000/svg"
   xmlns:sodipodi="http://sodipodi.sourceforge.net/DTD/sodipodi-0.dtd"
   xmlns:inkscape="http://www.inkscape.org/namespaces/inkscape"
   height="540"
   version="1.1"
   width="540"
   id="svg8"
   sodipodi:docname="Speaker-X.svg"
   inkscape:version="0.92.5 (2060ec1f9f, 2020-04-08)">
  <metadata
     id="metadata14">
    <rdf:RDF>
      <cc:Work
         rdf:about="">
        <dc:format>image/svg+xml</dc:format>
        <dc:type
           rdf:resource="http://purl.org/dc/dcmitype/StillImage" />
      </cc:Work>
    </rdf:RDF>
  </metadata>
  <defs
     id="defs12" />
  <sodipodi:namedview
     pagecolor="#ffffff"
     bordercolor="#666666"
     borderopacity="1"
     objecttolerance="10"
     gridtolerance="10"
     guidetolerance="10"
     inkscape:pageopacity="0"
     inkscape:pageshadow="2"
     inkscape:window-width="1449"
     inkscape:window-height="843"
     id="namedview10"
     showgrid="false"
     inkscape:zoom="0.43703704"
     inkscape:cx="270"
     inkscape:cy="270"
     inkscape:window-x="0"
     inkscape:window-y="0"
     inkscape:window-maximized="0"
     inkscape:current-layer="svg8" />
  <g
     id="RenderLayer_LineSet"
     inkscape:groupmode="lineset"
     inkscape:label="RenderLayer_LineSet">
    <g
       id="strokes"
       inkscape:groupmode="layer"
       inkscape:label="strokes">
      <path
         d=" M 280.963, 465.281 288.812, 459.084 296.661, 452.888 304.510, 446.692 308.373, 443.643 308.373, 433.643 308.373, 423.643 308.373, 413.643 308.373, 403.643 308.373, 393.643 308.373, 383.643 308.373, 373.643 308.373, 363.643 308.373, 353.643 308.373, 343.643 308.373, 333.643 308.373, 323.643 308.373, 313.643 308.373, 303.643 308.373, 293.643 308.373, 283.643 308.373, 273.643 308.373, 263.643 308.373, 253.643 308.373, 243.643 308.373, 233.643 308.373, 223.643 308.373, 213.643 308.373, 203.643 308.373, 193.643 308.373, 183.643 308.373, 173.643 308.373, 163.643 308.373, 153.643 308.373, 143.643 308.373, 133.643 308.373, 123.643 308.373, 113.643 308.373, 103.643 308.373, 96.357 300.524, 90.161 292.675, 83.965 284.826, 77.769 280.963, 74.720 273.214, 81.040 265.465, 87.362 257.716, 93.683 249.968, 100.004 242.219, 106.325 234.470, 112.646 226.721, 118.967 218.972, 125.288 211.223, 131.609 203.474, 137.930 195.725, 144.251 187.977, 150.572 180.228, 156.893 172.479, 163.214 164.730, 169.535 156.981, 175.856 149.232, 182.177 141.483, 188.498 139.701, 189.951 129.701, 189.951 119.701, 189.951 109.701, 189.951 99.701, 189.951 89.701, 189.951 79.701, 189.951 69.722, 189.951 62.782, 197.152 55.842, 204.352 53.364, 206.922 53.364, 216.922 53.364, 226.922 53.364, 236.922 53.364, 246.922 53.364, 256.922 53.364, 266.922 53.364, 276.922 53.364, 286.922 53.364, 296.922 53.364, 306.922 53.364, 316.922 53.364, 326.922 53.364, 333.078 60.304, 340.278 67.244, 347.478 69.722, 350.049 79.722, 350.049 89.722, 350.049 99.722, 350.049 109.722, 350.049 119.722, 350.049 129.722, 350.049 139.701, 350.049 147.450, 356.370 155.199, 362.691 162.948, 369.012 170.697, 375.333 178.445, 381.654 186.194, 387.975 193.943, 394.296 201.692, 400.617 209.441, 406.938 217.190, 413.259 224.939, 419.580 232.688, 425.901 240.436, 432.222 248.185, 438.543 255.934, 444.864 263.683, 451.185 271.432, 457.506 279.181, 463.827 280.963, 465.281 "
         fill="none"
         stroke="rgb(0, 0, 0)"
         stroke-linecap="butt"
         stroke-linejoin="round"
         stroke-opacity="1.0"
         stroke-width="3.0"
         id="path2" />
      <path
         d=" M 458.495, 355.659 465.566, 348.588 472.637, 341.517 479.708, 334.446 486.779, 327.375 493.850, 320.304 500.921, 313.233 507.992, 306.162 511.587, 302.567 504.516, 295.496 497.444, 288.425 490.373, 281.354 483.302, 274.283 476.231, 267.212 471.056, 262.037 463.985, 269.108 456.914, 276.179 449.843, 283.250 442.772, 290.321 435.701, 297.392 428.630, 304.463 421.559, 311.534 417.964, 315.129 410.893, 308.058 403.822, 300.987 396.751, 293.916 389.680, 286.845 382.609, 279.774 375.538, 272.702 368.467, 265.631 365.360, 262.524 358.289, 269.595 351.218, 276.666 344.146, 283.737 337.075, 290.809 330.004, 297.880 325.804, 302.080 332.875, 309.151 339.946, 316.222 347.017, 323.293 354.088, 330.364 361.159, 337.435 368.230, 344.506 375.302, 351.577 378.409, 354.684 371.338, 361.756 364.267, 368.827 357.196, 375.898 350.124, 382.969 343.053, 390.040 335.982, 397.111 328.911, 404.182 325.317, 407.776 332.388, 414.848 339.459, 421.919 346.530, 428.990 353.601, 436.061 360.672, 443.132 365.847, 448.307 372.918, 441.236 379.989, 434.165 387.060, 427.094 394.131, 420.022 401.202, 412.951 408.273, 405.880 415.344, 398.809 418.939, 395.215 426.010, 402.286 433.081, 409.357 440.152, 416.428 447.223, 423.499 454.294, 430.570 461.365, 437.641 468.436, 444.712 471.544, 447.819 478.615, 440.748 485.686, 433.677 492.757, 426.606 499.828, 419.535 506.899, 412.464 511.099, 408.264 504.028, 401.193 496.957, 394.122 489.886, 387.051 482.815, 379.980 475.744, 372.908 468.673, 365.837 461.602, 358.766 458.495, 355.659 "
         fill="none"
         stroke="rgb(0, 0, 0)"
         stroke-linecap="butt"
         stroke-linejoin="round"
         stroke-opacity="1.0"
         stroke-width="3.0"
         id="path4" />
    </g>
  </g>
  <path
     style="opacity:1;fill:#000000;fill-opacity:1;stroke:#000000;stroke-width:1;stroke-opacity:1"
     d="m 210.9661,404.76677 -69.78813,-56.94229 -34.86328,-0.0139 -34.863272,-0.0139 -7.977357,-8.58051 -7.977357,-8.58051 -0.06191,-60.21745 -0.06191,-60.21745 7.436441,-8.9574 7.436441,-8.95741 35.466094,-0.0514 35.46611,-0.0514 42.3305,-34.54455 c 23.28178,-18.9995 54.7523,-44.63932 69.93449,-56.97737 l 27.60398,-22.432811 11.86636,9.246256 11.86636,9.246257 V 269.92659 443.1324 l -9.72458,7.63082 c -5.34851,4.19694 -10.75423,8.37668 -12.01271,9.28832 -1.25847,0.91161 -33.69279,-23.96653 -72.07627,-55.28477 z"
     id="path821"
     inkscape:connector-curvature="0" />
  <path
     style="opacity:1;fill:#000000;fill-opacity:1;stroke:#000000;stroke-width:1;stroke-opacity:1"
     d="m 347.1109,425.59396 -18.21479,-18.32225 26.23073,-26.30535 26.23072,-26.30534 -26.23072,-26.30535 -26.23073,-26.30535 18.21551,-18.32297 18.2155,-18.32297 26.39348,26.32471 26.39347,26.32472 26.25037,-26.32505 26.25037,-26.32505 18.30508,18.30509 18.30508,18.30508 -26.24889,26.32357 -26.24889,26.32357 26.23072,26.30534 26.23072,26.30535 -18.21479,18.32225 -18.21479,18.32225 -25.25007,-25.17845 c -13.88754,-13.84814 -26.24752,-25.17844 -27.46661,-25.17844 -1.21909,0 -13.57906,11.3303 -27.4666,25.17844 l -25.25008,25.17845 z"
     id="path823"
     inkscape:connector-curvature="0" />
</svg>
