<svg style="height:75px;width:75px;" viewBox="0 0 500 500" xmlns="http://www.w3.org/2000/svg" height="500" width="500" version="1.1"  id="Arrow-Circle">
  <path style="opacity: 1; fill: rgb(32, 224, 0); fill-opacity: 1; stroke: yellow; stroke-width: 0px; stroke-opacity: 1;" d="M 209.68045,488.1349 C 175.8182,481.78233 150.73859,471.61131 120.13105,451.81816 22.921613,388.95522 -15.072333,265.35133 29.987233,158.55761 56.001956,96.901258 110.13411,46.269273 172.93663,24.851272 249.65351,-1.3120482 336.27962,13.642807 399.05918,63.888348 c 26.0556,20.853586 25.25353,20.858116 47.59209,-0.268709 6.94469,-6.567884 13.29223,-11.275955 14.10579,-10.462381 2.33293,2.332939 25.91843,199.466952 24.08403,201.301302 -1.36405,1.36414 -170.90996,-48.03766 -173.39596,-50.52364 -1.10332,-1.10333 1.37326,-4.41417 17.01635,-22.74841 6.25026,-7.32552 11.36411,-15.03378 11.36411,-17.12945 0,-5.02866 -28.48271,-23.63101 -46.5657,-30.41251 -19.49789,-7.31214 -52.13541,-9.10818 -72.17604,-3.97185 -64.33904,16.48986 -104.18775,76.38387 -94.24421,141.65239 9.22167,60.53028 62.54797,105.98526 124.15108,105.82552 27.59277,-0.0717 57.59748,-10.75303 78.99501,-28.12169 8.88769,-7.2143 27.2281,-29.40974 33.36914,-40.38317 1.49485,-2.67112 3.60571,-2.58581 12.41873,0.50187 8.90353,3.11941 92.83222,36.9974 94.85497,38.28844 0.36192,0.23092 -3.20928,7.26162 -7.93589,15.62375 -27.59616,48.82248 -67.30873,85.95503 -115.02634,107.55342 -39.57783,17.91408 -97.01587,25.20766 -137.98589,17.52167 z" id="path824" class=""></path>
</svg>
