<svg style="height:75px;width:75px;" viewBox="0 0 500 500" xmlns="http://www.w3.org/2000/svg" height="500" width="500" version="1.1"  id="Gear">
  <path style="opacity: 1; fill: rgb(101, 101, 101); fill-opacity: 1; stroke: yellow; stroke-width: 0px; stroke-opacity: 1;" d="m 218.72274,488.77536 c -0.67123,-2.21482 -3.84385,-15.41745 -7.05013,-29.33919 -3.20631,-13.92173 -6.34279,-27.53007 -6.96995,-30.24078 -0.86289,-3.72965 -6.32263,-6.98735 -22.44453,-13.39215 -13.87702,-5.51299 -27.3211,-13.07164 -38.56289,-21.6812 -9.49222,-7.26965 -18.53111,-13.97565 -20.08639,-14.90219 -1.55529,-0.92656 -16.43009,2.50494 -33.05512,7.62554 -16.625031,5.12059 -31.485309,9.31019 -33.022841,9.31019 -1.537532,0 -9.22948,-11.24057 -17.093212,-24.97906 L 26.139976,346.19745 42.921661,330.12523 c 9.229926,-8.83975 20.575253,-19.60357 25.211852,-23.91961 l 8.430166,-7.84733 -3.361935,-23.5864 C 70.30659,254.46036 70.279197,247.95096 73.004392,227.88952 l 3.164594,-23.29597 -18.587982,-17.8311 C 47.357606,176.95533 35.977598,166.37881 32.292101,163.25906 l -6.700909,-5.67228 14.649133,-25.68569 c 8.057033,-14.12713 15.60598,-25.68569 16.77544,-25.68569 1.16947,0 15.574123,4.142 32.010339,9.20445 16.436216,5.06245 30.872836,9.20446 32.081376,9.20446 1.20855,0 10.66839,-6.55386 21.02186,-14.56412 11.93662,-9.23509 25.56045,-17.253235 37.23371,-21.91345 10.12505,-4.04213 19.76253,-8.199716 21.41664,-9.239075 1.65411,-1.039357 6.33464,-16.289198 10.40119,-33.888532 l 7.39372,-31.998788 30.21831,-0.640499 30.21842,-0.640488 7.12922,30.183654 c 3.92119,16.601012 7.12933,31.456818 7.12933,33.0129 0,1.556084 10.09634,6.989635 22.43621,12.074556 15.02156,6.189968 28.70912,14.049672 41.41763,23.783012 l 18.98142,14.53769 31.85263,-9.55788 c 17.51893,-5.25684 32.47488,-9.55789 33.2354,-9.55789 1.4538,0 26.01994,40.88455 28.58932,47.58027 1.10949,2.89111 -4.86049,9.83254 -23.26668,27.053 l -24.75904,23.16402 2.92791,23.45749 c 2.35422,18.86116 2.36453,28.10434 0.0532,47.17281 l -2.87523,23.7153 25.15548,23.74243 25.15559,23.74244 -14.96693,25.90808 -14.96692,25.90811 -32.90435,-10.18133 -32.90434,-10.18133 -18.69348,14.22988 c -11.37668,8.66021 -27.42019,17.9988 -40.98947,23.85908 l -22.29622,9.62922 -7.92373,33.89373 -7.92384,33.89371 h -29.33039 c -25.93457,0 -29.47159,-0.46623 -30.55078,-4.02695 z m 59.8196,-134.9183 c 54.95791,-14.6342 88.58247,-75.12065 72.98145,-131.28451 -13.00231,-46.80815 -53.82463,-77.23824 -103.61609,-77.23824 -48.96096,0 -90.11332,32.87072 -102.89238,82.18595 -4.68687,18.08695 -4.52134,30.25219 0.68429,50.28825 9.10396,35.04047 37.55878,64.7358 72.65787,75.8254 12.5331,3.95988 45.69018,4.0828 60.18486,0.22321 z" id="path821" class=""></path>
</svg>