<svg style="height:75px;width:75px;" viewBox="0 0 500 500" xmlns="http://www.w3.org/2000/svg" height="500" width="500" version="1.1"  id="House-1">
  <path style="opacity: 1; fill: rgb(160, 0, 0); fill-opacity: 1; stroke: yellow; stroke-width: 0px; stroke-opacity: 1;" d="M 395.56334,116.77557 361.97116,88.521019 V 69.93716 51.353301 h 34.22604 34.22603 v 46.904514 c 0,25.797475 -0.28528,46.874765 -0.63386,46.838405 -0.34858,-0.0364 -15.75034,-12.78065 -34.22603,-28.32065 z" id="path823" class=""></path>
  <path style="opacity: 1; fill: rgb(128, 64, 0); fill-opacity: 1; stroke: yellow; stroke-width: 0px; stroke-opacity: 1;" d="M 15.196704,262.82684 15.907989,230.46981 132.52999,133.6374 249.15198,36.804986 261.82826,47.448318 c 6.97201,5.853831 59.26126,49.212455 116.19827,96.352502 56.93713,47.14004 104.03605,87.04871 104.66429,88.68591 0.62824,1.6372 0.81887,16.11397 0.42373,32.17058 l -0.71846,29.19382 -115.265,-93.35974 c -63.39566,-51.34786 -116.45901,-93.35976 -117.91856,-93.35976 -1.45954,0 -34.58491,25.86967 -73.612,57.48817 -39.0272,31.61848 -91.243701,73.93023 -116.036717,94.02611 l -45.078274,36.53794 z" id="path825" class=""></path>
  <path style="opacity: 1; fill: rgb(224, 224, 0); fill-opacity: 1; stroke: yellow; stroke-width: 0px; stroke-opacity: 1;" d="M 57.73977,389.18298 V 316.2813 l 94.69088,-78.41402 c 52.07995,-43.12771 95.55018,-78.49194 96.60047,-78.5872 1.05018,-0.0953 43.9867,34.6249 95.41436,77.15587 l 93.50476,77.32907 0.0395,74.15982 0.0395,74.15983 H 247.88438 57.73977 Z" id="path827" class=""></path>
</svg>