<?xml version="1.0" encoding="UTF-8" standalone="no"?>
<svg
   xmlns:dc="http://purl.org/dc/elements/1.1/"
   xmlns:cc="http://creativecommons.org/ns#"
   xmlns:rdf="http://www.w3.org/1999/02/22-rdf-syntax-ns#"
   xmlns:svg="http://www.w3.org/2000/svg"
   xmlns="http://www.w3.org/2000/svg"
   xmlns:sodipodi="http://sodipodi.sourceforge.net/DTD/sodipodi-0.dtd"
   xmlns:inkscape="http://www.inkscape.org/namespaces/inkscape"
   height="500"
   version="1.1"
   width="500"
   id="svg10"
   sodipodi:docname="House.svg"
   inkscape:version="0.92.5 (2060ec1f9f, 2020-04-08)">
  <metadata
     id="metadata16">
    <rdf:RDF>
      <cc:Work
         rdf:about="">
        <dc:format>image/svg+xml</dc:format>
        <dc:type
           rdf:resource="http://purl.org/dc/dcmitype/StillImage" />
      </cc:Work>
    </rdf:RDF>
  </metadata>
  <defs
     id="defs14" />
  <sodipodi:namedview
     pagecolor="#ffffff"
     bordercolor="#666666"
     borderopacity="1"
     objecttolerance="10"
     gridtolerance="10"
     guidetolerance="10"
     inkscape:pageopacity="0"
     inkscape:pageshadow="2"
     inkscape:window-width="2400"
     inkscape:window-height="1256"
     id="namedview12"
     showgrid="false"
     inkscape:zoom="0.944"
     inkscape:cx="250"
     inkscape:cy="250"
     inkscape:window-x="-11"
     inkscape:window-y="-11"
     inkscape:window-maximized="1"
     inkscape:current-layer="svg10" />
  <path
     style="opacity:1;fill:#000000;fill-opacity:1;stroke:#000000;stroke-width:1;stroke-opacity:1"
     d="M 395.56334,116.77557 361.97116,88.521019 V 69.93716 51.353301 h 34.22604 34.22603 v 46.904514 c 0,25.797475 -0.28528,46.874765 -0.63386,46.838405 -0.34858,-0.0364 -15.75034,-12.78065 -34.22603,-28.32065 z"
     id="path823"
     inkscape:connector-curvature="0" />
  <path
     style="opacity:1;fill:#000000;fill-opacity:1;stroke:#000000;stroke-width:1;stroke-opacity:1"
     d="M 15.196704,262.82684 15.907989,230.46981 132.52999,133.6374 249.15198,36.804986 261.82826,47.448318 c 6.97201,5.853831 59.26126,49.212455 116.19827,96.352502 56.93713,47.14004 104.03605,87.04871 104.66429,88.68591 0.62824,1.6372 0.81887,16.11397 0.42373,32.17058 l -0.71846,29.19382 -115.265,-93.35974 c -63.39566,-51.34786 -116.45901,-93.35976 -117.91856,-93.35976 -1.45954,0 -34.58491,25.86967 -73.612,57.48817 -39.0272,31.61848 -91.243701,73.93023 -116.036717,94.02611 l -45.078274,36.53794 z"
     id="path825"
     inkscape:connector-curvature="0" />
  <path
     style="opacity:1;fill:#000000;fill-opacity:1;stroke:#000000;stroke-width:1;stroke-opacity:1"
     d="M 57.73977,389.18298 V 316.2813 l 94.69088,-78.41402 c 52.07995,-43.12771 95.55018,-78.49194 96.60047,-78.5872 1.05018,-0.0953 43.9867,34.6249 95.41436,77.15587 l 93.50476,77.32907 0.0395,74.15982 0.0395,74.15983 H 247.88438 57.73977 Z"
     id="path827"
     inkscape:connector-curvature="0" />
</svg>
