<?xml version="1.0" encoding="UTF-8" standalone="no"?>
<svg
   xmlns:dc="http://purl.org/dc/elements/1.1/"
   xmlns:cc="http://creativecommons.org/ns#"
   xmlns:rdf="http://www.w3.org/1999/02/22-rdf-syntax-ns#"
   xmlns:svg="http://www.w3.org/2000/svg"
   xmlns="http://www.w3.org/2000/svg"
   xmlns:sodipodi="http://sodipodi.sourceforge.net/DTD/sodipodi-0.dtd"
   xmlns:inkscape="http://www.inkscape.org/namespaces/inkscape"
   width="500mm"
   height="500mm"
   viewBox="0 0 500 500"
   version="1.1"
   id="svg8"
   inkscape:version="0.92.5 (2060ec1f9f, 2020-04-08)"
   sodipodi:docname="Key-Skeleton.svg">
  <defs
     id="defs2">
    <inkscape:perspective
       sodipodi:type="inkscape:persp3d"
       inkscape:vp_x="0 : 105 : 1"
       inkscape:vp_y="0 : 1000 : 0"
       inkscape:vp_z="210 : 105 : 1"
       inkscape:persp3d-origin="105 : 70.000001 : 1"
       id="perspective819" />
  </defs>
  <sodipodi:namedview
     id="base"
     pagecolor="#ffffff"
     bordercolor="#666666"
     borderopacity="1.0"
     inkscape:pageopacity="0.0"
     inkscape:pageshadow="2"
     inkscape:zoom="0.26870058"
     inkscape:cx="-355.60192"
     inkscape:cy="574.59617"
     inkscape:document-units="mm"
     inkscape:current-layer="layer1"
     showgrid="false"
     showborder="true"
     inkscape:window-width="1920"
     inkscape:window-height="986"
     inkscape:window-x="2389"
     inkscape:window-y="-11"
     inkscape:window-maximized="1" />
  <metadata
     id="metadata5">
    <rdf:RDF>
      <cc:Work
         rdf:about="">
        <dc:format>image/svg+xml</dc:format>
        <dc:type
           rdf:resource="http://purl.org/dc/dcmitype/StillImage" />
        <dc:title />
      </cc:Work>
    </rdf:RDF>
  </metadata>
  <g
     inkscape:label="Layer 1"
     inkscape:groupmode="layer"
     id="layer1"
     transform="translate(0,203)">
    <path
       style="fill:#000000;fill-opacity:1;stroke:none;stroke-width:1.17699993;stroke-opacity:1"
       d="M 1196.291 27.341797 A 527.74711 503.67757 45 0 0 842.67578 170.00195 A 527.74711 503.67757 45 0 0 776.52148 792.19727 L 127.43359 1441.2871 C 116.81675 1451.904 116.81675 1468.9984 127.43359 1479.6152 L 254.91797 1607.0996 C 265.53481 1617.7165 282.62925 1617.7165 293.24609 1607.0996 L 403.95898 1496.3867 L 432.50781 1524.9355 L 340.13672 1617.3086 C 327.10716 1630.3383 324.52654 1648.7377 334.35156 1658.5625 L 361.50977 1685.7207 C 361.88364 1688.3547 362.96753 1690.7408 364.82617 1692.5996 L 514.9043 1842.6777 C 520.62801 1848.4016 531.34704 1846.8974 538.9375 1839.3066 L 677.3457 1700.8984 C 684.9362 1693.3078 686.4386 1682.5889 680.71484 1676.8652 L 605.67773 1601.8281 L 662.73242 1544.7734 L 735.75586 1617.7949 C 741.47976 1623.5185 752.19638 1622.0203 759.78711 1614.4297 L 898.19727 1476.0176 C 905.78792 1468.4269 907.29035 1457.7058 901.56641 1451.9824 L 817.60352 1368.0195 C 816.65708 1364.7845 815.00106 1361.8528 812.5918 1359.4434 L 723.03125 1269.8828 C 713.20644 1260.0575 694.80689 1262.6384 681.77734 1275.668 L 598.32031 1359.125 L 569.76953 1330.5742 L 936.95117 963.39258 A 527.74711 503.67757 45 0 0 1589.0254 916.34961 A 527.74711 503.67757 45 0 0 1572.0059 187.02344 A 527.74711 503.67757 45 0 0 1196.291 27.341797 z M 1212.5234 216.86914 A 316.64827 302.20652 45 0 1 1428.9141 312.46484 A 316.64827 302.20652 45 0 1 1439.127 750.05859 A 316.64827 302.20652 45 0 1 1001.5312 739.84961 A 316.64827 302.20652 45 0 1 991.32031 302.25195 A 316.64827 302.20652 45 0 1 1212.5234 216.86914 z "
       transform="matrix(0.26458333,0,0,0.26458333,0,-203)"
       id="path831" />
  </g>
</svg>
