<?xml version="1.0" encoding="UTF-8" standalone="no"?>
<svg
   xmlns:dc="http://purl.org/dc/elements/1.1/"
   xmlns:cc="http://creativecommons.org/ns#"
   xmlns:rdf="http://www.w3.org/1999/02/22-rdf-syntax-ns#"
   xmlns:svg="http://www.w3.org/2000/svg"
   xmlns="http://www.w3.org/2000/svg"
   xmlns:sodipodi="http://sodipodi.sourceforge.net/DTD/sodipodi-0.dtd"
   xmlns:inkscape="http://www.inkscape.org/namespaces/inkscape"
   height="500"
   version="1.1"
   width="500"
   id="svg10"
   sodipodi:docname="Magnifying-Glass-1.svg"
   inkscape:version="0.92.5 (2060ec1f9f, 2020-04-08)">
  <metadata
     id="metadata16">
    <rdf:RDF>
      <cc:Work
         rdf:about="">
        <dc:format>image/svg+xml</dc:format>
        <dc:type
           rdf:resource="http://purl.org/dc/dcmitype/StillImage" />
      </cc:Work>
    </rdf:RDF>
  </metadata>
  <defs
     id="defs14" />
  <sodipodi:namedview
     pagecolor="#ffffff"
     bordercolor="#666666"
     borderopacity="1"
     objecttolerance="10"
     gridtolerance="10"
     guidetolerance="10"
     inkscape:pageopacity="0"
     inkscape:pageshadow="2"
     inkscape:window-width="2400"
     inkscape:window-height="1256"
     id="namedview12"
     showgrid="false"
     inkscape:zoom="0.944"
     inkscape:cx="250"
     inkscape:cy="250"
     inkscape:window-x="-11"
     inkscape:window-y="-11"
     inkscape:window-maximized="1"
     inkscape:current-layer="svg10" />
  <path
     id="path858"
     style="opacity:1;fill:#000000;fill-opacity:1;stroke:#000000;stroke-width:1;stroke-opacity:1"
     d="m 294.29958,58.361226 c 82.98114,-0.834734 153.47796,70.336344 145.10636,159.165764 -6.34432,67.31828 -60.7624,122.53164 -127.7103,129.57847 -14.93911,1.57247 -20.10923,1.50036 -35.7962,-0.50426 -55.39353,-7.0787 -102.49469,-47.3436 -119.08891,-101.80611 -23.02071,-75.55442 20.48715,-157.098481 96.04152,-180.002812 13.95649,-4.230918 27.86879,-6.294459 41.44753,-6.431052 z m 0.87525,-50.0777907 c -5.26765,0.00887 -10.53736,0.5577104 -20.48163,1.652747 C 246.85096,13.002099 226.93866,19.138475 203.46955,31.888395 145.2797,63.50082 107.1711,121.21152 101.77447,185.8871 c -4.276258,51.24852 10.28369,99.51309 41.82297,138.63082 6.23457,7.73268 13.61446,16.13698 16.40085,18.6756 34.50356,31.43552 71.32941,48.58134 114.69491,53.40105 10.60265,1.17839 20.63321,1.95876 22.28987,1.73494 1.65667,-0.22381 10.06097,-1.00379 18.67562,-1.73272 12.39936,-1.04916 19.55507,-2.46586 34.33893,-6.7998 76.59057,-22.45281 131.03047,-88.15807 139.09293,-167.87379 1.7122,-16.92898 1.71391,-20.38418 0,-37.35119 C 481.16653,106.023 428.2348,40.963736 353.05431,17.364658 339.00111,12.953372 332.67305,11.684504 315.65646,9.8673177 305.7122,8.8053798 300.44468,8.2748186 295.17705,8.2834353 Z"
     inkscape:connector-curvature="0" />
  <path
     style="opacity:1;fill:#000000;fill-opacity:1;stroke:#000000;stroke-width:1;stroke-opacity:1"
     d="m 139.73214,327.29471 c -1.21049,0.17877 -4.96814,3.25588 -9.90982,8.16378 -5.17102,5.13565 -10.19664,9.3389 -11.16716,9.3389 -0.97052,0 -5.45812,-2.54795 -9.97202,-5.66021 l -8.20598,-5.658 -45.030716,45.01959 c -40.03468,40.02397 -45.177433,45.5931 -46.3369071,50.19775 -1.6989309,6.74706 -0.07586,11.48241 7.9971661,23.33172 9.943055,14.59411 28.678266,31.13123 41.669678,36.78029 10.586946,4.60351 10.991146,4.29907 61.182769,-45.90594 l 44.96628,-44.97738 -5.66021,-8.20597 c -3.11228,-4.5139 -5.658,-8.73 -5.658,-9.37001 0,-0.64001 4.32595,-5.51433 9.61215,-10.8295 l 9.60993,-9.66323 -9.08122,-7.22855 c -7.34508,-5.84658 -18.79351,-18.05426 -23.6583,-25.22883 -0.065,-0.0959 -0.18472,-0.12994 -0.35764,-0.10441 z"
     id="path823-0"
     inkscape:connector-curvature="0" />
</svg>
