<?xml version="1.0" encoding="UTF-8" standalone="no"?>
<svg
   xmlns:dc="http://purl.org/dc/elements/1.1/"
   xmlns:cc="http://creativecommons.org/ns#"
   xmlns:rdf="http://www.w3.org/1999/02/22-rdf-syntax-ns#"
   xmlns:svg="http://www.w3.org/2000/svg"
   xmlns="http://www.w3.org/2000/svg"
   xmlns:sodipodi="http://sodipodi.sourceforge.net/DTD/sodipodi-0.dtd"
   xmlns:inkscape="http://www.inkscape.org/namespaces/inkscape"
   height="500"
   version="1.1"
   width="500"
   id="svg12"
   sodipodi:docname="Microphone-1-Off.svg"
   inkscape:version="0.92.5 (2060ec1f9f, 2020-04-08)">
  <metadata
     id="metadata18">
    <rdf:RDF>
      <cc:Work
         rdf:about="">
        <dc:format>image/svg+xml</dc:format>
        <dc:type
           rdf:resource="http://purl.org/dc/dcmitype/StillImage" />
        <dc:title></dc:title>
      </cc:Work>
    </rdf:RDF>
  </metadata>
  <defs
     id="defs16" />
  <sodipodi:namedview
     pagecolor="#ffffff"
     bordercolor="#666666"
     borderopacity="1"
     objecttolerance="10"
     gridtolerance="10"
     guidetolerance="10"
     inkscape:pageopacity="0"
     inkscape:pageshadow="2"
     inkscape:window-width="2400"
     inkscape:window-height="1256"
     id="namedview14"
     showgrid="false"
     inkscape:zoom="0.944"
     inkscape:cx="250"
     inkscape:cy="250"
     inkscape:window-x="-11"
     inkscape:window-y="-11"
     inkscape:window-maximized="1"
     inkscape:current-layer="svg12" />
  <path
     style="opacity:1;fill:#000000;fill-opacity:1;stroke:#aa8800;stroke-width:1;stroke-opacity:1"
     d="m 90.205024,477.54062 c -9.306007,-1.19338 -10.8642,-1.94933 -23.328618,-11.31802 L 53.51987,456.18334 49.331317,442.87146 45.142778,429.55954 51.084035,418.68627 C 54.351726,412.706 84.50029,358.94165 118.08086,299.20998 l 61.05557,-108.60304 41.78956,31.57783 c 22.98427,17.36781 51.28148,38.71954 62.88269,47.44829 l 21.09312,15.87046 -95.88957,96.80988 -95.88959,96.80985 -6.47277,-0.15192 c -3.56002,-0.0836 -10.960204,-0.72739 -16.444846,-1.43071 z"
     id="path828"
     inkscape:connector-curvature="0" />
  <path
     style="opacity:1;fill:#000000;fill-opacity:1;stroke:#aa8800;stroke-width:1;stroke-opacity:1"
     d="m 253.36601,217.24655 -66.8853,-50.45095 -0.90013,-9.57826 c -2.10906,-22.44236 -1.47318,-31.50899 3.28093,-46.78075 2.49612,-8.01836 5.02768,-15.136189 5.62572,-15.817408 0.84004,-0.956924 182.2995,134.182938 191.03163,142.268638 1.64025,1.51882 -0.49637,3.47939 -12.50485,11.47457 -13.16706,8.76653 -16.15698,10.08477 -32.90373,14.50716 -10.13131,2.67544 -18.74422,4.85622 -19.13979,4.84619 -0.39555,-0.01 -30.81757,-22.72117 -67.60448,-50.46919 z"
     id="path830"
     inkscape:connector-curvature="0" />
  <path
     style="opacity:1;fill:#000000;fill-opacity:1;stroke:#aa8800;stroke-width:1;stroke-opacity:1"
     d="M 308.74416,149.40859 C 256.53047,109.95535 212.24562,76.517473 210.33337,75.102175 l -3.4768,-2.573247 10.19605,-12.20711 c 8.7166,-10.435877 12.35171,-13.47581 25.0527,-20.950875 21.62483,-12.72712 39.23752,-17.589213 63.71602,-17.589213 14.82502,0 20.94122,0.688817 32.79415,3.693331 42.79562,10.847951 76.02704,44.038527 87.40221,87.294739 5.36469,20.40029 5.96779,44.56089 1.51741,60.78885 -1.51432,5.52181 -3.44165,12.64412 -4.28299,15.82731 -0.84134,3.1832 -5.58967,11.63047 -10.55185,18.7717 l -9.02215,12.98408 z"
     id="path832"
     inkscape:connector-curvature="0" />
  <path
     style="opacity:1;fill:#000000;fill-opacity:1;stroke:#aa8800;stroke-width:1;stroke-opacity:1"
     d="m 320.17032,462.55705 -16.91238,-16.94689 24.14694,-24.1703 c 13.28082,-13.29365 24.14694,-24.73536 24.14694,-25.42602 0,-0.69066 -10.73056,-11.97493 -23.84569,-25.07617 l -23.84568,-23.82042 16.61395,-16.64788 16.61394,-16.64787 23.87429,23.85025 c 13.13086,13.11764 24.42851,23.85026 25.10589,23.85026 0.67739,0 12.1111,-10.86855 25.40826,-24.15232 l 24.17665,-24.15231 17.24627,17.24593 17.24635,17.24592 -24.30388,24.32732 c -13.36709,13.38002 -24.30381,24.74548 -24.30381,25.25658 0,0.51109 10.8008,11.7405 24.00174,24.95423 l 24.00178,24.02496 -16.64824,16.6136 -16.64821,16.61361 -23.82092,-23.8452 c -13.10149,-13.11487 -24.39687,-23.84521 -25.10084,-23.84521 -0.70396,0 -12.00032,10.73134 -25.10305,23.84742 -13.10272,13.11609 -24.11896,23.84743 -24.48053,23.84743 -0.36157,0 -8.26797,-7.62611 -17.56977,-16.94692 z"
     id="path834"
     inkscape:connector-curvature="0" />
</svg>
