<svg style="height:75px;width:75px;" viewBox="0 0 500 500" xmlns="http://www.w3.org/2000/svg" height="500" width="500" version="1.1"  id="Microphone-1-On">
  <path style="opacity: 1; fill: rgb(112, 112, 112); fill-opacity: 1; stroke: yellow; stroke-width: 0px; stroke-opacity: 1;" d="m 90.205024,477.54062 c -9.306007,-1.19338 -10.8642,-1.94933 -23.328618,-11.31802 L 53.51987,456.18334 49.331317,442.87146 45.142778,429.55954 51.084035,418.68627 C 54.351726,412.706 84.50029,358.94165 118.08086,299.20998 l 61.05557,-108.60304 41.78956,31.57783 c 22.98427,17.36781 51.28148,38.71954 62.88269,47.44829 l 21.09312,15.87046 -95.88957,96.80988 -95.88959,96.80985 -6.47277,-0.15192 c -3.56002,-0.0836 -10.960204,-0.72739 -16.444846,-1.43071 z" id="path828" class=""></path>
  <path style="opacity: 1; fill: rgb(35, 35, 35); fill-opacity: 1; stroke: yellow; stroke-width: 0px; stroke-opacity: 1;" d="m 253.36601,217.24655 -66.8853,-50.45095 -0.90013,-9.57826 c -2.10906,-22.44236 -1.47318,-31.50899 3.28093,-46.78075 2.49612,-8.01836 5.02768,-15.136189 5.62572,-15.817408 0.84004,-0.956924 182.2995,134.182938 191.03163,142.268638 1.64025,1.51882 -0.49637,3.47939 -12.50485,11.47457 -13.16706,8.76653 -16.15698,10.08477 -32.90373,14.50716 -10.13131,2.67544 -18.74422,4.85622 -19.13979,4.84619 -0.39555,-0.01 -30.81757,-22.72117 -67.60448,-50.46919 z" id="path830" class=""></path>
  <path style="opacity: 1; fill: rgb(57, 57, 57); fill-opacity: 1; stroke: yellow; stroke-width: 0px; stroke-opacity: 1;" d="M 308.74416,149.40859 C 256.53047,109.95535 212.24562,76.517473 210.33337,75.102175 l -3.4768,-2.573247 10.19605,-12.20711 c 8.7166,-10.435877 12.35171,-13.47581 25.0527,-20.950875 21.62483,-12.72712 39.23752,-17.589213 63.71602,-17.589213 14.82502,0 20.94122,0.688817 32.79415,3.693331 42.79562,10.847951 76.02704,44.038527 87.40221,87.294739 5.36469,20.40029 5.96779,44.56089 1.51741,60.78885 -1.51432,5.52181 -3.44165,12.64412 -4.28299,15.82731 -0.84134,3.1832 -5.58967,11.63047 -10.55185,18.7717 l -9.02215,12.98408 z" id="path832" class=""></path>
</svg>