<?xml version="1.0" encoding="UTF-8" standalone="no"?>
<svg
   xmlns:dc="http://purl.org/dc/elements/1.1/"
   xmlns:cc="http://creativecommons.org/ns#"
   xmlns:rdf="http://www.w3.org/1999/02/22-rdf-syntax-ns#"
   xmlns:svg="http://www.w3.org/2000/svg"
   xmlns="http://www.w3.org/2000/svg"
   xmlns:sodipodi="http://sodipodi.sourceforge.net/DTD/sodipodi-0.dtd"
   xmlns:inkscape="http://www.inkscape.org/namespaces/inkscape"
   height="500"
   version="1.1"
   width="500"
   id="svg30"
   sodipodi:docname="Molecule-1.svg"
   inkscape:version="0.92.5 (2060ec1f9f, 2020-04-08)">
  <metadata
     id="metadata36">
    <rdf:RDF>
      <cc:Work
         rdf:about="">
        <dc:format>image/svg+xml</dc:format>
        <dc:type
           rdf:resource="http://purl.org/dc/dcmitype/StillImage" />
      </cc:Work>
    </rdf:RDF>
  </metadata>
  <defs
     id="defs34" />
  <sodipodi:namedview
     pagecolor="#ffffff"
     bordercolor="#666666"
     borderopacity="1"
     objecttolerance="10"
     gridtolerance="10"
     guidetolerance="10"
     inkscape:pageopacity="0"
     inkscape:pageshadow="2"
     inkscape:window-width="2400"
     inkscape:window-height="1256"
     id="namedview32"
     showgrid="false"
     inkscape:zoom="1.3350176"
     inkscape:cx="250"
     inkscape:cy="250"
     inkscape:window-x="-11"
     inkscape:window-y="-11"
     inkscape:window-maximized="1"
     inkscape:current-layer="svg30" />
  <g
     id="RenderLayer_LineSet"
     inkscape:label="RenderLayer_LineSet"
     transform="translate(807.20339,25.423729)">
    <g
       id="strokes"
       inkscape:groupmode="layer"
       inkscape:label="strokes">
      <path
         d="m 316.99,62.4 -9.808,-1.951 -7.778,-1.547 -9.808,1.951 -7.778,1.547 -8.314,5.555 -6.594,4.406 -5.556,8.315 -4.405,6.593 -1.951,9.808 -1.547,7.778 1.951,9.808 1.547,7.778 5.555,8.314 4.406,6.594 0.512,0.342 8.315,5.555 6.081,4.064 9.808,1.951 7.778,1.547 4.267,-0.849 9.808,-1.95 3.511,-0.699 8.314,-5.555 6.594,-4.406 5.556,-8.315 4.405,-6.593 1.951,-9.808 1.547,-7.778 -1.951,-9.808 -1.547,-7.778 -5.555,-8.314 -4.406,-6.594 -8.315,-5.556 -6.593,-4.405"
         id="path2"
         inkscape:connector-curvature="0"
         style="fill:none;stroke:#000000;stroke-width:3;stroke-linecap:butt;stroke-linejoin:round;stroke-opacity:1" />
      <path
         d="m 413.341,304.187 -9.808,-1.951 -7.778,-1.547 -9.808,1.951 -7.777,1.547 -8.326,5.563 -6.582,4.398 -5.556,8.315 -4.406,6.594 -1.951,9.808 -0.435,2.185 -1.112,5.592 1.951,9.808 1.547,7.778 5.556,8.314 4.406,6.594 8.314,5.556 6.594,4.405 9.808,1.951 7.777,1.547 9.808,-1.95 7.778,-1.548 8.315,-5.555 6.593,-4.406 5.556,-8.315 4.406,-6.593 1.95,-9.808 1.548,-7.778 -1.951,-9.808 -1.547,-7.777 -5.556,-8.315 -4.406,-6.594 -8.315,-5.555 -6.593,-4.406"
         id="path4"
         inkscape:connector-curvature="0"
         style="fill:none;stroke:#000000;stroke-width:3;stroke-linecap:butt;stroke-linejoin:round;stroke-opacity:1" />
      <path
         d="m 117.924,304.187 -9.808,-1.951 -7.777,-1.547 -9.808,1.951 -7.778,1.547 -8.315,5.556 -6.593,4.405 -5.556,8.315 -4.406,6.594 -1.951,9.808 -1.547,7.777 1.951,9.808 1.547,7.778 5.556,8.314 4.406,6.594 8.314,5.556 6.594,4.405 9.808,1.951 7.778,1.547 9.807,-1.95 7.778,-1.548 8.315,-5.555 6.593,-4.406 5.556,-8.315 4.406,-6.593 1.951,-9.808 1.547,-7.778 -1.951,-9.808 -1.109,-5.574 -0.438,-2.203 -5.556,-8.315 -4.406,-6.594 -3.488,-2.33 -8.314,-5.556 -3.106,-2.075"
         id="path6"
         inkscape:connector-curvature="0"
         style="fill:none;stroke:#000000;stroke-width:3;stroke-linecap:butt;stroke-linejoin:round;stroke-opacity:1" />
      <path
         d="m 262.618,198.057 -9.808,-1.951 -7.28,-1.448 -7.936,-1.579 -9.808,1.951 -9.808,1.951 -5.409,1.076 -8.315,5.556 -2.292,1.532 -8.315,5.555 -2.293,1.532 -5.555,8.315 -5.556,8.315 -1.311,1.962 -1.753,2.623 -1.951,9.808 -1.951,9.808 -1.076,5.409 1.951,9.808 1.306,6.564 1.721,8.652 5.556,8.315 5.556,8.315 1.906,2.853 1.157,1.732 8.315,5.556 8.315,5.555 4.585,3.064 9.808,1.951 9.808,1.951 5.409,1.076 9.808,-1.951 9.807,-1.951 5.409,-1.076 8.315,-5.555 8.315,-5.556 4.585,-3.064 3.551,-5.314 5.555,-8.314 5.069,-7.587 1.484,-7.458 1.951,-9.808 1.543,-7.758 -1.951,-9.808 -1.951,-9.808 -1.076,-5.409 -5.555,-8.315 -5.556,-8.314 -3.064,-4.586 -8.315,-5.555 -1.682,-1.125 -8.315,-5.556 -2.903,-1.939"
         id="path8"
         inkscape:connector-curvature="0"
         style="fill:none;stroke:#000000;stroke-width:3;stroke-linecap:butt;stroke-linejoin:round;stroke-opacity:1" />
      <path
         d="m 132.34,114.741 -9.808,-1.951 -4.923,-0.979 -9.808,1.951 -4.923,0.979 -8.314,5.556 -4.174,2.788 -5.555,8.315 -2.789,4.173 -1.951,9.808 -0.979,4.923 1.951,9.808 0.979,4.922 5.556,8.315 2.788,4.173 8.315,5.556 4.173,2.789 9.808,1.95 4.923,0.98 9.808,-1.951 4.923,-0.979 2.856,-1.909 8.314,-5.555 1.318,-0.881 5.555,-8.314 1.441,-2.157 1.348,-2.017 1.951,-9.808 0.979,-4.922 -1.951,-9.808 -0.979,-4.923 -5.556,-8.315 -2.788,-4.173 -8.315,-5.556 -4.173,-2.788"
         id="path10"
         inkscape:connector-curvature="0"
         style="fill:none;stroke:#000000;stroke-width:3;stroke-linecap:butt;stroke-linejoin:round;stroke-opacity:1" />
      <path
         d="m 175.458,274.844 -7.802,6.255 -7.802,6.256 -7.801,6.255 -7.802,6.256 -7.802,6.255 -7.105,5.697"
         id="path12"
         inkscape:connector-curvature="0"
         style="fill:none;stroke:#000000;stroke-width:3;stroke-linecap:butt;stroke-linejoin:round;stroke-opacity:1" />
      <path
         d="m 143.232,331.26 8.567,-5.158 8.566,-5.159 8.567,-5.159 8.567,-5.159 8.566,-5.158 4.132,-2.488"
         id="path14"
         inkscape:connector-curvature="0"
         style="fill:none;stroke:#000000;stroke-width:3;stroke-linecap:butt;stroke-linejoin:round;stroke-opacity:1" />
      <path
         d="m 135.196,183.958 6.822,7.311 6.823,7.311 6.823,7.311 6.823,7.311 6.822,7.311 6.823,7.311 2.8,3"
         id="path16"
         inkscape:connector-curvature="0"
         style="fill:none;stroke:#000000;stroke-width:3;stroke-linecap:butt;stroke-linejoin:round;stroke-opacity:1" />
      <path
         d="m 201.962,205.145 -7.962,-6.05 -7.963,-6.05 -7.962,-6.05 -7.963,-6.049 -7.962,-6.05 -7.963,-6.05 -2.363,-1.795"
         id="path18"
         inkscape:connector-curvature="0"
         style="fill:none;stroke:#000000;stroke-width:3;stroke-linecap:butt;stroke-linejoin:round;stroke-opacity:1" />
      <path
         d="m 267.422,137.691 -3.587,9.334 -3.587,9.335 -3.587,9.334 -3.587,9.335 -3.588,9.334 -3.587,9.335 -0.369,0.96"
         id="path20"
         inkscape:connector-curvature="0"
         style="fill:none;stroke:#000000;stroke-width:3;stroke-linecap:butt;stroke-linejoin:round;stroke-opacity:1" />
      <path
         d="m 273.836,205.552 4.728,-8.811 4.729,-8.811 4.729,-8.812 4.729,-8.811 4.729,-8.811 4.728,-8.811 1.463,-2.726"
         id="path22"
         inkscape:connector-curvature="0"
         style="fill:none;stroke:#000000;stroke-width:3;stroke-linecap:butt;stroke-linejoin:round;stroke-opacity:1" />
      <path
         d="m 287.384,299.397 8.362,5.483 8.363,5.483 8.363,5.483 8.363,5.483 8.363,5.483 8.363,5.483 8.363,5.483 4.99,3.272"
         id="path24"
         inkscape:connector-curvature="0"
         style="fill:none;stroke:#000000;stroke-width:3;stroke-linecap:butt;stroke-linejoin:round;stroke-opacity:1" />
      <path
         d="m 369.844,309.75 -9.018,-4.321 -9.018,-4.322 -9.018,-4.321 -9.018,-4.321 -9.018,-4.322 -9.018,-4.321 -9.018,-4.321 -7.226,-3.463"
         id="path26"
         inkscape:connector-curvature="0"
         style="fill:none;stroke:#000000;stroke-width:3;stroke-linecap:butt;stroke-linejoin:round;stroke-opacity:1" />
    </g>
  </g>
  <path
     style="opacity:1;fill:#000000;fill-opacity:1;stroke:#000000;stroke-width:1;stroke-opacity:1"
     d="M 40.830714,417.70803 C 14.438968,403.59876 3.9198472,371.44239 17.428699,346.1693 c 14.108014,-26.39407 46.26156,-36.9141 71.532422,-23.40407 26.391749,14.10925 36.910849,46.26564 23.402019,71.53873 -14.108031,26.39407 -46.261565,36.9141 -71.532426,23.40407 z"
     id="path843"
     inkscape:connector-curvature="0" />
  <path
     style="opacity:1;fill:#000000;fill-opacity:1;stroke:#000000;stroke-width:1;stroke-opacity:1"
     d="m 66.23287,161.64941 c -15.025891,-7.51297 -23.492216,-21.58666 -23.492216,-39.0514 0,-44.742715 55.278811,-61.223364 81.557376,-24.315264 4.49625,6.314974 6.01958,12.191554 6.01958,23.222084 0,19.02368 -7.86425,32.34805 -23.58416,39.95861 -14.390317,6.96685 -26.824692,7.02394 -40.50058,0.18596 z"
     id="path845"
     inkscape:connector-curvature="0" />
  <path
     style="opacity:1;fill:#000000;fill-opacity:1;stroke:#000000;stroke-width:1;stroke-opacity:1"
     d="m 220.17109,334.93401 c -28.02008,-6.24572 -53.57586,-33.45603 -58.78292,-62.58878 -11.90075,-66.58289 62.97342,-115.61983 119.46061,-78.23766 35.31341,23.36981 45.57001,73.71412 21.99815,107.97769 -10.05554,14.6165 -31.53145,29.43867 -48.10339,33.1999 -14.1808,3.21853 -18.76684,3.17194 -34.57245,-0.35115 z"
     id="path847"
     inkscape:connector-curvature="0" />
  <path
     style="opacity:1;fill:#000000;fill-opacity:1;stroke:#000000;stroke-width:1;stroke-opacity:1"
     d="m 292.1784,112.87631 c -6.618,-3.54956 -15.64242,-11.58401 -20.05442,-17.854311 -7.1289,-10.131633 -8.01412,-13.531702 -7.95418,-30.547384 0.0555,-15.689466 1.22486,-20.874434 6.47678,-28.714332 23.43832,-34.98775016 75.3435,-31.0858957 93.80391,7.051492 7.32287,15.128419 6.11985,36.29697 -2.89157,50.879022 -14.05055,22.736223 -46.19033,31.623703 -69.38052,19.185513 z"
     id="path849"
     inkscape:connector-curvature="0" />
  <path
     style="opacity:1;fill:#000000;fill-opacity:1;stroke:#000000;stroke-width:1;stroke-opacity:1"
     d="m 413.07614,418.2146 c -6.78674,-3.46194 -14.91748,-10.87072 -19.93642,-18.16608 -7.39204,-10.745 -8.47554,-14.54883 -8.47554,-29.75704 0,-20.28946 6.88935,-33.10329 24.2467,-45.09796 8.76405,-6.05641 13.03558,-7.09281 28.99566,-7.03523 15.29863,0.0552 20.48644,1.25253 28.40312,6.55549 32.36266,21.67786 33.10755,68.97059 1.41657,89.94452 -15.19754,10.05812 -38.8826,11.59942 -54.65009,3.5563 z"
     id="path851"
     inkscape:connector-curvature="0" />
  <path
     style="opacity:1;fill:#000000;fill-opacity:1;stroke:#000000;stroke-width:1;stroke-opacity:1"
     d="m 341.17989,333.38266 -35.22671,-23.33213 6.0613,-10.04392 c 3.33367,-5.52416 6.68249,-10.66527 7.44189,-11.42467 1.14925,-1.14944 73.34827,31.64627 76.41059,34.70879 0.54321,0.54336 -2.71058,6.09387 -7.23087,12.33448 -4.52028,6.24061 -8.2187,13.57272 -8.2187,16.29362 0,2.72088 -0.90239,4.91306 -2.00545,4.87152 -1.10294,-0.0415 -17.85738,-10.57501 -37.23205,-23.40769 z"
     id="path853"
     inkscape:connector-curvature="0" />
  <path
     style="opacity:1;fill:#000000;fill-opacity:1;stroke:#000000;stroke-width:1;stroke-opacity:1"
     d="m 116.21549,338.66759 c -2.74243,-3.96335 -5.77836,-8.5844 -6.74652,-10.269 -1.0469,-1.82159 8.52842,-11.33901 23.62677,-23.48391 13.96288,-11.23155 25.38706,-18.85699 25.38706,-16.94542 0,1.91157 3.00816,7.90287 6.68478,13.31399 3.67663,5.41112 6.68477,10.80957 6.68477,11.99655 0,1.18698 -11.39639,9.00619 -25.32532,17.37601 l -25.32532,15.21787 z"
     id="path855"
     inkscape:connector-curvature="0" />
  <path
     style="opacity:1;fill:#000000;fill-opacity:1;stroke:#000000;stroke-width:1;stroke-opacity:1"
     d="m 138.42847,191.8622 -24.06521,-26.1978 8.64353,-8.41451 8.6435,-8.41452 26.11733,20.02784 c 14.36454,11.01531 26.5808,20.47999 27.14735,21.03263 0.56655,0.55262 -1.46806,3.7502 -4.52146,7.1057 -3.05335,3.3555 -8.32992,9.46635 -11.7257,13.57968 l -6.17414,7.47878 z"
     id="path857"
     inkscape:connector-curvature="0" />
  <path
     style="opacity:1;fill:#000000;fill-opacity:1;stroke:#000000;stroke-width:1;stroke-opacity:1"
     d="m 276.747,183.67744 c -3.30566,-2.19506 -9.90952,-4.78858 -14.67529,-5.76337 -4.76576,-0.97479 -8.64365,-2.3247 -8.61752,-2.99978 0.0265,-0.6751 5.37636,-15.28066 11.88923,-32.4568 l 11.84177,-31.22933 7.62174,5.42766 c 4.19202,2.98522 12.37854,6.06574 18.19221,6.84559 5.8138,0.77986 10.57048,2.48273 10.57048,3.78416 0,1.30143 -6.93277,15.41999 -15.40616,31.37457 -15.13418,28.49601 -15.51243,28.93784 -21.41646,25.0173 z"
     id="path859"
     inkscape:connector-curvature="0" />
</svg>
