<?xml version="1.0" encoding="UTF-8" standalone="no"?>
<svg
   xmlns:dc="http://purl.org/dc/elements/1.1/"
   xmlns:cc="http://creativecommons.org/ns#"
   xmlns:rdf="http://www.w3.org/1999/02/22-rdf-syntax-ns#"
   xmlns:svg="http://www.w3.org/2000/svg"
   xmlns="http://www.w3.org/2000/svg"
   xmlns:sodipodi="http://sodipodi.sourceforge.net/DTD/sodipodi-0.dtd"
   xmlns:inkscape="http://www.inkscape.org/namespaces/inkscape"
   height="500"
   version="1.1"
   width="500"
   id="svg16"
   sodipodi:docname="Money-1.svg"
   inkscape:version="0.92.5 (2060ec1f9f, 2020-04-08)">
  <metadata
     id="metadata22">
    <rdf:RDF>
      <cc:Work
         rdf:about="">
        <dc:format>image/svg+xml</dc:format>
        <dc:type
           rdf:resource="http://purl.org/dc/dcmitype/StillImage" />
        <dc:title></dc:title>
      </cc:Work>
    </rdf:RDF>
  </metadata>
  <defs
     id="defs20" />
  <sodipodi:namedview
     pagecolor="#ffffff"
     bordercolor="#666666"
     borderopacity="1"
     objecttolerance="10"
     gridtolerance="10"
     guidetolerance="10"
     inkscape:pageopacity="0"
     inkscape:pageshadow="2"
     inkscape:window-width="2400"
     inkscape:window-height="1256"
     id="namedview18"
     showgrid="false"
     inkscape:zoom="1.3350176"
     inkscape:cx="356.18826"
     inkscape:cy="250"
     inkscape:window-x="-11"
     inkscape:window-y="-11"
     inkscape:window-maximized="1"
     inkscape:current-layer="svg16" />
  <path
     style="opacity:1;fill:#000000;fill-opacity:1;stroke:#000000;stroke-width:0.99999994;stroke-opacity:1"
     d="m 217.27166,274.03806 c -16.38506,-8.07749 -28.15679,-27.36068 -28.18946,-46.17696 -0.0182,-10.4818 7.88298,-30.25269 16.0442,-40.14692 19.95208,-24.18886 60.52256,-27.33516 79.74274,-6.18417 24.48093,26.94026 14.66253,71.97017 -19.59461,89.86623 -14.5072,7.57861 -35.6305,8.74113 -48.00287,2.64182 z"
     id="path829"
     inkscape:connector-curvature="0" />
  <path
     style="opacity:1;fill:#000000;fill-opacity:1;stroke:#000000;stroke-width:0.99999994;stroke-opacity:1"
     d="m 152.89664,167.32619 c -5.83071,-2.34616 -9.30688,-12.75708 -6.00653,-17.9892 6.07719,-9.6343 18.82015,-9.169 23.38694,0.85395 3.10422,6.81299 0.65728,13.34075 -6.42071,17.12876 -5.03172,2.69289 -4.28456,2.69244 -10.9597,0.007 z"
     id="path831"
     inkscape:connector-curvature="0" />
  <path
     style="opacity:1;fill:#000000;fill-opacity:1;stroke:#000000;stroke-width:0.99999994;stroke-opacity:1"
     d="m 323.05152,300.58463 c -5.68696,-2.11385 -9.81718,-10.35206 -7.95091,-15.85906 3.14562,-9.28207 15.59595,-12.10567 22.02998,-4.99615 9.87482,10.91149 -0.29651,25.97822 -14.07907,20.85521 z"
     id="path833"
     inkscape:connector-curvature="0" />
  <path
     style="opacity:1;fill:#000000;fill-opacity:1;stroke:#000000;stroke-width:0.99999994;stroke-opacity:1"
     d="M 200.32483,330.0346 C 126.15109,271.57696 53.509863,214.36812 38.899876,202.90388 L 12.336277,182.0598 80.091327,95.905424 C 117.3566,48.520523 149.23734,9.8751817 150.9374,10.026886 c 3.50244,0.312538 323.47389,251.173474 323.44142,253.581394 -0.0405,3.00728 -133.79166,171.84037 -136.47722,172.27426 -1.49347,0.24128 -63.40303,-47.39028 -137.57677,-105.84794 z m 117.23663,50.95536 c 10.53884,-5.10175 12.55622,-4.99216 32.68672,1.77555 3.20704,1.07818 28.35418,-28.90046 67.1624,-80.06632 l 8.18353,-10.78942 -5.69238,-11.07048 c -5.50636,-10.70876 -6.2815,-23.4964 -2.13558,-35.23143 0.86071,-2.43625 -32.89513,-30.17473 -114.75367,-94.29755 C 239.22729,101.34503 185.85243,60.068689 184.4017,59.585114 c -1.45073,-0.483574 -6.67333,0.94059 -11.60579,3.164807 -7.07535,3.190527 -12.30155,3.73422 -24.76252,2.576099 l -15.79443,-1.467931 -31.98742,40.638201 c -42.240285,53.66391 -39.673654,49.09828 -32.922521,58.56402 5.358236,7.51274 6.590054,18.54406 3.977612,35.62066 -0.606955,3.9674 20.298102,21.39369 115.246479,96.0685 63.79335,50.17207 117.05219,91.22195 118.35295,91.22195 1.30076,0 6.99568,-2.24165 12.6554,-4.98146 z"
     id="path835"
     inkscape:connector-curvature="0" />
  <path
     style="opacity:1;fill:#000000;fill-opacity:1;stroke:#000000;stroke-width:0.99999994;stroke-opacity:1"
     d="M 187.91884,368.37418 C 100.59391,299.58562 27.360175,242.01035 25.177197,240.42914 c -3.676426,-2.66298 -3.506788,-3.4193 2.301059,-10.25884 l 6.27009,-7.38393 153.476444,120.71024 c 84.41206,66.39063 154.30652,120.64834 155.32103,120.57268 1.01451,-0.0757 29.6769,-35.75029 63.69418,-79.27693 l 61.84964,-79.13934 7.75719,5.91668 c 4.26647,3.25417 7.74476,6.57039 7.72955,7.36935 -0.0265,1.38704 -131.9819,170.23647 -135.29102,173.11751 -0.87666,0.76325 -73.04159,-54.89381 -160.36652,-123.68238 z"
     id="path837"
     inkscape:connector-curvature="0" />
</svg>
