<?xml version="1.0" encoding="UTF-8" standalone="no"?>
<svg
   xmlns:dc="http://purl.org/dc/elements/1.1/"
   xmlns:cc="http://creativecommons.org/ns#"
   xmlns:rdf="http://www.w3.org/1999/02/22-rdf-syntax-ns#"
   xmlns:svg="http://www.w3.org/2000/svg"
   xmlns="http://www.w3.org/2000/svg"
   xmlns:sodipodi="http://sodipodi.sourceforge.net/DTD/sodipodi-0.dtd"
   xmlns:inkscape="http://www.inkscape.org/namespaces/inkscape"
   height="500"
   version="1.1"
   width="500"
   id="svg12"
   sodipodi:docname="Monitor.svg"
   inkscape:version="0.92.5 (2060ec1f9f, 2020-04-08)">
  <metadata
     id="metadata18">
    <rdf:RDF>
      <cc:Work
         rdf:about="">
        <dc:format>image/svg+xml</dc:format>
        <dc:type
           rdf:resource="http://purl.org/dc/dcmitype/StillImage" />
      </cc:Work>
    </rdf:RDF>
  </metadata>
  <defs
     id="defs16" />
  <sodipodi:namedview
     pagecolor="#ffffff"
     bordercolor="#666666"
     borderopacity="1"
     objecttolerance="10"
     gridtolerance="10"
     guidetolerance="10"
     inkscape:pageopacity="0"
     inkscape:pageshadow="2"
     inkscape:window-width="2400"
     inkscape:window-height="1256"
     id="namedview14"
     showgrid="false"
     inkscape:zoom="1.3350176"
     inkscape:cx="433.49304"
     inkscape:cy="250"
     inkscape:window-x="-11"
     inkscape:window-y="-11"
     inkscape:window-maximized="1"
     inkscape:current-layer="svg12" />
  <path
     style="opacity:1;fill:#000000;fill-opacity:1;stroke:#000000;stroke-width:1;stroke-opacity:1"
     d="M 80.691094,224.14947 V 103.27639 H 249.65814 418.62519 v 120.87308 120.8731 H 249.65814 80.691094 Z"
     id="path828"
     inkscape:connector-curvature="0" />
  <path
     style="opacity:1;fill:#000000;fill-opacity:1;stroke:#000000;stroke-width:1;stroke-opacity:1"
     d="M 12.100516,224.14947 V 42.212478 H 249.65814 487.21575 v 181.936992 181.937 H 249.65814 12.100516 Z m 444.584024,0 V 71.071451 H 249.65814 42.631685 l -0.21137,152.065299 c -0.168019,120.87714 0.0033,152.30962 0.836466,153.25647 0.902039,1.02542 29.739192,1.16634 207.237819,1.01272 l 206.18994,-0.17843 z"
     id="path830"
     inkscape:connector-curvature="0" />
  <path
     style="opacity:1;fill:#000000;fill-opacity:1;stroke:#000000;stroke-width:1;stroke-opacity:1"
     d="m 110.99878,468.34026 c -3.96759,-3.47085 -4.37707,-4.15562 -4.37669,-7.31931 3.7e-4,-3.14403 0.40987,-3.84284 4.12848,-7.04531 l 4.12806,-3.55509 h 36.08672 36.08672 l 10.66931,-8.72139 10.66932,-8.72138 1.81578,-6.12634 c 1.01893,-3.43783 1.81462,-8.42068 1.81313,-11.35443 l -0.002,-5.22807 h 38.0594 38.05941 l 0.0296,6.48281 c 0.0206,4.5048 0.59482,8.07177 1.88206,11.69051 1.7762,4.99334 2.27894,5.55281 12.21468,13.59299 l 10.36224,8.3853 h 35.97169 35.97165 l 4.48166,3.82889 c 3.92342,3.35195 4.48166,4.21517 4.48166,6.92989 0,2.73951 -0.54685,3.56079 -4.69138,7.0455 l -4.69138,3.94451 H 249.7621 115.37589 Z"
     id="path832"
     inkscape:connector-curvature="0" />
</svg>
