<?xml version="1.0" encoding="UTF-8" standalone="no"?>
<svg
   xmlns:dc="http://purl.org/dc/elements/1.1/"
   xmlns:cc="http://creativecommons.org/ns#"
   xmlns:rdf="http://www.w3.org/1999/02/22-rdf-syntax-ns#"
   xmlns:svg="http://www.w3.org/2000/svg"
   xmlns="http://www.w3.org/2000/svg"
   xmlns:sodipodi="http://sodipodi.sourceforge.net/DTD/sodipodi-0.dtd"
   xmlns:inkscape="http://www.inkscape.org/namespaces/inkscape"
   height="500"
   version="1.1"
   width="500"
   id="svg8"
   sodipodi:docname="Person-1.svg"
   inkscape:version="0.92.5 (2060ec1f9f, 2020-04-08)">
  <metadata
     id="metadata14">
    <rdf:RDF>
      <cc:Work
         rdf:about="">
        <dc:format>image/svg+xml</dc:format>
        <dc:type
           rdf:resource="http://purl.org/dc/dcmitype/StillImage" />
      </cc:Work>
    </rdf:RDF>
  </metadata>
  <defs
     id="defs12" />
  <sodipodi:namedview
     pagecolor="#ffffff"
     bordercolor="#666666"
     borderopacity="1"
     objecttolerance="10"
     gridtolerance="10"
     guidetolerance="10"
     inkscape:pageopacity="0"
     inkscape:pageshadow="2"
     inkscape:window-width="2400"
     inkscape:window-height="1256"
     id="namedview10"
     showgrid="false"
     inkscape:zoom="0.472"
     inkscape:cx="250"
     inkscape:cy="250"
     inkscape:window-x="-11"
     inkscape:window-y="-11"
     inkscape:window-maximized="1"
     inkscape:current-layer="svg8" />
  <path
     style="opacity:1;fill:#000000;fill-opacity:1;stroke:#000000;stroke-width:0.99999994;stroke-opacity:1"
     d="M 229.84011,370.05058 C 192.27342,363.7859 149.60308,328.88393 130.35776,288.67959 101.29751,227.97165 93.244523,182.28119 103.70113,137.43963 116.67353,81.810279 141.87875,48.25068 187.91977,25.306826 240.90957,-1.0999285 298.86999,7.9730971 344.98555,49.893653 c 29.91321,27.192157 45.50038,60.234697 50.90043,107.901417 4.32564,38.18184 -1.35736,66.85221 -23.83373,120.24156 -26.95838,64.03552 -84.95724,101.5619 -142.21214,92.01395 z"
     id="path821"
     inkscape:connector-curvature="0" />
  <path
     style="opacity:1;fill:#000000;fill-opacity:1;stroke:#000000;stroke-width:0.99999994;stroke-opacity:1"
     d="M 27.566923,475.07779 C 30.054565,459.52156 39.571582,438.12266 50.682638,423.10191 62.56264,407.04168 98.986555,388.04533 136.0203,378.5953 l 26.63329,-6.79616 15.54173,7.70825 c 22.94959,11.38238 36.95741,14.14193 71.60208,14.10576 31.76412,-0.0332 47.26205,-3.4741 74.27274,-16.49053 10.91157,-5.25828 11.48447,-5.23493 37.81202,1.54138 36.55255,9.40806 68.56763,25.74165 81.36705,41.51214 13.16775,16.22446 24.04514,38.41525 26.42927,53.91782 l 1.90102,12.36097 H 248.66355 25.747594 Z"
     id="path823"
     inkscape:connector-curvature="0" />
</svg>
