<?xml version="1.0" encoding="UTF-8" standalone="no"?>
<svg
   xmlns:dc="http://purl.org/dc/elements/1.1/"
   xmlns:cc="http://creativecommons.org/ns#"
   xmlns:rdf="http://www.w3.org/1999/02/22-rdf-syntax-ns#"
   xmlns:svg="http://www.w3.org/2000/svg"
   xmlns="http://www.w3.org/2000/svg"
   xmlns:sodipodi="http://sodipodi.sourceforge.net/DTD/sodipodi-0.dtd"
   xmlns:inkscape="http://www.inkscape.org/namespaces/inkscape"
   height="500"
   version="1.1"
   width="500"
   id="svg10"
   sodipodi:docname="Person-Card.svg"
   inkscape:version="0.92.5 (2060ec1f9f, 2020-04-08)">
  <metadata
     id="metadata16">
    <rdf:RDF>
      <cc:Work
         rdf:about="">
        <dc:format>image/svg+xml</dc:format>
        <dc:type
           rdf:resource="http://purl.org/dc/dcmitype/StillImage" />
      </cc:Work>
    </rdf:RDF>
  </metadata>
  <defs
     id="defs14" />
  <sodipodi:namedview
     pagecolor="#ffffff"
     bordercolor="#666666"
     borderopacity="1"
     objecttolerance="10"
     gridtolerance="10"
     guidetolerance="10"
     inkscape:pageopacity="0"
     inkscape:pageshadow="2"
     inkscape:window-width="2400"
     inkscape:window-height="1256"
     id="namedview12"
     showgrid="false"
     inkscape:zoom="0.472"
     inkscape:cx="250"
     inkscape:cy="250"
     inkscape:window-x="-11"
     inkscape:window-y="-11"
     inkscape:window-maximized="1"
     inkscape:current-layer="svg10" />
  <path
     style="opacity:1;fill:#000000;fill-opacity:1;stroke:#000000;stroke-width:1;stroke-opacity:1"
     d="m 32.018454,463.34118 c -4.405509,-2.21347 -10.36112,-7.54394 -13.234691,-11.84549 L 13.55909,443.67465 V 255.81234 c 0,-178.442052 0.213683,-188.260779 4.261442,-195.808412 8.455386,-15.766315 12.656815,-17.215695 52.289696,-18.038635 l 35.516302,-0.737461 v 27.418513 27.418492 l 8.89837,2.666072 c 11.68381,3.500631 17.20143,3.363141 26.8517,-0.669082 l 7.98196,-3.335153 V 68.139281 41.551889 H 251.7836 354.20863 v 27.158425 27.158414 l 7.64389,2.764132 c 10.11177,3.65654 18.39095,3.48833 28.10617,-0.571033 l 7.98196,-3.335153 V 67.977253 41.227832 l 35.10072,0.737461 c 38.57085,0.81037 42.58872,2.122536 51.59367,16.849604 4.00526,6.550366 4.22221,16.663273 4.22221,196.798303 v 189.8931 l -5.13347,7.19686 c -11.02965,15.46305 1.53097,14.66999 -232.28804,14.66604 -196.675828,-0.002 -211.965415,-0.284 -219.417286,-4.02802 z m 354.413766,-26.5402 c 0,-12.8862 -5.92108,-31.18888 -13.84792,-42.80531 -9.11832,-13.36249 -26.1019,-23.42535 -52.47907,-31.09411 l -18.16827,-5.28215 -10.99858,5.58975 c -22.92891,11.65304 -56.58087,11.57501 -79.17208,-0.18368 l -10.61979,-5.52749 -17.26265,5.06068 c -26.39746,7.73863 -43.72505,17.47831 -51.90495,29.17529 -9.40345,13.44664 -14.25406,25.9577 -15.71657,40.53737 l -1.21218,12.0841 h 135.69102 135.69104 z m -104.4694,-76.6982 c 43.57271,-20.54739 71.09747,-94.73831 56.52605,-152.36174 -5.48773,-21.70145 -12.99813,-33.82408 -31.34229,-50.58997 -16.76205,-15.31987 -33.40863,-21.70311 -56.79348,-21.77778 -15.49646,-0.0494 -19.56221,0.91554 -34.86193,8.27457 -47.0706,22.64052 -67.69035,80.04798 -49.83236,138.73833 21.27972,69.93586 67.4208,100.76824 116.30401,77.71659 z"
     id="path823"
     inkscape:connector-curvature="0" />
</svg>
