<svg style="height:75px;width:75px;" viewBox="0 0 500 500" xmlns="http://www.w3.org/2000/svg" height="500" width="500" version="1.1"  id="Person-1">
  <path style="opacity: 1; fill: rgb(112, 112, 112); fill-opacity: 1; stroke: yellow; stroke-width: 0px; stroke-opacity: 1;" d="M 229.84011,370.05058 C 192.27342,363.7859 149.60308,328.88393 130.35776,288.67959 101.29751,227.97165 93.244523,182.28119 103.70113,137.43963 116.67353,81.810279 141.87875,48.25068 187.91977,25.306826 240.90957,-1.0999285 298.86999,7.9730971 344.98555,49.893653 c 29.91321,27.192157 45.50038,60.234697 50.90043,107.901417 4.32564,38.18184 -1.35736,66.85221 -23.83373,120.24156 -26.95838,64.03552 -84.95724,101.5619 -142.21214,92.01395 z" id="path821" class=""></path>
  <path style="opacity: 1; fill: rgb(112, 112, 112); fill-opacity: 1; stroke: yellow; stroke-width: 0px; stroke-opacity: 1;" d="M 27.566923,475.07779 C 30.054565,459.52156 39.571582,438.12266 50.682638,423.10191 62.56264,407.04168 98.986555,388.04533 136.0203,378.5953 l 26.63329,-6.79616 15.54173,7.70825 c 22.94959,11.38238 36.95741,14.14193 71.60208,14.10576 31.76412,-0.0332 47.26205,-3.4741 74.27274,-16.49053 10.91157,-5.25828 11.48447,-5.23493 37.81202,1.54138 36.55255,9.40806 68.56763,25.74165 81.36705,41.51214 13.16775,16.22446 24.04514,38.41525 26.42927,53.91782 l 1.90102,12.36097 H 248.66355 25.747594 Z" id="path823" class=""></path>
</svg>