<?xml version="1.0" encoding="UTF-8" standalone="no"?>
<svg
   xmlns:dc="http://purl.org/dc/elements/1.1/"
   xmlns:cc="http://creativecommons.org/ns#"
   xmlns:rdf="http://www.w3.org/1999/02/22-rdf-syntax-ns#"
   xmlns:svg="http://www.w3.org/2000/svg"
   xmlns="http://www.w3.org/2000/svg"
   xmlns:sodipodi="http://sodipodi.sourceforge.net/DTD/sodipodi-0.dtd"
   xmlns:inkscape="http://www.inkscape.org/namespaces/inkscape"
   height="500"
   version="1.1"
   width="500"
   id="svg10"
   sodipodi:docname="Phone-1.svg"
   inkscape:version="0.92.5 (2060ec1f9f, 2020-04-08)">
  <metadata
     id="metadata16">
    <rdf:RDF>
      <cc:Work
         rdf:about="">
        <dc:format>image/svg+xml</dc:format>
        <dc:type
           rdf:resource="http://purl.org/dc/dcmitype/StillImage" />
      </cc:Work>
    </rdf:RDF>
  </metadata>
  <defs
     id="defs14" />
  <sodipodi:namedview
     pagecolor="#ffffff"
     bordercolor="#666666"
     borderopacity="1"
     objecttolerance="10"
     gridtolerance="10"
     guidetolerance="10"
     inkscape:pageopacity="0"
     inkscape:pageshadow="2"
     inkscape:window-width="2400"
     inkscape:window-height="1256"
     id="namedview12"
     showgrid="false"
     inkscape:zoom="0.472"
     inkscape:cx="250"
     inkscape:cy="250"
     inkscape:window-x="-11"
     inkscape:window-y="-11"
     inkscape:window-maximized="1"
     inkscape:current-layer="svg10" />
  <path
     style="opacity:1;fill:#000000;fill-opacity:1;stroke:#000000;stroke-width:1;stroke-opacity:1"
     d="M 105.80854,94.967988 58.708639,47.819095 75.731232,30.926933 92.753837,14.034771 l 47.638453,47.687997 47.63845,47.688002 -16.2077,16.35305 c -8.91424,8.99418 -16.81675,16.35306 -17.56115,16.35306 -0.74439,0 -22.5484,-21.217 -48.45335,-47.148892 z"
     id="path823"
     inkscape:connector-curvature="0" />
  <path
     style="opacity:1;fill:#000000;fill-opacity:1;stroke:#000000;stroke-width:1;stroke-opacity:1"
     d="M 329.17807,482.06355 C 224.92379,457.23287 92.14433,340.10201 37.901803,225.11537 21.282172,189.88406 13.648175,160.07137 13.583434,130.14605 13.536953,108.6846 14.152103,105.74764 21.475365,92.463634 25.843632,84.539856 32.302193,74.917215 35.82773,71.079988 l 6.410064,-6.976775 47.195591,47.146567 c 25.957585,25.93061 47.195605,48.09797 47.195605,49.2608 0,1.16285 -3.84032,8.66674 -8.53402,16.67535 -8.4934,14.49176 -8.51843,14.62819 -5.25761,28.65575 7.5719,32.57324 16.03285,48.33114 41.50023,77.29104 31.48971,35.80814 74.60274,73.88882 92.75574,81.92886 7.66495,3.39487 22.25685,8.30418 32.42642,10.90962 l 18.49014,4.73714 16.31099,-9.12162 16.31096,-9.12162 47.92142,47.9214 c 41.40567,41.40568 47.47821,48.45543 44.66185,51.84893 -1.79275,2.16014 -11.3213,8.3189 -21.17458,13.68616 -24.09062,13.1226 -46.5606,14.78814 -82.86246,6.14196 z"
     id="path825"
     inkscape:connector-curvature="0" />
  <path
     style="opacity:1;fill:#000000;fill-opacity:1;stroke:#000000;stroke-width:1;stroke-opacity:1"
     d="m 404.75575,393.91519 -47.09992,-47.14888 17.02261,-16.89216 17.0226,-16.89218 47.63846,47.68801 47.63845,47.68799 -16.2077,16.35307 c -8.91424,8.99418 -16.81676,16.35305 -17.56115,16.35305 -0.7444,0 -22.5484,-21.217 -48.45335,-47.1489 z"
     id="path827"
     inkscape:connector-curvature="0" />
</svg>
