<svg style="height:75px;width:75px;" viewBox="0 0 500 500" xmlns="http://www.w3.org/2000/svg" height="500" width="500" version="1.1"  id="Shield-Stencil-1">
  <path style="opacity: 1; fill: rgb(128, 128, 0); fill-opacity: 1; stroke: yellow; stroke-width: 0px; stroke-opacity: 1;" d="M 228.41743,479.29268 C 191.3737,464.70178 121.12613,413.79371 85.718753,375.87967 66.096059,354.86776 37.825255,317.66409 33.359685,306.9764 28.571585,295.51681 16.855381,235.41197 13.629289,205.75824 11.299224,184.34067 11.475334,174.73028 14.786614,142.60391 20.076834,91.277573 30.974632,27.725155 34.913715,25.229208 36.627217,24.143476 134.28442,23.239325 251.92972,23.219984 l 213.90057,-0.03516 4.84816,25.835863 c 20.29361,108.144373 20.36168,159.082953 0.31853,238.264053 -13.93134,55.03623 -99.01655,140.13683 -182.72289,182.75594 -30.69774,15.62975 -40.01019,17.0692 -59.85666,9.252 z m 53.93984,-34.82072 C 341.53452,416.59935 407.99261,357.57104 438.16801,306.08035 451.97354,282.52288 463.0472,216.91296 460.91455,171.31042 459.50385,141.1457 453.48399,96.860064 446.79908,67.468608 L 443.1578,51.459062 251.19172,49.803696 C 145.61037,48.893242 58.396961,48.990504 57.384159,50.019831 55.125831,52.314987 47.47292,89.523226 42.674328,121.53859 c -8.341156,55.6508 -6.745112,95.14598 6.094739,150.81876 5.507671,23.88091 8.957849,31.4061 23.371772,50.9763 34.770691,47.20919 88.841631,93.24016 140.423051,119.54314 31.36498,15.99399 38.8591,16.16525 69.79338,1.59517 z" id="path827" class=""></path>
  <path style="opacity: 1; fill: rgb(224, 224, 0); fill-opacity: 1; stroke: yellow; stroke-width: 0px; stroke-opacity: 1;" d="M 229.66172,408.3609 C 191.12886,392.13109 135.01719,347.3252 108.99854,312.00981 88.795672,284.58823 80.827494,261.52525 75.85949,216.09258 c -3.199091,-29.2559 -1.644594,-52.77781 6.336418,-95.87976 l 6.05963,-32.72541 158.607582,0.03516 c 87.23418,0.01934 159.94541,0.883867 161.58055,1.921169 3.82885,2.428964 11.15724,37.913641 14.66025,70.986131 4.65794,43.97638 -2.66037,96.89817 -17.61402,127.37465 -14.96996,30.50972 -52.07944,68.33137 -95.37041,97.20069 -41.30324,27.54379 -58.59617,32.56367 -80.45777,23.35569 z" id="path829" inkscape:connector-curvature="0" class=""></path>
</svg>
