<svg style="height:75px;width:75px;" viewBox="0 0 500 500" xmlns="http://www.w3.org/2000/svg" height="500" width="500" version="1.1"  id="Shopping-Cart">
  <path id="path847" style="opacity: 1; fill: rgb(101, 101, 101); fill-opacity: 1; stroke: yellow; stroke-width: 0px; stroke-opacity: 1;" d="m 407.95165,409.74925 c -11.46923,0 -14.54228,1.3245 -21.71778,9.35595 -13.9343,15.59657 -10.96565,35.77356 6.86256,46.64513 10.97471,6.69235 16.76855,6.96392 27.71163,1.3045 19.13657,-9.89675 23.20355,-31.89655 8.86139,-47.94963 -7.1755,-8.03145 -10.24855,-9.35595 -21.7178,-9.35595 z M 152.25477,408.318 c -15.86866,0 -32.15816,16.02763 -32.15816,31.64073 0,9.38762 8.73798,22.12895 18.47002,26.93238 11.10051,5.47887 14.30593,5.46977 25.98741,-0.074 16.55507,-7.85656 22.68767,-30.54012 11.97713,-44.30811 -5.8362,-7.5022 -17.27988,-14.19106 -24.2764,-14.19106 z m 83.34878,-199.05747 c -9.30985,0 -12.39433,1.67854 -12.39433,6.73845 0,7.93303 5.7833,66.51433 7.34049,74.358 0.65642,3.30646 6.18966,5.4067 14.24528,5.4067 11.19719,0 12.94861,-1.13355 11.6946,-7.56778 -0.81134,-4.16295 -3.0522,-23.62826 -4.98256,-43.25357 l -3.51181,-35.6818 z m 87.71871,5.39251 -4.25906,35.05405 c -2.34181,19.28028 -4.50728,36.72499 -4.81355,38.76593 l -0.55713,3.71192 13.95218,-0.37259 13.95219,-0.37258 4.33564,-36.05689 c 2.38414,-19.83115 4.34731,-37.10803 4.36203,-38.39337 0.0243,-2.11063 -1.28201,-2.33647 -13.47426,-2.33647 z m -207.34752,-15.44327 1.41948,8.59544 1.42244,8.5928 h 165.87576 c 91.23215,0 165.89619,-0.96793 165.92041,-2.14953 0.0242,-1.18159 0.9203,-5.04802 1.99083,-8.5928 l 1.9462,-6.44591 H 285.26081 Z m 102.98264,-76.09315 c -4.48495,0.16364 -7.07379,1.47469 -7.07379,3.72744 0,6.52208 5.99385,65.79101 7.34048,72.58754 0.62797,3.16932 5.86323,5.41739 12.61875,5.41739 10.71944,0 11.53882,-0.85372 11.41471,-11.91747 -0.0735,-6.55472 -1.68843,-24.59417 -3.58839,-40.08715 l -3.45371,-28.16965 -12.16724,-1.33039 c -1.89071,-0.20712 -3.59582,-0.28225 -5.09081,-0.22771 z m 130.07228,2.9398 c -10.61514,0 -13.2809,0.39473 -13.73831,2.03606 -0.31216,1.1201 -2.49714,18.37687 -4.85581,38.34698 l -4.2881,36.30727 h 13.47426 c 13.14301,0 13.49047,-0.0779 14.00764,-3.13772 0.29166,-1.72553 2.1146,-17.25556 4.05046,-34.51117 1.93588,-17.25563 3.74594,-33.10024 4.02142,-35.20928 l 0.49906,-3.83214 z M 296.1554,101.81856 c -164.07257,0 -190.45031,0.57083 -189.06885,4.09308 0.88299,2.25131 2.48936,8.6971 3.5681,14.3231 l 1.96218,10.23002 h 169.48209 c 118.81093,0 169.48478,0.91735 169.48478,3.07376 0,3.62398 -22.75816,138.6038 -24.95782,148.02647 l -1.50334,6.44591 H 285.85055 146.58127 l 2.05935,12.17358 c 1.13242,6.69571 2.64317,13.13887 3.35757,14.32046 0.71442,1.1816 68.30806,2.14952 150.2084,2.14952 h 148.91018 l 1.6518,-7.87718 c 0.90765,-4.33252 8.24418,-49.76951 16.30476,-100.97201 8.06059,-51.20252 15.35294,-95.996 16.2049,-99.54078 l 1.54923,-6.44593 z M 6.4749614,35.936017 l 4.4782206,17.1856 4.475584,17.188256 h 23.523859 c 12.937251,0 24.101248,0.965284 24.80976,2.146879 0.708526,1.181596 15.662554,70.468518 33.230197,153.968008 17.567648,83.49947 32.490268,153.42729 33.161548,155.39662 0.95615,2.80509 34.66128,3.58078 155.62872,3.58078 h 154.41146 l 2.90188,-11.43155 2.89922,-11.43154 -142.15445,-0.74204 -142.15445,-0.74204 -30.55013,-147.52207 C 114.33336,132.39662 99.082494,59.245919 97.246066,50.974737 L 93.908524,35.936017 H 50.190423 Z" class=""></path>
</svg>