<?xml version="1.0" encoding="UTF-8" standalone="no"?>
<svg
   xmlns:dc="http://purl.org/dc/elements/1.1/"
   xmlns:cc="http://creativecommons.org/ns#"
   xmlns:rdf="http://www.w3.org/1999/02/22-rdf-syntax-ns#"
   xmlns:svg="http://www.w3.org/2000/svg"
   xmlns="http://www.w3.org/2000/svg"
   xmlns:sodipodi="http://sodipodi.sourceforge.net/DTD/sodipodi-0.dtd"
   xmlns:inkscape="http://www.inkscape.org/namespaces/inkscape"
   height="500"
   version="1.1"
   width="500"
   id="svg14"
   sodipodi:docname="Speaker-1-Off.svg"
   inkscape:version="0.92.5 (2060ec1f9f, 2020-04-08)">
  <metadata
     id="metadata20">
    <rdf:RDF>
      <cc:Work
         rdf:about="">
        <dc:format>image/svg+xml</dc:format>
        <dc:type
           rdf:resource="http://purl.org/dc/dcmitype/StillImage" />
        <dc:title></dc:title>
      </cc:Work>
    </rdf:RDF>
  </metadata>
  <defs
     id="defs18" />
  <sodipodi:namedview
     pagecolor="#ffffff"
     bordercolor="#666666"
     borderopacity="1"
     objecttolerance="10"
     gridtolerance="10"
     guidetolerance="10"
     inkscape:pageopacity="0"
     inkscape:pageshadow="2"
     inkscape:window-width="2400"
     inkscape:window-height="1256"
     id="namedview16"
     showgrid="false"
     inkscape:zoom="0.944"
     inkscape:cx="36.016949"
     inkscape:cy="250"
     inkscape:window-x="-11"
     inkscape:window-y="-11"
     inkscape:window-maximized="1"
     inkscape:current-layer="svg14" />
  <path
     style="opacity:1;fill:#000000;fill-opacity:1;stroke:#aa8800;stroke-width:1;stroke-opacity:1"
     d="m 182.09628,406.12564 -75.0415,-61.29931 H 69.245207 31.435622 l -8.10679,-8.30601 -8.10681,-8.30603 v -66.76064 -66.76067 l 6.727238,-8.16513 6.727238,-8.16514 38.700388,-0.001 38.700374,-0.002 76.3101,-62.23922 76.31008,-62.239234 12.90317,10.024913 12.90316,10.024915 -0.12214,187.467696 -0.12214,187.46768 -11.79111,9.30883 c -6.48514,5.11984 -12.5875,9.29559 -13.56084,9.27942 -0.97332,-0.0145 -35.53834,-27.61405 -76.81116,-61.32871 z"
     id="path827"
     inkscape:connector-curvature="0" />
  <path
     style="opacity:1;fill:#000000;fill-opacity:1;stroke:#aa8800;stroke-width:1;stroke-opacity:1"
     d="m 328.61102,449.94023 -16.7298,-16.80768 24.90701,-24.85174 c 13.69883,-13.66844 24.90698,-25.71495 24.90698,-26.77 0,-1.05504 -11.21367,-13.15509 -24.91925,-26.88895 l -24.91925,-24.97068 16.80766,-16.72983 16.80768,-16.72979 24.8517,24.907 c 13.66843,13.69885 25.73893,24.90701 26.82333,24.90701 1.08438,0 13.15488,-11.20816 26.82331,-24.90701 l 24.8517,-24.907 16.80768,16.72979 16.80766,16.72983 -24.8936,24.94499 c -13.69148,13.71974 -24.89363,25.80731 -24.89363,26.8613 0,1.05398 11.20215,13.14156 24.89363,26.86131 l 24.8936,24.94498 -16.80766,16.72981 -16.80768,16.72983 -24.8517,-24.90704 c -13.66843,-13.69884 -25.71492,-24.907 -26.76997,-24.907 -1.05507,0 -13.15508,11.21367 -26.88892,24.91928 l -24.97067,24.91929 z"
     id="path837"
     inkscape:connector-curvature="0" />
</svg>
