<svg style="height:75px;width:75px;" viewBox="0 0 500 500" xmlns="http://www.w3.org/2000/svg" height="500" width="500" version="1.1"  id="Speaker-1-Off">
  <path style="opacity: 1; fill: rgb(224, 224, 0); fill-opacity: 1; stroke: yellow; stroke-width: 0px; stroke-opacity: 1;" d="m 182.09628,406.12564 -75.0415,-61.29931 H 69.245207 31.435622 l -8.10679,-8.30601 -8.10681,-8.30603 v -66.76064 -66.76067 l 6.727238,-8.16513 6.727238,-8.16514 38.700388,-0.001 38.700374,-0.002 76.3101,-62.23922 76.31008,-62.239234 12.90317,10.024913 12.90316,10.024915 -0.12214,187.467696 -0.12214,187.46768 -11.79111,9.30883 c -6.48514,5.11984 -12.5875,9.29559 -13.56084,9.27942 -0.97332,-0.0145 -35.53834,-27.61405 -76.81116,-61.32871 z" id="path827" class=""></path>
  <path style="opacity: 1; fill: rgb(255, 0, 0); fill-opacity: 1; stroke: yellow; stroke-width: 0px; stroke-opacity: 1;" d="m 328.61102,449.94023 -16.7298,-16.80768 24.90701,-24.85174 c 13.69883,-13.66844 24.90698,-25.71495 24.90698,-26.77 0,-1.05504 -11.21367,-13.15509 -24.91925,-26.88895 l -24.91925,-24.97068 16.80766,-16.72983 16.80768,-16.72979 24.8517,24.907 c 13.66843,13.69885 25.73893,24.90701 26.82333,24.90701 1.08438,0 13.15488,-11.20816 26.82331,-24.90701 l 24.8517,-24.907 16.80768,16.72979 16.80766,16.72983 -24.8936,24.94499 c -13.69148,13.71974 -24.89363,25.80731 -24.89363,26.8613 0,1.05398 11.20215,13.14156 24.89363,26.86131 l 24.8936,24.94498 -16.80766,16.72981 -16.80768,16.72983 -24.8517,-24.90704 c -13.66843,-13.69884 -25.71492,-24.907 -26.76997,-24.907 -1.05507,0 -13.15508,11.21367 -26.88892,24.91928 l -24.97067,24.91929 z" id="path837" class=""></path>
</svg>