<svg style="height:75px;width:75px;" viewBox="0 0 500 500" xmlns="http://www.w3.org/2000/svg" height="500" width="500" version="1.1"  id="Speaker-1-On">
  <path style="opacity: 1; fill: rgb(224, 224, 0); fill-opacity: 1; stroke: yellow; stroke-width: 0px; stroke-opacity: 1;" d="m 182.09628,406.12564 -75.0415,-61.29931 H 69.245207 31.435622 l -8.10679,-8.30601 -8.10681,-8.30603 v -66.76064 -66.76067 l 6.727238,-8.16513 6.727238,-8.16514 38.700388,-0.001 38.700374,-0.002 76.3101,-62.23922 76.31008,-62.239234 12.90317,10.024913 12.90316,10.024915 -0.12214,187.467696 -0.12214,187.46768 -11.79111,9.30883 c -6.48514,5.11984 -12.5875,9.29559 -13.56084,9.27942 -0.97332,-0.0145 -35.53834,-27.61405 -76.81116,-61.32871 z" id="path827" class=""></path>
  <path style="opacity: 1; fill: rgb(255, 127, 0); fill-opacity: 1; stroke: yellow; stroke-width: 0px; stroke-opacity: 1;" d="m 318.61728,367.77944 c -5.88953,-8.41244 -4.2733,-12.43913 6.91948,-17.23916 21.85899,-9.37425 41.58982,-31.29703 51.07056,-56.74405 7.56427,-20.30307 7.56427,-51.97716 0,-72.28027 -9.48074,-25.44702 -29.21157,-47.36978 -51.07056,-56.74403 -11.14225,-4.77838 -12.4684,-8.04083 -6.79182,-16.70844 4.48706,-6.85133 6.68985,-6.77268 23.33104,0.83298 27.65809,12.64078 48.26332,35.83808 59.71992,67.23241 5.58151,15.29495 6.36203,20.38967 6.36203,41.52723 0,21.13465 -0.78271,26.24524 -6.37369,41.61591 -11.21169,30.82307 -32.38768,54.63329 -59.70826,67.13576 -16.42121,7.51472 -19.05034,7.66843 -23.4587,1.37166 z" id="path831" class=""></path>
  <path style="opacity: 1; fill: rgb(255, 158, 31); fill-opacity: 1; stroke: yellow; stroke-width: 0px; stroke-opacity: 1;" d="m 342.4707,447.89331 c -6.07514,-6.55828 -6.47374,-9.09424 -2.72368,-17.32856 1.89949,-4.17089 7.7148,-8.15121 20.63248,-14.12198 50.40235,-23.29691 86.16553,-75.17181 93.40457,-135.48439 9.35392,-77.93303 -28.45341,-151.75986 -93.28262,-182.154124 -14.44958,-6.774475 -19.05152,-10.064104 -21.14183,-15.112878 -2.26258,-5.46494 -2.0721,-7.469303 1.24353,-13.084863 6.30828,-10.684061 13.1569,-10.69471 36.43219,-0.05666 43.76304,20.002103 79.72014,59.869385 97.94396,108.595015 19.18867,51.30538 19.1551,105.68067 -0.0968,156.64951 -18.48264,48.93249 -53.89114,88.62375 -96.75823,108.46148 -11.12328,5.14756 -22.48782,9.3758 -25.25455,9.3961 -2.76672,0.0207 -7.44632,-2.5711 -10.39909,-5.75868 z" id="path835" class=""></path>
</svg>