<svg style="height:75px;width:75px;" viewBox="0 0 500 500" xmlns="http://www.w3.org/2000/svg" height="500" width="500" version="1.1"  id="Speed-Boot-Stencil">
  <path style="opacity: 1; fill: rgb(128, 64, 0); fill-opacity: 1; stroke: yellow; stroke-width: 0px; stroke-opacity: 1;" d="m 156.9248,179.17729 -7.05738,-4.91115 -5.66559,-30.31669 c -4.13092,-22.1047 -5.59725,-31.75388 -5.41331,-35.6224 l 0.25229,-5.30568 86.1965,-13.915428 c 47.40807,-7.653487 86.40485,-13.587825 86.6595,-13.187419 1.5074,2.370212 3.82685,15.416212 7.31213,41.127997 l 3.95116,29.14865 -5.16688,7.07897 -5.16686,7.07896 -73.98412,11.89654 c -40.69127,6.54311 -74.18121,11.88356 -74.4221,11.86768 -0.24089,-0.0159 -3.6138,-2.2389 -7.49534,-4.94003 z" id="path828" inkscape:connector-curvature="0" class=""></path>
  <path style="opacity: 1; fill: rgb(160, 96, 0); fill-opacity: 1; stroke: yellow; stroke-width: 0px; stroke-opacity: 1;" d="m 13.263779,432.45265 c 0.791063,-6.3138 1.831675,-9.31084 7.96122,-22.92869 l 7.051225,-15.66551 14.798552,-12.05956 14.798563,-12.05956 13.933609,-2.12327 c 12.660413,-1.92925 14.732654,-2.04019 22.678175,-1.21418 4.80952,0.5 13.241477,0.90854 18.737697,0.90788 9.90048,-8.3e-4 10.12157,-0.044 23.85043,-4.61985 12.31697,-4.10528 15.00233,-5.35502 24.15843,-11.24315 9.40761,-6.04988 11.75583,-8.12789 27.07154,-23.95645 l 16.77041,-17.33195 0.54052,-13.27404 c 0.53611,-13.16554 0.50697,-13.47829 -3.56442,-38.2586 -3.77164,-22.95579 -4.41858,-25.7655 -7.96708,-34.60173 -2.12415,-5.28943 -5.71106,-12.78481 -7.9709,-16.65637 -2.50848,-4.29752 -3.71739,-7.12279 -3.10384,-7.25377 1.16459,-0.24862 119.65483,-19.35669 120.03195,-19.35669 0.13834,0 -0.22275,3.09184 -0.8024,6.87075 -0.57965,3.77891 -1.28959,12.86705 -1.57765,20.19586 -0.52342,13.31736 -0.52111,13.34103 3.98554,40.80811 4.27197,26.03685 4.73996,28.08611 8.89366,38.94392 l 4.3844,11.46088 9.50323,8.52677 c 8.07569,7.24588 10.42424,9.96546 15.6343,18.10417 3.37208,5.26758 8.46715,14.82417 11.32237,21.23688 4.66415,10.47547 5.39103,12.8775 7.15804,23.65431 1.08169,6.59718 1.8678,12.09003 1.7469,12.20634 -0.1209,0.11632 -78.35882,12.80015 -173.86204,28.18629 -95.503237,15.38615 -174.414031,28.15246 -175.357337,28.36961 -1.682802,0.38735 -1.697967,0.25803 -0.805094,-6.8684 z" id="path830" inkscape:connector-curvature="0" class=""></path>
  <path style="opacity: 1; fill: rgb(233, 233, 233); fill-opacity: 1; stroke: yellow; stroke-width: 0px; stroke-opacity: 1;" d="m 351.409,168.30873 c -15.00614,-4.35359 -16.63756,-5.00271 -16.46687,-6.55185 0.10418,-0.94572 2.30337,-6.65464 4.88702,-12.68647 l 4.69756,-10.96698 -4.35188,-27.18483 c -2.39355,-14.951658 -5.38069,-30.72979 -6.63811,-35.062521 l -2.28621,-7.877694 14.90121,-11.277139 c 11.69397,-8.849928 18.82454,-13.449567 33.12959,-21.370531 l 18.2284,-10.093395 27.70782,-4.005112 27.70782,-4.005112 9.621,3.222314 c 8.34828,2.796055 21.74555,8.955479 24.76638,11.386441 0.7209,0.58016 -0.49588,2.858513 -4.50812,8.440687 -4.16601,5.796205 -8.28354,10.054008 -17.01914,17.599139 -6.33803,5.474212 -11.52364,10.410485 -11.52364,10.969496 0,0.559012 3.76213,4.325017 8.36031,8.368901 6.28767,5.529754 9.08457,8.667602 11.28198,12.6572 2.52584,4.586007 2.76756,5.488644 1.78392,6.662545 -10.34764,12.348711 -9.44339,11.634891 -22.88365,18.066741 -11.42196,5.46602 -12.70045,6.28958 -12.70045,8.18121 0,1.82102 1.09565,2.66619 8.16156,6.2957 l 8.16154,4.19232 1.83225,5.68896 c 1.00774,3.12893 1.83226,5.89834 1.83226,6.15424 0,0.2559 -5.71522,3.85334 -12.70045,7.99428 -17.45584,10.34807 -26.45255,13.13789 -55.46466,17.19923 -11.61104,1.62541 -21.72977,2.92813 -22.48606,2.89494 -0.75628,-0.0332 -8.8704,-2.23492 -18.03138,-4.89271 z" id="path832" inkscape:connector-curvature="0" class=""></path>
  <path style="opacity: 1; fill: rgb(128, 64, 0); fill-opacity: 1; stroke: yellow; stroke-width: 0px; stroke-opacity: 1;" d="m 20.47633,481.19652 c -2.612255,-15.24448 -3.666765,-22.3282 -3.364159,-22.59893 0.646003,-0.57794 349.683789,-56.60839 350.092449,-56.19975 0.22633,0.22634 1.48463,6.94613 2.79622,14.93285 1.61594,9.83997 2.09108,14.5876 1.47383,14.72693 -0.50099,0.11308 -25.45815,4.14375 -55.46037,8.95703 -30.00221,4.81328 -55.29901,8.91929 -56.21511,9.12446 -1.42655,0.31952 -2.18436,-0.87646 -5.27961,-8.3324 -2.69607,-6.4944 -3.99515,-8.70548 -5.11473,-8.70548 -0.99549,0 -3.42369,2.99411 -7.21262,8.89357 -3.14154,4.89146 -5.91151,9.1853 -6.15548,9.54185 -0.37925,0.55429 -210.570452,34.86499 -213.586854,34.86499 -0.676445,0 -1.415753,-1.94984 -1.973566,-5.20512 z" id="path834" inkscape:connector-curvature="0" class=""></path>
</svg>