<svg style="height:75px;width:75px;" viewBox="0 0 500 500" xmlns="http://www.w3.org/2000/svg" height="500" width="500" version="1.1"  id="Star-1">
  <path style="opacity: 1; fill: rgb(255, 255, 0); fill-opacity: 1; stroke: yellow; stroke-width: 0px; stroke-opacity: 1;" d="m 99.239451,477.87632 c 0,-1.14472 6.937379,-37.96927 15.407479,-81.83236 8.4701,-43.86308 15.41258,-81.11269 15.42776,-82.77691 0.0146,-1.66422 -27.46611,-28.81938 -61.069675,-60.3448 C 35.401457,221.39684 7.6041003,194.93161 7.2330317,194.11062 6.8618418,193.28963 43.753534,188.05745 89.214408,182.48355 c 45.460992,-5.5739 84.209612,-11.31964 86.108182,-12.76833 1.89844,-1.44867 17.20405,-32.15471 34.01214,-68.23564 16.80822,-36.080914 32.81468,-69.977088 35.56988,-75.324818 l 5.00955,-9.723143 35.68876,76.611126 c 19.62887,42.136125 36.09345,77.104475 36.58801,77.707435 0.49455,0.60296 39.30436,5.81251 86.24381,11.57676 l 85.34467,10.48046 -61.57322,57.73012 c -35.8721,33.63318 -61.86268,59.94192 -62.26666,63.02907 -0.38151,2.9144 6.25571,41.10968 14.74913,84.87839 8.49353,43.76869 15.131,79.89127 14.74997,80.27232 -0.38115,0.38109 -34.09957,-17.77509 -74.92998,-40.34709 -40.83041,-22.57197 -74.59364,-41.03994 -75.02943,-41.03994 -0.6263,0 -140.78893,76.99918 -148.31764,81.47923 -1.06124,0.63145 -1.926136,0.21148 -1.922129,-0.93318 z" id="path822" class=""></path>
</svg>