<svg style="height:75px;width:75px;" viewBox="0 0 500 500" xmlns="http://www.w3.org/2000/svg" height="500" width="500" version="1.1"  id="Sword-Stencil-1">
  <path style="opacity: 1; fill: rgb(79, 79, 79); fill-opacity: 1; stroke: yellow; stroke-width: 0px; stroke-opacity: 1;" d="M 55.07264,478.28089 C 44.77215,468.57539 33.09457,457.50757 29.12245,453.68576 l -7.22204,-6.94875 4.20191,-10.77874 c 2.31107,-5.92831 4.50235,-10.63618 4.86954,-10.46194 1.09351,0.51894 63.794126,59.87541 63.784156,60.38224 -0.005,0.25625 -4.722026,2.62204 -10.482196,5.2573 l -10.47304,4.79138 z" id="path818" class=""></path>
  <path style="opacity: 1; fill: rgb(160, 0, 0); fill-opacity: 1; stroke: yellow; stroke-width: 0px; stroke-opacity: 1;" d="M 76.72927,441.97557 C 64.86869,430.7611 55.06784,421.31009 54.94961,420.97329 c -0.2861,-0.81497 54.73692,-59.05018 55.51512,-58.75603 0.33316,0.12593 10.33189,9.39638 22.21938,20.60101 l 21.61364,20.37205 -1.73219,1.93858 c -3.00778,3.36615 -53.991034,57.29998 -54.134594,57.26755 -0.0754,-0.0171 -9.841116,-9.20642 -21.701696,-20.42088 z" id="path816" class=""></path>
  <path style="opacity: 1; fill: rgb(79, 79, 79); fill-opacity: 1; stroke: yellow; stroke-width: 0px; stroke-opacity: 1;" d="M 254.70851,448.06795 C 241.10766,438.06706 216.95287,420.3569 201.03119,408.71203 172.44853,387.8071 171.78636,387.25966 148.63345,365.39292 L 125.18421,343.24628 82.56933,291.51524 39.95446,239.78419 57.75373,230.35087 c 13.92669,-7.38091 17.9699,-9.21064 18.58345,-8.40981 0.4313,0.56294 16.31075,20.7388 35.28768,44.83525 l 34.50349,43.81173 29.14761,27.58766 29.14759,27.58766 44.17234,30.84609 c 24.29477,16.96536 45.44904,31.76162 47.00945,32.88058 l 2.83713,2.03448 -9.09591,17.41186 c -5.00275,9.57653 -9.27892,17.39009 -9.50257,17.36344 -0.22367,-0.0267 -11.53463,-8.23097 -25.13548,-18.23186 z" id="path814" class=""></path>
  <path style="opacity: 1; fill: rgb(145, 145, 145); fill-opacity: 1; stroke: yellow; stroke-width: 0px; stroke-opacity: 1;" d="m 194.30535,320.71659 c -15.28371,-14.41592 -27.89264,-26.49821 -28.01983,-26.84954 -0.12719,-0.35133 15.11156,-24.93959 33.86391,-54.64059 l 34.09516,-54.0018 44.57083,-61.16497 44.57083,-61.164953 11.35278,-3.790757 C 390.12258,40.611131 483.369,10.34926 483.55762,10.806912 c 0.24491,0.594195 -41.77849,159.301218 -42.7918,161.609008 -0.31546,0.71845 -44.68315,36.32599 -98.59486,79.12787 -53.91172,42.80187 -102.98384,81.77304 -109.04917,86.60258 l -11.02787,8.78098 z" id="path834" class=""></path>
</svg>