<?xml version="1.0" encoding="UTF-8" standalone="no"?>
<svg
   xmlns:dc="http://purl.org/dc/elements/1.1/"
   xmlns:cc="http://creativecommons.org/ns#"
   xmlns:rdf="http://www.w3.org/1999/02/22-rdf-syntax-ns#"
   xmlns:svg="http://www.w3.org/2000/svg"
   xmlns="http://www.w3.org/2000/svg"
   xmlns:sodipodi="http://sodipodi.sourceforge.net/DTD/sodipodi-0.dtd"
   xmlns:inkscape="http://www.inkscape.org/namespaces/inkscape"
   height="500"
   version="1.1"
   width="500"
   id="svg16"
   sodipodi:docname="Trashcan-1.svg"
   inkscape:version="0.92.5 (2060ec1f9f, 2020-04-08)">
  <metadata
     id="metadata22">
    <rdf:RDF>
      <cc:Work
         rdf:about="">
        <dc:format>image/svg+xml</dc:format>
        <dc:type
           rdf:resource="http://purl.org/dc/dcmitype/StillImage" />
      </cc:Work>
    </rdf:RDF>
  </metadata>
  <defs
     id="defs20" />
  <sodipodi:namedview
     pagecolor="#ffffff"
     bordercolor="#666666"
     borderopacity="1"
     objecttolerance="10"
     gridtolerance="10"
     guidetolerance="10"
     inkscape:pageopacity="0"
     inkscape:pageshadow="2"
     inkscape:window-width="2400"
     inkscape:window-height="1256"
     id="namedview18"
     showgrid="false"
     inkscape:zoom="0.472"
     inkscape:cx="250"
     inkscape:cy="250"
     inkscape:window-x="-11"
     inkscape:window-y="-11"
     inkscape:window-maximized="1"
     inkscape:current-layer="svg16" />
  <path
     style="opacity:1;fill:#000000;fill-opacity:1;stroke:#000000;stroke-width:1;stroke-opacity:1"
     d="M 88.095712,485.5467 C 87.539441,482.72415 83.387699,424.47713 78.869596,356.10886 74.351492,287.74059 70.035895,222.82209 69.279378,211.84554 L 67.903826,191.88816 H 247.40539 426.90696 l -1.28867,17.67653 c -0.70872,9.72209 -4.94077,73.61421 -9.40451,141.98249 -4.46373,68.36826 -8.61967,127.64167 -9.23548,131.71867 l -1.11965,7.41275 H 247.48291 89.107164 Z m 77.784548,-35.13242 c 1.35509,-3.5314 -4.64784,-164.14923 -7.68025,-205.49651 L 156.81993,226.1008 H 138.8864 120.95287 l 0.0527,10.83401 c 0.13295,27.12766 8.96278,212.94988 10.21517,214.97621 0.77299,1.25074 8.56197,2.27409 17.30879,2.27409 12.68734,0 16.19582,-0.76253 17.35025,-3.77083 z m 99.53252,2.0602 c 0.5679,-0.94085 1.78907,-52.25981 2.71386,-114.04216 L 269.80805,226.1008 H 248.98162 228.1552 v 112.5216 c 0,61.88687 0.68427,113.20584 1.52056,114.04214 2.09773,2.09769 34.46019,1.92558 35.73702,-0.19 z m 98.51042,-0.65823 c 1.33012,-2.15228 10.02591,-185.25659 10.1551,-213.83326 l 0.0549,-12.06666 -18.81741,0.66244 -18.81751,0.66246 -5.07556,110.62088 c -2.79159,60.84149 -4.61995,111.90387 -4.06314,113.47195 1.26057,3.54995 34.39785,3.98696 36.56394,0.48219 z"
     id="path829"
     inkscape:connector-curvature="0" />
  <path
     style="opacity:1;fill:#000000;fill-opacity:1;stroke:#000000;stroke-width:1;stroke-opacity:1"
     d="m 44.962558,155.96489 c -0.544429,-0.94085 -1.691961,-11.97443 -2.550215,-24.51907 l -1.560402,-22.80843 15.580228,-13.933667 15.580228,-13.933674 175.609493,-0.01195 175.6095,-0.01195 15.51477,14.412129 15.51478,14.412142 -1.39386,16.63981 c -0.76664,9.15189 -1.90631,19.97554 -2.53256,24.05255 l -1.1387,7.41274 H 247.57409 c -110.89189,0 -202.067104,-0.76979 -202.611532,-1.71063 z"
     id="path831"
     inkscape:connector-curvature="0" />
  <path
     style="opacity:1;fill:#000000;fill-opacity:1;stroke:#000000;stroke-width:1;stroke-opacity:1"
     d="m 148.7153,59.122973 c -1.84323,-12.418116 -1.77605,-17.302502 0.27452,-19.957376 1.49323,-1.933353 6.73372,-8.390488 11.64553,-14.349189 l 8.93059,-10.834005 h 77.92461 77.92472 l 11.28433,14.255269 11.28422,14.255268 -1.96757,16.536113 -1.96756,16.536111 h -20.52261 -20.52273 l 0.78107,-12.357861 c 0.66683,-10.552392 -0.0269,-13.218217 -4.74871,-18.246743 l -5.52956,-5.888884 h -45.9341 -45.93421 l -6.2499,6.523319 c -5.71947,5.969684 -6.11791,7.518289 -4.69467,18.246743 l 1.55524,11.723426 H 171.7021 151.1557 Z"
     id="path833"
     inkscape:connector-curvature="0" />
</svg>
