<?xml version="1.0" encoding="UTF-8" standalone="no"?>
<svg
   xmlns:dc="http://purl.org/dc/elements/1.1/"
   xmlns:cc="http://creativecommons.org/ns#"
   xmlns:rdf="http://www.w3.org/1999/02/22-rdf-syntax-ns#"
   xmlns:svg="http://www.w3.org/2000/svg"
   xmlns="http://www.w3.org/2000/svg"
   xmlns:sodipodi="http://sodipodi.sourceforge.net/DTD/sodipodi-0.dtd"
   xmlns:inkscape="http://www.inkscape.org/namespaces/inkscape"
   height="500"
   version="1.1"
   width="500"
   id="svg12"
   sodipodi:docname="Two-Gears.svg"
   inkscape:version="0.92.5 (2060ec1f9f, 2020-04-08)">
  <metadata
     id="metadata18">
    <rdf:RDF>
      <cc:Work
         rdf:about="">
        <dc:format>image/svg+xml</dc:format>
        <dc:type
           rdf:resource="http://purl.org/dc/dcmitype/StillImage" />
      </cc:Work>
    </rdf:RDF>
  </metadata>
  <defs
     id="defs16" />
  <sodipodi:namedview
     pagecolor="#ffffff"
     bordercolor="#666666"
     borderopacity="1"
     objecttolerance="10"
     gridtolerance="10"
     guidetolerance="10"
     inkscape:pageopacity="0"
     inkscape:pageshadow="2"
     inkscape:window-width="2400"
     inkscape:window-height="1256"
     id="namedview14"
     showgrid="false"
     inkscape:zoom="1.3350176"
     inkscape:cx="250"
     inkscape:cy="250"
     inkscape:window-x="-11"
     inkscape:window-y="-11"
     inkscape:window-maximized="1"
     inkscape:current-layer="svg12" />
  <path
     style="opacity:1;fill:#000000;fill-opacity:1;stroke:#000000;stroke-width:0.99999988;stroke-opacity:1"
     d="m 158.4688,390.47093 c 0,-1.81462 -11.75874,-50.94073 -12.36913,-51.67621 -0.42276,-0.5094 -8.23694,-3.99937 -17.36484,-7.75551 l -16.59619,-6.82934 -14.23433,-10.97109 c -7.828878,-6.0341 -14.655399,-11.12906 -15.170059,-11.32214 -0.514649,-0.19306 -12.365193,3.14607 -26.334543,7.42033 -13.96935,4.27426 -25.653935,7.50349 -25.965755,7.1761 -0.788624,-0.82805 -21.8300836,-37.26173 -22.4447346,-38.86347 -0.3610709,-0.94094 4.8050796,-6.26837 18.6147096,-19.19581 10.512963,-9.84137 19.333809,-18.28113 19.601895,-18.755 0.268085,-0.47389 -0.599501,-9.03049 -1.927964,-19.0147 l -2.415375,-18.15307 2.377411,-18.13221 c 1.307586,-9.97272 2.061135,-18.13222 1.674568,-18.13222 -0.386567,0 -0.505661,-0.31907 -0.264637,-0.70904 0.241013,-0.38998 -8.235741,-8.77334 -18.837223,-18.62972 C 16.211121,137.07147 7.6409228,128.59019 7.7677241,128.08056 8.4053975,125.51759 30.282904,88.418066 31.170797,88.393982 c 0.567853,-0.01543 11.87095,3.293026 25.117994,7.352062 13.247044,4.059028 24.783164,7.380056 25.635807,7.380056 0.852654,0 2.833601,-1.04667 4.402114,-2.32593 1.568512,-1.279258 8.202363,-6.36648 14.741878,-11.30494 11.55848,-8.728628 12.32961,-9.158141 27.65225,-15.4021 8.66919,-3.532694 16.28733,-6.840285 16.92916,-7.350203 0.68071,-0.540796 3.65309,-11.775874 7.13323,-26.962331 l 5.96625,-26.035205 h 23.47811 23.47812 l 6.05063,26.296185 c 5.66513,24.62088 6.18478,26.364327 8.15664,27.36576 1.15833,0.588266 8.93257,3.888353 17.27609,7.333527 l 15.17006,6.263953 14.35005,11.046921 c 7.89253,6.075801 15.03438,11.053093 15.87077,11.060633 0.8364,0.008 12.41669,-3.327968 25.73398,-7.412271 13.3173,-4.084314 24.66208,-7.253789 25.21061,-7.043296 0.92452,0.354778 23.38496,38.564337 23.38496,39.782367 0,0.30107 -8.85371,8.7882 -19.67489,18.8603 -16.00929,14.90107 -19.60611,18.64121 -19.30576,20.07502 0.20302,0.96917 1.33708,9.32668 2.52014,18.57225 l 2.15101,16.81014 -2.41652,18.04014 c -1.32909,9.92209 -2.18874,18.44301 -1.91032,18.93539 0.27842,0.49237 9.10715,8.9336 19.61942,18.75828 11.76762,10.99795 18.95031,18.28762 18.68933,18.96771 -0.57188,1.49034 -21.79651,38.30042 -22.52175,39.05973 -0.31538,0.33018 -12.0006,-2.89753 -25.96717,-7.17271 -13.96656,-4.27518 -25.84211,-7.60614 -26.39011,-7.40212 -0.548,0.20401 -7.36266,5.27675 -15.14366,11.27273 l -14.1473,10.90182 -17.22732,7.11331 -17.22731,7.1133 -6.10496,26.30196 -6.10496,26.30196 h -23.63928 c -13.00162,0 -23.63929,-0.21485 -23.63929,-0.47745 z m 45.39243,-107.40194 c 9.07324,-2.45832 12.33728,-3.82086 20.69856,-8.64039 19.58626,-11.28976 32.3566,-28.22661 38.36927,-50.88783 2.6219,-9.88167 2.96012,-12.28936 2.96012,-21.07225 0,-8.79582 -0.3312,-11.1457 -2.93216,-20.80387 -4.22492,-15.68839 -10.05663,-25.97179 -21.19896,-37.3814 -10.96312,-11.22608 -22.16698,-17.89937 -36.9429,-22.00409 -9.23171,-2.56455 -10.66159,-2.73765 -22.56628,-2.73181 -11.80614,0.005 -13.41239,0.19782 -22.58585,2.70011 -20.86916,5.69255 -38.7056,19.58616 -49.80232,38.79329 -4.40028,7.61639 -5.76564,10.95886 -8.26178,20.22529 -2.675058,9.93058 -2.990348,12.16213 -2.990348,21.16554 0,8.93238 0.33063,11.31547 2.939148,21.18506 4.02714,15.23701 10.44891,26.64326 21.17222,37.60578 10.24408,10.47258 22.58333,17.66137 37.42119,21.80142 9.32528,2.60192 11.21036,2.85585 21.58294,2.90731 10.55527,0.0524 12.13292,-0.15159 22.13715,-2.86216 z"
     id="path828"
     inkscape:connector-curvature="0" />
  <path
     style="opacity:1;fill:#000000;fill-opacity:1;stroke:#000000;stroke-width:0.99999988;stroke-opacity:1"
     d="m 382.00106,475.20405 c -1.69577,-7.32881 -3.25048,-13.93159 -3.45491,-14.67284 -0.225,-0.81585 -4.16328,-2.90945 -9.97917,-5.30497 -9.15613,-3.77134 -11.01269,-4.94879 -25.32,-16.05832 -0.60278,-0.46805 -5.86386,0.78048 -14.3297,3.40066 -7.35747,2.27713 -13.77692,4.14024 -14.26546,4.14024 -0.48854,0 -3.59232,-4.67809 -6.8973,-10.39575 l -6.00905,-10.39575 3.59693,-3.30297 c 1.97831,-1.81663 6.85787,-6.34898 10.84346,-10.07189 l 7.24652,-6.76892 -1.38156,-10.25956 c -1.38024,-10.24965 -1.26966,-13.55561 0.93168,-27.8527 l 0.49223,-3.19693 -10.77489,-10.33317 -10.7749,-10.33317 5.86444,-10.25008 c 3.22544,-5.63755 5.94645,-10.34735 6.04668,-10.46624 0.10028,-0.11888 6.23501,1.63079 13.63282,3.88816 7.39781,2.25736 13.8772,4.10739 14.39865,4.11118 0.52144,0.003 4.7673,-2.86842 9.43523,-6.38268 6.52326,-4.91103 10.54232,-7.21554 17.36881,-9.95914 6.11988,-2.45963 9.11393,-4.1063 9.62861,-5.29555 0.61751,-1.42687 6.48942,-26.03598 6.48942,-27.19708 0,-0.19749 5.5208,-0.35906 12.26843,-0.35906 h 12.26845 l 0.7709,3.07502 c 0.42399,1.69126 2.00646,8.22771 3.51662,14.52544 l 2.74571,11.45042 9.38341,3.8506 c 7.26597,2.98167 11.22356,5.25514 17.53794,10.07476 4.48498,3.42328 8.59373,6.22414 9.13054,6.22414 0.53683,0 7.0141,-1.83596 14.39396,-4.07992 7.37986,-2.24396 13.49358,-3.99673 13.58609,-3.89504 1.10237,1.21207 11.8461,20.55943 11.6605,20.99828 -0.1387,0.32794 -4.98486,5.00297 -10.76924,10.38898 -9.54727,8.88975 -10.47503,10.00291 -10.06124,12.07184 0.25071,1.2535 0.88735,6.23621 1.41476,11.07269 0.81427,7.46688 0.75326,10.21639 -0.40431,18.22369 l -1.36326,9.43007 10.81518,10.36917 10.81518,10.36918 -5.67964,9.99714 c -3.1238,5.49842 -6.10506,10.17535 -6.62501,10.39317 -0.51996,0.21781 -7.07851,-1.49212 -14.57454,-3.79985 l -13.62917,-4.19586 -8.38554,6.47172 c -6.74032,5.20199 -10.26718,7.23894 -17.9761,10.38217 l -9.59056,3.91045 -1.32855,5.85161 c -0.73069,3.21839 -2.25762,9.8184 -3.39318,14.66669 l -2.06465,8.81507 h -12.084 -12.08399 z m 27.35255,-44.94049 c 8.30703,-2.302 15.07033,-6.28733 21.08384,-12.42384 9.08,-9.26573 13.39236,-19.88056 13.39236,-32.96513 0,-21.28247 -14.16164,-39.99207 -34.14848,-45.11517 -7.05105,-1.80735 -19.02169,-1.68188 -25.85035,0.27095 -24.18643,6.91673 -38.38267,32.35265 -31.92685,57.20451 6.41511,24.69505 32.79444,39.86098 57.44948,33.02868 z"
     id="path830"
     inkscape:connector-curvature="0" />
</svg>
