<svg style="height:75px;width:75px;" viewBox="0 0 500 500" xmlns="http://www.w3.org/2000/svg" height="500" width="500" version="1.1"  id="Two-People-1">
  <path style="opacity: 1; fill: rgb(79, 79, 79); fill-opacity: 1; stroke: yellow; stroke-width: 0px; stroke-opacity: 1;" d="m 309.84429,330.05016 -13.30636,-2.01873 -14.21978,-6.54953 -14.2199,-6.54953 -12.18635,-10.40365 -12.18636,-10.40363 -9.36758,-13.54395 -9.36758,-13.54393 -5.93558,-15.93961 -5.93558,-15.93961 -2.04178,-17.02676 -2.04167,-17.02677 2.03778,-17.05072 2.03777,-17.05073 5.85226,-15.76297 5.85215,-15.76297 9.46177,-13.72026 9.46177,-13.72027 12.12387,-10.364178 12.12387,-10.364178 14.26041,-6.582811 14.26053,-6.582823 15.16421,-2.236683 15.16422,-2.236671 15.13058,2.199139 15.13068,2.199139 14.24553,6.544706 14.24565,6.544707 12.29177,10.495787 12.29176,10.495796 8.98772,13.05804 c 4.94319,7.18191 9.30338,13.65943 9.6893,14.39447 0.38581,0.73504 3.24842,8.23759 6.36111,16.67235 l 5.65964,15.33595 1.94026,16.79449 1.94026,16.79448 -1.90627,16.55025 -1.90638,16.55024 -6.01661,16.28408 -6.01673,16.2841 -9.48775,13.72616 -9.48775,13.72617 -12.17022,10.35059 -12.17011,10.35061 -14.14264,6.51465 -14.14264,6.51466 -14.04536,2.0683 c -7.725,1.13757 -15.40938,2.04188 -17.07645,2.00958 -1.66707,-0.0323 -9.01885,-0.96717 -16.33744,-2.07748 z" id="path839" class=""></path>
  <path style="opacity: 1; fill: rgb(79, 79, 79); fill-opacity: 1; stroke: yellow; stroke-width: 0px; stroke-opacity: 1;" d="m 94.312368,244.23703 c -6.773581,-1.02092 -8.463772,-1.54438 -15.931604,-4.93393 -7.68128,-3.48649 -8.946863,-4.30443 -15.715523,-10.15764 -6.283164,-5.43323 -8.148463,-7.49571 -12.733082,-14.07854 -4.658325,-6.68856 -5.820674,-8.90244 -8.753329,-16.67235 -3.096318,-8.20342 -3.494945,-9.84237 -4.722417,-19.41778 l -1.340661,-10.45811 1.340661,-10.45812 c 1.227472,-9.57541 1.626099,-11.21436 4.722417,-19.41778 2.932655,-7.76991 4.095004,-9.98379 8.753329,-16.67235 4.584619,-6.58282 6.449918,-8.64531 12.733082,-14.07854 6.773352,-5.85727 8.028864,-6.66835 15.715523,-10.152956 7.830408,-3.549738 8.904975,-3.866836 17.140534,-5.058377 l 8.786402,-1.27123 8.99218,1.335009 c 8.51551,1.264225 9.42332,1.536259 17.122,5.130752 7.23584,3.378342 8.9472,4.494442 15.56216,10.149162 6.6256,5.66386 8.01295,7.21092 12.78275,14.25453 4.73135,6.98699 5.75647,9.01423 8.86011,17.5218 3.22977,8.85337 3.59486,10.38222 4.5781,19.16938 1.02054,9.12007 1.02054,9.97736 0,19.09743 -0.98324,8.78716 -1.34833,10.31602 -4.5781,19.16938 -3.10364,8.50757 -4.12876,10.53481 -8.86011,17.52179 -4.7698,7.04362 -6.15715,8.59068 -12.78275,14.25455 -6.60969,5.65021 -8.32941,6.77227 -15.5379,10.13783 -7.5531,3.52648 -8.68763,3.87236 -16.64497,5.0741 -9.93193,1.49996 -9.61799,1.49976 -19.488802,0.012 z" id="path841" class=""></path>
  <path style="opacity: 1; fill: rgb(79, 79, 79); fill-opacity: 1; stroke: yellow; stroke-width: 0px; stroke-opacity: 1;" d="m 12.873287,302.95857 c 2.333969,-7.9186 3.012655,-9.14751 9.597508,-17.37657 6.004595,-7.50392 7.467489,-8.92666 14.851772,-14.44388 7.979078,-5.96162 8.468236,-6.22388 18.894931,-10.13063 l 10.703778,-4.01059 7.607689,3.0355 c 4.184275,1.66952 11.424581,3.9968 16.089544,5.17172 7.549663,1.90146 9.350753,2.13622 16.389971,2.13622 7.14062,0 8.71796,-0.21253 16.24657,-2.18899 4.58599,-1.20393 11.77995,-3.52797 15.98631,-5.16455 l 7.6482,-2.97558 10.84078,4.11994 c 10.46423,3.97684 11.11453,4.32513 18.72131,10.02672 7.10411,5.32481 8.57135,6.77043 14.89137,14.67248 6.63464,8.29547 7.09804,9.05739 8.63831,14.20319 0.89511,2.99062 1.62747,5.58833 1.62747,5.77271 0,0.18437 -42.67663,0.33522 -94.83677,0.33522 H 11.935258 Z" id="path843" class=""></path>
  <path style="opacity: 1; fill: rgb(79, 79, 79); fill-opacity: 1; stroke: yellow; stroke-width: 0px; stroke-opacity: 1;" d="m 165.84332,421.40482 c 0,-0.29359 1.35096,-5.08415 3.00224,-10.64568 l 3.00224,-10.11189 11.66756,-14.59401 11.66744,-14.59402 11.85125,-8.90859 c 6.51824,-4.89973 12.94241,-9.61933 14.27598,-10.48802 1.33368,-0.86867 10.39442,-4.57386 20.1351,-8.23376 l 17.71015,-6.65435 12.78047,5.08563 c 9.94257,3.9564 15.95403,5.89577 27.07338,8.73421 l 14.29291,3.64856 h 12.3689 12.36891 l 14.37841,-3.62249 c 11.49142,-2.89511 16.95306,-4.65095 27.20042,-8.74446 l 12.82189,-5.12198 18.38117,6.95772 18.38117,6.95771 13.68804,10.25499 13.68805,10.25499 11.44896,14.37061 11.44896,14.37059 2.84567,9.27736 c 1.56522,5.10255 3.01873,9.96662 3.23011,10.80903 l 0.38444,1.53167 H 325.89023 c -91.81118,0 -160.04691,-0.22758 -160.04691,-0.53382 z" id="path847" class=""></path>
</svg>