<?xml version="1.0" encoding="UTF-8" standalone="no"?>
<svg
   viewBox="0 0 500 500"
   xmlns:dc="http://purl.org/dc/elements/1.1/"
   xmlns:cc="http://creativecommons.org/ns#"
   xmlns:rdf="http://www.w3.org/1999/02/22-rdf-syntax-ns#"
   xmlns:svg="http://www.w3.org/2000/svg"
   xmlns="http://www.w3.org/2000/svg"
   xmlns:sodipodi="http://sodipodi.sourceforge.net/DTD/sodipodi-0.dtd"
   xmlns:inkscape="http://www.inkscape.org/namespaces/inkscape"
   height="500"
   version="1.1"
   width="500"
   id="svg18"
   sodipodi:docname="Brownie.svg"
   inkscape:version="0.92.5 (2060ec1f9f, 2020-04-08)">
  <metadata
     id="metadata24">
    <rdf:RDF>
      <cc:Work
         rdf:about="">
        <dc:format>image/svg+xml</dc:format>
        <dc:type
           rdf:resource="http://purl.org/dc/dcmitype/StillImage" />
      </cc:Work>
    </rdf:RDF>
  </metadata>
  <defs
     id="defs22" />
  <sodipodi:namedview
     pagecolor="#ffffff"
     bordercolor="#666666"
     borderopacity="1"
     objecttolerance="10"
     gridtolerance="10"
     guidetolerance="10"
     inkscape:pageopacity="0"
     inkscape:pageshadow="2"
     inkscape:window-width="1920"
     inkscape:window-height="986"
     id="namedview20"
     showgrid="false"
     inkscape:snap-global="false"
     inkscape:zoom="0.763"
     inkscape:cx="-195.06299"
     inkscape:cy="250"
     inkscape:window-x="2389"
     inkscape:window-y="-11"
     inkscape:window-maximized="1"
     inkscape:current-layer="svg18" />
  <path
     style="opacity:1;fill:#d45500;fill-opacity:1;stroke:#ffcc00;stroke-width:1;stroke-opacity:1"
     d=""
     id="path859"
     inkscape:connector-curvature="0" />
  <g
     id="crunch"
     inkscape:label="#g1036"
     transform="translate(633.02752,35.386632)">
    <path
       inkscape:connector-curvature="0"
       id="path878-6"
       d="m -314.53901,86.800348 c 0,-0.208642 2.29293,-4.682473 5.09543,-9.941849 2.80248,-5.259402 5.09655,-10.112492 5.09793,-10.78467 0.002,-1.149278 -21.66867,-28.598118 -23.83139,-30.185161 -0.6024,-0.442052 -4.29309,-0.221655 -9.24032,0.551799 -4.53052,0.708288 -8.4389,1.144206 -8.68526,0.968668 -0.63106,-0.449588 -4.66897,-12.632039 -4.67967,-14.118642 -0.003,-0.720615 6.42473,-3.961916 15.57875,-7.853173 l 15.5876,-6.6261 23.77995,1.209094 23.77995,1.209072 19.27559,14.189105 19.27555,14.189098 3.18692,13.03704 c 1.75281,7.170386 3.45055,13.834743 3.77274,14.809703 0.52446,1.586982 -1.17571,2.400081 -16.23165,7.762741 -14.4122,5.133391 -17.9517,6.06821 -24.74765,6.536229 -8.19437,0.564323 -41.5258,4.272197 -45.03193,5.009481 -1.09039,0.229282 -1.98254,0.246169 -1.98254,0.03768 z"
       style="opacity:1;fill:#d4aa00;fill-opacity:1;stroke:#d4aa00;stroke-width:1;stroke-opacity:1" />
    <path
       inkscape:connector-curvature="0"
       id="path892-09"
       d="m -319.29328,74.98801 c -12.23621,-13.241982 -22.13368,-26.846155 -26.08873,-35.859111 l -2.94363,-6.708055 9.2035,-1.144666 9.20349,-1.144674 18.39931,17.338814 c 10.11965,9.536368 18.37836,17.913391 18.35272,18.615606 -0.0972,2.665192 -12.34534,19.812882 -14.15172,19.812882 -1.0411,0 -6.42981,-4.90987 -11.97494,-10.910796 z"
       style="opacity:1;fill:#800000;fill-opacity:1;stroke:#aa8800;stroke-width:1;stroke-opacity:1" />
    <path
       inkscape:connector-curvature="0"
       id="path878-6-5"
       d="m -422.17267,338.98045 c 0.28627,-0.0625 6.80385,1.23767 14.48389,2.89134 7.68014,1.65365 14.71805,2.8408 15.64003,2.63795 1.57624,-0.34688 35.5931,-33.84969 37.40789,-36.84275 0.50462,-0.83447 -0.4135,-5.05082 -2.30077,-10.55828 -1.72829,-5.04365 -2.97912,-9.4479 -2.77968,-9.7872 0.51122,-0.86917 16.54096,-9.26122 18.57772,-9.72574 0.9875,-0.22296 6.50629,6.25291 13.37165,15.69554 l 11.69065,16.07896 2.3159,27.97123 2.31587,27.9713 -16.23517,26.68995 -16.23521,26.68987 -17.34399,7.66398 c -9.53927,4.21516 -18.39382,8.21261 -19.67683,8.88306 -2.08839,1.09153 -3.48744,-0.63516 -13.3568,-16.48078 -9.4473,-15.16854 -11.3208,-18.99276 -13.09814,-26.73914 -2.14315,-9.34035 -12.79745,-46.90371 -14.39427,-50.74933 -0.49665,-1.19599 -0.66891,-2.22651 -0.38286,-2.28992 z"
       style="opacity:1;fill:#d4aa00;fill-opacity:1;stroke:#d4aa00;stroke-width:1;stroke-opacity:1" />
    <path
       inkscape:connector-curvature="0"
       id="path892-09-5"
       d="m -405.6181,329.86956 c 18.46897,-18.23065 37.95525,-33.85667 51.3636,-41.1886 l 9.97939,-5.45685 3.56185,10.33524 3.56199,10.33531 -23.72763,26.63057 c -13.05014,14.64688 -24.63461,26.781 -25.74324,26.96485 -4.20749,0.69764 -33.50503,-8.30521 -33.85106,-10.40199 -0.19939,-1.20852 6.48541,-8.95683 14.85505,-17.21845 z"
       style="opacity:1;fill:#782121;fill-opacity:1;stroke:#aa8800;stroke-width:1;stroke-opacity:1" />
    <path
       inkscape:connector-curvature="0"
       id="path878-6-5-4"
       d="m -535.44865,230.36281 c 0.0956,0.24907 1.13653,6.87118 2.31135,14.71832 1.17493,7.8472 2.38971,14.92175 2.6998,15.72124 0.53017,1.36691 22.92771,21.62961 24.63041,22.28255 0.47432,0.18122 2.02632,-2.18394 3.88591,-5.92329 1.70295,-3.42436 3.25288,-6.17056 3.44458,-6.10202 0.49063,0.17463 7.9305,12.34854 8.6224,14.10901 0.33456,0.8543 -1.04803,8.3704 -3.35198,18.21256 l -3.92295,16.75963 -11.21547,12.11952 -11.21555,12.1194 -15.19586,-5.87201 -15.19582,-5.87209 -7.45355,-13.67472 c -4.09944,-7.52111 -7.94034,-14.47239 -8.53528,-15.44716 -0.96859,-1.58656 -0.58225,-3.52223 3.68629,-18.47727 4.08613,-14.31579 5.2402,-17.44448 8.06942,-21.87474 3.41133,-5.34194 16.63479,-28.74907 17.86528,-31.62386 0.38257,-0.89422 0.77469,-1.42271 0.87104,-1.17492 z"
       style="opacity:1;fill:#d4aa00;fill-opacity:1;stroke:#d4aa00;stroke-width:1;stroke-opacity:1" />
    <path
       inkscape:connector-curvature="0"
       id="path892-09-5-2"
       d="m -525.03113,241.77606 c 10.33789,9.85856 19.89119,21.70219 25.18147,31.21819 l 3.93736,7.08254 -3.20341,7.43521 -3.20311,7.43617 -14.48551,-11.38341 c -7.96703,-6.26083 -14.71368,-12.16515 -14.99261,-13.1208 -1.0586,-3.62662 -3.22915,-34.41767 -2.50797,-35.57663 0.4157,-0.66787 4.58888,2.441 9.27372,6.90866 z"
       style="opacity:1;fill:#782121;fill-opacity:1;stroke:#aa8800;stroke-width:0.99999994;stroke-opacity:1" />
    <path
       inkscape:connector-curvature="0"
       id="path878-6-5-8"
       d="m -541.74886,60.332557 c 0.10883,0.133656 1.85289,3.644383 3.87532,7.802172 2.02242,4.15781 3.96414,7.911625 4.31502,8.341873 0.59994,0.735581 20.55427,12.146473 21.94353,12.54837 0.38696,0.111316 1.22783,-1.074853 2.1046,-2.972058 0.80313,-1.737158 1.58737,-3.123817 1.74299,-3.081335 0.39842,0.108765 7.80953,6.754709 8.58911,7.702461 0.37739,0.459846 0.40646,4.354797 0.0692,9.438 l -0.57423,8.65586 -6.78964,5.96735 -6.78967,5.96743 -12.40556,-3.6102 -12.40551,-3.61022 -7.63736,-7.43384 c -4.20056,-4.08868 -8.12252,-7.869261 -8.71534,-8.401436 -0.96488,-0.86635 -0.94956,-1.868135 0.14689,-9.565256 1.04981,-7.368015 1.47782,-8.969205 2.99316,-11.194817 1.82685,-2.683805 8.52101,-14.502882 9.04365,-15.968196 0.16262,-0.455693 0.38488,-0.719379 0.49399,-0.585839 z"
       style="opacity:1;fill:#d4aa00;fill-opacity:1;stroke:#d4aa00;stroke-width:1.00000012;stroke-opacity:1" />
    <path
       inkscape:connector-curvature="0"
       id="path892-09-5-4"
       d="m -534.34558,66.538973 c 10.08778,4.999858 19.75921,10.894284 25.49283,15.536997 l 4.26734,3.455472 -1.78519,3.340761 -1.78522,3.340827 -13.82441,-5.872854 c -7.60345,-3.230044 -14.11919,-6.246171 -14.4795,-6.702524 -1.3674,-1.731926 -7.15564,-16.169744 -6.68794,-16.681805 0.27016,-0.294589 4.23056,1.31732 8.80208,3.583137 z"
       style="opacity:1;fill:#800000;fill-opacity:1;stroke:#aa8800;stroke-width:1.00000012;stroke-opacity:1" />
    <path
       inkscape:connector-curvature="0"
       id="path950"
       d="m -390.65891,423.97969 c -12.23875,-18.67056 -13.59852,-21.81655 -21.08248,-48.77646 l -7.05251,-25.40576 3.21871,0.96781 c 26.21907,7.88367 27.95162,8.25218 30.26836,6.43807 2.7083,-2.12073 19.9576,-20.62545 37.29992,-40.01464 11.34419,-12.6831 11.65108,-13.1871 10.29315,-16.90417 -0.7698,-2.10722 -2.55743,-7.05647 -3.97249,-10.99833 l -2.57284,-7.16701 -7.14918,4.17894 c -8.24095,4.81712 -7.79468,4.67248 -7.79468,2.52636 0,-1.68333 15.16019,-10.29972 18.12194,-10.29972 1.60609,0 13.57844,14.79483 20.94136,25.8783 l 3.7932,5.70993 2.36467,27.31953 2.36466,27.31955 -16.08839,26.72735 -16.08837,26.72736 -18.38492,8.11704 c -10.11171,4.46435 -18.90398,8.43653 -19.5384,8.82703 -0.63441,0.3905 -4.65819,-4.63654 -8.94171,-11.17118 z"
       style="opacity:1;fill:#a02c2c;fill-opacity:1;stroke:#aa8800;stroke-width:1;stroke-opacity:1" />
    <path
       inkscape:connector-curvature="0"
       id="path952"
       d="m -535.61845,337.88622 -14.53583,-5.74124 -7.88806,-14.53868 c -4.33844,-7.99628 -7.88806,-15.46248 -7.88806,-16.59154 0,-2.30857 5.64165,-22.53142 8.34859,-29.92606 0.9718,-2.65466 5.17998,-10.62173 9.35152,-17.70458 4.17155,-7.08286 8.72466,-15.25176 10.11803,-18.15311 l 2.5334,-5.27519 0.653,9.88986 c 1.55001,23.47533 2.46544,30.75422 4.08556,32.48546 1.95428,2.08834 25.91448,21.41983 27.74941,22.38871 0.90138,0.47594 2.31016,-1.74578 4.50486,-7.10444 l 3.19332,-7.79693 -1.74625,-3.05467 c -0.96044,-1.68008 -1.74625,-3.6378 -1.74625,-4.35051 0,-1.80362 3.98292,3.52831 6.77128,9.06469 l 2.32013,4.6067 -2.23461,10.49857 c -5.12203,24.06417 -4.40913,22.52071 -16.40168,35.51037 -5.96226,6.45799 -11.24819,11.69502 -11.7465,11.63783 -0.49831,-0.0572 -7.44714,-2.68755 -15.44186,-5.84524 z"
       style="opacity:1;fill:#a02c2c;fill-opacity:1;stroke:#aa8800;stroke-width:1;stroke-opacity:1" />
    <path
       inkscape:connector-curvature="0"
       id="path954"
       d="m -553.91306,88.22454 c 1.2346,-8.444123 9.25176,-24.423706 10.8519,-21.629541 0.45343,0.791776 1.98911,4.194012 3.41272,7.560565 2.58366,6.110066 2.61317,6.132035 16.59153,12.351603 7.70185,3.426882 14.50652,5.9101 15.12149,5.518306 0.61512,-0.391648 1.71849,-1.779879 2.45221,-3.084617 1.10317,-1.961444 1.77633,-1.953765 3.88968,0.04564 2.43996,2.30842 2.75319,5.302243 1.74615,16.688324 -0.12793,1.44832 -3.09009,5.28335 -6.58227,8.52222 l -6.34935,5.88885 -12.28414,-3.22196 c -11.13251,-2.91985 -12.93341,-3.85394 -19.20911,-9.9631 -3.80869,-3.70768 -7.80617,-7.578439 -8.88338,-8.601596 -1.33388,-1.266742 -1.57531,-4.480491 -0.75743,-10.074645 z"
       style="opacity:1;fill:#a02c2c;fill-opacity:1;stroke:#aa8800;stroke-width:1;stroke-opacity:1" />
    <path
       inkscape:connector-curvature="0"
       id="path956"
       d="m -304.52983,85.142208 c 0,-0.256032 2.6807,-4.275912 5.95713,-8.93306 3.93467,-5.592792 5.67574,-9.229427 5.12828,-10.711644 -0.45586,-1.234251 -8.51358,-9.57709 -17.90604,-18.539641 -16.53369,-15.776938 -17.23838,-16.294802 -22.14249,-16.272135 -2.78594,0.01288 -7.14927,0.330475 -9.69631,0.705774 -4.50267,0.663457 -4.66802,0.567041 -5.96789,-3.480043 -1.25491,-3.907035 -1.06875,-4.325752 3.03435,-6.824861 2.4042,-1.46435 9.31362,-4.742727 15.35427,-7.285281 l 10.983,-4.6228261 23.91806,1.1344661 23.91806,1.134467 5.06806,3.830399 c 2.78744,2.106718 11.3409,8.429977 19.00771,14.051685 l 13.93963,10.221288 3.57021,14.582953 3.57021,14.582952 -4.76709,2.009446 c -16.42035,6.921583 -28.03563,9.782728 -48.00723,11.825409 -10.94162,1.119106 -21.03418,2.264555 -22.4279,2.545447 -1.39371,0.280892 -2.53402,0.301237 -2.53402,0.04521 z"
       style="opacity:1;fill:#a02c2c;fill-opacity:1;stroke:#aa8800;stroke-width:1;stroke-opacity:1" />
    <path
       inkscape:connector-curvature="0"
       id="path878-6-5-8-2"
       d="m -259.51391,191.32112 c -0.10779,-0.1347 -1.79976,-3.67094 -3.76121,-7.85782 -1.96174,-4.18682 -3.84889,-7.96836 -4.1935,-8.40372 -0.58913,-0.74424 -20.37583,-12.44343 -21.75906,-12.86563 -0.3851,-0.11724 -1.24308,1.05728 -2.14737,2.94128 -0.82811,1.72543 -1.63267,3.10042 -1.78747,3.05579 -0.39683,-0.11418 -7.71058,-6.8674 -8.47633,-7.82638 -0.37023,-0.46559 -0.3434,-4.3602 0.0676,-9.43801 l 0.69992,-8.64656 6.87559,-5.8681 6.87564,-5.8682 12.35181,3.79 12.35178,3.78993 7.52865,7.54397 c 4.14045,4.14944 8.00737,7.98637 8.59239,8.52707 0.95237,0.88012 0.92201,1.88188 -0.28599,9.56212 -1.15677,7.35202 -1.60782,8.94686 -3.15543,11.1502 -1.86595,2.65678 -8.73074,14.3776 -9.27462,15.83524 -0.16909,0.45328 -0.39455,0.71409 -0.5022,0.57867 z"
       style="opacity:1;fill:#d4aa00;fill-opacity:1;stroke:#d4aa00;stroke-width:1.00000012;stroke-opacity:1" />
    <path
       inkscape:connector-curvature="0"
       id="path892-09-5-4-4"
       d="m -266.82633,185.00783 c -10.01412,-5.14582 -19.59897,-11.18007 -25.26459,-15.90554 l -4.21665,-3.51707 1.83344,-3.31444 1.8334,-3.31468 13.73772,6.0729 c 7.55575,3.34008 14.02704,6.45056 14.38063,6.91209 1.34182,1.75189 6.92022,16.27202 6.44506,16.77718 -0.27357,0.29145 -4.21097,-1.37865 -8.74914,-3.71057 z"
       style="opacity:1;fill:#800000;fill-opacity:1;stroke:#aa8800;stroke-width:1.00000012;stroke-opacity:1" />
    <path
       inkscape:connector-curvature="0"
       id="path954-6"
       d="m -246.94609,163.60872 c -1.35711,8.42529 -9.60533,24.28678 -11.16475,21.46961 -0.44215,-0.79806 -1.92847,-4.22229 -3.30248,-7.60931 -2.49517,-6.14679 -2.52387,-6.16932 -16.4105,-12.59125 -7.65123,-3.53827 -14.41909,-6.12017 -15.03982,-5.73727 -0.62051,0.38281 -1.74387,1.75496 -2.4967,3.04867 -1.13133,1.94524 -1.80465,1.92767 -3.88867,-0.10216 -2.40621,-2.34353 -2.6759,-5.34171 -1.50361,-16.71187 0.14896,-1.4464 3.16652,-5.23796 6.70537,-8.42574 l 6.43412,-5.79609 12.23607,3.40003 c 11.08902,3.08114 12.8761,4.04132 19.06243,10.24097 3.75475,3.76236 7.69554,7.6908 8.75755,8.72972 1.31518,1.28608 1.51044,4.5027 0.6109,10.08457 z"
       style="opacity:1;fill:#a02c2c;fill-opacity:1;stroke:#aa8800;stroke-width:1;stroke-opacity:1" />
    <path
       inkscape:connector-curvature="0"
       id="path878-6-5-8-26"
       d="m -257.85639,296.48974 c 0.1712,-0.02 4.06923,0.39525 8.66252,0.92334 4.59335,0.5281 8.80258,0.90721 9.354,0.84243 0.94272,-0.11078 21.28755,-10.80984 22.37294,-11.76567 0.3018,-0.26649 -0.2473,-1.61297 -1.37605,-3.37177 -1.03366,-1.61068 -1.78175,-3.01717 -1.66247,-3.12552 0.30576,-0.27758 9.89283,-2.95756 11.11098,-3.1059 0.5906,-0.0712 3.89128,1.99685 7.99732,5.01234 l 6.99196,5.13479 1.38509,8.93257 1.38507,8.93258 -9.70994,8.52339 -9.70996,8.52336 -10.37311,2.44749 c -5.70525,1.3461 -11.00098,2.62268 -11.76833,2.83679 -1.24903,0.34857 -2.08578,-0.20284 -7.98844,-5.26312 -5.65025,-4.84404 -6.77076,-6.0653 -7.83374,-8.53909 -1.28179,-2.98283 -7.65391,-14.97862 -8.60894,-16.20671 -0.29703,-0.38194 -0.40007,-0.71104 -0.22899,-0.73129 z"
       style="opacity:1;fill:#d4aa00;fill-opacity:1;stroke:#d4aa00;stroke-width:1.00000012;stroke-opacity:1" />
    <path
       inkscape:connector-curvature="0"
       id="path892-09-5-4-1"
       d="m -248.64428,293.58019 c 9.63676,-5.82192 19.80432,-10.81207 26.80054,-13.15351 l 5.20706,-1.74263 1.85851,3.30053 1.85858,3.30057 -12.38062,8.50443 c -6.80933,4.67745 -12.85387,8.55247 -13.43233,8.61118 -2.1954,0.22279 -17.48229,-2.65226 -17.66285,-3.32186 -0.10404,-0.38594 3.38397,-2.86035 7.75108,-5.49869 z"
       style="opacity:1;fill:#800000;fill-opacity:1;stroke:#aa8800;stroke-width:1.00000012;stroke-opacity:1" />
    <path
       inkscape:connector-curvature="0"
       id="path954-60"
       d="m -240.86727,321.73457 c -6.4586,-5.57803 -15.62863,-20.92507 -12.41235,-20.77344 0.91142,0.043 4.60602,0.57564 8.21021,1.18371 6.54142,1.10362 6.57582,1.09053 19.33159,-7.35747 7.02818,-4.65468 12.7785,-9.05967 12.7785,-9.78887 0,-0.72921 -0.5779,-2.40565 -1.28423,-3.72544 -1.06186,-1.98411 -0.69334,-2.54791 2.1283,-3.2561 3.25783,-0.81766 5.95118,0.52663 15.01327,7.49333 1.15272,0.88619 2.79583,5.4448 3.65134,10.13025 l 1.55548,8.51901 -9.31727,8.6296 c -8.44375,7.82057 -10.1991,8.83762 -18.72342,10.84835 -5.17339,1.22031 -10.58572,2.51226 -12.0274,2.871 -1.78514,0.4442 -4.62525,-1.07853 -8.90402,-4.77393 z"
       style="opacity:1;fill:#a02c2c;fill-opacity:1;stroke:#aa8800;stroke-width:1;stroke-opacity:1" />
  </g>
  <g
     id="cookie"
     inkscape:label="#g1049">
    <path
       inkscape:connector-curvature="0"
       id="path834"
       d="M 124.14865,439.6 C 87.441022,416.81634 56.563009,381.27887 37.939486,340.38189 12.274486,284.02159 9.9799903,221.90682 31.425367,164.03321 38.702896,144.39372 40.325495,141.06034 51.217186,123.37461 100.21609,43.809256 191.00224,1.973533 283.73001,16.228956 c 19.39927,2.982347 25.34827,4.539012 44.48233,11.639784 20.48435,7.60184 23.48502,9.061069 41.32896,20.097905 79.46984,49.153396 121.08223,140.298845 106.5061,233.285005 -2.87092,18.31485 -4.60451,24.8686 -11.44264,43.2577 -7.39608,19.88921 -9.03919,23.26688 -19.96897,41.04806 -9.95276,16.18965 -14.38381,22.04664 -26.95259,35.626 -63.56786,68.67866 -162.30757,92.40761 -249.6582,59.99744 -22.98965,-8.52982 -22.31422,-8.19787 -43.87535,-21.58019 z m 47.11729,16.16185 c 39.0229,14.99136 84.80552,17.69644 128.25819,7.57835 58.17937,-13.54733 106.24842,-47.90449 138.63304,-99.08733 11.50805,-18.18801 12.90468,-20.98478 20.22179,-40.49212 C 496.67099,221.67352 457.71807,108.80851 364.64694,52.175129 346.8743,41.36057 343.99483,39.995673 323.74646,32.787732 266.7258,12.489705 207.83449,15.078327 153.62535,40.265544 112.26917,59.480843 80.880183,87.304858 56.914613,125.99241 45.49268,144.43075 44.269095,146.94836 36.826579,167.32404 c -6.597343,18.06165 -8.474363,25.24314 -11.202208,42.85957 -13.775882,88.96511 26.397091,176.65243 103.040749,224.9116 10.43231,6.56874 20.46858,12.43984 22.30282,13.04679 1.83394,0.60764 10.96823,4.03605 20.29797,7.6202 z"
       style="opacity:1;fill:#782121;fill-opacity:1;stroke:#800000;stroke-width:0.99999994;stroke-opacity:1" />
    <path
       inkscape:connector-curvature="0"
       id="path836"
       d="M 155.87346,385.56944 C 101.54634,349.91605 71.980345,281.67878 82.314846,215.79911 98.953894,109.73008 210.85738,44.554742 311.48234,82.326352 412.79603,120.35649 454.23225,240.4039 397.94585,332.82472 c -41.74598,68.546 -128.70074,99.25188 -203.87584,71.99373 -16.43306,-5.95867 -22.94812,-9.24174 -38.19655,-19.24901 z m 42.41508,9.91317 C 293.62032,428.77045 395.78798,367.52825 411.26967,267.81537 419.43312,215.23741 401.0102,161.82828 362.14775,125.40815 288.19144,56.099602 169.9744,71.1164 115.34074,156.75927 c -47.378629,74.2701 -25.411487,174.65061 48.55517,221.87602 16.85391,10.76079 16.58541,10.6293 34.39263,16.8473 z"
       style="opacity:1;fill:#782121;fill-opacity:1;stroke:#782121;stroke-width:0.99999994;stroke-opacity:1" />
    <path
       inkscape:connector-curvature="0"
       id="path838"
       d="M 129.54003,433.85453 C 54.768988,386.06 14.967763,300.66902 26.873298,213.58959 37.058323,139.0944 84.50178,74.712536 152.93421,42.522145 248.29144,-2.3335753 361.45364,25.358501 425.38236,109.19331 c 29.77479,39.04599 45.12059,83.54691 45.67762,132.45846 0.23458,20.59952 -1.86167,37.90974 -7.15496,59.08673 -3.76891,15.07739 -5.80933,20.41104 -15.28591,39.95464 -16.65903,34.35617 -34.06202,56.37731 -62.08805,78.56404 -21.46772,16.99495 -38.04718,25.99035 -65.16657,35.35686 -35.12221,12.1306 -69.60947,15.80679 -103.84247,11.06921 -30.82396,-4.26586 -63.16562,-15.96585 -87.98198,-31.82874 z M 206.2657,410.12397 C 298.39086,434.97601 395.51136,378.77401 419.00285,287.01655 434.39956,226.87758 416.63882,162.52529 372.82298,119.69232 358.27548,105.47126 347.24542,97.834001 327.06594,88.009959 306.93993,78.212024 294.2188,74.261661 273.91941,71.506099 213.53244,63.308802 150.19947,90.259016 112.45429,140.21454 c -9.22595,12.21043 -22.87982,39.51795 -26.952212,53.90388 -20.812334,73.52046 8.120579,151.96253 71.647982,194.24944 11.10507,7.39208 34.83656,17.90404 49.11565,21.75608 z"
       style="opacity:1;fill:#aa0000;fill-opacity:1;stroke:#800000;stroke-width:0.99999994;stroke-opacity:1" />
    <path
       inkscape:connector-curvature="0"
       id="path836-2"
       d="M 162.94583,374.22841 C 112.31388,341.03968 84.681017,277.6384 94.196782,216.48968 109.51766,118.03738 213.58892,57.704403 307.32475,92.933458 c 94.37729,35.470182 133.14322,146.992912 80.89137,232.710402 -38.75369,63.57436 -119.65417,91.94426 -189.68095,66.51692 -15.30772,-5.55832 -21.378,-8.61695 -35.58934,-17.93237 z m 39.50165,9.27123 c 88.80103,31.05784 183.81508,-25.63908 198.06872,-118.19182 7.51584,-48.80249 -9.71987,-98.4189 -45.95647,-132.29479 -68.95921,-64.466654 -178.98792,-50.712933 -229.71195,28.71436 -43.988205,68.87971 -23.37812,162.11184 45.55541,206.07591 15.70709,10.01746 15.45697,9.89491 32.04429,15.69631 z"
       style="opacity:1;fill:#ffcc00;fill-opacity:1;stroke:#ffcc00;stroke-width:0.99999994;stroke-opacity:1" />
    <path
       inkscape:connector-curvature="0"
       id="path855"
       d="M 171.24274,366.61156 C 129.54929,338.79429 105.14853,295.56113 103.28705,246.2081 100.81341,180.62518 144.14899,119.923 207.29631,100.51729 c 74.95795,-23.035187 153.85513,14.95916 183.28839,88.26575 16.37103,40.77378 11.91406,93.31334 -11.0336,130.06644 -16.01547,25.6507 -35.56761,43.37817 -62.48467,56.654 -35.16923,17.34577 -75.13884,19.61821 -114.36153,6.50178 -15.54385,-5.19827 -17.93162,-6.36621 -31.46211,-15.39373 z"
       style="opacity:1;fill:#ffe680;fill-opacity:1;stroke:#ffcc00;stroke-width:0.99999994;stroke-opacity:1" />
    <path
       inkscape:connector-curvature="0"
       id="path857-3"
       d="m 48.505714,352.66929 c 4.643109,-8.54171 13.022968,-22.28855 18.621978,-30.54844 l 10.180013,-15.01813 8.84223,-25.35377 C 91.013036,267.80426 96.936783,251.62199 99.313745,245.78823 119.55406,196.11071 153.14937,129.08788 173.81033,97.167317 l 12.64927,-19.54281 4.11422,-16.225197 c 2.2629,-8.923884 7.19946,-24.099159 10.97013,-33.722861 3.77045,-9.623788 6.91721,-17.528597 6.99211,-17.566466 0.0755,-0.03794 3.89865,1.441023 8.49708,3.28636 l 8.36076,3.355313 -5.80014,10.132017 c -11.03408,19.27531 -14.41309,27.122394 -17.99121,41.780698 l -3.44596,14.116252 -13.71178,21.110697 c -12.72279,19.58822 -15.45651,24.66988 -37.90667,70.46451 -25.71648,52.45741 -36.48472,77.4242 -49.952654,115.81765 -7.640402,21.78097 -7.791053,22.10064 -16.242752,34.46177 -7.563941,11.06269 -9.376071,14.57247 -15.988639,30.96718 -4.101795,10.16976 -7.723764,18.54445 -8.048836,18.6104 -0.32507,0.0654 -4.112371,-1.2602 -8.416425,-2.94643 l -7.82525,-3.06686 z"
       style="opacity:1;fill:#ff6600;fill-opacity:1;stroke:#ff6600;stroke-width:0.99999994;stroke-opacity:1" />
    <path
       inkscape:connector-curvature="0"
       id="path861-4"
       d="m 41.417694,371.95575 -1.412921,-3.63483 7.59236,3.6775 c 4.175896,2.02245 8.429983,3.63547 9.454044,3.58345 1.556082,-0.0791 3.133975,-3.32631 9.605916,-19.76562 7.118578,-18.08408 8.448258,-20.70677 16.482647,-32.50906 l 8.739314,-12.83793 9.040076,-25.65844 c 13.03301,-36.99178 27.89073,-70.99414 51.81795,-118.5867 17.22374,-34.25909 22.83798,-44.47679 33.34481,-60.6864 l 12.634,-19.491331 3.74469,-15.214711 c 3.52978,-14.342235 4.27334,-16.191617 12.96787,-32.25219 l 9.22347,-17.037502 7.20675,-2.198585 c 6.05966,-1.848628 7.60489,-1.884478 9.70805,-0.224991 1.37571,1.085512 2.62629,2.267689 2.77899,2.627094 0.15272,0.359422 -2.63902,1.476891 -6.20386,2.483251 l -6.4815,1.829764 -10.74181,17.757157 -10.74173,17.757115 -3.29005,14.90143 -3.29021,14.901472 -11.6484,17.905117 c -10.39055,15.97158 -14.1219,23.00216 -34.55354,65.10467 -23.97307,49.40025 -36.0243,77.81265 -49.9523,117.76881 -6.38494,18.3166 -7.42556,20.56303 -14.859452,32.08493 -7.6744,11.89403 -8.258024,13.19813 -14.602278,32.62883 l -6.608371,20.23968 2.97287,5.78378 c 2.176356,4.23424 2.468413,5.70137 1.089954,5.47619 -6.940893,-1.1337 -12.935816,-3.21476 -22.111502,-7.67575 -9.77889,-4.75405 -10.588054,-5.34835 -11.904894,-8.73614 z"
       style="opacity:1;fill:#d45500;fill-opacity:1;stroke:#ffcc00;stroke-width:0.99999994;stroke-opacity:1" />
    <path
       inkscape:connector-curvature="0"
       id="path857-4"
       d="m 130.6241,426.89907 c 5.32314,-9.93877 14.82535,-25.99088 21.11602,-35.67156 l 11.43754,-17.60123 10.70946,-29.18923 c 5.89027,-16.05413 13.01419,-34.70219 15.83127,-41.43999 23.98834,-57.37624 62.83312,-135.18185 86.13689,-172.53118 l 14.26736,-22.86665 5.26194,-18.582486 c 2.89404,-10.220356 8.93728,-27.668971 13.42942,-38.774624 4.49222,-11.105634 8.23269,-20.230973 8.31249,-20.278403 0.0797,-0.04756 3.92736,1.381918 8.55063,3.176472 l 8.40574,3.262754 -6.61572,11.807507 c -12.58589,22.462709 -16.56258,31.537342 -21.17316,48.316604 l -4.44019,16.158696 -15.46111,24.70409 c -14.34607,22.92246 -17.48346,28.83338 -43.50488,81.96374 -29.80748,60.86047 -42.47757,89.73394 -58.77498,133.94069 -9.24593,25.07882 -9.42137,25.44916 -18.91026,39.94105 -8.49232,12.96957 -10.58097,17.04733 -18.42842,35.97863 -4.86787,11.74308 -9.12804,21.42892 -9.46714,21.52391 -0.33912,0.0951 -4.15922,-1.16356 -8.48873,-2.79801 l -7.87211,-2.97039 z"
       style="opacity:1;fill:#ff6600;fill-opacity:1;stroke:#ff6600;stroke-width:0.99999994;stroke-opacity:1" />
    <path
       inkscape:connector-curvature="0"
       id="path861-44"
       d="m 122.07901,449.17863 -1.25369,-3.96211 7.59347,3.67529 c 4.17593,2.02243 8.45551,3.58299 9.50913,3.47032 1.60131,-0.17207 3.3963,-3.8651 10.92727,-22.47988 8.2837,-20.4773 9.79014,-23.46315 18.67407,-37.01039 l 9.66342,-14.73614 10.66513,-28.9966 c 15.37609,-41.80451 32.46305,-80.38611 59.59309,-134.55761 19.52922,-38.99476 25.8436,-50.65068 37.50334,-69.2284 l 14.02033,-22.33895 4.66569,-17.10681 c 4.39815,-16.125918 5.26135,-18.220832 15.05293,-36.535033 l 10.38733,-19.428216 7.51531,-2.832414 c 6.3191,-2.381507 7.90698,-2.504843 9.97578,-0.774788 1.35331,1.131712 2.57278,2.377547 2.7101,2.768615 0.1373,0.391076 -2.78833,1.783561 -6.50143,3.0944 l -6.75106,2.383396 -11.98445,20.309859 -11.98454,20.309836 -4.18241,16.734145 -4.18232,16.73411 -12.92308,20.52338 c -11.52748,18.30696 -15.7371,26.32006 -38.98274,74.20284 -27.2748,56.18233 -41.17935,88.40143 -57.63412,133.54781 -7.54318,20.69603 -8.73244,23.2483 -16.98514,36.45142 -8.51942,13.62991 -9.1889,15.11024 -16.75068,37.04183 l -7.87647,22.84464 2.73838,6.26531 c 2.00481,4.58685 2.22512,6.20105 0.82255,6.0255 -7.0623,-0.88385 -13.10242,-2.87253 -22.27842,-7.33287 -9.7789,-4.75392 -10.57762,-5.36988 -11.74595,-9.06269 z"
       style="opacity:1;fill:#d45500;fill-opacity:1;stroke:#ffcc00;stroke-width:0.99999994;stroke-opacity:1" />
    <path
       inkscape:connector-curvature="0"
       id="path857-9"
       d="m 253.73653,446.03141 c 4.60596,-8.46549 12.92457,-22.08648 18.48585,-30.26889 l 10.11144,-14.87709 8.74011,-25.14461 c 4.80678,-13.82951 10.66528,-29.87724 13.01825,-35.66156 20.03576,-49.25743 53.34464,-115.69175 73.86131,-147.31608 l 12.56102,-19.3615 4.05129,-16.09661 c 2.2282,-8.85316 7.10447,-23.9044 10.83581,-33.44717 3.73147,-9.54277 6.84532,-17.38119 6.92008,-17.41847 0.0745,-0.0376 3.89709,1.44426 8.49416,3.29242 l 8.35828,3.36026 -5.75561,10.04063 c -10.94934,19.10134 -14.29576,26.8814 -17.81755,41.42395 l -3.39157,14.0048 -13.61631,20.91455 c -12.63425,19.40628 -15.34594,24.44273 -37.60117,69.83705 -25.49337,51.99887 -36.1577,76.7524 -49.47114,114.82864 -7.55283,21.60102 -7.70181,21.91802 -16.09731,34.16264 -7.5133,10.95863 -9.31033,14.43742 -15.85552,30.69381 -4.05963,10.08399 -7.64692,18.387 -7.97134,18.45138 -0.32429,0.0637 -4.10998,-1.26508 -8.41239,-2.95469 l -7.82262,-3.07228 z"
       style="opacity:1;fill:#ff6600;fill-opacity:1;stroke:#ff6600;stroke-width:0.99999994;stroke-opacity:1" />
    <path
       inkscape:connector-curvature="0"
       id="path861-0"
       d="m 246.72024,465.17046 -1.43021,-3.59924 7.59237,3.67755 c 4.17486,2.02449 8.42725,3.64117 9.44808,3.59544 1.55121,-0.0692 3.10546,-3.26762 9.46211,-19.47006 6.99188,-17.82362 8.30241,-20.40685 16.24414,-32.01917 l 8.63871,-12.63133 8.86311,-25.29513 c 12.77806,-36.46799 27.39317,-69.97199 50.97175,-116.84848 16.97276,-33.74356 22.51087,-43.80476 32.89221,-59.75656 l 12.48313,-19.18146 3.64432,-15.00873 c 3.4353,-14.14821 4.16608,-15.97073 12.74096,-31.7861 l 9.0967,-16.77732 7.17322,-2.12962 c 6.03143,-1.79061 7.57211,-1.81688 9.67901,-0.1651 1.37817,1.08049 2.63202,2.25575 2.78652,2.61174 0.15431,0.35594 -2.6229,1.44341 -6.17161,2.41669 l -6.4521,1.76953 -10.60659,17.47929 -10.60645,17.47926 -3.19305,14.70193 -3.19309,14.70198 -11.50974,17.62015 c -10.26676,15.71734 -13.94614,22.64114 -34.07143,64.11444 -23.61369,48.66208 -35.46298,76.6603 -49.11614,116.0513 -6.25873,18.05782 -7.28308,20.27103 -14.62801,31.60983 -7.58242,11.70519 -8.15675,12.98997 -14.36844,32.14856 l -6.47036,19.95614 2.99844,5.73131 c 2.19508,4.19597 2.49493,5.64701 1.11908,5.41645 -6.92773,-1.1605 -12.91783,-3.25141 -22.09329,-7.71314 -9.77894,-4.75398 -10.58925,-5.346 -11.92225,-8.70055 z"
       style="opacity:1;fill:#d45500;fill-opacity:1;stroke:#ffcc00;stroke-width:0.99999994;stroke-opacity:1" />
  </g>
  <path
     style="opacity:1;fill:#ffcc00;fill-opacity:1;stroke:#ffcc00;stroke-width:1;stroke-opacity:1"
     d=""
     id="path945"
     inkscape:connector-curvature="0" />
</svg>
