<?xml version="1.0" encoding="UTF-8" standalone="no"?>
<svg
   xmlns:dc="http://purl.org/dc/elements/1.1/"
   xmlns:cc="http://creativecommons.org/ns#"
   xmlns:rdf="http://www.w3.org/1999/02/22-rdf-syntax-ns#"
   xmlns:svg="http://www.w3.org/2000/svg"
   xmlns="http://www.w3.org/2000/svg"
   xmlns:sodipodi="http://sodipodi.sourceforge.net/DTD/sodipodi-0.dtd"
   xmlns:inkscape="http://www.inkscape.org/namespaces/inkscape"
   height="500"
   version="1.1"
   width="500"
   id="svg58"
   sodipodi:docname="Chocolate Chip.svg"
   inkscape:version="0.92.5 (2060ec1f9f, 2020-04-08)">
  <metadata
     id="metadata64">
    <rdf:RDF>
      <cc:Work
         rdf:about="">
        <dc:format>image/svg+xml</dc:format>
        <dc:type
           rdf:resource="http://purl.org/dc/dcmitype/StillImage" />
      </cc:Work>
    </rdf:RDF>
  </metadata>
  <defs
     id="defs62" />
  <sodipodi:namedview
     pagecolor="#ffffff"
     bordercolor="#666666"
     borderopacity="1"
     objecttolerance="10"
     gridtolerance="10"
     guidetolerance="10"
     inkscape:pageopacity="0"
     inkscape:pageshadow="2"
     inkscape:window-width="1920"
     inkscape:window-height="986"
     id="namedview60"
     showgrid="false"
     inkscape:snap-global="false"
     inkscape:zoom="0.763"
     inkscape:cx="-28.333168"
     inkscape:cy="250"
     inkscape:window-x="2389"
     inkscape:window-y="-11"
     inkscape:window-maximized="1"
     inkscape:current-layer="svg58" />
  <path
     style="opacity:1;fill:#ffcc00;fill-opacity:1;stroke:#ffcc00;stroke-width:1;stroke-opacity:1"
     d=""
     id="path945"
     inkscape:connector-curvature="0" />
  <g
     id="crunch"
     inkscape:label="#g1069"
     transform="translate(609.43644,-47.182176)">
    <path
       inkscape:connector-curvature="0"
       id="path878-6"
       d="m -268.53422,212.20966 c 0,-0.27688 2.07535,-6.21392 4.61192,-13.19343 2.53655,-6.97954 4.61294,-13.41988 4.61419,-14.3119 0.002,-1.52516 -19.61253,-37.95141 -21.57003,-40.05751 -0.54523,-0.58663 -3.88571,-0.29415 -8.3635,0.73227 -4.10062,0.93994 -7.63813,1.51843 -7.86111,1.28548 -0.57118,-0.59663 -4.22593,-16.76347 -4.23562,-18.73628 -0.003,-0.9563 5.81509,-5.2577 14.10048,-10.42163 l 14.10849,-8.79323 21.52346,1.60454 21.52347,1.60451 17.44652,18.82979 17.44649,18.82978 2.88451,17.30093 c 1.58649,9.51553 3.12313,18.35953 3.41475,19.65336 0.47469,2.10602 -1.06415,3.18505 -14.69143,10.30162 -13.04462,6.81232 -16.24826,8.05288 -22.39934,8.67397 -7.4168,0.74889 -37.5854,5.66946 -40.75884,6.64788 -0.98692,0.30427 -1.79441,0.32668 -1.79441,0.05 z"
       style="opacity:1;fill:#d4aa00;fill-opacity:1;stroke:#d4aa00;stroke-width:1;stroke-opacity:1" />
    <path
       inkscape:connector-curvature="0"
       id="path892-09"
       d="m -272.83736,196.53398 c -11.07511,-17.5729 -20.03341,-35.62645 -23.61316,-47.58718 l -2.66431,-8.90199 8.33018,-1.51904 8.33017,-1.51905 16.65339,23.00964 c 9.15939,12.65533 16.63443,23.77214 16.61123,24.70402 -0.088,3.53687 -11.17389,26.29288 -12.80886,26.29288 -0.94231,0 -5.81969,-6.51569 -10.83864,-14.47928 z"
       style="opacity:1;fill:#aa8800;fill-opacity:1;stroke:#aa8800;stroke-width:1;stroke-opacity:1" />
    <path
       inkscape:connector-curvature="0"
       id="path878-6-5"
       d="m -349.09496,406.26494 c 0.37764,-0.048 8.97536,0.95001 19.10655,2.21933 10.13133,1.2693 19.41544,2.18053 20.63168,2.02483 2.07931,-0.26626 46.95295,-25.98225 49.34695,-28.27966 0.66567,-0.64052 -0.54548,-3.87689 -3.03509,-8.10429 -2.27989,-3.87139 -3.92993,-7.25199 -3.66684,-7.51243 0.67439,-0.66716 21.82016,-7.1087 24.50697,-7.46526 1.30267,-0.17114 8.58282,4.79959 17.63932,12.04754 l 15.42183,12.34184 3.05504,21.47008 3.055,21.47013 -21.41677,20.4866 -21.41682,20.48653 -22.87947,5.8827 c -12.58381,3.23546 -24.26437,6.30381 -25.95687,6.81843 -2.75491,0.83784 -4.60048,-0.48753 -17.61973,-12.65027 -12.46249,-11.64302 -14.93393,-14.57841 -17.27853,-20.52435 -2.82715,-7.16944 -16.88186,-36.00222 -18.98832,-38.95403 -0.65516,-0.91801 -0.8824,-1.70902 -0.50506,-1.75769 z"
       style="opacity:1;fill:#d4aa00;fill-opacity:1;stroke:#d4aa00;stroke-width:1;stroke-opacity:1" />
    <path
       inkscape:connector-curvature="0"
       id="path892-09-5"
       d="m -327.25685,399.27163 c 24.3635,-13.99343 50.06899,-25.98761 67.75673,-31.61543 l 13.1644,-4.18855 4.69865,7.93309 4.69883,7.93315 -31.30051,20.44102 c -17.21521,11.24261 -32.49696,20.55648 -33.95942,20.6976 -5.55035,0.53549 -44.19845,-6.37489 -44.65492,-7.98433 -0.26303,-0.92763 8.55528,-6.87506 19.59617,-13.21649 z"
       style="opacity:1;fill:#aa8800;fill-opacity:1;stroke:#aa8800;stroke-width:1;stroke-opacity:1" />
    <path
       inkscape:connector-curvature="0"
       id="path878-6-5-4"
       d="m -506.33758,324.42185 c 0.13823,0.26184 1.64408,7.22369 3.34353,15.47341 1.69962,8.24979 3.45689,15.68729 3.90546,16.52779 0.76693,1.43704 33.16654,22.73928 35.62961,23.42572 0.68614,0.19052 2.93122,-2.29598 5.62124,-6.22717 2.46345,-3.60004 4.70552,-6.48713 4.98283,-6.41508 0.70974,0.18359 11.47203,12.98207 12.47291,14.83285 0.48397,0.89813 -1.51605,8.79983 -4.84887,19.14693 l -5.67483,17.61945 -16.22396,12.74129 -16.22409,12.74117 -21.98187,-6.17327 -21.98183,-6.17334 -10.78208,-14.37628 c -5.93013,-7.90697 -11.48626,-15.21487 -12.34688,-16.23965 -1.40114,-1.66796 -0.84226,-3.70293 5.33247,-19.42522 5.91088,-15.05023 7.58032,-18.33944 11.67299,-22.99698 4.93473,-5.616 24.06339,-30.22399 25.84338,-33.24627 0.55342,-0.9401 1.12064,-1.4957 1.26002,-1.2352 z"
       style="opacity:1;fill:#d4aa00;fill-opacity:1;stroke:#d4aa00;stroke-width:1;stroke-opacity:1" />
    <path
       inkscape:connector-curvature="0"
       id="path892-09-5-2"
       d="m -491.2679,336.42063 c 14.95448,10.36434 28.774,22.81559 36.42677,32.81979 l 5.69567,7.4459 -4.63397,7.81666 -4.63352,7.81767 -20.95431,-11.96742 c -11.52487,-6.58203 -21.28437,-12.78926 -21.68786,-13.79394 -1.53134,-3.81268 -4.6712,-36.18341 -3.62795,-37.40183 0.60133,-0.70213 6.63813,2.56623 13.41508,7.2631 z"
       style="opacity:1;fill:#aa8800;fill-opacity:1;stroke:#aa8800;stroke-width:0.99999994;stroke-opacity:1" />
    <path
       inkscape:connector-curvature="0"
       id="path878-6-5-8"
       d="m -512.75984,187.70844 c 0.1712,-0.02 4.06923,0.39525 8.66252,0.92334 4.59335,0.5281 8.80258,0.90721 9.354,0.84243 0.94272,-0.11078 21.28755,-10.80984 22.37294,-11.76567 0.3018,-0.26649 -0.2473,-1.61297 -1.37605,-3.37177 -1.03366,-1.61068 -1.78175,-3.01717 -1.66247,-3.12552 0.30576,-0.27758 9.89283,-2.95756 11.11098,-3.1059 0.5906,-0.0712 3.89128,1.99685 7.99732,5.01234 l 6.99196,5.13479 1.38509,8.93257 1.38507,8.93258 -9.70994,8.52339 -9.70996,8.52336 -10.37311,2.44749 c -5.70525,1.3461 -11.00098,2.62268 -11.76833,2.83679 -1.24903,0.34857 -2.08578,-0.20284 -7.98844,-5.26312 -5.65025,-4.84404 -6.77076,-6.0653 -7.83374,-8.53909 -1.28179,-2.98283 -7.65391,-14.97862 -8.60894,-16.20671 -0.29703,-0.38194 -0.40007,-0.71104 -0.22899,-0.73129 z"
       style="opacity:1;fill:#d4aa00;fill-opacity:1;stroke:#d4aa00;stroke-width:1.00000012;stroke-opacity:1" />
    <path
       inkscape:connector-curvature="0"
       id="path892-09-5-4"
       d="m -503.54773,184.79889 c 9.63676,-5.82192 19.80432,-10.81207 26.80054,-13.15351 l 5.20706,-1.74263 1.85851,3.30053 1.85858,3.30057 -12.38062,8.50443 c -6.80933,4.67745 -12.85387,8.55247 -13.43233,8.61118 -2.1954,0.22279 -17.48229,-2.65226 -17.66285,-3.32186 -0.10404,-0.38594 3.38397,-2.86035 7.75108,-5.49869 z"
       style="opacity:1;fill:#aa8800;fill-opacity:1;stroke:#aa8800;stroke-width:1.00000012;stroke-opacity:1" />
  </g>
  <g
     id="cookie"
     inkscape:label="#g997">
    <path
       inkscape:connector-curvature="0"
       id="path874"
       d="m 245.24274,476.15429 -44.19103,-4.52187 -41.03451,-12.4323 c -22.56898,-6.83779 -41.38114,-12.64299 -41.80478,-12.90047 -0.98171,-0.59666 21.4205,-4.51897 34.15573,-5.98018 9.67287,-1.10986 9.7629,-1.13939 22.5072,-7.38219 l 12.79547,-6.26785 13.42513,6.44415 13.42513,6.44417 19.53464,1.83953 c 18.32415,1.72556 20.72804,1.78416 38.79376,0.94576 l 19.2591,-0.8938 18.36184,-5.60084 c 10.09902,-3.08046 18.72995,-5.82784 19.17986,-6.10528 0.44991,-0.27745 10.05077,-8.16422 21.33528,-17.52617 11.28449,-9.36193 24.3197,-20.13344 28.96713,-23.93665 7.2519,-5.93459 11.24217,-10.29422 28.14532,-30.75059 27.12279,-32.8243 22.86913,-28.9745 36.75624,-33.26651 6.48981,-2.00576 11.85654,-3.72277 11.92607,-3.81559 0.34416,-0.45947 13.77649,-56.36049 13.78786,-57.3807 0.007,-0.65104 -4.69901,-13.88609 -10.45838,-29.41122 l -10.47155,-28.22752 -5.19962,-1.67465 c -4.79305,-1.54372 -5.26247,-1.89722 -6.00374,-4.52139 -0.44228,-1.56572 -4.98094,-16.86717 -10.08592,-34.00324 L 419.0672,134.0724 406.72733,119.00786 394.38744,103.94334 378.9995,92.865861 c -8.46336,-6.092605 -19.47166,-13.294394 -24.46289,-16.003946 -4.99121,-2.709568 -9.49796,-5.271324 -10.01497,-5.692811 -0.51701,-0.421472 -3.66722,-5.445357 -7.00045,-11.164165 -3.33322,-5.718809 -7.17149,-11.575751 -8.52947,-13.01542 -2.17985,-2.31098 -21.57879,-15.137865 -22.89397,-15.137865 -0.27986,0 -6.09683,2.625538 -12.9266,5.834513 -9.01008,4.233415 -14.30846,6.21537 -19.30758,7.222364 -5.37558,1.082814 -6.9955,1.720825 -7.37069,2.902984 -0.32283,1.01711 -0.9114,1.349576 -1.79057,1.011448 -0.72032,-0.277043 -3.79543,-1.229135 -6.83355,-2.115776 l -5.52389,-1.612049 -19.5799,1.997838 -19.5799,1.997838 -17.00576,9.614608 c -15.0013,8.481341 -19.15791,10.413892 -35.26432,16.395575 -17.59612,6.534935 -18.51622,6.785398 -25.36068,6.903441 -3.90617,0.06734 -11.18586,0.582737 -16.17707,1.145285 l -9.07494,1.022816 -9.4687,9.062305 c -5.207787,4.984254 -10.237957,9.412796 -11.178154,9.841196 -0.940211,0.42839 -1.880318,1.35703 -2.089138,2.06366 -0.208835,0.70664 -3.620069,11.57391 -7.580512,24.14952 -7.11475,22.59143 -7.189824,22.9139 -6.280185,26.97863 l 0.92065,4.1139 -3.414124,4.07782 c -3.144219,3.75545 -3.870992,5.5749 -9.192967,23.01438 l -5.778829,18.93655 2.446186,19.05591 2.446186,19.05592 -0.935444,19.83486 -0.935444,19.83487 5.730095,18.83252 5.730095,18.83254 11.64769,15.49377 c 7.156614,9.51969 13.037693,18.26142 15.252681,22.67173 1.982732,3.94788 3.604964,7.33656 3.604964,7.5304 0,0.19382 -1.864306,1.43752 -4.142911,2.76378 -2.278591,1.32626 -4.602905,2.71489 -5.165122,3.08587 -0.80952,0.53413 -0.202265,4.10819 2.918608,17.17751 5.149374,21.56412 6.584285,25.54408 15.119115,41.93528 6.27053,12.04256 6.94136,13.70352 5.33689,13.21391 -1.00931,-0.30799 -2.36779,-0.99441 -3.01882,-1.52534 -0.65103,-0.53095 -8.81847,-7.21589 -18.149878,-14.85542 L 77.159023,415.45854 65.753005,393.51544 C 59.479703,381.44674 49.8369,363.14217 44.324564,352.83864 L 34.302142,334.10493 27.864404,312.98755 21.426666,291.87016 18.348672,261.88321 c -1.692893,-16.49283 -3.940673,-37.2667 -4.995068,-46.16413 l -1.917074,-16.17719 6.761546,-22.48324 6.761546,-22.48323 14.34915,-16.97329 c 7.892029,-9.33531 21.245797,-25.36211 29.675043,-35.61511 L 84.309708,83.345195 101.64619,69.075497 c 17.03868,-14.024568 17.63472,-14.428593 34.69725,-23.519286 9.54842,-5.087264 27.83639,-14.97393 40.63995,-21.970365 l 23.2792,-12.720793 22.93789,-2.2186789 22.93787,-2.2186792 34.27371,10.4156931 c 18.85055,5.72863 38.84574,11.80963 44.43378,13.513333 10.60168,3.232295 7.55853,1.691806 81.37849,41.194909 l 9.46951,5.06739 14.99338,18.223179 14.99338,18.223181 5.44707,17.59151 c 2.99589,9.67533 9.08783,29.51752 13.53763,44.09373 l 8.09057,26.50223 2.84724,29.52604 c 1.56599,16.23933 3.49321,36.80579 4.28271,45.70322 l 1.43544,16.17718 -6.73583,22.32362 -6.73585,22.32361 -15.42468,19.14008 c -41.29447,51.24118 -41.27598,51.22037 -57.07016,64.19375 -30.14922,24.76464 -56.83961,46.16372 -58.46302,46.87287 -4.12319,1.80113 -43.71285,13.33845 -45.48514,13.2554 -1.08504,-0.0508 -21.85877,-2.12729 -46.16384,-4.61433 z"
       style="opacity:1;fill:#d4aa00;fill-opacity:1;stroke:#d4aa00;stroke-width:1;stroke-opacity:1" />
    <path
       inkscape:connector-curvature="0"
       id="path876"
       d="m 236.26211,452.89097 -19.85071,-1.99393 -14.54117,-6.85672 -14.54115,-6.8567 -3.00929,-15.95274 -3.00928,-15.95274 -15.43999,-15.75317 c -8.492,-8.66424 -15.64981,-15.7733 -15.90624,-15.79788 -0.25642,-0.0246 -9.551,-0.71401 -20.65459,-1.53201 l -20.18835,-1.4873 -5.60554,3.28843 c -3.08307,1.80862 -5.884028,3.44558 -6.224389,3.6377 -0.340345,0.1921 -2.411799,-3.11611 -4.603232,-7.35158 -2.482092,-4.79728 -8.664601,-13.73035 -16.397183,-23.69226 -6.827026,-8.79526 -12.778709,-16.91931 -13.225953,-18.05341 -0.447259,-1.13409 -3.193817,-9.60441 -6.103486,-18.82293 l -5.290301,-16.76091 0.943728,-20.30835 0.943742,-20.30837 -2.641731,-19.99259 -2.641746,-19.9926 5.901967,-18.96629 c 4.232806,-13.60239 6.510473,-19.62615 8.05359,-21.29951 l 2.151653,-2.33322 5.135355,16.31518 c 2.824448,8.97333 5.531838,16.45927 6.016432,16.6354 0.48458,0.17612 11.468698,2.12156 24.409132,4.32318 l 23.528072,4.00298 24.62054,-10.71965 c 13.54131,-5.89579 25.06208,-11.14903 25.60176,-11.67384 1.05031,-1.02143 17.50442,-52.57852 17.50442,-54.84815 0,-1.72465 -16.3258,-46.960441 -17.33744,-48.03883 -0.65985,-0.703416 -17.1246,-2.67238 -24.36271,-2.913472 -1.70506,-0.05676 2.93259,-2.033609 13.68187,-5.831965 13.67791,-4.833225 19.14158,-7.319132 34.39186,-15.64788 l 18.13062,-9.901806 19.98726,-1.868779 19.98723,-1.868793 6.66646,1.965323 c 3.66656,1.080915 6.78652,2.039861 6.93326,2.130982 0.14675,0.09103 -0.88908,4.02869 -2.30185,8.75016 -1.41277,4.721484 -2.69356,9.199045 -2.8462,9.950167 -0.15259,0.751108 3.34028,7.856397 7.76207,15.789553 l 8.0396,14.4239 18.53688,4.43644 18.53689,4.43643 16.41334,-3.56932 c 9.02735,-1.96312 16.85281,-3.97762 17.38994,-4.47665 0.53713,-0.49904 2.14243,-6.060753 3.56737,-12.359393 1.42493,-6.29861 2.79887,-11.652667 3.0532,-11.897856 1.06389,-1.025692 15.79929,7.546964 31.8082,18.505139 l 17.14152,11.73349 13.21175,15.50716 c 7.26645,8.52893 13.21296,15.55822 13.21445,15.62062 10e-4,0.0624 2.84583,9.43876 6.32076,20.8363 12.76661,41.87374 15.5224,50.14921 16.70002,50.14921 0.63378,0 0.93446,0.33981 0.66821,0.75513 -0.26624,0.41532 1.93565,1.64542 4.89307,2.73357 l 5.37719,1.97844 10.46839,26.90005 c 5.75762,14.79503 10.49725,27.79027 10.53252,28.87833 0.0495,1.52515 -11.32543,48.39833 -13.31935,54.88605 -0.28506,0.92748 -8.46076,3.77204 -27.14723,9.44531 l -26.7393,8.11814 -20.31725,-6.06578 c -11.17447,-3.33618 -22.97116,-6.85427 -26.21484,-7.81803 -4.53243,-1.34665 -5.62706,-1.95882 -4.72887,-2.64459 0.64279,-0.4908 8.3307,-4.9748 17.08425,-9.96446 l 15.91554,-9.07211 15.89694,7.22788 c 14.17446,6.44472 16.01339,7.08391 16.97169,5.89923 2.39902,-2.96578 1.24836,-3.83229 -14.49727,-10.91723 -8.79434,-3.95713 -16.05997,-7.74352 -16.70106,-8.70359 -0.62413,-0.93461 -5.28735,-10.20219 -10.36269,-20.59458 l -9.22792,-18.89524 4.16591,-19.64919 c 2.29124,-10.80705 4.45805,-19.84383 4.81506,-20.08172 0.35705,-0.23791 10.93756,-3.21081 23.51229,-6.60648 l 22.86313,-6.17392 -0.55711,-2.51157 c -0.30641,-1.38137 -0.62658,-2.59107 -0.71153,-2.68823 -0.15356,-0.17566 -49.69885,13.14001 -50.21117,13.49466 -0.14765,0.10221 -2.42458,10.22896 -5.05992,22.50393 l -4.7915,22.31814 10.02606,20.57411 c 5.51432,11.31577 9.91928,20.65688 9.78878,20.75802 -0.13051,0.10117 -8.84008,5.0988 -19.3546,11.1059 -18.8968,10.796 -19.11478,10.95239 -18.89562,13.55783 l 0.22172,2.63584 30.07297,9.03028 30.07296,9.03029 9.02786,-2.68387 c 4.96535,-1.47615 9.8017,-2.88802 10.74747,-3.13749 1.26587,-0.33392 0.6784,0.73232 -2.22648,4.04093 -2.17033,2.47199 -11.48492,13.31736 -20.69909,24.10081 l -16.75303,19.6063 -22.72064,18.04774 c -12.49635,9.92625 -26.72015,21.27673 -31.60844,25.22327 l -8.88782,7.17553 -20.34526,5.8901 -20.34527,5.8901 -15.47634,0.48633 c -8.512,0.26749 -17.60435,0.63649 -20.20523,0.81998 -2.60089,0.18351 -13.66171,-0.56362 -24.57959,-1.66029 z m 50.43164,-89.4784 c 10.50006,-2.93649 19.25075,-5.49305 19.44595,-5.68123 0.70332,-0.67806 -0.79771,-4.68244 -1.75654,-4.68603 -0.53984,-10e-4 -10.55751,2.66912 -22.26149,5.93587 -22.08827,6.16518 -22.30738,6.27141 -20.79095,10.08126 0.56426,1.41761 -1.75839,1.93501 25.36303,-5.64987 z"
       style="opacity:1;fill:#ffcc00;fill-opacity:1;stroke:#ffcc00;stroke-width:1;stroke-opacity:1" />
    <path
       inkscape:connector-curvature="0"
       id="path878"
       d="m 113.24381,446.78356 c 0,-0.21441 1.79529,-4.812 3.98955,-10.21686 2.19425,-5.40487 3.99044,-10.39221 3.99153,-11.08298 0.001,-1.18107 -16.96588,-29.38918 -18.65922,-31.02012 -0.47165,-0.45428 -3.361342,-0.22778 -7.234866,0.56707 -3.547259,0.72788 -6.60739,1.17585 -6.800283,0.99546 -0.4941,-0.46203 -3.655646,-12.98146 -3.664034,-14.50918 -0.003,-0.74055 5.030363,-4.07151 12.19766,-8.07041 l 12.204583,-6.80938 18.61894,1.24254 18.61894,1.24252 15.09216,14.58159 15.09213,14.58158 2.49526,13.39766 c 1.37239,7.36873 2.70167,14.21743 2.95394,15.21936 0.41063,1.63088 -0.92055,2.46647 -12.70887,7.97747 -11.28428,5.27539 -14.0556,6.23606 -19.37661,6.71702 -6.41592,0.57994 -32.51336,4.39038 -35.25855,5.14806 -0.85374,0.23562 -1.55226,0.25298 -1.55226,0.0387 z"
       style="opacity:1;fill:#6c5353;fill-opacity:1;stroke:#d4aa00;stroke-width:1;stroke-opacity:1" />
    <path
       inkscape:connector-curvature="0"
       id="path884"
       d="m 97.250023,203.02744 c -12.347914,-2.09995 -22.715285,-4.06899 -23.038586,-4.37563 -1.296469,-1.22959 -9.173972,-27.21003 -8.504306,-28.04768 0.395486,-0.49469 8.351564,-9.98545 17.680139,-21.09059 l 16.96107,-20.19114 0.61385,-9.65662 c 0.33762,-5.31118 0.64865,-15.81056 0.69115,-23.332004 l 0.0772,-13.675341 11.28891,-1.04719 c 10.19355,-0.945596 13.50853,-0.840471 34.16434,1.083335 12.58148,1.171774 23.15618,2.389437 23.49935,2.705902 0.34316,0.316465 4.36927,10.706892 8.94689,23.089848 l 8.32293,22.51447 -8.52409,26.74016 c -4.68825,14.70708 -8.84826,27.02073 -9.24449,27.36366 -0.68866,0.59607 -47.65217,20.95085 -49.56218,21.48108 -0.50686,0.14079 -11.02436,-1.4623 -23.372276,-3.56226 z"
       style="opacity:1;fill:#6c5353;fill-opacity:1;stroke:#d4aa00;stroke-width:1;stroke-opacity:1" />
    <path
       inkscape:connector-curvature="0"
       id="path886"
       d="m 281.71506,98.329379 c -10.50416,-2.326594 -19.27679,-4.38796 -19.49474,-4.58081 -0.63473,-0.561684 14.52236,-22.783563 15.55953,-22.811886 0.51669,-0.0149 6.35212,2.860209 12.96763,6.387362 11.39727,6.076633 12.10898,6.318634 13.56874,4.613513 0.8473,-0.989741 1.55627,-2.322259 1.57546,-2.961178 0.0186,-0.63892 -5.15229,-3.914075 -11.49221,-7.278146 -6.33989,-3.364056 -11.40256,-6.364254 -11.25031,-6.667086 0.15231,-0.302848 5.51384,-4.776074 11.91468,-9.940484 l 11.6379,-9.389878 -2.00376,-10.408201 C 303.59591,29.568086 302.9042,24.69859 303.16083,24.4715 c 0.6515,-0.576531 19.57592,10.083918 21.62802,12.183467 0.92394,0.945295 5.97563,8.184029 11.22598,16.086114 l 9.5461,14.367404 -3.49559,13.881495 -3.49561,13.881495 -18.87811,3.844035 -18.87811,3.84401 z"
       style="opacity:1;fill:#6c5353;fill-opacity:1;stroke:#6c5353;stroke-width:1;stroke-opacity:1" />
    <path
       inkscape:connector-curvature="0"
       id="path888"
       d="m 259.83172,77.828279 -7.41547,-11.980142 4.15492,-12.628015 4.15492,-12.628032 7.97809,-1.489826 c 4.90117,-0.915263 13.30058,-3.719075 21.77862,-7.269969 l 13.80054,-5.780112 1.2168,6.091599 c 0.66924,3.350392 1.47302,7.974203 1.78621,10.27515 l 0.5694,4.183518 -11.91752,9.512059 c -10.84203,8.65363 -12.64804,10.580207 -20.01229,21.348214 -4.45212,6.509904 -8.22617,11.950821 -8.38677,12.090929 -0.16052,0.140198 -3.62895,-5.136296 -7.70745,-11.725373 z"
       style="opacity:1;fill:#483737;fill-opacity:1;stroke:#483737;stroke-width:1;stroke-opacity:1" />
    <path
       inkscape:connector-curvature="0"
       id="path890"
       d="m 66.854479,166.71659 c -1.166954,-6.16285 -0.584877,-8.08058 11.96606,-39.42511 L 88.454404,103.232 101.63563,92.792886 114.81684,82.35377 v 22.11148 22.11146 l -22.908578,22.64354 c -12.599746,12.45395 -23.171974,22.64353 -23.49389,22.64353 -0.321916,0 -1.023868,-2.31623 -1.559893,-5.14719 z"
       style="opacity:1;fill:#483737;fill-opacity:1;stroke:#483737;stroke-width:1;stroke-opacity:1" />
    <path
       inkscape:connector-curvature="0"
       id="path892"
       d="M 109.52137,434.64448 C 99.940815,421.03621 92.191412,407.05573 89.094734,397.79347 l -2.304767,-6.89361 7.206048,-1.17633 7.206035,-1.17634 14.40606,17.81843 c 7.92336,9.80015 14.38966,18.40889 14.36959,19.13053 -0.0761,2.73891 -9.666,20.36093 -11.08033,20.36093 -0.81515,0 -5.03434,-5.04568 -9.376,-11.2126 z"
       style="opacity:1;fill:#483737;fill-opacity:1;stroke:#483737;stroke-width:1;stroke-opacity:1" />
    <path
       inkscape:connector-curvature="0"
       id="path884-3"
       d="m 419.27669,340.08653 c -12.47651,1.10275 -23.0042,1.82945 -23.39474,1.61494 -1.56605,-0.86033 -15.77944,-23.99065 -15.34437,-24.97089 0.257,-0.57883 5.54379,-11.77816 11.74841,-24.88733 l 11.2811,-23.83476 -1.85694,-9.4962 c -1.02074,-5.22308 -3.3854,-15.45752 -5.25322,-22.74347 l -3.39609,-13.24714 10.6535,-3.87814 c 9.61965,-3.50189 12.85275,-4.2416 33.32055,-7.62318 12.46688,-2.05977 23.00437,-3.56594 23.41663,-3.34691 0.41225,0.219 6.94361,9.24735 14.51418,20.06305 l 13.76457,19.66475 -1.45827,28.02809 c -0.80204,15.4154 -1.70061,28.38169 -1.99684,28.81392 -0.51482,0.75133 -40.77447,32.35925 -42.48732,33.35684 -0.45455,0.2649 -11.03446,1.38419 -23.51115,2.48643 z"
       style="opacity:1;fill:#6c5353;fill-opacity:1;stroke:#d4aa00;stroke-width:1;stroke-opacity:1" />
    <path
       inkscape:connector-curvature="0"
       id="path890-7"
       d="m 373.34208,326.36357 c -3.75432,-6.16503 -3.74836,-8.38526 0.12232,-45.64403 l 2.97106,-28.59908 12.47137,-15.28315 12.47132,-15.28315 8.26859,23.45631 8.26862,23.45625 -19.9918,31.33603 c -10.99553,17.23482 -20.319,31.42016 -20.71894,31.52297 -0.39989,0.1028 -2.13809,-2.13016 -3.86261,-4.96215 z"
       style="opacity:1;fill:#483737;fill-opacity:1;stroke:#483737;stroke-width:1;stroke-opacity:1" />
    <path
       inkscape:connector-curvature="0"
       id="path943"
       d="m 306.00615,105.81025 c -4.56432,-1.2397 -7.16493,-2.29603 -5.77917,-2.34741 2.40286,-0.0891 34.8872,-6.435317 38.04128,-7.431852 1.0084,-0.318611 2.41281,-4.186499 4.23945,-11.675998 l 2.73151,-11.19955 3.57113,1.850116 c 7.4303,3.849458 7.24089,3.24573 4.45706,14.207093 -1.36375,5.369805 -3.0103,10.307396 -3.65897,10.972421 -1.22881,1.25978 -29.93595,8.11601 -33.35091,7.96532 -1.07395,-0.0474 -5.68708,-1.10046 -10.25138,-2.34014 z"
       style="opacity:1;fill:#ffcc00;fill-opacity:1;stroke:#ffcc00;stroke-width:1;stroke-opacity:1" />
    <path
       inkscape:connector-curvature="0"
       id="path947"
       d="m 262.07162,367.61074 c 0,-1.69498 3.14295,-2.80025 25.33325,-8.90884 10.55036,-2.90432 16.38827,-4.09043 17.02056,-3.45814 0.5293,0.52933 0.74937,1.1754 0.48905,1.43574 -0.26034,0.26032 -9.23764,2.93618 -19.94954,5.94633 -10.7119,3.01016 -20.24505,5.68984 -21.18476,5.95486 -1.07725,0.30382 -1.70856,-0.0545 -1.70856,-0.96995 z"
       style="opacity:1;fill:#ffcc00;fill-opacity:1;stroke:#ffcc00;stroke-width:1;stroke-opacity:1" />
    <path
       inkscape:connector-curvature="0"
       id="path949"
       d="m 231.31745,453.04726 -15.62117,-1.71714 -14.369,-6.78397 -14.36898,-6.78397 -0.93844,-4.88165 c -0.51613,-2.68489 -1.85617,-9.90806 -2.97787,-16.05148 -1.1217,-6.1434 -2.69075,-11.88953 -3.4868,-12.76915 -0.79604,-0.87963 -1.44735,-2.45059 -1.44735,-3.49103 0,-1.69144 -11.50895,-13.64889 -26.84888,-27.89517 l -4.88162,-4.5336 -18.61957,-1.19014 -18.61958,-1.19015 -7.43797,4.08223 -7.43798,4.08222 -1.52357,-2.49665 c -0.837962,-1.37315 -2.246156,-3.70484 -3.129335,-5.18154 -0.883164,-1.4767 -7.29778,-10.37349 -14.254707,-19.77066 l -12.648942,-17.08576 -5.832002,-18.0621 -5.831987,-18.06209 0.980915,-20.457 c 0.926907,-19.33078 0.849389,-21.42567 -1.40803,-38.05236 -1.31393,-9.67744 -2.425149,-19.1441 -2.469368,-21.03699 -0.113081,-4.84069 11.346155,-39.38543 14.144024,-42.63817 l 2.262381,-2.63018 0.668087,4.17802 c 1.148734,7.18381 7.316239,24.83456 9.629231,27.55779 2.055929,2.42059 3.820962,2.87535 25.398283,6.54385 l 23.18881,3.94248 22.9198,-10.07795 c 12.60588,-5.54288 24.01546,-10.79587 25.35462,-11.67332 1.99107,-1.30462 3.5882,-5.19778 8.76361,-21.36229 3.48086,-10.87181 7.26924,-23.06206 8.41864,-27.08941 l 2.08983,-7.32247 -6.33986,-17.57392 C 174.21542,86.669397 174.30604,86.875477 171.35248,85.348128 c -1.48466,-0.767749 -6.17371,-1.697314 -10.42013,-2.065717 -4.24641,-0.368387 -8.31694,-0.985956 -9.04561,-1.372371 -0.81939,-0.434523 2.53302,-2.116909 8.78691,-4.409653 16.449,-6.030387 23.9144,-9.437143 39.88963,-18.203185 l 15.133,-8.303912 19.62863,-1.76598 c 10.79574,-0.97129 20.09837,-1.598246 20.67251,-1.393236 0.66399,0.237092 -0.007,3.646019 -1.84444,9.366884 l -2.88835,8.994157 6.51654,10.380847 6.51653,10.380847 -1.65768,3.476214 c -2.01666,4.229005 -1.958,4.274625 8.53125,6.634161 4.3923,0.988027 8.209,2.114673 8.48159,2.503621 0.27258,0.388963 4.00701,1.575485 8.29875,2.636695 12.01033,2.96979 13.86273,3.30783 12.24751,2.23498 -1.66055,-1.10295 -3.05096,-0.74768 19.86104,-5.074909 10.94372,-2.066864 17.05551,-3.675977 18.16093,-4.781393 0.91637,-0.916379 2.66759,-5.795418 3.8916,-10.842307 1.22401,-5.046888 2.55508,-9.54127 2.95792,-9.987519 0.93787,-1.038892 8.69513,2.883407 9.41554,4.760788 0.71377,1.860053 2.28878,1.829689 2.28878,-0.0441 0,-0.805473 0.79142,-1.464491 1.7587,-1.464491 2.40026,0 16.63159,8.522939 34.13853,20.44505 14.33318,9.760801 14.75807,10.155231 27.72004,25.732301 l 13.16373,15.81956 10.06426,32.70703 c 5.53534,17.98887 10.2621,33.41461 10.5039,34.27944 0.34994,1.25153 -0.6223,1.70676 -4.76429,2.23079 -2.86218,0.3621 -6.57833,0.9016 -8.25813,1.19885 -2.85726,0.50562 -3.02302,0.37752 -2.57107,-1.98671 0.32837,-1.71781 0.0557,-2.5319 -0.85111,-2.54189 -0.73384,-0.007 -12.14042,2.89897 -25.34801,6.46014 l -24.01378,6.47486 -2.57421,12.17862 c -2.33425,11.04337 -2.93882,12.61409 -6.48556,16.85032 l -3.91132,4.67169 -2.93975,28.61289 c -1.61685,15.7371 -2.94051,31.27876 -2.94146,34.53704 l -10e-4,5.92416 -4.3917,2.77455 c -3.16972,2.00255 -4.39171,3.41233 -4.39171,5.06666 0,2.46008 -1.82048,1.74391 24.87024,9.78387 4.54999,1.37058 8.53003,2.9083 8.84451,3.41716 0.31448,0.50885 1.69973,0.92517 3.07834,0.92517 1.3786,0 7.01451,1.34014 12.52424,2.9781 l 10.0177,2.9781 9.14133,-2.6223 c 5.02772,-1.44227 9.69049,-2.8294 10.36172,-3.08255 3.50176,-1.32064 -0.63009,4.28921 -18.67899,25.36059 l -19.84745,23.17113 -31.88434,25.38991 -31.88434,25.38988 -20.52095,5.89317 -20.52094,5.89317 -24.62134,0.42256 c -19.20983,0.32967 -28.05473,0.0451 -40.24252,-1.29458 z m 74.19361,-95.82105 c 0.34206,-0.55345 -0.0499,-0.71712 -0.91869,-0.3837 -1.69141,0.64905 -2.00087,1.34884 -0.59649,1.34884 0.50528,0 1.18713,-0.43431 1.51518,-0.96514 z m -0.48124,-3.16644 c 0,-0.433 -1.20819,-0.49741 -2.68489,-0.14318 -3.85901,0.9258 -4.05279,1.44381 -0.43701,1.16829 1.71705,-0.13081 3.1219,-0.59214 3.1219,-1.02513 z m 13.40411,-245.42224 c -0.32443,-0.32442 -1.16652,-0.35912 -1.87129,-0.077 -0.77884,0.31167 -0.54751,0.54301 0.58986,0.58987 1.0292,0.0423 1.60585,-0.18836 1.28143,-0.51279 z m 26.36071,-5.85797 c -0.32441,-0.32442 -1.1665,-0.35911 -1.87129,-0.077 -0.77884,0.31168 -0.54749,0.54302 0.58987,0.58987 1.0292,0.0423 1.60584,-0.18836 1.28142,-0.51278 z m 5.11776,-1.32465 c 2.32424,-1.469919 0.73883,-1.780424 -1.92437,-0.37691 -1.34531,0.70898 -1.78351,1.28606 -0.97633,1.28575 0.80547,-3e-4 2.11079,-0.40929 2.9007,-0.90884 z"
       style="opacity:1;fill:#ffcc00;fill-opacity:1;stroke:#ffcc00;stroke-width:1;stroke-opacity:1" />
    <path
       inkscape:connector-curvature="0"
       id="path951"
       d="m 292.09354,76.766175 c -9.10592,-4.861801 -11.20506,-6.982613 -8.0932,-8.176751 1.41248,-0.542017 13.97813,5.860988 18.18137,9.264601 1.93026,1.563031 1.99628,4.07361 0.10564,4.015371 -0.37104,-0.01192 -4.95824,-2.307881 -10.19378,-5.103221 z"
       style="opacity:1;fill:#6c5353;fill-opacity:1;stroke:#6c5353;stroke-width:1;stroke-opacity:1" />
    <path
       inkscape:connector-curvature="0"
       id="path878-9"
       d="m 232.84887,326.67482 c -0.13543,-0.206 -1.67652,-6.02326 -3.42244,-12.92906 -1.74601,-6.90566 -3.5334,-13.09752 -3.97209,-13.75965 -0.75021,-1.13174 -31.78759,-14.73834 -34.1316,-14.96276 -0.65295,-0.0627 -2.73835,2.43518 -5.22088,6.25408 -2.27349,3.49702 -4.34931,6.3415 -4.61288,6.32112 -0.67518,-0.052 -11.07966,-9.5401 -12.05814,-10.99578 -0.4741,-0.70601 1.29044,-7.8683 4.27566,-17.35406 l 5.08319,-16.15244 15.15481,-13.50873 15.15482,-13.50862 20.92084,2.04356 20.92074,2.04365 10.44921,10.85448 c 5.74703,5.96997 11.13,11.47625 11.96208,12.23618 1.3545,1.237 0.8591,3.08761 -4.72904,17.66861 -5.3493,13.95762 -6.87615,17.06489 -10.67519,21.72569 -4.58081,5.61996 -22.29029,29.86898 -23.92616,32.76128 -0.50867,0.89952 -1.03654,1.46753 -1.1729,1.26247 z"
       style="opacity:1;fill:#6c5353;fill-opacity:1;stroke:#d4aa00;stroke-width:1;stroke-opacity:1" />
    <path
       inkscape:connector-curvature="0"
       id="path892-0"
       d="m 222.25362,317.99381 c -16.04933,-5.46288 -30.92282,-12.72766 -39.20496,-19.14899 l -6.16409,-4.77913 4.81092,-6.81459 4.81095,-6.81452 22.45088,5.68357 c 12.34804,3.12595 22.81401,6.26169 23.25764,6.96833 1.68424,2.68151 5.49724,27.12002 4.40611,28.23652 -0.62924,0.64279 -7.09418,-0.85563 -14.36745,-3.33119 z"
       style="opacity:1;fill:#483737;fill-opacity:1;stroke:#483737;stroke-width:1;stroke-opacity:1" />
  </g>
</svg>
