<?xml version="1.0" encoding="UTF-8" standalone="no"?>
<svg
   xmlns:dc="http://purl.org/dc/elements/1.1/"
   xmlns:cc="http://creativecommons.org/ns#"
   xmlns:rdf="http://www.w3.org/1999/02/22-rdf-syntax-ns#"
   xmlns:svg="http://www.w3.org/2000/svg"
   xmlns="http://www.w3.org/2000/svg"
   xmlns:sodipodi="http://sodipodi.sourceforge.net/DTD/sodipodi-0.dtd"
   xmlns:inkscape="http://www.inkscape.org/namespaces/inkscape"
   height="500"
   version="1.1"
   width="500"
   id="svg58"
   sodipodi:docname="Crunch.svg"
   inkscape:version="0.92.5 (2060ec1f9f, 2020-04-08)">
  <metadata
     id="metadata64">
    <rdf:RDF>
      <cc:Work
         rdf:about="">
        <dc:format>image/svg+xml</dc:format>
        <dc:type
           rdf:resource="http://purl.org/dc/dcmitype/StillImage" />
        <dc:title></dc:title>
      </cc:Work>
    </rdf:RDF>
  </metadata>
  <defs
     id="defs62" />
  <sodipodi:namedview
     pagecolor="#ffffff"
     bordercolor="#666666"
     borderopacity="1"
     objecttolerance="10"
     gridtolerance="10"
     guidetolerance="10"
     inkscape:pageopacity="0"
     inkscape:pageshadow="2"
     inkscape:window-width="2400"
     inkscape:window-height="1256"
     id="namedview60"
     showgrid="false"
     inkscape:snap-global="false"
     inkscape:zoom="0.763"
     inkscape:cx="-293.0776"
     inkscape:cy="250"
     inkscape:window-x="-11"
     inkscape:window-y="-11"
     inkscape:window-maximized="1"
     inkscape:current-layer="svg58" />
  <path
     style="opacity:1;fill:#ffcc00;fill-opacity:1;stroke:#ffcc00;stroke-width:1;stroke-opacity:1"
     d=""
     id="path945"
     inkscape:connector-curvature="0" />
  <g
     id="crunch"
     inkscape:label="#g1069"
     transform="translate(609.43644,-47.182176)">
    <path
       inkscape:connector-curvature="0"
       id="path878-6"
       d="m -268.53422,212.20966 c 0,-0.27688 2.07535,-6.21392 4.61192,-13.19343 2.53655,-6.97954 4.61294,-13.41988 4.61419,-14.3119 0.002,-1.52516 -19.61253,-37.95141 -21.57003,-40.05751 -0.54523,-0.58663 -3.88571,-0.29415 -8.3635,0.73227 -4.10062,0.93994 -7.63813,1.51843 -7.86111,1.28548 -0.57118,-0.59663 -4.22593,-16.76347 -4.23562,-18.73628 -0.003,-0.9563 5.81509,-5.2577 14.10048,-10.42163 l 14.10849,-8.79323 21.52346,1.60454 21.52347,1.60451 17.44652,18.82979 17.44649,18.82978 2.88451,17.30093 c 1.58649,9.51553 3.12313,18.35953 3.41475,19.65336 0.47469,2.10602 -1.06415,3.18505 -14.69143,10.30162 -13.04462,6.81232 -16.24826,8.05288 -22.39934,8.67397 -7.4168,0.74889 -37.5854,5.66946 -40.75884,6.64788 -0.98692,0.30427 -1.79441,0.32668 -1.79441,0.05 z"
       style="opacity:1;fill:#d4aa00;fill-opacity:1;stroke:#d4aa00;stroke-width:1;stroke-opacity:1" />
    <path
       inkscape:connector-curvature="0"
       id="path892-09"
       d="m -272.83736,196.53398 c -11.07511,-17.5729 -20.03341,-35.62645 -23.61316,-47.58718 l -2.66431,-8.90199 8.33018,-1.51904 8.33017,-1.51905 16.65339,23.00964 c 9.15939,12.65533 16.63443,23.77214 16.61123,24.70402 -0.088,3.53687 -11.17389,26.29288 -12.80886,26.29288 -0.94231,0 -5.81969,-6.51569 -10.83864,-14.47928 z"
       style="opacity:1;fill:#aa8800;fill-opacity:1;stroke:#aa8800;stroke-width:1;stroke-opacity:1" />
    <path
       inkscape:connector-curvature="0"
       id="path878-6-5"
       d="m -349.09496,406.26494 c 0.37764,-0.048 8.97536,0.95001 19.10655,2.21933 10.13133,1.2693 19.41544,2.18053 20.63168,2.02483 2.07931,-0.26626 46.95295,-25.98225 49.34695,-28.27966 0.66567,-0.64052 -0.54548,-3.87689 -3.03509,-8.10429 -2.27989,-3.87139 -3.92993,-7.25199 -3.66684,-7.51243 0.67439,-0.66716 21.82016,-7.1087 24.50697,-7.46526 1.30267,-0.17114 8.58282,4.79959 17.63932,12.04754 l 15.42183,12.34184 3.05504,21.47008 3.055,21.47013 -21.41677,20.4866 -21.41682,20.48653 -22.87947,5.8827 c -12.58381,3.23546 -24.26437,6.30381 -25.95687,6.81843 -2.75491,0.83784 -4.60048,-0.48753 -17.61973,-12.65027 -12.46249,-11.64302 -14.93393,-14.57841 -17.27853,-20.52435 -2.82715,-7.16944 -16.88186,-36.00222 -18.98832,-38.95403 -0.65516,-0.91801 -0.8824,-1.70902 -0.50506,-1.75769 z"
       style="opacity:1;fill:#d4aa00;fill-opacity:1;stroke:#d4aa00;stroke-width:1;stroke-opacity:1" />
    <path
       inkscape:connector-curvature="0"
       id="path892-09-5"
       d="m -327.25685,399.27163 c 24.3635,-13.99343 50.06899,-25.98761 67.75673,-31.61543 l 13.1644,-4.18855 4.69865,7.93309 4.69883,7.93315 -31.30051,20.44102 c -17.21521,11.24261 -32.49696,20.55648 -33.95942,20.6976 -5.55035,0.53549 -44.19845,-6.37489 -44.65492,-7.98433 -0.26303,-0.92763 8.55528,-6.87506 19.59617,-13.21649 z"
       style="opacity:1;fill:#aa8800;fill-opacity:1;stroke:#aa8800;stroke-width:1;stroke-opacity:1" />
    <path
       inkscape:connector-curvature="0"
       id="path878-6-5-4"
       d="m -506.33758,324.42185 c 0.13823,0.26184 1.64408,7.22369 3.34353,15.47341 1.69962,8.24979 3.45689,15.68729 3.90546,16.52779 0.76693,1.43704 33.16654,22.73928 35.62961,23.42572 0.68614,0.19052 2.93122,-2.29598 5.62124,-6.22717 2.46345,-3.60004 4.70552,-6.48713 4.98283,-6.41508 0.70974,0.18359 11.47203,12.98207 12.47291,14.83285 0.48397,0.89813 -1.51605,8.79983 -4.84887,19.14693 l -5.67483,17.61945 -16.22396,12.74129 -16.22409,12.74117 -21.98187,-6.17327 -21.98183,-6.17334 -10.78208,-14.37628 c -5.93013,-7.90697 -11.48626,-15.21487 -12.34688,-16.23965 -1.40114,-1.66796 -0.84226,-3.70293 5.33247,-19.42522 5.91088,-15.05023 7.58032,-18.33944 11.67299,-22.99698 4.93473,-5.616 24.06339,-30.22399 25.84338,-33.24627 0.55342,-0.9401 1.12064,-1.4957 1.26002,-1.2352 z"
       style="opacity:1;fill:#d4aa00;fill-opacity:1;stroke:#d4aa00;stroke-width:1;stroke-opacity:1" />
    <path
       inkscape:connector-curvature="0"
       id="path892-09-5-2"
       d="m -491.2679,336.42063 c 14.95448,10.36434 28.774,22.81559 36.42677,32.81979 l 5.69567,7.4459 -4.63397,7.81666 -4.63352,7.81767 -20.95431,-11.96742 c -11.52487,-6.58203 -21.28437,-12.78926 -21.68786,-13.79394 -1.53134,-3.81268 -4.6712,-36.18341 -3.62795,-37.40183 0.60133,-0.70213 6.63813,2.56623 13.41508,7.2631 z"
       style="opacity:1;fill:#aa8800;fill-opacity:1;stroke:#aa8800;stroke-width:0.99999994;stroke-opacity:1" />
    <path
       inkscape:connector-curvature="0"
       id="path878-6-5-8"
       d="m -512.75984,187.70844 c 0.1712,-0.02 4.06923,0.39525 8.66252,0.92334 4.59335,0.5281 8.80258,0.90721 9.354,0.84243 0.94272,-0.11078 21.28755,-10.80984 22.37294,-11.76567 0.3018,-0.26649 -0.2473,-1.61297 -1.37605,-3.37177 -1.03366,-1.61068 -1.78175,-3.01717 -1.66247,-3.12552 0.30576,-0.27758 9.89283,-2.95756 11.11098,-3.1059 0.5906,-0.0712 3.89128,1.99685 7.99732,5.01234 l 6.99196,5.13479 1.38509,8.93257 1.38507,8.93258 -9.70994,8.52339 -9.70996,8.52336 -10.37311,2.44749 c -5.70525,1.3461 -11.00098,2.62268 -11.76833,2.83679 -1.24903,0.34857 -2.08578,-0.20284 -7.98844,-5.26312 -5.65025,-4.84404 -6.77076,-6.0653 -7.83374,-8.53909 -1.28179,-2.98283 -7.65391,-14.97862 -8.60894,-16.20671 -0.29703,-0.38194 -0.40007,-0.71104 -0.22899,-0.73129 z"
       style="opacity:1;fill:#d4aa00;fill-opacity:1;stroke:#d4aa00;stroke-width:1.00000012;stroke-opacity:1" />
    <path
       inkscape:connector-curvature="0"
       id="path892-09-5-4"
       d="m -503.54773,184.79889 c 9.63676,-5.82192 19.80432,-10.81207 26.80054,-13.15351 l 5.20706,-1.74263 1.85851,3.30053 1.85858,3.30057 -12.38062,8.50443 c -6.80933,4.67745 -12.85387,8.55247 -13.43233,8.61118 -2.1954,0.22279 -17.48229,-2.65226 -17.66285,-3.32186 -0.10404,-0.38594 3.38397,-2.86035 7.75108,-5.49869 z"
       style="opacity:1;fill:#aa8800;fill-opacity:1;stroke:#aa8800;stroke-width:1.00000012;stroke-opacity:1" />
  </g>
</svg>
