<?xml version="1.0" encoding="UTF-8" standalone="no"?>
<svg
   xmlns:dc="http://purl.org/dc/elements/1.1/"
   xmlns:cc="http://creativecommons.org/ns#"
   xmlns:rdf="http://www.w3.org/1999/02/22-rdf-syntax-ns#"
   xmlns:svg="http://www.w3.org/2000/svg"
   xmlns="http://www.w3.org/2000/svg"
   xmlns:sodipodi="http://sodipodi.sourceforge.net/DTD/sodipodi-0.dtd"
   xmlns:inkscape="http://www.inkscape.org/namespaces/inkscape"
   height="500"
   version="1.1"
   width="500"
   id="svg122"
   sodipodi:docname="Samoa.svg"
   inkscape:version="0.92.5 (2060ec1f9f, 2020-04-08)">
  <metadata
     id="metadata128">
    <rdf:RDF>
      <cc:Work
         rdf:about="">
        <dc:format>image/svg+xml</dc:format>
        <dc:type
           rdf:resource="http://purl.org/dc/dcmitype/StillImage" />
      </cc:Work>
    </rdf:RDF>
  </metadata>
  <defs
     id="defs126" />
  <sodipodi:namedview
     pagecolor="#ffffff"
     bordercolor="#666666"
     borderopacity="1"
     objecttolerance="10"
     gridtolerance="10"
     guidetolerance="10"
     inkscape:pageopacity="0"
     inkscape:pageshadow="2"
     inkscape:window-width="2400"
     inkscape:window-height="1256"
     id="namedview124"
     showgrid="false"
     inkscape:zoom="0.944"
     inkscape:cx="-102.71137"
     inkscape:cy="310.1782"
     inkscape:window-x="-11"
     inkscape:window-y="-11"
     inkscape:window-maximized="1"
     inkscape:current-layer="svg122" />
  <g
     id="g871"
     transform="translate(18.85233,-8.27202)">
    <path
       inkscape:connector-curvature="0"
       id="path945"
       d=""
       style="opacity:1;fill:#ffcc00;fill-opacity:1;stroke:#ffcc00;stroke-width:1;stroke-opacity:1" />
    <g
       id="crunch"
       inkscape:label="#g939">
      <path
         style="opacity:1;fill:#d4aa00;fill-opacity:1;stroke:#d4aa00;stroke-width:0.99999994;stroke-opacity:1"
         d="m 327.31276,165.02748 c 0,-0.27688 1.21562,-6.21392 2.70139,-13.19343 1.48575,-6.97954 2.70198,-13.41988 2.70271,-14.3119 10e-4,-1.52516 -11.48784,-37.951406 -12.63442,-40.057506 -0.31937,-0.58663 -2.27602,-0.29415 -4.89884,0.73227 -2.40189,0.93994 -4.47395,1.51843 -4.60456,1.28548 -0.33457,-0.59663 -2.4753,-16.76347 -2.48097,-18.73628 -0.002,-0.9563 3.40613,-5.2577 8.25921,-10.42163 l 8.2639,-8.79323 12.60715,1.60454 12.60715,1.60451 10.21912,18.82979 10.2191,18.829776 1.68957,17.30093 c 0.92927,9.51553 1.82935,18.35953 2.00016,19.65336 0.27804,2.10602 -0.62332,3.18505 -8.60536,10.30162 -7.64075,6.81232 -9.51725,8.05288 -13.12018,8.67397 -4.34431,0.74889 -22.01526,5.66946 -23.87407,6.64788 -0.57808,0.30427 -1.05106,0.32668 -1.05106,0.05 z"
         id="path878-6"
         inkscape:connector-curvature="0" />
      <path
         style="opacity:1;fill:#aa8800;fill-opacity:1;stroke:#aa8800;stroke-width:0.99999994;stroke-opacity:1"
         d="m 324.79224,149.3518 c -6.48713,-17.5729 -11.73436,-35.62645 -13.83117,-47.58718 l -1.56059,-8.901986 4.87932,-1.51904 4.87931,-1.51905 9.75455,23.009636 c 5.36502,12.65533 9.74345,23.77214 9.72986,24.70402 -0.0515,3.53687 -6.54499,26.29288 -7.50266,26.29288 -0.55195,0 -3.40882,-6.51569 -6.34862,-14.47928 z"
         id="path892-09"
         inkscape:connector-curvature="0" />
      <path
         style="opacity:1;fill:#d4aa00;fill-opacity:1;stroke:#d4aa00;stroke-width:1;stroke-opacity:1"
         d="m 312.18246,359.08276 c 0.24361,-0.048 5.78978,0.95001 12.32514,2.21933 6.53546,1.2693 12.5244,2.18053 13.30897,2.02483 1.3413,-0.26626 30.28813,-25.98225 31.83243,-28.27966 0.42941,-0.64052 -0.35187,-3.87689 -1.95785,-8.10429 -1.4707,-3.87139 -2.5351,-7.25199 -2.36539,-7.51243 0.43503,-0.66716 14.07562,-7.1087 15.80881,-7.46526 0.84032,-0.17114 5.53656,4.79959 11.37867,12.04754 l 9.94823,12.34184 1.97072,21.47008 1.9707,21.47013 -13.8154,20.4866 -13.81543,20.48653 -14.75896,5.8827 c -8.11749,3.23546 -15.65231,6.30381 -16.7441,6.81843 -1.77712,0.83784 -2.96765,-0.48753 -11.36603,-12.65027 -8.03923,-11.64302 -9.63349,-14.57841 -11.14594,-20.52435 -1.82372,-7.16944 -10.89005,-36.00222 -12.24887,-38.95403 -0.42263,-0.91801 -0.56921,-1.70902 -0.3258,-1.75769 z"
         id="path878-6-5"
         inkscape:connector-curvature="0" />
      <path
         style="opacity:1;fill:#aa8800;fill-opacity:1;stroke:#aa8800;stroke-width:1;stroke-opacity:1"
         d="m 327.43961,352.08945 c 12.15458,-13.99343 24.97866,-25.98761 33.80281,-31.61543 l 6.56752,-4.18855 2.34408,7.93309 2.34418,7.93315 -15.61535,20.44102 c -8.58841,11.24261 -16.21225,20.55648 -16.94185,20.6976 -2.76898,0.53549 -22.04994,-6.37489 -22.27766,-7.98433 -0.13123,-0.92763 4.2681,-6.87506 9.77623,-13.21649 z"
         id="path892-09-5"
         inkscape:connector-curvature="0" />
      <path
         style="opacity:1;fill:#d4aa00;fill-opacity:1;stroke:#d4aa00;stroke-width:1;stroke-opacity:1"
         d="m 82.37818,280.41764 c 0.08403,0.26184 0.999494,7.22369 2.032652,15.47341 1.033262,8.24979 2.101571,15.68729 2.374273,16.52779 0.466245,1.43704 20.163165,22.73928 21.660555,23.42572 0.41713,0.19052 1.78199,-2.29598 3.41736,-6.22717 1.49762,-3.60004 2.86065,-6.48713 3.02924,-6.41508 0.43148,0.18359 6.97427,12.98207 7.58274,14.83285 0.29423,0.89813 -0.92166,8.79983 -2.9478,19.14693 l -3.44994,17.61945 -9.86314,12.74129 -9.863226,12.74117 -13.363589,-6.17327 -13.363561,-6.17334 -6.554823,-14.37628 c -3.605145,-7.90697 -6.982921,-15.21487 -7.506123,-16.23965 -0.851805,-1.66796 -0.512041,-3.70293 3.241805,-19.42522 3.593441,-15.05023 4.608355,-18.33944 7.09644,-22.99698 3.000004,-5.616 14.629021,-30.22399 15.711142,-33.24627 0.336445,-0.9401 0.681279,-1.4957 0.766013,-1.2352 z"
         id="path878-6-5-4"
         inkscape:connector-curvature="0" />
      <path
         style="opacity:1;fill:#aa8800;fill-opacity:1;stroke:#aa8800;stroke-width:0.99999994;stroke-opacity:1"
         d="m 93.471595,289.23845 c 9.091375,10.36434 17.492775,22.81559 22.145175,32.81979 l 3.46261,7.4459 -2.81716,7.81666 -2.81689,7.81767 -12.7389,-11.96742 C 93.70004,326.58902 87.76688,320.38179 87.521584,319.37711 86.590626,315.56443 84.68179,283.1937 85.31602,281.97528 c 0.36557,-0.70213 4.035563,2.56623 8.155521,7.2631 z"
         id="path892-09-5-2"
         inkscape:connector-curvature="0" />
      <path
         style="opacity:1;fill:#d4aa00;fill-opacity:1;stroke:#d4aa00;stroke-width:1.00000012;stroke-opacity:1"
         d="m 96.651005,147.64869 c 0.113778,-0.0154 2.70437,0.30389 5.757025,0.7099 3.0527,0.40603 5.85011,0.6975 6.21658,0.6477 0.62652,-0.0852 14.14749,-8.31106 14.86883,-9.04594 0.20057,-0.20489 -0.16435,-1.24012 -0.91451,-2.59236 -0.68696,-1.23836 -1.18413,-2.31973 -1.10486,-2.40303 0.20321,-0.21342 6.57468,-2.2739 7.38425,-2.38795 0.39251,-0.0547 2.58611,1.53526 5.31494,3.8537 l 4.64679,3.94784 0.92051,6.86774 0.92051,6.86774 -6.45313,6.55314 -6.45315,6.55312 -6.89386,1.88173 c -3.79166,1.03494 -7.31115,2.01643 -7.82112,2.18105 -0.83009,0.26799 -1.38619,-0.15596 -5.30904,-4.04651 -3.7551,-3.7243 -4.49978,-4.66326 -5.20622,-6.56521 -0.85187,-2.29333 -5.086717,-11.5162 -5.72142,-12.46041 -0.197403,-0.29365 -0.265883,-0.54667 -0.152185,-0.56224 z"
         id="path878-6-5-8"
         inkscape:connector-curvature="0" />
      <path
         style="opacity:1;fill:#aa8800;fill-opacity:1;stroke:#aa8800;stroke-width:1.00000012;stroke-opacity:1"
         d="m 102.77328,145.41171 c 6.4045,-4.47614 13.16176,-8.31278 17.81138,-10.11298 l 3.46056,-1.3398 1.23514,2.53758 1.2352,2.53762 -8.22804,6.53856 c -4.52541,3.59622 -8.54255,6.5755 -8.92699,6.62064 -1.45904,0.17129 -11.61856,-2.03917 -11.738559,-2.55398 -0.06914,-0.29673 2.248953,-2.19916 5.151289,-4.22763 z"
         id="path892-09-5-4"
         inkscape:connector-curvature="0" />
      <path
         style="opacity:1;fill:#d4aa00;fill-opacity:1;stroke:#d4aa00;stroke-width:1.00000012;stroke-opacity:1"
         d="m 194.18777,419.94137 c 0.11378,-0.0154 2.70437,0.30389 5.75702,0.7099 3.0527,0.40603 5.85011,0.6975 6.21658,0.6477 0.62652,-0.0852 14.14749,-8.31106 14.86883,-9.04594 0.20057,-0.20489 -0.16435,-1.24012 -0.91451,-2.59236 -0.68696,-1.23836 -1.18413,-2.31973 -1.10486,-2.40303 0.20321,-0.21342 6.57468,-2.2739 7.38425,-2.38795 0.39251,-0.0547 2.58611,1.53526 5.31494,3.8537 l 4.64679,3.94784 0.92051,6.86774 0.92051,6.86774 -6.45313,6.55314 -6.45315,6.55312 -6.89386,1.88173 c -3.79166,1.03494 -7.31115,2.01643 -7.82112,2.18105 -0.83009,0.26799 -1.38619,-0.15596 -5.30904,-4.04651 -3.7551,-3.7243 -4.49978,-4.66326 -5.20622,-6.56521 -0.85187,-2.29333 -5.08671,-11.5162 -5.72142,-12.46041 -0.1974,-0.29365 -0.26588,-0.54667 -0.15218,-0.56224 z"
         id="path878-6-5-8-0"
         inkscape:connector-curvature="0" />
      <path
         style="opacity:1;fill:#aa8800;fill-opacity:1;stroke:#aa8800;stroke-width:1.00000012;stroke-opacity:1"
         d="m 200.31004,417.70439 c 6.4045,-4.47614 13.16176,-8.31278 17.81138,-10.11298 l 3.46056,-1.3398 1.23514,2.53758 1.2352,2.53762 -8.22804,6.53856 c -4.52541,3.59622 -8.54255,6.5755 -8.92699,6.62064 -1.45904,0.17129 -11.61856,-2.03917 -11.73856,-2.55398 -0.0691,-0.29673 2.24896,-2.19916 5.15129,-4.22763 z"
         id="path892-09-5-4-4"
         inkscape:connector-curvature="0" />
      <path
         style="opacity:1;fill:#d4aa00;fill-opacity:1;stroke:#d4aa00;stroke-width:1.00000012;stroke-opacity:1"
         d="m 276.74834,110.99046 c 8.2e-4,0.11488 -0.67602,2.63609 -1.50154,5.60288 -0.82552,2.9669 -1.50213,5.69688 -1.50368,6.06668 -0.002,0.63226 6.26847,15.1635 6.89622,15.97979 0.17504,0.22709 1.25094,0.009 2.69414,-0.54617 1.32168,-0.50859 2.46152,-0.851 2.53305,-0.76092 0.18291,0.23104 1.34002,6.8265 1.34067,7.64413 -1.1e-4,0.39625 -1.87912,2.3481 -4.55358,4.72906 l -4.55415,4.05435 -6.92903,-0.0409 -6.92902,-0.0409 -5.59481,-7.29971 -5.59477,-7.29964 -0.90736,-7.08817 c -0.49905,-3.89859 -0.98292,-7.52019 -1.07518,-8.04805 -0.15038,-0.85924 0.34684,-1.35117 4.74372,-4.69653 4.2091,-3.20228 5.24228,-3.80946 7.22377,-4.24533 2.38936,-0.52557 12.11042,-3.44034 13.13357,-3.93791 0.31854,-0.1541 0.57824,-0.18747 0.57783,-0.0732 z"
         id="path878-6-5-8-8"
         inkscape:connector-curvature="0" />
      <path
         style="opacity:1;fill:#aa8800;fill-opacity:1;stroke:#aa8800;stroke-width:1.00000012;stroke-opacity:1"
         d="m 278.11455,117.36385 c 3.54453,6.96343 6.4069,14.18754 7.54483,19.04185 l 0.84726,3.61289 -2.68437,0.87123 -2.6844,0.87125 -5.33417,-9.0554 c -2.93385,-4.9804 -5.32711,-9.37195 -5.31849,-9.75896 0.0325,-1.46873 3.63093,-11.22345 4.15744,-11.27084 0.30332,-0.0283 1.86598,2.53223 3.47227,5.68786 z"
         id="path892-09-5-4-9"
         inkscape:connector-curvature="0" />
      <path
         style="opacity:1;fill:#d4aa00;fill-opacity:1;stroke:#d4aa00;stroke-width:1.00000012;stroke-opacity:1"
         d="m 320.8384,232.78426 c 0.11265,0.0219 2.45858,1.16676 5.2133,2.54334 2.75477,1.37665 5.3054,2.56192 5.66812,2.63398 0.6202,0.12305 16.08118,-3.25897 17.00229,-3.71936 0.25629,-0.12854 0.24792,-1.22615 -0.0218,-2.74884 -0.24694,-1.39445 -0.36546,-2.57872 -0.26341,-2.63172 0.26157,-0.13573 6.95677,-0.0124 7.75945,0.14301 0.38895,0.076 1.94632,2.29276 3.77297,5.37255 l 3.11053,5.2443 -1.36274,6.79383 -1.36272,6.79383 -8.23334,4.09861 -8.23336,4.09858 -7.13108,-0.46223 c -3.92213,-0.25427 -7.56951,-0.47055 -8.1053,-0.48073 -0.87212,-0.0164 -1.26015,-0.59822 -3.70469,-5.55295 -2.33999,-4.74295 -2.73887,-5.87303 -2.78845,-7.90134 -0.0598,-2.4457 -1.06551,-12.54441 -1.35868,-13.6437 -0.0912,-0.34186 -0.0736,-0.6034 0.0384,-0.58119 z"
         id="path878-6-5-8-09"
         inkscape:connector-curvature="0" />
      <path
         style="opacity:1;fill:#aa8800;fill-opacity:1;stroke:#aa8800;stroke-width:1.00000012;stroke-opacity:1"
         d="m 327.35536,232.65967 c 7.51197,-2.15031 15.14958,-3.58115 20.1319,-3.77157 l 3.70815,-0.14172 0.34286,2.80132 0.3429,2.80135 -9.90705,3.50766 c -5.44887,1.92925 -10.21648,3.44034 -10.59471,3.35803 -1.43548,-0.31238 -10.32405,-5.70642 -10.27013,-6.23228 0.0302,-0.30314 2.84186,-1.34832 6.24606,-2.32279 z"
         id="path892-09-5-4-1"
         inkscape:connector-curvature="0" />
      <path
         style="opacity:1;fill:#d4aa00;fill-opacity:1;stroke:#d4aa00;stroke-width:1.00000012;stroke-opacity:1"
         d="m 129.96259,225.62914 c 0.0702,0.0907 1.07937,2.49817 2.24308,5.34934 1.1637,2.85128 2.3001,5.42405 2.52533,5.71737 0.38517,0.50142 14.23993,8.15163 15.23604,8.41273 0.27748,0.0723 0.9948,-0.7585 1.7958,-2.08129 0.73364,-1.21132 1.42527,-2.1799 1.53698,-2.15247 0.28607,0.0707 5.23895,4.57715 5.74003,5.22322 0.24236,0.3135 -0.0482,3.00706 -0.70512,6.52701 l -1.11865,5.9939 -5.50369,4.20984 -5.50365,4.20984 -8.89279,-2.34637 -8.89275,-2.34634 -5.05709,-5.04892 c -2.78141,-2.777 -5.38126,-5.34427 -5.77739,-5.70514 -0.64497,-0.58731 -0.55314,-1.28061 0.87536,-6.61768 1.36748,-5.10894 1.81265,-6.22161 3.11254,-7.77935 1.56742,-1.87841 7.46911,-10.13461 7.97345,-11.15443 0.15751,-0.31685 0.34244,-0.50226 0.4121,-0.41164 z"
         id="path878-6-5-8-80"
         inkscape:connector-curvature="0" />
      <path
         style="opacity:1;fill:#aa8800;fill-opacity:1;stroke:#aa8800;stroke-width:1.00000012;stroke-opacity:1"
         d="m 134.9448,229.83195 c 7.06587,3.33574 13.75189,7.29523 17.62364,10.43674 l 2.88181,2.3379 -1.58906,2.33233 -1.58908,2.33239 -9.76158,-3.89417 c -5.36895,-2.14169 -9.9499,-4.14873 -10.18002,-4.45998 -0.8734,-1.18128 -4.00052,-11.09709 -3.61325,-11.45694 0.22253,-0.208 3.02571,0.85978 6.22774,2.37139 z"
         id="path892-09-5-4-42"
         inkscape:connector-curvature="0" />
    </g>
  </g>
  <g
     id="cookie"
     inkscape:label="#g963">
    <path
       inkscape:connector-curvature="0"
       id="path935"
       d="M 135.48221,438.42438 97.43812,411.82889 70.802878,384.17104 C 56.15338,368.9592 42.086824,354.45131 39.543351,351.93134 35.671528,348.09475 33.521903,343.81052 26.3268,325.59081 l -8.592587,-21.75876 0.743565,-29.88689 c 0.40885,-16.43788 0.818827,-37.0045 0.910927,-45.70379 0.139279,-13.15696 1.000257,-19.63431 5.119979,-38.52052 4.531134,-20.77209 5.619169,-24.22889 12.787024,-40.62481 4.308878,-9.85667 12.366609,-28.67647 17.905835,-41.82189 L 65.27292,83.373195 80.960448,68.128709 C 89.588556,59.744101 97.82261,52.243047 99.258155,51.459664 100.69373,50.67637 116.29091,44.450213 133.91829,37.624023 c 17.62745,-6.826398 36.40499,-14.108528 41.72762,-16.182746 14.32677,-5.58302 49.83336,-11.6724218 66.43751,-11.393836 7.44275,0.124694 28.06535,0.355991 45.8281,0.513681 l 32.296,0.286834 21.52441,9.366386 21.5242,9.366329 31.77544,33.00793 31.77531,33.007959 25.03922,38.83824 25.03922,38.83831 3.9956,22.59012 3.99552,22.59033 -9.46194,44.75124 -9.46173,44.75149 -11.96587,27.58862 c -6.58125,15.17379 -15.00062,34.28997 -18.70976,42.48058 l -6.74379,14.89199 -16.13164,15.67315 -16.13174,15.67345 -28.41782,11.57624 c -61.89121,25.21221 -47.98355,21.46372 -140.28657,37.81154 -8.26898,1.46447 -10.90002,1.04978 -52.3419,-8.25097 -0.93371,-0.2098 -18.8173,-12.34905 -39.74146,-26.97644 z m 16.44876,-18.15302 c 4.48835,-8.0785 2.95679,-8.17423 21.52605,1.34506 12.09626,6.20152 14.04999,6.85101 32.18525,10.71024 l 19.30716,4.10859 15.97018,-3.07882 15.97017,-3.07886 0.41584,6.54839 c 0.253,3.98653 0.99968,6.52646 1.90827,6.4924 1.42516,-0.0533 25.61947,-4.42083 41.69219,-7.52605 l 7.59091,-1.46658 -1.88768,-6.91555 -1.88755,-6.91564 32.41798,-12.53574 c 31.58314,-12.21309 32.79556,-12.80155 47.07514,-22.84806 8.06135,-5.67174 14.77094,-10.34563 14.91032,-10.38639 0.13947,-0.0423 3.64721,2.83486 7.79524,6.39066 6.88934,5.90571 7.61789,6.32915 8.42079,4.89362 1.21132,-2.16799 18.25298,-41.86234 19.79479,-46.10996 l 1.24998,-3.44218 -7.53616,-4.18696 -7.53604,-4.18689 3.57984,-12.9662 c 1.96954,-7.13126 6.65188,-27.01011 10.4064,-44.17477 3.75474,-17.16475 7.42098,-33.85754 8.14766,-37.09505 l 1.32071,-5.88641 5.83944,-0.31766 c 3.21163,-0.17479 6.01426,-0.90839 6.2278,-1.6301 0.46806,-1.58056 -8.32534,-50.82629 -9.15823,-51.28898 -0.32147,-0.17729 -2.99248,0.33311 -5.9369,1.13665 l -5.35354,1.4608 -6.67406,-14.27197 c -3.67075,-7.84961 -11.37598,-21.58803 -17.12274,-30.52971 L 402.14152,116.26178 387.27419,104.77753 C 377.19485,96.992007 368.72215,89.412141 360.96563,81.24157 l -11.44123,-12.051912 3.49284,-6.286982 c 2.98065,-5.365433 3.23812,-6.415182 1.75263,-7.163645 -0.95834,-0.479839 -11.9091,-5.253542 -24.33733,-10.603245 l -22.59701,-9.72636 -1.27382,2.41993 c -0.70217,1.330166 -1.82615,4.117688 -2.50154,6.192589 l -1.22897,3.772198 -16.95284,0.181612 c -11.79957,0.126403 -22.67934,-0.748462 -35.79088,-2.880741 l -18.83797,-3.062414 -18.92612,3.461049 -18.92614,3.461183 -16.4936,9.435783 c -10.51587,6.015967 -22.03093,11.454835 -31.7722,15.007025 -8.40321,3.064255 -15.75229,5.748086 -16.33127,5.964232 -0.57899,0.216147 -3.49118,-2.668843 -6.47168,-6.411097 -3.81554,-4.790918 -5.72805,-6.519437 -6.46381,-5.841751 -9.30015,8.566488 -36.836076,35.892606 -36.806533,36.526206 0.02198,0.47008 2.97775,3.21345 6.568715,6.09682 l 6.529012,5.24241 -5.387011,13.71606 c -5.390234,13.7239 -11.785092,25.84422 -20.637172,39.11299 l -4.715008,7.06715 -7.276721,-2.49461 -7.276692,-2.49461 -1.150913,5.30811 c -7.90213,36.45298 -9.863359,45.87237 -9.682506,46.50526 0.116449,0.40996 3.346956,1.03078 7.177636,1.37953 3.830531,0.34808 7.520907,0.94321 8.200782,1.32095 2.442902,1.35769 5.172308,30.17665 4.438591,46.87072 l -0.730896,16.63387 -7.275013,2.13833 c -4.443923,1.30614 -7.096567,2.66951 -6.816466,3.50356 2.198493,6.54635 18.848923,47.55916 19.439129,47.88195 0.418934,0.23172 3.630281,-1.13389 7.133953,-3.03015 3.503523,-1.89639 6.945198,-3.13138 7.648125,-2.74457 0.702392,0.38777 5.762603,5.19685 11.243857,10.68894 11.668643,11.69154 29.467861,35.63373 28.155841,37.87325 -0.47639,0.81246 -3.05241,3.9798 -5.72536,7.03821 -2.67291,3.05849 -4.81461,5.66097 -4.75913,5.78327 0.23437,0.51745 36.22304,25.39935 39.93268,27.60857 l 4.06445,2.42052 z"
       style="opacity:1;fill:#d4aa00;fill-opacity:1;stroke:#d4aa00;stroke-width:0.99999994;stroke-opacity:1" />
    <path
       inkscape:connector-curvature="0"
       id="path937"
       d="m 182.43572,330.12668 c -7.5554,-5.25355 -8.75129,-6.45605 -14.63548,-14.71783 -3.52426,-4.94841 -9.91772,-12.53829 -14.2077,-16.8666 -7.42566,-7.49181 -7.98677,-8.33473 -11.69388,-17.56796 -3.69542,-9.20422 -3.87703,-10.26961 -3.56307,-20.90073 0.18245,-6.16103 -0.31101,-15.94762 -1.09551,-21.74793 -1.26237,-9.33405 -1.17472,-11.72354 0.7631,-20.7954 2.13627,-10.0039 2.33248,-10.47995 8.17368,-19.8629 4.23227,-6.79816 7.13124,-12.5297 9.89922,-19.57189 l 3.91394,-9.95858 7.62713,-7.32651 c 4.19486,-4.02961 8.70558,-7.70825 10.02359,-8.17486 14.13564,-5.00337 19.53196,-7.34349 27.57191,-11.95656 8.00738,-4.59431 10.86582,-5.6589 19.4192,-7.2322 10.29161,-1.89326 12.68575,-1.87374 24.99042,0.20297 3.92398,0.66237 11.19178,1.19124 16.15068,1.17665 l 9.01617,-0.0275 13.36311,5.80206 13.36304,5.80193 5.55524,6.10534 c 3.05537,3.35798 9.68611,9.31117 14.73485,13.22929 8.59309,6.66882 9.55078,7.70727 14.99243,16.25823 5.94653,9.34424 12.44328,22.39658 11.76005,23.62653 -0.20644,0.37917 0.47364,5.2543 1.51837,10.83757 4.08404,21.82588 4.09756,19.10341 -0.19394,39.09837 -5.67466,26.44019 -8.92425,38.03771 -13.80959,49.28537 l -4.30373,9.90874 -9.22776,6.25903 c -7.54102,5.11492 -12.82899,7.66432 -28.92648,13.94639 -18.04673,7.04266 -21.48269,8.01266 -40.97575,11.56698 l -21.27698,3.87975 -11.06723,-2.5218 C 207.37492,344.9398 196.20496,339.70071 182.436,330.12654 Z m 43.53782,-1.28585 c 8.32109,1.77405 9.21961,1.7307 25.83774,-1.26777 14.40587,-2.59873 19.80038,-4.13193 33.03998,-9.39042 11.11187,-4.41337 18.15316,-7.87014 23.64809,-11.60977 l 7.82495,-5.32515 3.7795,-8.89449 c 3.96917,-9.34343 6.63546,-19.07978 12.02901,-43.93767 3.16012,-14.56585 3.21365,-15.32456 1.68802,-23.97522 -1.83195,-10.38432 -6.38289,-20.98852 -13.9503,-32.50617 -4.48379,-6.82429 -6.38679,-8.9032 -11.89701,-12.99697 -3.60766,-2.68028 -9.34238,-7.83556 -12.74372,-11.45625 -6.10217,-6.49511 -6.30079,-6.63223 -14.89186,-10.28708 -7.91075,-3.36503 -9.39781,-3.68915 -16.25744,-3.53343 -4.15258,0.0939 -11.84232,-0.4905 -17.0884,-1.29891 -13.156,-2.02728 -23.20348,-0.306 -34.00896,5.82653 -4.30861,2.44509 -11.56723,5.7574 -16.13033,7.36058 -7.29719,2.56376 -9.06613,3.63801 -14.68653,8.91927 l -6.39006,6.00443 -4.20722,9.81569 c -2.31376,5.39872 -6.05462,12.60931 -8.31223,16.02386 -3.66347,5.54089 -4.30731,7.17132 -5.98874,15.16586 -1.53023,7.27578 -1.65601,10.73677 -0.66706,18.43449 0.6692,5.21222 1.02906,13.04739 0.79985,17.41164 -0.36374,6.92576 0.019,9.00556 3.009,16.35552 3.0375,7.46593 4.16941,9.16404 9.98247,14.97573 3.60596,3.60519 8.63673,9.60731 11.17924,13.33777 5.57137,8.17469 12.26845,13.33495 26.43535,20.36927 7.04852,3.49938 11.46591,5.0929 17.96719,6.47921 z"
       style="opacity:1;fill:#d4aa00;fill-opacity:1;stroke:#d4aa00;stroke-width:0.99999994;stroke-opacity:1" />
    <path
       inkscape:connector-curvature="0"
       id="path939"
       d="m 123.13841,408.84287 c -8.77843,-6.13925 -16.09052,-11.61699 -16.24932,-12.17248 -0.1587,-0.55568 1.81904,-3.3736 4.39412,-6.26254 3.79321,-4.25489 4.52512,-5.92848 3.85439,-8.81334 -1.07175,-4.60937 -20.925813,-29.88411 -31.316905,-39.86702 l -8.064281,-7.74768 -7.533875,2.75756 -7.533681,2.75752 -8.141147,-20.31717 c -4.477566,-11.17424 -8.583683,-21.64179 -9.124546,-23.26106 -0.849795,-2.54355 -0.0045,-3.24039 6.216249,-5.12332 l 7.199871,-2.17919 0.265946,-14.83919 c 0.325374,-18.1832 -1.201994,-39.53449 -3.297079,-46.08657 -1.520312,-4.75431 -1.741239,-4.90376 -8.601195,-5.82029 -3.87258,-0.5159 -7.141899,-1.32583 -7.265715,-1.79598 -0.12343,-0.47054 2.006487,-11.3607 4.733248,-24.20054 5.534815,-26.06288 4.097517,-24.2301 16.193457,-20.63695 l 4.444205,1.32053 14.310192,-27.5076 c 7.870686,-15.12922 14.650108,-29.14721 15.065596,-31.15084 0.549241,-2.6476 -0.527199,-4.65011 -3.936643,-7.32734 -8.575869,-6.73421 -8.727104,-6.34564 9.467848,-24.328321 9.105485,-8.999182 17.110715,-16.520838 17.789475,-16.714719 0.67878,-0.193897 3.54548,2.360175 6.37053,5.675661 l 5.13614,6.028265 8.54365,-3.013546 c 15.07127,-5.316045 28.38566,-11.377701 43.58907,-19.844464 12.31941,-6.860709 17.94529,-8.811257 33.19844,-11.509971 15.33188,-2.71272 21.10515,-2.829497 34.95241,-0.70711 9.12284,1.398922 25.23379,2.768806 35.80202,3.045674 l 19.21484,0.503426 2.75274,-6.03743 c 3.18366,-6.98123 1.53168,-7.236887 28.2262,4.364893 21.93923,9.535331 20.75819,8.460524 16.90939,15.388326 l -3.31561,5.967991 12.39761,12.513154 c 6.81875,6.882232 19.02429,17.805003 27.12334,24.272821 16.62708,13.27803 23.41565,22.6177 40.19162,55.29618 l 9.02355,17.5772 4.69203,-1.18348 c 2.58062,-0.65093 5.08256,-0.96652 5.55981,-0.70139 0.98492,0.54913 9.47584,46.8995 8.80997,48.09805 -0.24191,0.42656 -2.95626,0.84603 -6.04042,0.92766 -3.08414,0.0814 -5.73205,1.01256 -5.88428,2.06876 -0.53667,3.71695 -16.56089,74.0508 -19.8042,86.92033 l -3.28281,13.02595 7.28082,4.04521 c 7.14621,3.97053 7.24859,4.13527 5.53362,8.92432 -2.94725,8.23123 -13.64997,32.84889 -16.55178,38.07208 l -2.7427,4.93649 -7.5508,-5.38814 -7.55101,-5.38809 -15.02151,10.30771 c -11.3303,7.77492 -21.54987,12.87286 -41.58963,20.74673 -14.61238,5.74154 -29.32089,11.59364 -32.68531,13.00482 l -6.11725,2.56578 1.89262,6.62449 1.89262,6.62439 -22.48103,4.24713 c -12.36468,2.33597 -23.24738,3.85521 -24.18395,3.37626 -0.93784,-0.47641 -1.72107,-2.29841 -1.74329,-4.04327 -0.11021,-8.633 0.19825,-8.54157 -17.3325,-5.13194 -15.56634,3.02757 -18.15621,2.99878 -33.73001,-0.37536 -11.79824,-2.55556 -21.65445,-5.87899 -32.78782,-11.05535 -8.75488,-4.07117 -16.85123,-7.35788 -17.99124,-7.30455 -1.13996,0.0527 -3.59983,2.84516 -5.46628,6.20468 -3.97765,7.15999 -2.05477,7.86813 -28.10967,-10.35341 z m 80.23264,-44.58869 c 21.37054,7.77134 28.11036,8.26477 51.69044,3.78508 36.28888,-6.89425 71.34959,-19.80185 92.0816,-33.89963 l 10.03658,-6.82478 5.18111,-12.8268 c 6.54735,-16.20952 7.60277,-19.82998 14.6532,-50.26909 6.92191,-29.88178 7.09112,-33.12959 2.99229,-57.14695 -4.72701,-27.69671 -15.82616,-48.13865 -34.49033,-63.52281 -5.6699,-4.67351 -14.01947,-12.23909 -18.55465,-16.81263 -7.53704,-7.60023 -9.60889,-8.90653 -24.09836,-15.193 -16.49764,-7.15768 -19.30312,-7.60597 -62.45105,-9.97424 -13.13448,-0.72108 -26.11951,2.59633 -41.4398,10.58657 -7.58432,3.95549 -18.44684,8.92497 -24.13941,11.04322 -5.69258,2.11825 -13.91881,6.86286 -18.28052,10.54352 -7.53395,6.35752 -8.67054,8.08112 -22.73171,34.46829 -17.8888,33.57054 -20.41151,42.78625 -18.33609,66.98588 0.72424,8.44659 1.38414,21.19274 1.4661,28.32458 0.1933,16.79744 6.02807,30.47228 19.02817,44.59601 5.10441,5.54564 12.90778,14.84066 17.34092,20.65564 11.78812,15.46265 29.46915,27.99662 50.05169,35.48118 z"
       style="opacity:1;fill:#ffd42a;fill-opacity:1;stroke:#ffcc00;stroke-width:1;stroke-opacity:1" />
    <path
       inkscape:connector-curvature="0"
       id="path941"
       d="m 68.000469,365.91222 c -9.151891,-12.28505 -9.505872,-13.06127 -6.670548,-14.62397 1.647054,-0.90768 13.792678,-8.0961 26.990575,-15.97425 13.198004,-7.8782 24.452314,-14.3011 25.009694,-14.2734 0.55765,0.0279 4.69968,4.87413 9.20526,10.76989 l 8.19168,10.7194 -23.80941,21.55083 -23.809354,21.55088 -2.721578,-3.37288 c -1.496784,-1.85505 -7.070559,-9.21102 -12.386319,-16.3465 z"
       style="opacity:1;fill:#aa8800;fill-opacity:1;stroke:#d4aa00;stroke-width:1;stroke-opacity:1" />
    <path
       inkscape:connector-curvature="0"
       id="path941-7"
       d="m 353.92837,125.0736 c -12.28862,-9.14691 -12.8504,-9.78916 -10.58162,-12.09885 1.31816,-1.34131 10.89401,-11.70944 21.28008,-23.039918 10.38667,-11.329963 19.32815,-20.709066 19.86998,-20.842197 0.54211,-0.133086 5.89957,3.32272 11.90558,7.680023 l 10.92063,7.921554 -16.63474,27.470418 -16.63464,27.47042 -3.57403,-2.45145 c -1.96566,-1.34831 -9.41383,-6.79822 -16.55141,-12.1111 z"
       style="opacity:1;fill:#aa8800;fill-opacity:1;stroke:#d4aa00;stroke-width:1;stroke-opacity:1" />
    <path
       inkscape:connector-curvature="0"
       id="path941-4"
       d="m 301.77646,386.93488 c -15.21007,1.8237 -16.05955,1.74449 -16.00375,-1.49264 0.0337,-1.88013 -0.15739,-15.99258 -0.42177,-31.36091 -0.26428,-15.36837 -0.234,-28.32666 0.0676,-28.79621 0.30207,-0.46935 6.56668,-1.65042 13.92251,-2.62404 l 13.37443,-1.77014 6.84189,31.37722 6.84182,31.3772 -4.27993,0.68192 c -2.354,0.37507 -11.50821,1.54856 -20.34273,2.60775 z"
       style="opacity:1;fill:#aa8800;fill-opacity:1;stroke:#d4aa00;stroke-width:1;stroke-opacity:1" />
    <path
       inkscape:connector-curvature="0"
       id="path941-7-5"
       d="m 120.71218,61.819195 c 11.10146,-10.556101 11.82978,-11.000604 13.72052,-8.372429 1.0978,1.526825 9.68811,12.724905 19.08933,24.885142 9.40067,12.160639 17.12413,22.565862 17.16289,23.122742 0.0402,0.55676 -4.27673,5.24918 -9.59096,10.42786 l -9.66155,9.41602 -24.24469,-21.06005 -24.24458,-21.059913 3.02276,-3.105771 c 1.66284,-1.707769 8.29872,-8.122134 14.74684,-14.253497 z"
       style="opacity:1;fill:#aa8800;fill-opacity:1;stroke:#d4aa00;stroke-width:1;stroke-opacity:1" />
    <path
       inkscape:connector-curvature="0"
       id="path941-44"
       d="m 26.970254,228.02767 c 1.024821,-14.72539 1.24191,-15.50445 4.090065,-14.67722 1.654838,0.47872 14.146237,3.67944 27.759934,7.10881 13.613519,3.42944 25.048284,6.55949 25.410776,6.95461 0.36114,0.39658 0.319462,6.56391 -0.09521,13.70713 l -0.753962,12.98797 -28.88642,-1.08101 -28.886331,-1.08104 0.139383,-4.18377 c 0.07682,-2.30122 0.626602,-11.18169 1.221745,-19.7346 z"
       style="opacity:1;fill:#aa8800;fill-opacity:1;stroke:#d4aa00;stroke-width:1;stroke-opacity:1" />
    <path
       inkscape:connector-curvature="0"
       id="path941-7-3"
       d="m 407.41419,275.63525 c -2.95685,-14.65985 -2.95984,-15.48585 -0.0563,-15.56092 1.68658,-0.0428 14.30709,-0.79151 28.04557,-1.66217 13.73867,-0.87001 25.34494,-1.35827 25.7917,-1.08492 0.44626,0.27393 2.04957,6.29438 3.56164,13.38067 l 2.74998,12.88374 -27.50144,7.8805 -27.50127,7.88059 -0.98338,-4.11834 c -0.54054,-2.26501 -2.38835,-11.08507 -4.10562,-19.5999 z"
       style="opacity:1;fill:#aa8800;fill-opacity:1;stroke:#d4aa00;stroke-width:1;stroke-opacity:1" />
    <path
       inkscape:connector-curvature="0"
       id="path941-4-5"
       d="m 210.51453,468.83915 c -11.41114,-9.00004 -11.94168,-9.62878 -9.9949,-11.84299 1.13099,-1.28598 9.32303,-11.23244 18.20498,-22.1027 8.88236,-10.87 16.54357,-19.8647 17.02532,-19.98785 0.48185,-0.12313 5.43536,3.28499 11.00784,7.57402 l 10.13202,7.79787 -13.85219,26.4482 -13.85196,26.44817 -3.31055,-2.41513 c -1.82116,-1.32764 -8.73333,-6.69207 -15.36082,-11.91954 z"
       style="opacity:1;fill:#aa8800;fill-opacity:1;stroke:#d4aa00;stroke-width:1;stroke-opacity:1" />
    <path
       inkscape:connector-curvature="0"
       id="path1011"
       d="m 170.95862,344.67874 c -9.96642,-7.92888 -41.32074,-45.44904 -46.37813,-55.49845 -5.1804,-10.29373 -5.61228,-12.9876 -7.34082,-45.78892 -1.78178,-33.81345 -0.7452,-38.16681 17.33338,-72.78855 19.43852,-37.22592 16.56066,-34.59304 60.16498,-55.04334 23.39968,-10.97442 33.64318,-13.04378 58.29479,-11.77655 30.2413,1.55428 38.01642,3.3229 55.21983,12.5588 12.19371,6.54695 17.14268,10.20591 30.47912,22.53917 18.0478,16.69045 26.27459,27.47156 32.6307,42.76201 5.33891,12.84349 9.89921,36.19377 9.69336,49.63263 -0.20434,13.32175 -11.9251,62.46262 -19.21457,80.55844 l -5.89375,14.63197 -11.60962,7.42551 c -6.38528,4.0842 -14.50838,8.69265 -18.05114,10.24131 l -6.44151,2.81561 -2.07695,-9.86668 -2.07704,-9.86684 8.76195,-5.93981 c 8.76039,-5.93896 8.76256,-5.94202 13.76842,-18.65732 6.14201,-15.60122 15.82946,-55.88163 15.81666,-65.76639 -0.006,-3.9925 -1.2426,-14.02995 -2.74977,-22.30559 -3.75046,-20.59179 -12.93121,-36.54153 -28.83056,-50.08705 -6.21506,-5.29501 -12.75294,-11.38119 -14.52874,-13.52504 -2.17179,-2.62194 -7.84289,-6.07558 -17.32409,-10.55022 -12.19403,-5.75487 -15.72853,-6.71816 -26.20049,-7.14404 -6.65797,-0.27036 -16.20609,-1.10742 -21.21825,-1.8603 -9.77596,-1.46845 -29.27389,2.19832 -36.21563,6.81043 -2.23889,1.48757 -10.57858,5.39667 -18.53239,8.68674 -21.22639,8.7802 -25.04838,12.88527 -39.80435,42.7542 -13.41831,27.1611 -14.45117,31.35265 -12.70814,51.56725 0.65386,7.58334 1.06964,17.07675 0.92398,21.09633 -0.43733,12.05266 5.76244,26.40252 16.64529,38.52991 5.22051,5.81758 12.52327,14.41832 16.22846,19.1129 5.79199,7.33877 8.86473,9.75791 21.91399,17.25286 22.47917,12.91084 33.95363,15.5264 53.42714,12.17888 8.32289,-1.43076 20.46073,-3.90336 26.97295,-5.49459 l 11.84031,-2.89338 0.0674,9.41867 0.0674,9.41857 -11.79516,2.88391 c -32.56495,7.96206 -45.25039,8.12442 -65.98854,0.84498 -14.56323,-5.11193 -24.9933,-10.69143 -35.26997,-18.86743 z"
       style="opacity:1;fill:#d4aa00;fill-opacity:1;stroke:#d4aa00;stroke-width:1;stroke-opacity:1" />
    <path
       inkscape:connector-curvature="0"
       id="path941-7-5-8"
       d="m 253.71075,91.039404 c 13.7682,0.151312 14.52499,0.333979 14.26023,3.438651 -0.15718,1.803113 -0.92065,15.393315 -1.70189,30.200315 -0.78241,14.80666 -1.66943,27.25987 -1.97124,27.67347 -0.30173,0.41395 -6.00143,0.76455 -12.66616,0.77944 l -12.11728,0.0279 -4.05695,-31.01962 -4.05706,-31.019447 3.88535,-0.119867 c 2.13701,-0.06535 10.42835,-0.04783 18.42518,0.03996 z"
       style="opacity:1;fill:#aa8800;fill-opacity:1;stroke:#d4aa00;stroke-width:1;stroke-opacity:1" />
    <path
       inkscape:connector-curvature="0"
       id="path1007-7"
       d="m 31.614388,312.5702 c 3.643657,-6.56091 11.573086,-18.45386 17.6209,-26.42909 10.140682,-13.37223 11.61587,-16.02187 18.964288,-34.06186 20.158795,-49.48909 60.509644,-123.78993 87.117904,-160.416775 12.17849,-16.7639 12.72056,-17.778075 17.64608,-33.010396 2.79493,-8.64325 7.99758,-21.921993 11.5613,-29.508335 l 6.47963,-13.793324 5.9754,3.316377 5.97542,3.316228 -8.96316,15.093056 c -6.08725,10.250314 -10.32898,19.297918 -13.21999,28.198073 -3.92725,12.091303 -5.26165,14.524438 -17.24392,31.449897 -27.90022,39.409609 -64.912173,107.373309 -85.643306,157.262929 -7.393141,17.79168 -10.115239,22.89196 -17.746179,33.25069 -5.736209,7.78672 -11.532098,17.6071 -15.940462,27.00909 -6.894193,14.70356 -6.94456,14.76922 -10.650647,13.83156 -9.053347,-2.29005 -9.093861,-2.61494 -1.933444,-15.50796 z"
       style="opacity:1;fill:#786721;fill-opacity:1;stroke:#786721;stroke-width:1;stroke-opacity:1" />
    <path
       inkscape:connector-curvature="0"
       id="path1009-4"
       d="m 20.870197,330.59477 c -0.578907,-2.85039 0.08554,-2.76862 6.511511,0.80148 l 7.156284,3.97583 8.863844,-18.22292 c 5.644936,-11.60508 11.870111,-22.26266 17.141654,-29.34669 6.771876,-9.10029 9.648506,-14.49401 15.811982,-29.6488 19.285235,-47.41773 60.267488,-122.77946 86.035958,-158.209922 10.76843,-14.806192 11.98521,-17.035197 15.36515,-28.150037 2.49672,-8.211299 6.61206,-17.139587 12.86912,-27.923999 9.09881,-15.68024 9.26964,-15.873364 15.68046,-17.727632 4.3902,-1.269802 7.23308,-1.166749 8.81033,0.319304 2.13935,2.015843 1.83328,2.291374 -3.75988,3.386782 -6.00702,1.176389 -6.22794,1.413583 -16.45003,17.657955 -8.33124,13.239485 -11.10135,18.908358 -14.13852,28.933806 -3.54867,11.714131 -4.58194,13.599695 -17.08349,31.178003 -22.46118,31.58309 -58.53067,99.4401 -79.62918,149.80565 -7.015216,16.74575 -10.702369,23.82128 -16.825845,32.27843 -5.976415,8.25512 -9.517963,14.95837 -14.889095,28.18103 -6.29007,15.48505 -6.851282,17.89075 -5.221398,22.38444 1.004253,2.76916 1.214232,5.19971 0.466702,5.40122 -0.747531,0.20146 -6.919399,-2.3938 -13.715443,-5.76706 -10.139402,-5.03355 -12.472009,-6.7031 -13.000981,-9.30763 z"
       style="opacity:1;fill:#504416;fill-opacity:1;stroke:#504416;stroke-width:1;stroke-opacity:1" />
    <path
       inkscape:connector-curvature="0"
       id="path1007-9"
       d="m 256.88979,430.2775 c 3.80701,-6.85488 12.04669,-19.30618 18.31022,-27.66973 10.50252,-14.02346 12.04376,-16.7919 19.81317,-35.58977 21.31393,-51.56811 63.50528,-129.18234 91.09211,-167.57017 12.62637,-17.57 13.19353,-18.62929 18.46085,-34.47712 2.98899,-8.9926 8.49911,-22.82532 12.24514,-30.73928 l 6.81057,-14.38918 5.9754,3.31632 5.97548,3.31618 -9.34523,15.78077 c -6.34665,10.71733 -10.80547,20.15559 -13.89579,29.41602 -4.19896,12.58016 -5.59343,15.12217 -18.0248,32.85546 -28.94519,41.29072 -67.6421,112.28696 -89.5419,164.28016 -7.80973,18.54222 -10.65797,23.86879 -18.56668,34.72764 -5.94496,8.16263 -11.98915,18.42973 -16.62297,28.23772 -7.24645,15.33877 -7.2993,15.40731 -11.02657,14.50816 -9.10518,-2.19726 -9.14016,-2.53173 -1.65873,-16.0025 z"
       style="opacity:1;fill:#786721;fill-opacity:1;stroke:#786721;stroke-width:1;stroke-opacity:1" />
    <path
       inkscape:connector-curvature="0"
       id="path1009-5"
       d="m 245.8765,448.78664 c -0.54625,-2.90905 0.12195,-2.83397 6.54782,0.73679 l 7.1562,3.97589 9.16211,-18.75942 c 5.83501,-11.94666 12.24167,-22.93167 17.64234,-30.24789 6.93751,-9.39826 9.90413,-14.95414 16.30691,-30.53966 20.03388,-48.76523 62.27974,-126.40158 88.68906,-162.98531 11.03615,-15.28808 12.29022,-17.58459 15.83753,-29.00055 2.62053,-8.43364 6.8801,-17.62201 13.32133,-28.73671 9.36585,-16.16095 9.54038,-16.36073 16.02101,-18.34055 4.43792,-1.35572 7.29983,-1.28694 8.86928,0.2139 2.12859,2.03496 1.81686,2.32093 -3.83043,3.51374 -6.06519,1.2811 -6.29082,1.52664 -16.7952,18.27916 -8.56124,13.65369 -11.42426,19.48965 -14.61234,29.78644 -3.72517,12.03146 -4.78988,13.97406 -17.60706,32.12097 -23.0288,32.6044 -60.23024,102.49895 -82.12833,154.3039 -7.2807,17.22435 -11.08645,24.51098 -17.3618,33.24319 -6.12547,8.52353 -9.77867,15.42775 -15.35848,29.02628 -6.53459,15.92484 -7.13053,18.39368 -5.54642,22.97065 0.97583,2.82029 1.156,5.30459 0.40063,5.52038 -0.75555,0.21588 -6.93825,-2.36023 -13.73946,-5.72416 -10.14729,-5.0192 -12.47468,-6.69787 -12.97409,-9.3559 z"
       style="opacity:1;fill:#504416;fill-opacity:1;stroke:#504416;stroke-width:1;stroke-opacity:1" />
    <path
       inkscape:connector-curvature="0"
       id="path1007-1"
       d="m 362.13649,414.20985 c 2.58008,-4.64602 8.49012,-12.90432 13.13339,-18.35156 7.78594,-9.13364 8.83128,-11.00952 13.43875,-24.1159 12.63954,-35.95455 41.00684,-88.68562 61.24549,-113.84724 9.26321,-11.51636 9.64241,-12.23718 12.34156,-23.4621 1.53202,-6.36932 4.73081,-16.04231 7.10943,-21.49514 l 4.32452,-9.91436 5.97542,3.31635 5.97543,3.31626 -6.47613,10.61645 c -4.39832,7.21016 -7.22702,13.71442 -8.81616,20.27163 -2.15884,8.90803 -3.10037,10.63316 -12.16036,22.29952 -21.0967,27.1638 -47.14052,75.38464 -60.26332,111.57938 -4.67997,12.9079 -6.58308,16.53333 -12.40417,23.63678 -4.37663,5.33951 -8.55685,12.25164 -11.49679,19.01065 -4.59766,10.57037 -4.63732,10.61471 -8.20379,9.42732 -8.71406,-2.90075 -8.79188,-3.15859 -3.72183,-12.28899 z"
       style="opacity:1;fill:#786721;fill-opacity:1;stroke:#786721;stroke-width:0.99999994;stroke-opacity:1" />
    <path
       inkscape:connector-curvature="0"
       id="path1009-3"
       d="m 354.49215,426.65484 c -0.90257,-2.2674 -0.27516,-2.11953 6.15106,1.45051 l 7.15619,3.97569 5.89928,-12.88696 c 3.75698,-8.20682 8.17424,-15.61032 12.16362,-20.38613 5.12454,-6.13517 7.10573,-9.91716 10.88991,-20.78905 11.84015,-34.01695 40.25488,-86.75723 59.65236,-110.71997 8.10612,-10.01393 8.95062,-11.57321 10.66678,-19.69294 1.26705,-5.99874 3.94643,-12.34179 8.37773,-19.83837 6.44325,-10.90033 6.57723,-11.02708 12.29447,-11.63287 3.91513,-0.41478 6.56892,0.0291 8.22438,1.37432 2.2453,1.82504 1.99637,1.9979 -3.05867,2.12446 -5.42887,0.1359 -5.60381,0.29022 -13.01802,11.48065 -6.04298,9.12044 -7.88995,13.12784 -9.42684,20.4532 -1.79605,8.55922 -2.51413,9.87783 -11.87484,21.80284 -16.81828,21.42578 -41.63082,69.02079 -54.77789,105.0738 -4.37127,11.987 -6.8908,16.95892 -11.49426,22.68268 -4.49389,5.58679 -6.92511,10.29125 -10.22049,19.77793 -3.85954,11.10972 -4.0726,12.88907 -1.98315,16.55558 1.28735,2.25932 1.79386,4.15655 1.12523,4.2159 -0.66848,0.0587 -6.7339,-2.72774 -13.47855,-6.19346 -10.06278,-5.17132 -12.44298,-6.75509 -13.26791,-8.82713 z"
       style="opacity:1;fill:#504416;fill-opacity:1;stroke:#504416;stroke-width:0.99999994;stroke-opacity:1" />
    <path
       inkscape:connector-curvature="0"
       id="path1007-2"
       d="m 251.57972,144.69722 c 1.6236,-2.92519 5.71864,-7.91586 9.09965,-11.09072 5.66896,-5.32338 6.32793,-6.50384 8.47149,-15.17522 5.88068,-23.788041 23.47558,-57.129637 37.98855,-71.984949 6.64258,-6.799231 6.87522,-7.256404 7.5731,-14.879182 0.39682,-4.325353 1.79462,-10.756651 3.10746,-14.291759 l 2.38687,-6.427706 5.97452,3.317806 5.97465,3.317833 -4.2407,6.592457 c -2.87996,4.477185 -4.43867,8.695207 -4.85758,13.146146 -0.56863,6.046788 -1.15656,7.135616 -7.5905,14.074098 -14.9812,16.155757 -31.16521,46.62937 -37.44883,70.513826 -2.24028,8.51777 -3.4072,10.81753 -7.60358,14.99406 -3.15431,3.13948 -5.8822,7.43737 -7.50227,11.82052 -2.53395,6.85457 -2.56139,6.88095 -6.00431,5.46816 -8.40847,-3.45086 -8.52023,-3.64759 -5.32932,-9.39546 z"
       style="opacity:1;fill:#786721;fill-opacity:1;stroke:#786721;stroke-width:1;stroke-opacity:1" />
    <path
       inkscape:connector-curvature="0"
       id="path1009-31"
       d="m 253.3672,140.16511 c -1.22219,-1.69245 -0.63093,-1.47903 5.79494,2.09158 l 7.15623,3.97578 2.97497,-7.62269 c 1.895,-4.85428 4.52798,-9.04806 7.2526,-11.54669 3.49962,-3.2099 4.59734,-5.40182 6.03372,-12.04874 4.49549,-20.796868 20.51221,-51.220768 33.6246,-63.870306 5.47938,-5.286101 5.95705,-6.184865 6.03136,-11.34991 0.055,-3.815675 1.31623,-7.608578 3.94665,-11.862026 3.82337,-6.184776 3.92099,-6.245972 8.95394,-5.62008 3.44645,0.429575 5.91378,1.207745 7.64633,2.414791 2.34976,1.636874 2.1572,1.708438 -2.36676,0.879217 -4.85873,-0.890788 -4.98809,-0.818095 -9.63251,5.38651 -3.78534,5.057061 -4.7217,7.425153 -4.77909,12.086683 -0.0673,5.446949 -0.4749,6.206106 -6.737,12.554002 -11.25133,11.405343 -24.95872,39.011226 -30.26151,60.944759 -1.76291,7.29248 -3.12909,10.18959 -6.23555,13.21612 -3.03132,2.95421 -4.36692,5.68673 -5.61527,11.48757 -1.46121,6.79353 -1.33095,7.95487 1.21145,10.80524 1.56688,1.75664 2.36558,3.12758 1.77502,3.04658 -0.58966,-0.0863 -6.55045,-3.05808 -13.24414,-6.61545 -9.98698,-5.30777 -12.41408,-6.80707 -13.5313,-8.35309 z"
       style="opacity:1;fill:#504416;fill-opacity:1;stroke:#504416;stroke-width:1;stroke-opacity:1" />
    <path
       inkscape:connector-curvature="0"
       id="path1007-75"
       d="m 104.5036,411.4022 c 1.57617,-2.8388 5.58015,-7.66653 8.8979,-10.72775 5.56317,-5.1329 6.20291,-6.27853 8.22312,-14.72804 5.54253,-23.17986 22.59918,-55.55197 36.82584,-69.89209 6.51147,-6.56336 6.73678,-7.00723 7.33437,-14.45007 0.33931,-4.22318 1.64784,-10.49235 2.90748,-13.93163 l 2.29014,-6.25322 5.9745,3.31779 5.97457,3.31784 -4.12874,6.39134 c -2.80412,4.34062 -4.29927,8.44433 -4.65967,12.78984 -0.4893,5.90372 -1.05961,6.96069 -7.36205,13.6629 -14.67543,15.60538 -30.36659,45.19156 -36.30815,68.46052 -2.11962,8.29797 -3.24848,10.53174 -7.36341,14.56198 -3.09328,3.02953 -5.74856,7.19673 -7.30257,11.46108 -2.43114,6.66873 -2.45785,6.69419 -5.89441,5.27028 -8.39319,-3.47841 -8.50664,-3.67201 -5.40969,-9.25077 z"
       style="opacity:1;fill:#786721;fill-opacity:1;stroke:#786721;stroke-width:1;stroke-opacity:1" />
    <path
       inkscape:connector-curvature="0"
       id="path1009-9"
       d="m 99.615715,418.88553 c -1.194299,-1.74263 -0.599979,-1.53499 5.826055,2.03574 l 7.15623,3.97578 3.23061,-8.08177 c 2.05667,-5.14711 4.84651,-9.62027 7.68116,-12.31768 3.64123,-3.46524 4.816,-5.79591 6.45763,-12.81113 5.13634,-21.95012 22.23403,-54.32117 35.89517,-67.95742 5.70861,-5.69867 6.21818,-6.65493 6.43587,-12.07782 0.16154,-4.00606 1.54682,-8.02129 4.33368,-12.55771 4.05192,-6.59605 4.15273,-6.66304 9.24529,-6.14457 3.48742,0.35558 5.97093,1.10535 7.69675,2.32407 2.34066,1.65343 2.14305,1.73384 -2.42714,0.98796 -4.90834,-0.80171 -5.04178,-0.72119 -9.92784,5.91808 -3.98231,5.41154 -4.99803,7.92256 -5.18447,12.81667 -0.2173,5.71844 -0.65283,6.52639 -7.1854,13.36058 -11.73697,12.27965 -26.41334,41.62931 -32.40037,64.79451 -1.99115,7.70207 -3.4581,10.77996 -6.69462,14.04181 -3.15911,3.18397 -4.59018,6.08853 -6.0168,12.21111 -1.67033,7.17006 -1.57074,8.38505 0.93287,11.3069 1.54242,1.80043 2.31561,3.2172 1.71826,3.14857 -0.59679,-0.0726 -6.56645,-3.0293 -13.26487,-6.57816 -9.99349,-5.29618 -12.41694,-6.80215 -13.508391,-8.39437 z"
       style="opacity:1;fill:#504416;fill-opacity:1;stroke:#504416;stroke-width:1;stroke-opacity:1" />
  </g>
</svg>
